<?xml version="1.0" encoding="UTF-8"?>
<!-- Generator: visioncortex VTracer 0.6.12 -->
<svg version="1.1" xmlns="http://www.w3.org/2000/svg" width="418" height="418" viewBox="0 0 418 418">
<path d="M0 0 C1.14 0.01 2.28 0.01 3.46 0.02 C15.76 0.16 27.5 1.42 39.25 5.25 C40.23 5.55 41.21 5.86 42.22 6.17 C56.97 11.23 70.95 20.55 80.29 33.01 C82.81 35.89 84.66 37.08 88.47 37.49 C89.22 37.51 89.97 37.54 90.75 37.56 C94.17 37.89 95.03 38.06 97.75 40.38 C99.56 43.85 100.18 46.32 100.25 50.25 C98.73 54.27 97.84 55.85 94.25 58.25 C92.23 58.34 92.23 58.34 90 58.19 C85.52 58.14 81.97 58.63 78.25 61.25 C76.72 62.79 75.23 64.35 73.75 65.94 C67.78 72.2 60.94 75.55 53.25 79.25 C47.37 82.13 47.37 82.13 46.25 83.25 C49.02 84.24 50.38 84.62 53.25 84.25 C56.08 82.52 58.6 80.51 61.21 78.46 C70.11 72 80.65 68.3 91.5 67.12 C92.26 67.04 93.01 66.96 93.79 66.87 C116.46 64.51 142.2 71 161.29 83.59 C161.93 84.14 162.58 84.68 163.25 85.25 C163.25 85.91 163.25 86.57 163.25 87.25 C163.84 87.49 164.42 87.73 165.02 87.98 C170.12 90.88 173.54 96.5 175.69 101.81 C175.87 102.62 176.06 103.42 176.25 104.25 C176.91 104.25 177.57 104.25 178.25 104.25 C178.25 104.91 178.25 105.57 178.25 106.25 C179.51 106.33 180.77 106.42 182.06 106.5 C184.78 106.86 185.99 107.05 188.19 108.75 C190.36 113.86 190.91 118.44 189 123.69 C187.25 126.25 187.25 126.25 184.25 128.25 C183.61 128.26 183.61 128.26 180.38 128.31 C175.68 128.72 172.63 130.77 168.94 133.5 C156.16 142.93 143.29 145.62 127.62 145.38 C126.53 145.37 125.43 145.36 124.29 145.35 C121.61 145.32 118.93 145.29 116.25 145.25 C116.79 145.87 117.33 146.5 117.89 147.14 C122.98 153.06 126.41 159.05 129.71 166.05 C133.46 173.83 133.46 173.83 136.22 175.29 C136.91 175.48 137.6 175.68 138.31 175.88 C141.78 176.87 142.09 177.01 144.25 180.25 C144.95 185.05 144.92 189.04 142.56 193.31 C139.84 195.59 138.78 196.02 135.25 196.25 C134.55 196.17 133.85 196.1 133.13 196.02 C127.28 195.53 124.38 196.5 119.62 200 C105.5 210.17 87.66 209.65 71.12 207.12 C54.15 204.17 36.96 196.14 25.25 183.25 C25.25 182.59 25.25 181.93 25.25 181.25 C24.59 181.25 23.93 181.25 23.25 181.25 C15.27 172.14 10.81 161.67 7.25 150.25 C6.75 151.16 6.26 152.06 5.75 153 C-5.09 172.54 -19.97 186.51 -41.83 193.19 C-56.37 196.98 -74.49 199.5 -88.18 191.9 C-89.69 191.02 -91.18 190.1 -92.64 189.14 C-95.42 187.96 -96.91 188.35 -99.75 189.25 C-100.74 189.91 -101.73 190.57 -102.75 191.25 C-106.41 191.09 -108.23 190.68 -111.06 188.31 C-113.45 185.39 -113.99 183.72 -113.88 180 C-113.58 177.51 -113.58 177.51 -112.75 175.25 C-110.89 173.96 -110.89 173.96 -108.56 172.81 C-103.22 169.82 -102.15 165.97 -100.5 160.38 C-100.29 159.61 -100.08 158.84 -99.87 158.05 C-98.32 152.44 -96.08 148.02 -92.75 143.25 C-93.44 143.27 -94.13 143.3 -94.84 143.32 C-108.56 143.58 -119.49 139.94 -130.06 130.88 C-133.26 128.19 -134.33 127.31 -138.56 126.69 C-140.51 127.03 -142.45 127.42 -144.38 127.88 C-147.48 128.37 -149.01 127.76 -151.75 126.25 C-154.75 123.25 -155.58 120.47 -155.75 116.25 C-154.75 113.06 -154.75 113.06 -152.75 110.25 C-149.37 108.56 -149.37 108.56 -145.75 107.25 C-140.55 105.14 -139.38 101.77 -137.11 96.94 C-131.32 85.52 -121.53 78.47 -110.39 72.75 C-107.79 71.27 -105.7 69.64 -103.44 67.69 C-93.74 59.9 -80.71 58.16 -68.75 56.25 C-71.99 49.54 -71.99 49.54 -74.59 48.55 C-76.88 48.23 -78.94 48.29 -81.25 48.44 C-84.64 48.49 -85.44 48.49 -88.25 46.38 C-91.01 42.47 -90.93 40.1 -90.29 35.45 C-89.75 33.25 -89.75 33.25 -87.94 30.69 C-84.42 29.1 -82.55 29.17 -78.75 29.31 C-73.08 29.49 -73.08 29.49 -69.94 27.19 C-69.22 26.22 -68.49 25.25 -67.75 24.25 C-66.67 23.06 -65.56 21.9 -64.44 20.75 C-63.93 20.2 -63.41 19.66 -62.89 19.09 C-57.19 14.18 -51.08 11.37 -43.94 9.19 C-42.35 8.68 -40.75 8.18 -39.16 7.67 C-38.4 7.43 -37.64 7.19 -36.86 6.94 C-34.14 6.05 -31.48 5.03 -28.81 4 C-19.37 0.55 -9.99 -0.08 0 0 Z M32.31 83.56 C31.8 83.59 31.8 83.59 29.22 83.74 C25.94 84.3 24.05 85.49 21.25 87.25 C19.82 87.53 18.38 87.78 16.94 88 C13.27 89.13 12.33 90.13 10.21 93.43 C9.19 95.38 8.23 97.35 7.29 99.34 C4.63 104.83 1.35 108.95 -2.96 113.3 C-4.75 115.25 -4.75 115.25 -5.75 118.25 C0.52 122.3 0.52 122.3 3.75 122.06 C4.57 121.79 5.4 121.53 6.25 121.25 C8.58 120.91 10.91 120.57 13.25 120.25 C16.13 125 16.13 125 17.25 127.25 C20.15 126.77 22.7 126.08 25.46 125.06 C37.12 120.77 47.93 120.7 60.25 121.25 C57.52 114.18 53.67 105.53 47.25 101.25 C46.09 101 44.94 100.75 43.75 100.5 C40.25 99.25 40.25 99.25 38.19 96.69 C36.98 92.25 37.35 88.47 39.25 84.25 C40.24 83.92 41.23 83.59 42.25 83.25 C38.91 83.25 35.64 83.35 32.31 83.56 Z " fill="#BDB654" transform="translate(186.75,97.75)"/>
<path d="M0 0 C1.14 0.01 2.28 0.01 3.46 0.02 C15.76 0.16 27.5 1.42 39.25 5.25 C40.23 5.55 41.21 5.86 42.22 6.17 C56.97 11.23 70.95 20.55 80.29 33.01 C82.81 35.89 84.66 37.08 88.47 37.49 C89.22 37.51 89.97 37.54 90.75 37.56 C94.17 37.89 95.03 38.06 97.75 40.38 C99.56 43.85 100.18 46.32 100.25 50.25 C98.73 54.27 97.84 55.85 94.25 58.25 C92.23 58.34 92.23 58.34 90 58.19 C83.83 58.12 80.21 59.44 75.7 63.61 C73.94 65.37 72.2 67.16 70.48 68.97 C67.03 72.49 63.75 73.84 59.12 75.33 C55.61 76.46 52.12 77.64 48.62 78.81 C35.06 83.38 35.06 83.38 28.44 83.81 C23.45 84.15 23.45 84.15 21.25 85.25 C20.92 83.93 20.59 82.61 20.25 81.25 C20.91 81.25 21.57 81.25 22.25 81.25 C21.92 79.27 21.59 77.29 21.25 75.25 C20.7 75.57 20.15 75.89 19.58 76.23 C12.83 79.19 5.06 77.34 -1.69 75.25 C-9.61 72.98 -17.14 72.71 -25.38 72.88 C-26.79 72.9 -28.21 72.92 -29.63 72.94 C-32.42 72.99 -35.2 73.05 -37.99 73.14 C-40.25 73.21 -42.5 73.26 -44.76 73.29 C-71.6 73.67 -108.07 87.43 -127.69 105.75 C-132.68 110.36 -138.21 115.14 -144.75 117.25 C-148.11 115.92 -148.11 115.92 -150.75 114.25 C-151.75 115.25 -151.75 115.25 -152.06 118.06 C-151.75 121.25 -151.75 121.25 -150.1 123.48 C-147.75 125.25 -147.75 125.25 -144.95 125.28 C-143.93 125.11 -142.92 124.93 -141.88 124.75 C-136.15 124.06 -136.15 124.06 -132.19 125.94 C-130.08 127.94 -128.32 129.81 -126.75 132.25 C-128.98 131.22 -130.72 130.27 -132.56 128.62 C-135.7 126.65 -138.11 126.99 -141.75 127.25 C-142.18 127.35 -142.18 127.35 -144.38 127.88 C-147.48 128.37 -149.01 127.76 -151.75 126.25 C-154.75 123.25 -155.58 120.47 -155.75 116.25 C-154.75 113.06 -154.75 113.06 -152.75 110.25 C-149.37 108.56 -149.37 108.56 -145.75 107.25 C-140.55 105.14 -139.38 101.77 -137.11 96.94 C-131.32 85.52 -121.53 78.47 -110.39 72.75 C-107.79 71.27 -105.7 69.64 -103.44 67.69 C-93.74 59.9 -80.71 58.16 -68.75 56.25 C-71.99 49.54 -71.99 49.54 -74.59 48.55 C-76.88 48.23 -78.94 48.29 -81.25 48.44 C-84.64 48.49 -85.44 48.49 -88.25 46.38 C-91.01 42.47 -90.93 40.1 -90.29 35.45 C-89.75 33.25 -89.75 33.25 -87.94 30.69 C-84.42 29.1 -82.55 29.17 -78.75 29.31 C-73.08 29.49 -73.08 29.49 -69.94 27.19 C-69.22 26.22 -68.49 25.25 -67.75 24.25 C-66.67 23.06 -65.56 21.9 -64.44 20.75 C-63.93 20.2 -63.41 19.66 -62.89 19.09 C-57.19 14.18 -51.08 11.37 -43.94 9.19 C-42.35 8.68 -40.75 8.18 -39.16 7.67 C-38.4 7.43 -37.64 7.19 -36.86 6.94 C-34.14 6.05 -31.48 5.03 -28.81 4 C-19.37 0.55 -9.99 -0.08 0 0 Z " fill="#80822C" transform="translate(186.75,97.75)"/>
<path d="M0 0 C2.83 -0.08 5.65 -0.13 8.48 -0.17 C10.52 -0.2 12.55 -0.24 14.59 -0.28 C22.92 -0.29 29.94 0.83 37.83 3.27 C43.48 4.77 50.07 5.55 55.55 3.15 C56.1 2.83 56.65 2.5 57.22 2.17 C58.22 3.17 58.22 3.17 58.4 5.86 C58.2 9.53 57.98 11.93 56.22 15.17 C54.44 15.78 54.44 15.78 52.34 16.17 C48.97 16.8 48.42 16.94 46.03 19.67 C45.04 21.58 44.07 23.49 43.19 25.44 C39.48 33.4 33.96 41.61 26.22 46.17 C24.31 46.03 24.31 46.03 22.15 45.36 C7.24 41.92 -5.99 44.08 -19.78 50.17 C-20.58 50.52 -21.38 50.86 -22.21 51.21 C-44.58 60.87 -44.58 60.87 -50.78 70.17 C-52.78 70.45 -52.78 70.45 -55.22 70.32 C-55.67 70.29 -55.67 70.29 -57.94 70.18 C-58.88 70.11 -59.82 70.05 -60.78 69.99 C-61.69 69.94 -62.6 69.9 -63.54 69.85 C-74.55 69.22 -84.47 68 -92.31 59.52 C-93.48 58.07 -94.63 56.62 -95.78 55.17 C-99.25 52.79 -101.66 53.22 -105.72 53.86 C-111.36 54.44 -111.36 54.44 -115.03 52.11 C-117.04 48.74 -117.47 47.02 -116.78 43.17 C-115.79 42.51 -114.8 41.85 -113.78 41.17 C-112.13 42.16 -110.48 43.15 -108.78 44.17 C-97.08 37.85 -97.08 37.85 -93.41 33.8 C-84.03 23.75 -70.33 18.13 -57.78 13.17 C-56.63 12.71 -55.48 12.26 -54.29 11.79 C-35.94 4.58 -19.76 0.6 0 0 Z " fill="#7E812C" transform="translate(150.7834014892578,169.82749938964844)"/>
<path d="M0 0 C-0.33 1.65 -0.66 3.3 -1 5 C-0.73 5.17 -0.73 5.17 0.61 6.03 C6 9.73 8.56 13 11 19 C17.69 35.31 35.09 44.8 50.58 51.56 C67.59 58.22 91.08 65.29 108.88 58 C109.69 57.64 110.5 57.27 111.34 56.89 C117.36 54.87 124.99 55 131 57 C131.99 55.35 132.98 53.7 134 52 C135.32 52.66 136.64 53.32 138 54 C138.36 59.47 138.36 59.47 136.82 61.7 C134.32 63.48 132.77 63.17 129.75 62.94 C124.17 62.75 121.56 63.9 117 67 C116.34 67 115.68 67 115 67 C115 67.99 115 68.98 115 70 C98.01 79.66 77.46 78.67 59 74 C45.4 69.99 31.61 62.58 22 52 C22 51.34 22 50.68 22 50 C21.34 50 20.68 50 20 50 C12.02 40.89 7.56 30.42 4 19 C3.5 19.91 3.01 20.81 2.5 21.75 C-8.34 41.29 -23.22 55.26 -45.08 61.94 C-60.36 65.92 -77.49 67.75 -92 60.5 C-94 59 -94 59 -96 56 C-99.5 55.69 -99.5 55.69 -103 56 C-103.66 56.66 -104.32 57.32 -105 58 C-108.04 58.32 -110.14 58.46 -112.88 57 C-114.7 53.75 -114.18 50.69 -114 47 C-113.22 47.17 -112.43 47.33 -111.62 47.5 C-107.49 48.29 -106.1 47.6 -102.5 45.5 C-98.22 43 -98.22 43 -96 43 C-95.77 42.44 -95.54 41.88 -95.31 41.3 C-90.52 32.88 -79.88 26.25 -72 21 C-71.32 20.54 -70.65 20.09 -69.95 19.62 C-57.43 11.27 -44.88 5.98 -30.45 1.77 C-28 1 -28 1 -25.45 -0.03 C-21.72 -1.5 -17.93 -2.16 -14 -2.88 C-13.21 -3.04 -12.41 -3.21 -11.59 -3.38 C-6.31 -4.33 -3.9 -4.16 0 0 Z " fill="#848533" transform="translate(190,229)"/>
<path d="M0 0 C1.14 0.01 2.28 0.01 3.46 0.02 C15.76 0.16 27.5 1.42 39.25 5.25 C40.23 5.55 41.21 5.86 42.22 6.17 C56.97 11.23 70.95 20.55 80.29 33.01 C82.81 35.89 84.66 37.08 88.47 37.49 C89.22 37.51 89.97 37.54 90.75 37.56 C94.17 37.89 95.03 38.06 97.75 40.38 C99.56 43.85 100.18 46.32 100.25 50.25 C98.73 54.27 97.84 55.85 94.25 58.25 C92.23 58.34 92.23 58.34 90 58.19 C83.83 58.12 80.21 59.44 75.7 63.61 C73.94 65.37 72.2 67.16 70.48 68.97 C68.25 71.25 68.25 71.25 65.25 73.25 C64.26 72.92 63.27 72.59 62.25 72.25 C62.72 71.92 63.2 71.59 63.68 71.25 C68.73 67.62 73.06 63.59 77.37 59.11 C81.17 55.35 85.39 55.88 90.5 55.53 C93.25 55.25 93.25 55.25 95.25 54.25 C95.88 52.4 95.88 52.4 96.38 50.19 C96.46 49.82 96.46 49.82 96.88 47.96 C97 47.4 97.13 46.83 97.25 46.25 C94.94 45.62 94.94 45.62 92.25 45.25 C91.26 45.91 90.27 46.57 89.25 47.25 C87.09 47.11 87.09 47.11 84.75 46.56 C83.98 46.39 83.2 46.22 82.41 46.05 C79.94 45.14 79.09 44.11 77.25 42.25 C65.14 34.41 52.67 30.89 38.68 27.83 C36.25 27.25 36.25 27.25 33.12 26.19 C29.13 24.88 25.09 24.32 20.94 23.69 C12.38 22.38 12.38 22.38 11.25 21.25 C-15.01 20.47 -43.04 23.12 -66.93 34.61 C-73.53 37.64 -79.86 38.49 -86.88 36.25 C-87.49 35.92 -88.11 35.59 -88.75 35.25 C-88.47 36.71 -88.17 38.17 -87.88 39.62 C-87.71 40.44 -87.55 41.25 -87.38 42.09 C-86.75 44.25 -86.75 44.25 -84.75 46.25 C-82.36 46.27 -82.36 46.27 -79.5 46.06 C-75.67 45.99 -73.23 46.01 -70.19 48.44 C-67.88 51.1 -66.93 53 -65.75 56.25 C-64.9 56.11 -64.05 55.96 -63.18 55.81 C-44.23 52.81 -20.54 52.95 -4.26 64.73 C-2.39 66.09 -0.55 67.46 1.26 68.9 C5.08 71.84 7.45 72.82 12.25 72.25 C13.49 72.04 14.72 71.84 16 71.62 C17.07 71.5 18.15 71.38 19.25 71.25 C19.91 71.91 20.57 72.57 21.25 73.25 C19.18 75.69 17.95 77.1 14.76 77.78 C8.91 77.72 3.9 76.97 -1.69 75.24 C-9.61 72.98 -17.14 72.71 -25.38 72.88 C-26.79 72.9 -28.21 72.92 -29.63 72.94 C-32.42 72.99 -35.2 73.05 -37.99 73.14 C-40.25 73.21 -42.5 73.26 -44.76 73.29 C-71.6 73.67 -108.07 87.43 -127.69 105.75 C-132.68 110.36 -138.21 115.14 -144.75 117.25 C-148.11 115.92 -148.11 115.92 -150.75 114.25 C-151.75 115.25 -151.75 115.25 -152.06 118.06 C-151.75 121.25 -151.75 121.25 -150.1 123.48 C-147.75 125.25 -147.75 125.25 -144.95 125.28 C-143.93 125.11 -142.92 124.93 -141.88 124.75 C-136.15 124.06 -136.15 124.06 -132.19 125.94 C-130.08 127.94 -128.32 129.81 -126.75 132.25 C-128.98 131.22 -130.72 130.27 -132.56 128.62 C-135.7 126.65 -138.11 126.99 -141.75 127.25 C-142.18 127.35 -142.18 127.35 -144.38 127.88 C-147.48 128.37 -149.01 127.76 -151.75 126.25 C-154.75 123.25 -155.58 120.47 -155.75 116.25 C-154.75 113.06 -154.75 113.06 -152.75 110.25 C-149.37 108.56 -149.37 108.56 -145.75 107.25 C-140.55 105.14 -139.38 101.77 -137.11 96.94 C-131.32 85.52 -121.53 78.47 -110.39 72.75 C-107.79 71.27 -105.7 69.64 -103.44 67.69 C-93.74 59.9 -80.71 58.16 -68.75 56.25 C-71.99 49.54 -71.99 49.54 -74.59 48.55 C-76.88 48.23 -78.94 48.29 -81.25 48.44 C-84.64 48.49 -85.44 48.49 -88.25 46.38 C-91.01 42.47 -90.93 40.1 -90.29 35.45 C-89.75 33.25 -89.75 33.25 -87.94 30.69 C-84.42 29.1 -82.55 29.17 -78.75 29.31 C-73.08 29.49 -73.08 29.49 -69.94 27.19 C-69.22 26.22 -68.49 25.25 -67.75 24.25 C-66.67 23.06 -65.56 21.9 -64.44 20.75 C-63.93 20.2 -63.41 19.66 -62.89 19.09 C-57.19 14.18 -51.08 11.37 -43.94 9.19 C-42.35 8.68 -40.75 8.18 -39.16 7.67 C-38.4 7.43 -37.64 7.19 -36.86 6.94 C-34.14 6.05 -31.48 5.03 -28.81 4 C-19.37 0.55 -9.99 -0.08 0 0 Z " fill="#B6B14A" transform="translate(186.75,97.75)"/>
<path d="M0 0 C2.52 0.03 5.05 0.02 7.57 0.01 C16.64 0.02 24.87 0.6 33.56 3.47 C34.33 3.71 35.09 3.96 35.88 4.21 C37.96 4.91 40.01 5.64 42.06 6.4 C46.95 8.19 51.82 9.86 56.81 11.34 C63.72 13.62 69.54 17.47 75.56 21.47 C76.01 21.76 76.01 21.76 78.28 23.25 C80.38 24.64 82.48 26.05 84.56 27.47 C88.43 30.04 90.12 29.21 94.56 28.47 C95.56 29.47 95.56 29.47 95.75 31.65 C95.54 34.86 94.68 37.47 93.56 40.47 C93.28 40.47 93.28 40.47 91.88 40.47 C83.79 40.88 79.45 44.51 73.94 50.15 C69.28 54.69 64.81 55.81 58.52 56.26 C56.56 56.47 56.56 56.47 54.56 57.47 C52.41 57.56 50.25 57.6 48.09 57.6 C46.78 57.6 45.46 57.6 44.11 57.6 C43.77 57.6 43.77 57.6 42.03 57.6 C39.97 57.59 37.9 57.6 35.83 57.6 C17.13 57.58 17.13 57.58 11.25 52.72 C4.58 47.6 -1.99 44.42 -10.07 42.11 C-23.07 38.39 -29.27 35.01 -36.31 23.09 C-36.87 22.07 -37.42 21.05 -37.99 20.01 C-39.44 17.47 -39.44 17.47 -41.44 15.47 C-42.57 15.32 -43.71 15.18 -44.87 15.03 C-48.44 14.47 -48.44 14.47 -50.31 13.34 C-52 10.52 -52.13 7.7 -52.44 4.47 C-51.45 3.81 -50.46 3.15 -49.44 2.47 C-48.45 3.13 -47.46 3.79 -46.44 4.47 C-40.93 5.49 -35.52 4.33 -30.17 3.03 C-20.04 0.62 -10.39 -0.13 0 0 Z " fill="#9C9C38" transform="translate(277.436767578125,183.533447265625)"/>
<path d="M0 0 C7.94 6.77 14.08 14.68 18.45 24.15 C19.73 26.68 21.46 28.75 23.32 30.88 C22.68 30.89 22.03 30.91 21.37 30.92 C15.73 31.22 11.31 32.15 6.13 34.44 C-4.59 38.82 -15.07 38.05 -25.73 33.89 C-29.02 32.76 -32.11 32.31 -35.55 31.88 C-40.66 31.19 -43.52 30 -47.68 26.88 C-49.08 26.4 -50.5 25.97 -51.93 25.57 C-57.65 23.79 -61.93 20.43 -66.68 16.88 C-67.63 16.22 -68.57 15.57 -69.55 14.89 C-79.27 8.11 -84.12 1.62 -89.16 -9.01 C-90.68 -12.12 -90.68 -12.12 -92.68 -15.12 C-91.93 -15.3 -91.18 -15.48 -90.41 -15.67 C-85.33 -16.92 -80.3 -18.2 -75.3 -19.75 C-49.35 -27.63 -20.39 -16.14 0 0 Z " fill="#312417" transform="translate(290.6796875,249.12109375)"/>
<path d="M0 0 C3.82 2.94 6.19 3.93 10.99 3.35 C12.23 3.15 13.47 2.94 14.74 2.73 C15.82 2.6 16.89 2.48 17.99 2.35 C18.32 2.68 18.32 2.68 19.99 4.35 C17.92 6.8 16.69 8.2 13.51 8.88 C7.66 8.82 2.65 8.07 -2.95 6.35 C-10.86 4.09 -18.4 3.81 -26.63 3.98 C-28.05 4 -29.47 4.02 -30.88 4.04 C-33.67 4.09 -36.46 4.16 -39.25 4.24 C-41.5 4.31 -43.76 4.36 -46.02 4.39 C-72.85 4.77 -109.33 18.54 -128.94 36.85 C-133.93 41.47 -139.46 46.24 -146.01 48.35 C-149.36 47.02 -149.36 47.02 -152.01 45.35 C-153.01 46.35 -153.01 46.35 -153.32 49.17 C-153.01 52.35 -153.01 52.35 -151.35 54.58 C-149.01 56.35 -149.01 56.35 -146.2 56.38 C-145.19 56.21 -144.17 56.03 -143.13 55.85 C-137.41 55.16 -137.41 55.16 -133.44 57.04 C-131.33 59.04 -129.58 60.91 -128.01 63.35 C-130.23 62.32 -131.98 61.38 -133.82 59.73 C-136.96 57.76 -139.36 58.1 -143.01 58.35 C-143.44 58.46 -143.44 58.46 -145.63 58.98 C-148.74 59.47 -150.27 58.87 -153.01 57.35 C-156.01 54.35 -156.84 51.57 -157.01 47.35 C-154.88 42.22 -154.88 42.22 -153.01 40.35 C-151.42 40.16 -149.84 39.98 -148.26 39.79 C-143.52 38.86 -143.52 38.86 -141.48 36.83 C-140.2 34.72 -139.1 32.57 -138.01 30.35 C-131.58 18.7 -123.33 11.79 -111.56 5.75 C-109.15 4.43 -107.1 2.99 -104.94 1.29 C-97.24 -4.74 -88.29 -8.66 -78.51 -9.21 C-74.28 -9.46 -70.14 -9.72 -66.01 -10.65 C-65.68 -11.31 -65.35 -11.97 -65.01 -12.65 C-43.47 -18.76 -17.38 -13.83 0 0 Z " fill="#B7B349" transform="translate(188.00537109375,166.64697265625)"/>
<path d="M0 0 C0.16 0.33 0.16 0.33 1 2 C2.99 2.71 4.99 3.37 7 4 C7.7 4.39 8.4 4.78 9.12 5.19 C11.51 6.22 12.6 5.88 15 5 C15.66 4.67 16.32 4.34 17 4 C20 3.75 20 3.75 23 4 C25.29 7.44 25.18 8.99 25 13 C15.59 12.04 15.59 12.04 11 11 C10.67 11.66 10.34 12.32 10 13 C9.67 12.67 9.67 12.67 8 11 C5.17 11.22 2.53 11.57 -0.25 12.06 C-1.06 12.2 -1.87 12.34 -2.71 12.49 C-8.92 13.64 -14.7 15.4 -20.59 17.7 C-24.12 19.05 -27.69 20.11 -31.31 21.19 C-44.43 25.53 -56.18 33.54 -67 42 C-67.97 42.75 -68.94 43.51 -69.94 44.29 C-77.93 50.65 -77.93 50.65 -80.62 54.25 C-83.81 57.94 -87.56 60.03 -92 62 C-92.66 62 -93.32 62 -94 62 C-94.16 62.33 -94.16 62.33 -95 64 C-95.66 63.34 -96.32 62.68 -97 62 C-99.13 61.38 -99.13 61.38 -101 61 C-100.94 61.64 -100.94 61.64 -100.62 64.88 C-100.56 65.59 -100.49 66.31 -100.41 67.05 C-100 69 -100 69 -98 71 C-95 71.25 -95 71.25 -92 71 C-91.67 70.67 -91.67 70.67 -90 69 C-86.5 68.69 -86.5 68.69 -83 69 C-82.34 69.99 -81.68 70.98 -81 72 C-82.05 71.77 -83.1 71.55 -84.19 71.31 C-88.56 70.95 -89.41 71.79 -93 74 C-96.74 73.92 -98.44 73.47 -101.31 71.06 C-103.7 68.14 -104.24 66.47 -104.12 62.75 C-103.83 60.26 -103.83 60.26 -103 58 C-101.14 56.71 -101.14 56.71 -98.81 55.56 C-93.47 52.57 -92.4 48.72 -90.75 43.12 C-90.54 42.36 -90.33 41.59 -90.12 40.8 C-88.57 35.19 -86.33 30.77 -83 26 C-83.69 26.02 -84.38 26.05 -85.09 26.07 C-91.17 26.19 -97.23 26.17 -103 24 C-103.33 23.34 -103.66 22.68 -104 22 C-103.43 22.06 -102.86 22.12 -102.28 22.18 C-99.66 22.46 -97.05 22.73 -94.44 23 C-93.99 23.05 -93.99 23.05 -91.72 23.29 C-81.78 24.31 -81.78 24.31 -77 24 C-75.19 21.94 -75.19 21.94 -73 19 C-65.1 12.19 -55.49 8.07 -46 4 C-45.3 3.69 -44.6 3.38 -43.88 3.06 C-30.69 -2.65 -13.88 -5.43 0 0 Z " fill="#BEB952" transform="translate(177,215)"/>
<path d="M0 0 C6.41 0.66 10.52 2.79 15.62 6.62 C35.11 21.21 58.69 28.29 83 29 C83.36 29.01 83.36 29.01 85.17 29.08 C97.44 29.48 111.06 29.77 122.59 24.91 C125.57 23.79 128.01 23.77 131.19 23.81 C132.23 23.82 133.28 23.83 134.36 23.83 C137 24 137 24 139 25 C139 23.35 139 21.7 139 20 C140.94 19.44 140.94 19.44 143 19 C144 20 144 20 144.19 22.19 C143.97 25.39 143.12 28 142 31 C141.72 31 141.72 31 140.31 31.01 C132.23 31.42 127.89 35.04 122.38 40.69 C117.71 45.23 113.24 46.34 106.95 46.79 C105 47 105 47 103 48 C100.84 48.1 98.68 48.13 96.52 48.13 C95.21 48.13 93.9 48.14 92.55 48.14 C92.21 48.14 92.21 48.14 90.47 48.13 C88.4 48.13 86.34 48.13 84.27 48.14 C65.57 48.12 65.57 48.12 59.69 43.25 C53.01 38.13 46.44 34.95 38.36 32.64 C25.37 28.93 19.17 25.54 12.12 13.62 C11.57 12.61 11.02 11.59 10.45 10.54 C9 8 9 8 7 6 C4.68 5.6 2.34 5.26 0 5 C-0.33 4.01 -0.66 3.02 -1 2 C-0.67 1.34 -0.34 0.68 0 0 Z " fill="#6F7329" transform="translate(229,193)"/>
<path d="M0 0 C7.94 6.77 14.08 14.68 18.45 24.15 C19.73 26.68 21.46 28.75 23.32 30.88 C21.34 31.04 21.34 31.04 11.32 31.88 C10.99 27.26 10.66 22.64 10.32 17.88 C7.35 18.54 4.38 19.2 1.32 19.88 C2.15 20.62 2.97 21.36 3.82 22.13 C6.32 24.88 6.32 24.88 6.32 28.88 C5.32 29.88 5.32 29.88 2.01 30.07 C-1.45 29.89 -2.91 29.78 -5.68 27.88 C-6.51 25.79 -6.51 25.79 -6.93 23.38 C-7.08 22.58 -7.23 21.79 -7.38 20.97 C-7.68 18.88 -7.68 18.88 -7.68 16.88 C-8.34 16.88 -9 16.88 -9.68 16.88 C-10.37 13.57 -10.37 13.57 -10.68 9.88 C-9.24 8.25 -9.24 8.25 -7.68 6.88 C-7.2 3.79 -7.41 2.34 -8.99 -0.37 C-10.68 -2.12 -10.68 -2.12 -13.68 -3.12 C-13.84 -2.63 -13.84 -2.63 -14.68 -0.12 C-14.68 -1.11 -14.68 -2.1 -14.68 -3.12 C-15.67 -3.12 -16.66 -3.12 -17.68 -3.12 C-17.68 -1.14 -17.68 0.84 -17.68 2.88 C-19 2.88 -20.32 2.88 -21.68 2.88 C-21.68 3.54 -21.68 4.2 -21.68 4.88 C-22.73 4.57 -23.78 4.26 -24.87 3.94 C-28.68 2.88 -28.68 2.88 -31.37 2.57 C-33.68 1.88 -33.68 1.88 -35.49 -0.75 C-36.21 -1.53 -36.94 -2.31 -37.68 -3.12 C-39.6 -3.12 -39.6 -3.12 -41.74 -2.75 C-45.68 -2.12 -45.68 -2.12 -47.74 -3.06 C-49.3 -6.48 -48.34 -9.47 -47.68 -13.12 C-49.33 -14.11 -50.98 -15.1 -52.68 -16.12 C-55.68 -9.5 -55.68 -9.5 -55.68 -6.12 C-63.11 -5.98 -63.11 -5.98 -66.68 -7.12 C-66.68 -6.46 -66.68 -5.8 -66.68 -5.12 C-66.06 -4.87 -65.44 -4.63 -64.8 -4.37 C-62.33 -2.91 -61.73 -1.74 -60.68 0.88 C-68.37 5.8 -68.37 5.8 -73.68 4.88 C-76.96 2.91 -78.4 1.82 -79.49 -1.87 C-79.55 -2.61 -79.62 -3.36 -79.68 -4.12 C-80.67 -4.12 -81.66 -4.12 -82.68 -4.12 C-83.01 -2.8 -83.34 -1.48 -83.68 -0.12 C-85.81 -3.31 -87.62 -6.6 -89.46 -9.96 C-90.46 -11.73 -91.56 -13.44 -92.68 -15.12 C-91.93 -15.3 -91.18 -15.48 -90.41 -15.67 C-85.33 -16.92 -80.3 -18.2 -75.3 -19.75 C-49.35 -27.63 -20.39 -16.14 0 0 Z " fill="#655828" transform="translate(290.6796875,249.12109375)"/>
<path d="M0 0 C3.34 1.82 5.84 3.86 8 7 C8.7 9.74 8.7 9.74 9 12 C9.3 12.01 9.3 12.01 10.84 12.04 C18.43 12.48 25.28 14.24 30.77 19.79 C33.51 23.58 34.3 26.33 33.81 31 C33.57 32.34 33.31 33.68 33 35 C32.34 35 31.68 35 31 35 C30.79 35.6 30.59 36.2 30.38 36.81 C28.34 40.04 26.61 40.73 23 42 C16.05 42.79 10.24 42.18 4 39 C0.76 35.76 -1.08 32.13 -3 28 C-3.77 28.11 -4.55 28.21 -5.34 28.32 C-12.21 29.12 -16.81 29.2 -23 26 C-25.29 24.06 -26.67 22.66 -28 20 C-28.06 14.09 -27.12 9.42 -23 5 C-16.06 -0.05 -8.44 -1.71 0 0 Z " fill="#5F4937" transform="translate(193,281)"/>
<path d="M0 0 C3.91 0.01 4.52 0.11 7.56 2.88 C8.02 3.34 8.48 3.8 8.95 4.28 C12.52 6.38 16.79 5.43 20.79 5.06 C23.81 5.38 23.81 5.38 26.21 7.75 C27.81 10.38 27.81 10.38 27.81 12.38 C28.56 12.32 29.31 12.26 30.08 12.2 C38.04 11.83 38.04 11.83 41.56 14.31 C43.3 18.56 42.7 21.95 41.81 26.38 C40.82 26.54 40.82 26.54 35.81 27.38 C35.81 28.37 35.81 29.36 35.81 30.38 C39.28 31.53 42.35 31.7 46 31.94 C46.64 31.98 46.64 31.98 49.86 32.19 C50.83 32.25 51.81 32.31 52.81 32.38 C52.81 32.7 52.81 33.03 52.81 33.38 C43.78 33.79 36.31 33.72 27.76 30.38 C24.48 29.26 21.38 28.8 17.94 28.38 C12.83 27.69 9.97 26.49 5.81 23.38 C4.28 22.86 2.74 22.38 1.19 21.94 C-2.97 20.67 -4.76 19.06 -7.19 15.38 C-7.85 15.05 -8.51 14.71 -9.19 14.38 C-10.44 9.36 -10.44 9.36 -10.19 6.38 C-7.81 3.44 -7.81 3.44 -5.19 1.38 C-3.64 -0.17 -2.15 0.09 0 0 Z " fill="#443221" transform="translate(237.1875,252.625)"/>
<path d="M0 0 C3.8 0.87 5.47 2.31 7.5 5.5 C8.84 7.78 10.02 10.05 11.11 12.47 C16.07 23.49 24.93 28.9 35 35 C36.44 35.94 37.88 36.87 39.31 37.81 C42.44 39.77 45.47 40.9 49 42 C50.26 42.68 51.51 43.37 52.75 44.06 C56.65 46.08 59.98 46.4 64.32 46.65 C67.34 47.04 69.79 47.96 72.62 49.06 C83.93 53.01 94.05 51.91 104.9 47.19 C111.42 44.68 118.14 44.01 124.75 46.44 C125.82 46.95 126.89 47.47 128 48 C127.67 49.65 127.34 51.3 127 53 C126.48 52.84 125.95 52.68 125.41 52.52 C118.28 50.98 110.56 51 103.88 54 C86 61.27 61.89 54.27 44.94 47.25 C27.47 39.6 10.23 28.24 2.86 9.98 C2 8 2 8 0 5 C-0.12 2.31 -0.12 2.31 0 0 Z " fill="#CDBF60" transform="translate(195,234)"/>
<path d="M0 0 C0.29 0.29 0.29 0.29 1.77 1.76 C7.19 5.52 13.49 6.92 19.75 8.82 C28.18 11.49 36.62 14.7 43.19 20.81 C49.52 25.74 59.65 24.15 67.31 24.13 C69.39 24.12 71.47 24.13 73.55 24.14 C74.86 24.14 76.17 24.13 77.52 24.13 C78.72 24.13 79.91 24.13 81.15 24.13 C84 24 84 24 86 23 C88 22.96 90 22.96 92 23 C84.56 27.96 75 27.26 66.38 27.12 C65.83 27.12 65.83 27.12 63.04 27.1 C60.36 27.07 57.68 27.04 55 27 C55.47 27.61 55.95 28.22 56.44 28.85 C58.11 31.16 58.96 33.35 60 36 C60.95 37.62 61.93 39.23 62.94 40.81 C65.58 45.13 67.4 49.2 69 54 C69.2 54.58 69.2 54.58 70.19 57.5 C70.46 58.32 70.72 59.15 71 60 C65.17 57.71 62.58 52.45 59.69 47.19 C53.58 36.66 46.13 30.44 36 24 C35.02 23.37 34.03 22.74 33.02 22.09 C14.77 10.9 -5.34 5.17 -26.62 8.53 C-29.48 8.93 -32.12 9.09 -35 9 C-35 8.34 -35 7.68 -35 7 C-33.65 6.51 -32.29 6.04 -30.94 5.56 C-30.18 5.3 -29.43 5.03 -28.65 4.75 C-22.25 2.94 -15.67 2.74 -9.06 2.44 C-8.19 2.39 -7.31 2.35 -6.41 2.31 C-4.27 2.2 -2.14 2.1 0 2 C0 1.34 0 0.68 0 0 Z " fill="#A8A648" transform="translate(248,216)"/>
<path d="M0 0 C3.99 2.6 5.35 4.2 6.38 8.88 C5.34 14.7 2.01 18.79 -2.31 22.75 C-7.63 25.04 -12.61 25.37 -18.31 24.75 C-22 23.18 -24.43 21.31 -26.31 17.75 C-26.86 13.53 -26.62 11.34 -24.62 7.56 C-18.19 -0.27 -9.69 -3.66 0 0 Z " fill="#4E3A2A" transform="translate(193.3125,283.25)"/>
<path d="M0 0 C1.14 0.01 2.28 0.01 3.46 0.02 C15.76 0.16 27.5 1.42 39.25 5.25 C40.23 5.55 41.21 5.86 42.22 6.17 C54.02 10.21 64.68 17.31 74.25 25.25 C73.92 25.91 73.59 26.57 73.25 27.25 C72.78 26.88 72.32 26.52 71.83 26.14 C66.69 22.18 61.37 18.75 55.75 15.5 C54.95 15.02 54.14 14.54 53.32 14.04 C48.33 11.14 43.91 9.37 38.25 8.25 C38.25 7.59 38.25 6.93 38.25 6.25 C37.18 6.29 36.1 6.33 35 6.38 C31.25 6.25 31.25 6.25 29.38 5.28 C21.29 1.37 8.95 3.07 0.12 3.06 C-1.06 3.05 -2.24 3.04 -3.46 3.03 C-12.76 3.01 -21.66 3.74 -30.38 7.19 C-31.28 7.54 -32.19 7.88 -33.12 8.24 C-33.99 8.57 -34.86 8.91 -35.75 9.25 C-37.29 9.78 -38.83 10.3 -40.38 10.81 C-41.1 11.06 -41.83 11.3 -42.57 11.55 C-44.02 12.02 -45.48 12.44 -46.96 12.82 C-55.96 15.31 -62.83 21.46 -68.4 28.8 C-70.1 30.62 -71.4 31.4 -73.75 32.25 C-76.88 32.35 -79.95 32.18 -83.07 32.03 C-83.95 32.1 -84.84 32.17 -85.75 32.25 C-87.94 35.54 -87.97 36.1 -87.5 39.81 C-87.41 40.6 -87.32 41.38 -87.23 42.19 C-86.75 44.25 -86.75 44.25 -84.75 46.25 C-82.36 46.27 -82.36 46.27 -79.5 46.06 C-75.69 45.99 -73.26 45.99 -70.25 48.44 C-64.75 54.62 -64.75 54.62 -64.75 58.25 C-68.91 59.81 -72.39 60.46 -76.81 60.56 C-89.61 61.47 -98.87 67.32 -109.01 74.6 C-112.02 76.76 -115.09 78.71 -118.31 80.56 C-126.89 85.68 -131.18 91.13 -135.86 99.91 C-140.32 107.78 -140.32 107.78 -143.89 108.96 C-144.59 108.99 -145.28 109.03 -146 109.06 C-147.24 109.12 -148.47 109.19 -149.75 109.25 C-149.47 109.12 -149.47 109.12 -148.06 108.44 C-147.68 108.24 -147.68 108.24 -145.75 107.25 C-145.35 107.09 -145.35 107.09 -143.31 106.25 C-139.95 103.63 -138.9 100.74 -137.11 96.94 C-131.32 85.52 -121.53 78.47 -110.39 72.75 C-107.79 71.27 -105.7 69.64 -103.44 67.69 C-93.74 59.9 -80.71 58.16 -68.75 56.25 C-71.99 49.54 -71.99 49.54 -74.59 48.55 C-76.88 48.23 -78.94 48.29 -81.25 48.44 C-84.64 48.49 -85.44 48.49 -88.25 46.38 C-91.01 42.47 -90.93 40.1 -90.29 35.45 C-89.75 33.25 -89.75 33.25 -87.94 30.69 C-84.42 29.1 -82.55 29.17 -78.75 29.31 C-73.08 29.49 -73.08 29.49 -69.94 27.19 C-69.22 26.22 -68.49 25.25 -67.75 24.25 C-66.67 23.06 -65.56 21.9 -64.44 20.75 C-63.93 20.2 -63.41 19.66 -62.89 19.09 C-57.19 14.18 -51.08 11.37 -43.94 9.19 C-42.35 8.68 -40.75 8.18 -39.16 7.67 C-38.4 7.43 -37.64 7.19 -36.86 6.94 C-34.14 6.05 -31.48 5.03 -28.81 4 C-19.37 0.55 -9.99 -0.08 0 0 Z " fill="#F5F5E5" transform="translate(186.75,97.75)"/>
<path d="M0 0 C0.33 0.16 0.33 0.16 2 1 C0.93 1.57 -0.14 2.13 -1.25 2.71 C-2.64 3.46 -4.04 4.2 -5.44 4.94 C-6.14 5.31 -6.85 5.68 -7.58 6.07 C-12.89 8.89 -12.89 8.89 -14 10 C-11.27 10.87 -9.79 11.31 -7 11 C-3.69 9 -0.85 6.59 2 4 C2.33 4.16 2.33 4.16 4 5 C2.88 6.15 1.75 7.29 0.62 8.44 C-0 9.08 -0.63 9.71 -1.27 10.37 C-3.69 12.65 -4.56 13.01 -7.93 12.96 C-10.27 12.86 -12.6 12.76 -14.93 12.64 C-18 13 -18 13 -19.92 14.79 C-21.54 18.1 -20.84 20.49 -20 24 C-18 26 -18 26 -14.69 26.25 C-10.79 27.04 -9.57 27.89 -7.26 31.05 C-3.71 36.54 -0.31 41.86 2 48 C1.34 48 0.68 48 0 48 C-3.32 43.91 -5.93 39.31 -8.19 34.56 C-10 31 -10 31 -13 29 C-14.16 28.71 -15.31 28.42 -16.5 28.12 C-20.22 26.93 -21.25 26.4 -23 23 C-24.32 19.5 -23.98 17.53 -22.56 14.19 C-22.05 13.14 -21.53 12.08 -21 11 C-23.06 11.09 -25.13 11.2 -27.19 11.31 C-27.76 11.34 -27.76 11.34 -30.67 11.49 C-34.2 12.03 -36.04 13.1 -39 15 C-40.45 15.3 -41.91 15.57 -43.38 15.81 C-46.9 16.91 -47.85 17.75 -49.82 20.95 C-50.67 22.78 -51.52 24.6 -52.32 26.45 C-54.74 31.88 -57.98 35.78 -62.18 40.01 C-64 42 -64 42 -65 45 C-59.71 48.07 -59.71 48.07 -56.56 47.75 C-55.72 47.5 -54.87 47.25 -54 47 C-50.38 46.25 -50.38 46.25 -47 46 C-45.06 47.44 -45.06 47.44 -44 49 C-44.33 49.99 -44.66 50.98 -45 52 C-45.66 51.01 -46.32 50.02 -47 49 C-51.05 48.57 -52.55 48.7 -56 51 C-60.78 50.73 -64.85 48.21 -69 46 C-67.66 42.96 -66.21 41.08 -63.75 38.88 C-58.38 33.66 -55.05 27.28 -51.88 20.56 C-50.35 17.47 -49.15 15.62 -46 14 C-43.67 13.32 -41.34 12.65 -39 12 C-38.34 11.34 -37.68 10.68 -37 10 C-35 9.76 -35 9.76 -32.44 9.69 C-22.55 8.96 -12.54 5.79 -3.56 1.62 C-2.39 1.09 -1.21 0.55 0 0 Z " fill="#D0CBBA" transform="translate(247,171)"/>
<path d="M0 0 C2.66 1.01 3.95 1.94 5.75 4.19 C7.36 7.81 7.55 10.06 7 14 C5.21 16.97 3.15 19.42 0 21 C-2.41 21.15 -4.83 21.22 -7.25 21.25 C-8.55 21.28 -9.86 21.3 -11.2 21.33 C-16.67 20.86 -19.84 19.37 -23.38 15.19 C-25.12 11.77 -25.36 9.78 -25 6 C-24.28 6.45 -23.56 6.91 -22.81 7.38 C-18.18 10.05 -14.22 11.29 -8.88 11.75 C-7.84 11.85 -6.81 11.95 -5.74 12.05 C-3 12 -3 12 0 10 C0.99 10 1.98 10 3 10 C3.37 4.58 3.37 4.58 1.5 1.62 C1 1.09 0.51 0.55 0 0 Z " fill="#31251C" transform="translate(218,300)"/>
<path d="M0 0 C0 1.32 0 2.64 0 4 C0.66 4 1.32 4 2 4 C2.18 4.78 2.36 5.56 2.55 6.37 C2.68 6.88 2.68 6.88 3.31 9.44 C3.43 9.94 3.43 9.94 4.05 12.5 C4.36 13.32 4.68 14.15 5 15 C8.47 16.16 11.36 16.07 15 16 C15 14.68 15 13.36 15 12 C13 10.38 13 10.38 11 9 C11 8.34 11 7.68 11 7 C14.37 5.5 16.2 5 20 5 C21.05 8.15 21.1 10.39 21.06 13.69 C21.05 14.68 21.04 15.68 21.04 16.7 C21.02 17.46 21.01 18.22 21 19 C14.93 22.53 10.02 23.39 3.12 23.38 C2.38 23.38 1.63 23.38 0.85 23.38 C-2.93 23.3 -4.78 23.14 -8 21 C-8 20.01 -8 19.02 -8 18 C-6.02 17.67 -4.04 17.34 -2 17 C-1.68 11.5 -1.47 7.56 -5 3 C-2.25 0 -2.25 0 0 0 Z " fill="#2C1F12" transform="translate(281,262)"/>
<path d="M0 0 C3.71 0.81 5.2 2.67 7.56 5.56 C8.38 7.88 8.38 7.88 8.56 9.56 C9.55 9.23 10.54 8.9 11.56 8.56 C14.29 8.33 16.81 8.43 19.56 8.56 C20.22 9.22 20.88 9.88 21.56 10.56 C20.9 11.55 20.24 12.54 19.56 13.56 C19.56 12.57 19.56 11.58 19.56 10.56 C18.57 10.56 17.58 10.56 16.56 10.56 C16.56 12.54 16.56 14.52 16.56 16.56 C15.24 16.56 13.92 16.56 12.56 16.56 C12.56 17.22 12.56 17.88 12.56 18.56 C12.04 18.41 12.04 18.41 9.38 17.62 C5.56 16.56 5.56 16.56 2.88 16.25 C0.56 15.56 0.56 15.56 -1.25 12.94 C-1.97 12.15 -2.69 11.37 -3.44 10.56 C-5.36 10.56 -5.36 10.56 -7.5 10.94 C-11.44 11.56 -11.44 11.56 -13.5 10.44 C-14.8 7.84 -14.24 6.28 -13.44 3.56 C-12.37 3.81 -11.29 4.06 -10.19 4.31 C-8.95 4.4 -7.71 4.48 -6.44 4.56 C-1.92 0.44 -1.92 0.44 0 0 Z " fill="#57412A" transform="translate(256.4375,235.4375)"/>
<path d="M0 0 C3.96 3.59 6.38 7.13 8.62 12 C14.09 23.52 14.09 23.52 16.97 25.04 C17.66 25.23 18.35 25.43 19.06 25.62 C22.53 26.62 22.84 26.76 25 30 C25.7 34.8 25.67 38.79 23.31 43.06 C20.06 45.78 17.89 46.08 13.7 45.91 C7.46 45.68 4.16 46.41 -1 50 C-1 49.34 -1 48.68 -1 48 C5.01 43.84 9.4 42.47 16.71 43.02 C19 43 19 43 21 41 C21.12 37.88 21.12 37.88 21 35 C18 34 18 34 15.19 33.62 C9.8 32.57 5.39 30.39 2 26 C1.25 22.75 1.25 22.75 1 20 C2.32 19.67 3.64 19.34 5 19 C5.6 19.95 6.2 20.9 6.81 21.88 C9 25 9 25 12 27 C11.75 26.44 11.49 25.89 11.23 25.31 C9.53 21.54 7.9 17.8 6.56 13.88 C5.51 10.94 4.18 8.68 2.31 6.19 C0 3 0 3 0 0 Z " fill="#CCBD62" transform="translate(306,248)"/>
<path d="M0 0 C0.66 0.33 1.32 0.66 2 1 C2.71 5.06 2.58 7.03 0.43 10.62 C-3.33 15.55 -5.81 18.52 -12 20 C-16.59 20.53 -20.66 20.57 -24.94 18.75 C-27.09 16.92 -28.62 15.47 -30 13 C-30.19 10.25 -30.19 10.25 -30 8 C-29.67 8.66 -29.34 9.32 -29 10 C-24.97 11.39 -21.28 12.49 -17 12 C-16.34 11.34 -15.68 10.68 -15 10 C-12.68 9.6 -10.34 9.26 -8 9 C-7.9 8.63 -7.9 8.63 -7.38 6.75 C-5.6 3.21 -3.37 1.98 0 0 Z " fill="#2A1F17" transform="translate(197,288)"/>
<path d="M0 0 C0.97 -0.02 1.94 -0.03 2.94 -0.05 C3.77 0.07 4.59 0.19 5.44 0.31 C7.44 3.31 7.44 3.31 7.25 5.27 C5.68 9.22 2.92 11.94 -0.56 14.31 C-3.74 15.12 -6.38 15.1 -9.56 14.31 C-12.12 12.5 -12.12 12.5 -13.56 10.31 C-13.56 7.31 -13.56 7.31 -11.25 4.75 C-7.32 1.19 -5.25 0.02 0 0 Z " fill="#5F4734" transform="translate(255.5625,257.6875)"/>
<path d="M0 0 C6.65 3.32 6.65 3.32 8.44 6.75 C8.62 7.49 8.81 8.24 9 9 C6.09 10.26 4.2 11 1 11 C1.82 11.74 2.65 12.49 3.5 13.25 C6 16 6 16 6 20 C5 21 5 21 1.69 21.19 C-1.77 21.01 -3.23 20.9 -6 19 C-6.83 16.91 -6.83 16.91 -7.25 14.5 C-7.4 13.71 -7.55 12.91 -7.7 12.09 C-8 10 -8 10 -8 8 C-8.66 8 -9.32 8 -10 8 C-9.67 6.68 -9.34 5.36 -9 4 C-8.67 4.66 -8.34 5.32 -8 6 C-6.15 6.41 -6.15 6.41 -3.94 6.62 C-2.64 6.75 -1.34 6.87 0 7 C0 4.69 0 2.38 0 0 Z " fill="#42311E" transform="translate(291,258)"/>
<path d="M0 0 C0.65 0.55 1.3 1.1 1.96 1.66 C1.96 2.32 1.96 2.98 1.96 3.66 C2.54 3.89 3.12 4.12 3.71 4.35 C6.53 5.99 8.05 8.06 9.96 10.66 C9.63 11.32 9.3 11.98 8.96 12.66 C8.16 11.63 7.36 10.6 6.53 9.54 C-1.83 -0.15 -14.74 -5.91 -27.01 -8.62 C-31.2 -9.61 -35.2 -11.03 -39.25 -12.47 C-45.02 -14.26 -50.54 -14.5 -56.54 -14.46 C-56.93 -14.46 -56.93 -14.46 -58.91 -14.46 C-65.98 -14.4 -72.99 -13.97 -80.04 -13.34 C-77.15 -16.22 -73.93 -16.06 -70.04 -16.46 C-69.26 -16.54 -68.49 -16.63 -67.69 -16.71 C-44.91 -19.03 -19.18 -12.66 0 0 Z " fill="#F3F2E0" transform="translate(348.03515625,181.3359375)"/>
<path d="M0 0 C-0.45 0.27 -0.45 0.27 -2.75 1.62 C-6.15 3.92 -8.12 6.31 -10 10 C-10.6 14.27 -10.5 16.21 -8.19 19.88 C-4.4 23.56 -0.65 23.2 4.35 23.17 C8.1 22.93 11.4 22.07 15 21 C15.09 21.59 15.17 22.18 15.26 22.79 C16.24 28.32 17.4 31.41 22 35 C25.56 36.19 28.55 36.24 32.31 36.31 C33.61 36.35 34.9 36.39 36.24 36.43 C40.76 35.91 42.49 34.76 46 32 C45.02 34.86 44.04 35.97 41.56 37.75 C35.32 39.94 28.86 39.87 22.56 37.81 C16.76 34.86 14.68 30.77 12 25 C11.23 25.11 10.45 25.21 9.66 25.32 C2.79 26.12 -1.81 26.2 -8 23 C-10.29 21.06 -11.67 19.66 -13 17 C-13.06 11.02 -11.97 6.63 -8 2 C-3.72 -1.24 -3.72 -1.24 0 0 Z " fill="#C5BDB3" transform="translate(178,284)"/>
<path d="M0 0 C3.96 3.59 6.38 7.13 8.62 12 C14.09 23.52 14.09 23.52 16.97 25.04 C17.66 25.23 18.35 25.43 19.06 25.62 C22.53 26.62 22.84 26.76 25 30 C25.7 34.8 25.67 38.79 23.31 43.06 C20.06 45.78 17.89 46.08 13.7 45.91 C7.46 45.68 4.16 46.41 -1 50 C-1 49.34 -1 48.68 -1 48 C3.97 44.57 7.68 42.67 13.81 43 C18.7 43.21 18.7 43.21 21.75 41.06 C23.49 36.81 22.89 33.42 22 29 C21.48 28.99 21.48 28.99 18.88 28.94 C14.41 27.86 13.07 26.74 10.34 23.23 C8.33 19.89 7.21 16.35 6.01 12.66 C5.03 10.07 3.91 8.2 2.25 6 C0 3 0 3 0 0 Z " fill="#F2F1E8" transform="translate(306,248)"/>
<path d="M0 0 C2.25 0.25 2.25 0.25 4 1 C4 1.66 4 2.32 4 3 C4.66 3 5.32 3 6 3 C5.67 6.63 5.34 10.26 5 14 C4.01 14 3.02 14 2 14 C0.31 12 0.31 12 -1 10 C-2.26 10.23 -3.52 10.45 -4.81 10.69 C-8.7 11.16 -8.7 11.16 -11.06 9.88 C-12.36 7.28 -11.81 5.72 -11 3 C-9.93 3.25 -8.85 3.5 -7.75 3.75 C-6.51 3.83 -5.28 3.91 -4 4 C-1.81 2 -1.81 2 0 0 Z " fill="#614834" transform="translate(254,236)"/>
<path d="M0 0 C0.97 0.64 1.94 1.28 2.94 1.94 C5.95 3.7 8.22 4.25 11.69 4.44 C15.08 4.7 15.78 4.81 18.5 7.12 C20.31 10.6 20.93 13.07 21 17 C19.48 21.02 18.59 22.6 15 25 C12.98 25.09 12.98 25.09 10.75 24.94 C4.58 24.87 0.96 26.19 -3.55 30.36 C-5.31 32.12 -7.05 33.91 -8.77 35.72 C-11 38 -11 38 -14 40 C-14.99 39.67 -15.98 39.34 -17 39 C-16.76 38.84 -16.76 38.84 -15.57 38 C-10.52 34.37 -6.19 30.34 -1.88 25.86 C1.92 22.1 6.14 22.63 11.25 22.28 C14 22 14 22 16 21 C16.89 18.32 17.14 16.75 17.12 14 C17.13 13.32 17.13 12.64 17.13 11.94 C17 10 17 10 16 7 C15.42 7.05 14.84 7.09 14.24 7.14 C8.62 7.4 5.41 6.86 1 3 C0.67 2.01 0.34 1.02 0 0 Z " fill="#EBE9DB" transform="translate(266,131)"/>
<path d="M0 0 C6.1 0.08 9.14 1.35 13.48 5.54 C15.09 7.88 15.51 9.77 15.88 12.56 C16.18 12.57 16.18 12.57 17.71 12.61 C25.31 13.04 32.15 14.8 37.65 20.36 C40.39 24.15 41.17 26.9 40.69 31.56 C40.45 32.9 40.18 34.24 39.88 35.56 C39.22 35.56 38.56 35.56 37.88 35.56 C37.92 34.98 37.97 34.4 38.02 33.8 C38.2 29.71 38.09 27.04 36.38 23.25 C32.22 18.78 28.63 16.76 22.46 16.32 C19.26 16.31 16.08 16.39 12.88 16.56 C12.78 15.88 12.68 15.19 12.58 14.48 C12.43 13.58 12.28 12.68 12.12 11.75 C11.99 10.86 11.85 9.96 11.7 9.04 C10.69 6 9.6 5.16 6.88 3.56 C3.59 2.47 1.14 2.46 -2.31 2.5 C-3.4 2.51 -4.49 2.52 -5.61 2.53 C-6.44 2.54 -7.27 2.55 -8.12 2.56 C-5.42 -0.14 -3.78 0.14 0 0 Z " fill="#E8E5E3" transform="translate(186.125,280.4375)"/>
<path d="M0 0 C0.56 0.66 1.11 1.32 1.69 2 C4 4 4 4 6.5 4.25 C7.32 4.17 8.15 4.09 9 4 C13 4 13 4 15.25 5.81 C17 8 17 8 17 11 C15 13 15 13 11.81 13.31 C7.48 12.96 4.87 11.9 1 10 C0.67 6.7 0.34 3.4 0 0 Z " fill="#402E20" transform="translate(241,242)"/>
<path d="M0 0 C3.57 0.32 5.56 0.64 8.38 2.94 C10 5 10 5 10 7 C2.31 11.92 2.31 11.92 -3 11 C-5.88 9.19 -5.88 9.19 -8 7 C-8 6.01 -8 5.02 -8 4 C-5.36 4 -2.72 4 0 4 C0 2.68 0 1.36 0 0 Z " fill="#5B432F" transform="translate(220,243)"/>
<path d="M0 0 C3 1 3 1 3.84 2.67 C4.06 3.38 4.28 4.09 4.5 4.82 C4.75 5.61 5 6.39 5.25 7.19 C5.5 8.02 5.75 8.84 6 9.69 C8.66 18.33 8.66 18.33 10.75 22.46 C11.16 23.3 11.57 24.14 12 25 C11.67 25.66 11.34 26.32 11 27 C7.6 22.51 5.76 18 3.93 12.68 C3.03 10.09 2.04 7.54 1 5 C0.75 5.45 0.75 5.45 -0.5 7.75 C-6.61 18.75 -12.55 27.63 -23 35 C-23.33 34.34 -23.66 33.68 -24 33 C-23.52 32.6 -23.03 32.2 -22.53 31.79 C-11.72 22.61 -5.16 13.23 0 0 Z " fill="#DFDFCE" transform="translate(193,243)"/>
<path d="M0 0 C2.16 0.42 2.16 0.42 4.73 2.67 C6.16 5.42 6.16 5.42 6.16 9.42 C2.86 9.42 -0.44 9.42 -3.84 9.42 C-3.84 8.76 -3.84 8.1 -3.84 7.42 C-6.15 7.42 -8.46 7.42 -10.84 7.42 C-9.7 0.82 -6.17 -0.2 0 0 Z " fill="#624A37" transform="translate(273.8359375,264.578125)"/>
<path d="M0 0 C-7.44 4.96 -17 4.26 -25.62 4.12 C-26.17 4.12 -26.17 4.12 -28.96 4.1 C-31.64 4.07 -34.32 4.04 -37 4 C-36.48 4.6 -35.97 5.2 -35.44 5.81 C-34.96 6.53 -34.49 7.26 -34 8 C-34.33 8.99 -34.66 9.98 -35 11 C-36.34 9.69 -37.67 8.38 -39 7.06 C-39.37 6.7 -39.37 6.7 -41.25 4.85 C-43 3 -43 3 -43 2 C-41.95 1.97 -40.9 1.95 -39.82 1.92 C-35.93 1.83 -32.04 1.73 -28.16 1.63 C-26.47 1.58 -24.79 1.54 -23.1 1.5 C-20.69 1.45 -18.27 1.38 -15.85 1.32 C-15.1 1.3 -14.34 1.28 -13.56 1.27 C-8.78 1.13 -4.81 -0.1 0 0 Z " fill="#BEBD9B" transform="translate(340,239)"/>
<path d="M0 0 C0.99 0.33 1.98 0.66 3 1 C-0.57 7.61 -3.93 13.59 -9.62 18.6 C-11 20 -11 20 -12 23 C-6.71 26.07 -6.71 26.07 -3.56 25.75 C-2.72 25.5 -1.87 25.25 -1 25 C2.62 24.25 2.62 24.25 6 24 C7.94 25.44 7.94 25.44 9 27 C8.67 27.99 8.34 28.98 8 30 C7.34 29.01 6.68 28.02 6 27 C1.95 26.57 0.45 26.7 -3 29 C-7.78 28.73 -11.85 26.21 -16 24 C-14.66 20.96 -13.21 19.08 -10.75 16.88 C-5.89 12.18 -2.14 6.43 0 0 Z " fill="#DEDACA" transform="translate(194,193)"/>
<path d="M0 0 C5.73 0.29 8.74 0.88 13 5 C12.34 6.32 11.68 7.64 11 9 C2.74 9.32 2.74 9.32 0 7 C-0.81 3.94 -0.81 3.94 -1 1 C-0.67 0.67 -0.34 0.34 0 0 Z " fill="#59422D" transform="translate(285,270)"/>
<path d="M0 0 C0 0.33 0 0.66 0 1 C-2.31 1.33 -4.62 1.66 -7 2 C-7 5 -7 5 -6 8 C-7.56 10 -7.56 10 -10 12 C-13.75 12.25 -13.75 12.25 -17 12 C-16.4 8.64 -15.15 6.62 -13 4 C-13.33 3.34 -13.66 2.68 -14 2 C-9.07 0.03 -5.22 -0.18 0 0 Z " fill="#75604E" transform="translate(190,282)"/>
<path d="M0 0 C0.66 0.33 1.32 0.66 2 1 C1.67 1.5 1.67 1.5 0 4 C-0.67 11.07 -0.67 11.07 1.66 14.29 C4 16 4 16 6.8 16.03 C7.82 15.86 8.83 15.68 9.88 15.5 C15.6 14.81 15.6 14.81 19.56 16.69 C21.67 18.69 23.43 20.56 25 23 C22.77 21.97 21.03 21.02 19.19 19.38 C16.05 17.4 13.64 17.74 10 18 C9.57 18.1 9.57 18.1 7.38 18.62 C4.27 19.12 2.74 18.51 0 17 C-3 14 -3.83 11.22 -4 7 C-1.87 1.87 -1.87 1.87 0 0 Z " fill="#F3F3EA" transform="translate(35,207)"/>
<path d="M0 0 C7.33 0.48 7.33 0.48 9.94 2.5 C12.11 7.61 12.66 12.19 10.75 17.44 C9 20 9 20 6 22 C3.98 22.24 3.98 22.24 1.75 22.31 C-3.42 22.75 -6.06 24.73 -10 28 C-10.66 27.67 -11.32 27.34 -12 27 C-6.87 22.35 -3.06 19.21 4.05 19.27 C6 19 6 19 7.74 17.8 C9.41 15.42 9.37 13.88 9.31 11 C9.31 10.57 9.31 10.57 9.3 8.38 C9 6 9 6 7 3 C3.38 1.81 3.38 1.81 0 1 C0 0.67 0 0.34 0 0 Z " fill="#EBE9DB" transform="translate(365,204)"/>
<path d="M0 0 C3.03 0.59 6 1.25 9 2 C9 4.97 9 7.94 9 11 C3.67 11.36 3.67 11.36 1.12 10 C-0.7 6.75 -0.18 3.69 0 0 Z " fill="#8F8838" transform="translate(76,276)"/>
<path d="M0 0 C-0.45 0.27 -0.45 0.27 -2.75 1.62 C-6.15 3.92 -8.12 6.31 -10 10 C-10.6 14.27 -10.5 16.21 -8.19 19.88 C-4.39 23.56 -0.88 23.11 4.19 23.06 C5.46 23.05 6.73 23.04 8.04 23.04 C9.02 23.02 9.99 23.01 11 23 C8.28 25.72 6.18 25.69 2.45 26.03 C-2.65 25.97 -6.58 24.2 -10.44 20.94 C-12.82 17.98 -13.15 16.47 -12.81 12.75 C-12.25 8.28 -10.98 5.47 -8 2 C-3.72 -1.24 -3.72 -1.24 0 0 Z " fill="#D1CDC3" transform="translate(178,284)"/>
<path d="M0 0 C4.75 2.32 4.75 2.32 5.88 5.44 C6 7.9 5.78 9.67 5 12 C5.66 12.33 6.32 12.66 7 13 C1.58 12.52 1.58 12.52 -0.88 10.31 C-2.32 7.35 -2.35 5.26 -2 2 C-1.34 1.34 -0.68 0.68 0 0 Z " fill="#8A8331" transform="translate(36,211)"/>
<path d="M0 0 C2.69 0.88 2.69 0.88 5 2 C4.67 4.64 4.34 7.28 4 10 C2.68 10 1.36 10 0 10 C-0.66 9.34 -1.32 8.68 -2 8 C-3.99 7.6 -5.99 7.26 -8 7 C-6.68 6.67 -5.36 6.34 -4 6 C-3.9 5.38 -3.79 4.76 -3.69 4.12 C-3 2 -3 2 0 0 Z " fill="#746D2A" transform="translate(279,142)"/>
<path d="M0 0 C3.23 0.28 6.46 0.58 9.69 0.88 C10.6 0.95 11.51 1.03 12.45 1.11 C16.95 1.54 20.9 1.94 25 4 C24.19 5.94 24.19 5.94 23 8 C22.01 8.33 21.02 8.66 20 9 C18.81 12.06 18.81 12.06 18 15 C17.67 15 17.34 15 17 15 C16.43 10.19 18.17 7.8 21 4 C20.66 4.01 20.66 4.01 18.91 4.07 C12.83 4.19 6.77 4.17 1 2 C0.67 1.34 0.34 0.68 0 0 Z " fill="#BFBB9C" transform="translate(73,237)"/>
</svg>
