<?xml version="1.0" encoding="UTF-8"?>
<!-- Generator: visioncortex VTracer 0.6.12 -->
<svg version="1.1" xmlns="http://www.w3.org/2000/svg" width="418" height="418" viewBox="0 0 418 418">
<path d="M0 0 C1.87 0.3 1.87 0.3 4 1 C8.24 7.65 9.59 14.91 11.19 22.56 C11.45 23.76 11.71 24.95 11.97 26.18 C12.95 30.71 13.89 35.18 14.49 39.78 C15.04 43.22 16.02 46.26 17.17 49.54 C18.69 54.03 19.89 58.61 21.12 63.19 C21.39 64.15 21.65 65.1 21.93 66.09 C24.16 74.28 25.2 81.77 25.25 90.25 C25.26 90.7 25.26 90.7 25.31 92.95 C25.36 100.53 24.44 108.34 19.56 114.44 C17.46 116.54 15.37 118.22 13 120 C12.67 120.99 12.34 121.98 12 123 C12.74 123.23 13.49 123.45 14.25 123.69 C17.75 125.36 19.17 126.55 21 130 C20.71 137 17.42 141.99 13.19 147.31 C12.67 148 12.14 148.69 11.61 149.4 C7.85 154.26 4.1 158.31 -1.69 160.69 C-10.41 164.94 -16.62 172.54 -22.67 179.9 C-27.59 185.84 -33.04 191.22 -38.57 196.6 C-39.89 197.89 -41.18 199.21 -42.47 200.54 C-45.38 203.37 -48.43 205.88 -51.62 208.38 C-52.24 208.86 -52.85 209.34 -53.49 209.83 C-58.78 213.92 -64.27 217.54 -70 221 C-70.81 221.52 -71.61 222.04 -72.45 222.58 C-83.16 229.39 -94.58 232.79 -107 235 C-108.09 235.21 -109.17 235.41 -110.29 235.62 C-125.8 238.24 -141.54 237.55 -157 235 C-158.14 234.83 -159.29 234.66 -160.47 234.48 C-175.28 231.85 -188.27 225.27 -200 216 C-201.68 214.84 -203.37 213.7 -205.06 212.56 C-210.45 208.82 -215.25 204.51 -220 200 C-220.38 199.65 -220.38 199.65 -222.29 197.86 C-224 196 -224 196 -224 194 C-224.66 194 -225.32 194 -226 194 C-227.68 192.12 -229.22 190.25 -230.75 188.25 C-231.2 187.66 -231.65 187.08 -232.11 186.47 C-236.19 181 -239.12 175.18 -242 169 C-242.86 167.32 -243.73 165.66 -244.62 164 C-244.99 163.32 -245.35 162.64 -245.73 161.94 C-247 160 -247 160 -249.04 158.27 C-251.79 155.09 -252.17 151.78 -252.75 147.75 C-252.87 146.96 -252.99 146.17 -253.11 145.35 C-256.02 124.49 -256.02 124.49 -251.94 117.38 C-250.53 115.59 -250.53 115.59 -249 114 C-248.52 113.49 -248.03 112.97 -247.53 112.44 C-220.07 86.53 -170.54 85.26 -135 86 C-134.25 86.01 -133.49 86.03 -132.71 86.04 C-104.86 86.61 -78.08 92.7 -52 102.18 C-49.81 102.97 -47.62 103.77 -45.44 104.56 C-44.36 104.96 -43.28 105.35 -42.17 105.75 C-34.52 108.51 -26.88 110.98 -19 113 C-19.18 112.56 -19.18 112.56 -20.09 110.36 C-27.03 92.55 -22.85 75.97 -16.78 58.34 C-15.25 53.75 -13.99 49.09 -12.69 44.44 C-12.39 43.36 -12.08 42.28 -11.77 41.17 C-9.35 32.45 -7.13 23.69 -5.04 14.88 C-3.78 9.65 -2.3 4.88 0 0 Z " fill="#DC7214" transform="translate(315,71)"/>
<path d="M0 0 C0.33 0.5 0.33 0.5 2 3 C20.61 27.32 57.28 32.4 85.75 36.31 C93.42 37.28 101.04 37.26 108.75 37.19 C110.26 37.18 111.78 37.17 113.29 37.16 C117.53 37.13 121.76 37.07 126 37 C126.99 36.99 127.98 36.97 129.01 36.96 C157.11 36.43 185.06 29.66 210.99 18.98 C223.46 13.87 235.79 10.9 249.03 8.42 C256.16 7.05 263.05 5.11 270 3 C270.23 6.68 269.99 8.64 267.77 11.59 C267.3 12.23 266.82 12.87 266.33 13.53 C266.08 13.85 266.08 13.85 264.81 15.5 C264.33 16.15 263.85 16.8 263.35 17.47 C255.69 27.65 255.69 27.65 250.31 29.75 C242.98 33.16 236.93 39 233 46 C227.54 54.05 220.52 60.68 213.59 67.44 C212.2 68.8 210.84 70.19 209.48 71.59 C206.59 74.4 203.55 76.9 200.38 79.38 C199.76 79.86 199.15 80.34 198.51 80.83 C193.22 84.92 187.73 88.54 182 92 C181.19 92.52 180.39 93.04 179.55 93.58 C168.84 100.39 157.42 103.79 145 106 C143.91 106.21 142.83 106.41 141.71 106.62 C126.2 109.24 110.46 108.55 95 106 C93.86 105.83 92.71 105.66 91.53 105.48 C76.72 102.85 63.73 96.27 52 87 C50.32 85.84 48.63 84.7 46.94 83.56 C39.93 78.69 30.5 72.12 26.69 64.31 C25.2 61.4 23.73 59.33 21.69 56.81 C16.5 50.31 12.97 43.02 9.38 35.56 C7.64 32.03 5.84 29.74 3 27 C-0.7 18.44 -0.13 9.13 0 0 Z " fill="#6B2205" transform="translate(63,200)"/>
<path d="M0 0 C1.23 0.45 2.46 0.89 3.73 1.35 C6.15 2.23 8.55 3.13 10.96 4.03 C18.24 6.72 25.24 8.49 32.95 9.46 C31.47 12.42 29.49 12.43 26.39 13.46 C18.46 16.39 11.69 20.74 4.65 25.36 C2.45 26.78 0.21 28.13 -2.05 29.46 C-1.72 30.12 -1.39 30.78 -1.05 31.46 C-16.28 35.62 -31.35 39.58 -47.05 41.46 C-48.09 41.59 -49.14 41.72 -50.21 41.86 C-59.46 42.81 -68.77 42.62 -78.05 42.46 C-78.48 42.45 -78.48 42.45 -80.65 42.42 C-100.27 42.07 -120.44 39.98 -139.05 33.46 C-139.36 33.35 -139.36 33.35 -140.93 32.81 C-150.59 29.43 -160.31 25.44 -166.05 16.46 C-166.23 11.91 -165.07 9 -162.36 5.46 C-126.79 -31.84 -41.51 -15.05 0 0 Z " fill="#802902" transform="translate(254.05078125,183.5390625)"/>
<path d="M0 0 C0.33 0.5 0.33 0.5 2 3 C20.61 27.32 57.28 32.4 85.75 36.31 C93.42 37.28 101.04 37.26 108.75 37.19 C110.26 37.18 111.78 37.17 113.29 37.16 C117.53 37.13 121.76 37.07 126 37 C126.99 36.99 127.98 36.97 129.01 36.96 C157.11 36.43 185.06 29.66 210.99 18.98 C223.46 13.87 235.79 10.9 249.03 8.42 C256.16 7.05 263.05 5.11 270 3 C270.23 6.68 269.99 8.64 267.77 11.59 C267.3 12.23 266.82 12.87 266.33 13.53 C266.08 13.85 266.08 13.85 264.81 15.5 C264.33 16.15 263.85 16.8 263.35 17.47 C261.94 19.35 260.48 21.17 259 23 C258.3 23.93 257.61 24.86 256.89 25.81 C252.39 29.22 247.48 29.62 242 30.5 C232.72 32.17 224.65 34.25 216 38 C212.53 39.32 209.04 40.59 205.55 41.86 C202.63 42.94 199.85 44.08 197.09 45.52 C193.18 47.39 189.25 48.44 185.06 49.5 C184.22 49.72 183.39 49.93 182.52 50.15 C170.93 53.08 159.34 55.22 147.46 56.57 C144 57 144 57 141.87 57.51 C137.78 58.21 133.75 58.22 129.61 58.27 C128.68 58.29 127.76 58.3 126.81 58.31 C89.73 58.71 41.37 57.82 11 33 C10.67 33.16 10.67 33.16 9 34 C-0.51 23.89 -0.18 13.31 0 0 Z " fill="#813108" transform="translate(63,200)"/>
<path d="M0 0 C1.87 0.3 1.87 0.3 4 1 C8.24 7.65 9.59 14.91 11.19 22.56 C11.45 23.76 11.71 24.95 11.97 26.18 C12.95 30.71 13.89 35.18 14.49 39.78 C15.04 43.22 16.02 46.26 17.17 49.54 C18.69 54.03 19.89 58.61 21.12 63.19 C21.39 64.15 21.65 65.1 21.93 66.09 C24.16 74.28 25.2 81.77 25.25 90.25 C25.26 90.7 25.26 90.7 25.31 92.95 C25.36 100.53 24.44 108.34 19.56 114.44 C17.46 116.54 15.37 118.22 13 120 C12.67 120.99 12.34 121.98 12 123 C12.74 123.23 13.49 123.45 14.25 123.69 C17.75 125.36 19.17 126.55 21 130 C20.71 137 17.42 141.99 13.19 147.31 C12.67 148 12.14 148.69 11.61 149.4 C7.85 154.26 4.1 158.31 -1.69 160.69 C-6.46 162.95 -9.99 166.38 -13.8 169.98 C-16 172 -16 172 -19 174 C-15.61 166.32 -8.32 160.77 -1 157 C-0.2 156.73 0.59 156.47 1.42 156.19 C4.39 154.82 5.44 153.57 7.3 150.9 C7.86 150.1 8.43 149.3 9.01 148.47 C9.59 147.64 10.16 146.8 10.75 145.94 C11.91 144.28 13.07 142.62 14.23 140.96 C14.74 140.23 15.25 139.49 15.77 138.73 C17 137 17 137 18 136 C18.38 133.19 18.38 133.19 18 130 C14.33 126.4 10.52 124.88 5.69 123.25 C5.04 123.03 4.4 122.81 3.73 122.58 C2.16 122.05 0.58 121.52 -1 121 C-0.4 118 0.03 116.97 2.12 114.56 C4 112 4 112 3.75 109.19 C3.5 108.47 3.25 107.74 3 107 C0.74 106.72 0.74 106.72 -2 107 C-4.17 109.18 -5.84 111.54 -7.64 114.03 C-10.41 116.34 -12.18 116.53 -15.74 116.32 C-19.96 115.72 -23.98 114.6 -28.06 113.38 C-28.99 113.1 -29.92 112.83 -30.87 112.55 C-37.44 110.59 -43.68 108.21 -50 105.57 C-79.81 93.49 -111.27 88.78 -143.25 88.69 C-144.14 88.68 -145.04 88.68 -145.96 88.68 C-158.3 88.68 -170.44 89.19 -182.69 90.75 C-183.94 90.91 -185.19 91.06 -186.47 91.23 C-194.9 92.42 -202.88 94.48 -211 97 C-211.76 97.23 -212.53 97.46 -213.31 97.69 C-226.79 101.78 -243.91 107.49 -251.19 120.67 C-253.88 128.41 -251.99 137.11 -250.69 145 C-250.63 145.36 -250.63 145.36 -250.33 147.18 C-249.32 152.64 -247.52 156.16 -244.02 160.4 C-241.74 163.33 -240.27 166.27 -238.69 169.62 C-234.62 178.02 -229.92 185.77 -224 193 C-224.66 193.33 -225.32 193.66 -226 194 C-232.49 186.04 -237.65 178.36 -242 169 C-242.86 167.32 -243.73 165.66 -244.62 164 C-244.99 163.32 -245.35 162.64 -245.73 161.94 C-247 160 -247 160 -249.04 158.27 C-251.79 155.09 -252.17 151.78 -252.75 147.75 C-252.87 146.96 -252.99 146.17 -253.11 145.35 C-256.02 124.49 -256.02 124.49 -251.94 117.38 C-250.53 115.59 -250.53 115.59 -249 114 C-248.52 113.49 -248.03 112.97 -247.53 112.44 C-220.07 86.53 -170.54 85.26 -135 86 C-134.25 86.01 -133.49 86.03 -132.71 86.04 C-104.86 86.61 -78.08 92.7 -52 102.18 C-49.81 102.97 -47.62 103.77 -45.44 104.56 C-44.36 104.96 -43.28 105.35 -42.17 105.75 C-34.52 108.51 -26.88 110.98 -19 113 C-19.18 112.56 -19.18 112.56 -20.09 110.36 C-27.03 92.55 -22.85 75.97 -16.78 58.34 C-15.25 53.75 -13.99 49.09 -12.69 44.44 C-12.39 43.36 -12.08 42.28 -11.77 41.17 C-9.35 32.45 -7.13 23.69 -5.04 14.88 C-3.78 9.65 -2.3 4.88 0 0 Z " fill="#FCD167" transform="translate(315,71)"/>
<path d="M0 0 C-1.96 1.51 -3.78 2.89 -6 4 C-6 4.99 -6 5.98 -6 7 C-11.06 6.58 -15.62 5.87 -20.5 4.44 C-27.02 2.72 -33.13 2.83 -39.81 2.96 C-43.37 3.02 -46.83 2.83 -50.38 2.5 C-79.59 0.22 -122.67 -0.53 -146.75 19.62 C-150.7 23.28 -152.2 26.67 -152.81 32 C-152.87 32.42 -152.87 32.42 -153.14 34.56 C-152.97 37.57 -151.98 38.79 -150 41 C-152.31 41 -154.62 41 -157 41 C-156.67 39.68 -156.34 38.36 -156 37 C-157.48 37.11 -158.96 37.24 -160.44 37.38 C-160.85 37.41 -160.85 37.41 -162.93 37.59 C-163.27 37.65 -163.27 37.65 -165 38 C-165.33 38.66 -165.66 39.32 -166 40 C-163.69 40.33 -161.38 40.66 -159 41 C-159.33 41.16 -159.33 41.16 -161 42 C-161 42.66 -161 43.32 -161 44 C-159.42 43.86 -157.83 43.71 -156.25 43.56 C-155.37 43.48 -154.49 43.4 -153.58 43.32 C-151.31 43.04 -149.2 42.61 -147 42 C-147 42.66 -147 43.32 -147 44 C-146.67 44.16 -146.67 44.16 -145 45 C-146.13 45.29 -147.27 45.58 -148.44 45.88 C-149.61 46.25 -150.79 46.62 -152 47 C-152.33 47.66 -152.66 48.32 -153 49 C-151.89 48.94 -150.77 48.88 -149.62 48.81 C-149.03 48.84 -149.03 48.84 -146 49 C-145.34 49.99 -144.68 50.98 -144 52 C-140.88 53.19 -140.88 53.19 -138 54 C-138.16 54.66 -138.16 54.66 -139 58 C-144.68 57.49 -148.9 55.93 -153.94 53.31 C-154.64 52.95 -155.35 52.59 -156.07 52.22 C-164.67 47.71 -170.87 42.55 -177 35 C-177.66 36.32 -178.32 37.64 -179 39 C-179.65 31.25 -179.83 25.27 -174.88 18.98 C-138.02 -19.95 -46.34 -16.71 0 0 Z " fill="#D86F17" transform="translate(241,168)"/>
<path d="M0 0 C1.87 0.3 1.87 0.3 4 1 C8.24 7.65 9.59 14.91 11.19 22.56 C11.45 23.76 11.71 24.95 11.97 26.18 C12.95 30.71 13.89 35.18 14.49 39.78 C15.04 43.22 16.02 46.26 17.17 49.54 C18.69 54.03 19.89 58.61 21.12 63.19 C21.39 64.15 21.65 65.1 21.93 66.09 C24.16 74.28 25.2 81.77 25.25 90.25 C25.26 90.7 25.26 90.7 25.31 92.95 C25.36 100.53 24.44 108.34 19.56 114.44 C17.46 116.54 15.37 118.22 13 120 C12.67 120.99 12.34 121.98 12 123 C12.74 123.23 13.49 123.45 14.25 123.69 C17.75 125.36 19.17 126.55 21 130 C20.71 137 17.42 141.99 13.19 147.31 C12.67 148 12.14 148.69 11.61 149.4 C7.85 154.26 4.1 158.31 -1.69 160.69 C-6.46 162.95 -9.99 166.38 -13.8 169.98 C-16 172 -16 172 -19 174 C-15.61 166.32 -8.32 160.77 -1 157 C-0.2 156.73 0.59 156.47 1.42 156.19 C4.39 154.82 5.44 153.57 7.3 150.9 C7.86 150.1 8.43 149.3 9.01 148.47 C9.59 147.64 10.16 146.8 10.75 145.94 C11.91 144.28 13.07 142.62 14.23 140.96 C14.74 140.23 15.25 139.49 15.77 138.73 C17 137 17 137 18 136 C18.38 133.19 18.38 133.19 18 130 C14.33 126.4 10.52 124.88 5.69 123.25 C5.04 123.03 4.4 122.81 3.73 122.58 C2.16 122.05 0.58 121.52 -1 121 C-1 120.34 -1 119.68 -1 119 C-0.36 118.99 0.28 118.97 0.94 118.96 C7.22 118.61 11.56 117.62 16 113 C22.3 104.35 23.07 95.34 22 85 C20.83 78.17 18.91 71.49 17.06 64.81 C16.12 61.36 15.2 57.91 14.29 54.46 C14.07 53.64 13.85 52.82 13.63 51.98 C11.94 45.32 11.13 38.89 11 32 C10.34 32 9.68 32 9 32 C8.9 31.07 8.8 30.14 8.7 29.18 C7.78 21.28 6.36 14.08 3.8 6.51 C3 4 3 4 3 2 C1 3 1 3 -0.18 6.54 C-0.61 8.09 -1.03 9.64 -1.44 11.19 C-1.66 12 -1.88 12.82 -2.1 13.66 C-4.6 23.03 -6.55 32.46 -8.25 42 C-10.19 52.8 -12.85 63.45 -15.38 74.12 C-15.92 76.41 -16.46 78.71 -17 81 C-17.21 81.9 -17.43 82.81 -17.65 83.73 C-19.89 93.44 -20.09 102.41 -14.69 111.12 C-13.51 112.78 -12.26 114.4 -11 116 C-17.09 116.35 -22.18 115.11 -28 113.38 C-28.93 113.1 -29.86 112.83 -30.82 112.55 C-37.41 110.59 -43.66 108.22 -50 105.57 C-79.81 93.49 -111.27 88.78 -143.25 88.69 C-144.14 88.68 -145.04 88.68 -145.96 88.68 C-158.3 88.68 -170.44 89.19 -182.69 90.75 C-183.94 90.91 -185.19 91.06 -186.47 91.23 C-194.9 92.42 -202.88 94.48 -211 97 C-211.76 97.23 -212.53 97.46 -213.31 97.69 C-226.79 101.78 -243.91 107.49 -251.19 120.67 C-253.88 128.41 -251.99 137.11 -250.69 145 C-250.63 145.36 -250.63 145.36 -250.33 147.18 C-249.32 152.64 -247.52 156.16 -244.02 160.4 C-241.74 163.33 -240.27 166.27 -238.69 169.62 C-234.62 178.02 -229.92 185.77 -224 193 C-224.66 193.33 -225.32 193.66 -226 194 C-232.49 186.04 -237.65 178.36 -242 169 C-242.86 167.32 -243.73 165.66 -244.62 164 C-244.99 163.32 -245.35 162.64 -245.73 161.94 C-247 160 -247 160 -249.04 158.27 C-251.79 155.09 -252.17 151.78 -252.75 147.75 C-252.87 146.96 -252.99 146.17 -253.11 145.35 C-256.02 124.49 -256.02 124.49 -251.94 117.38 C-250.53 115.59 -250.53 115.59 -249 114 C-248.52 113.49 -248.03 112.97 -247.53 112.44 C-220.07 86.53 -170.54 85.26 -135 86 C-134.25 86.01 -133.49 86.03 -132.71 86.04 C-104.86 86.61 -78.08 92.7 -52 102.18 C-49.81 102.97 -47.62 103.77 -45.44 104.56 C-44.36 104.96 -43.28 105.35 -42.17 105.75 C-34.52 108.51 -26.88 110.98 -19 113 C-19.18 112.56 -19.18 112.56 -20.09 110.36 C-27.03 92.55 -22.85 75.97 -16.78 58.34 C-15.25 53.75 -13.99 49.09 -12.69 44.44 C-12.39 43.36 -12.08 42.28 -11.77 41.17 C-9.35 32.45 -7.13 23.69 -5.04 14.88 C-3.78 9.65 -2.3 4.88 0 0 Z " fill="#FEFAEE" transform="translate(315,71)"/>
<path d="M0 0 C1.93 0.71 3.87 1.42 5.8 2.13 C6.73 2.47 7.66 2.81 8.62 3.16 C19.4 7.11 29.95 10.15 41.25 12.12 C39.6 13.78 37.95 15.43 36.25 17.12 C36.41 17.62 36.41 17.62 37.25 20.12 C36.59 20.12 35.93 20.12 35.25 20.12 C35.25 20.78 35.25 21.44 35.25 22.12 C34.28 22.39 33.31 22.66 32.31 22.94 C31.3 23.33 30.29 23.72 29.25 24.12 C28.92 25.12 28.59 26.1 28.25 27.12 C25.75 28.07 25.75 28.07 22.69 28.81 C21.68 29.06 20.66 29.32 19.62 29.57 C18.84 29.76 18.06 29.94 17.25 30.12 C18.21 30.1 19.18 30.08 20.17 30.05 C20.8 30.05 20.8 30.05 24 30 C25.25 29.98 26.51 29.95 27.8 29.93 C30.98 30.11 32.62 30.44 35.25 32.12 C35.25 32.78 35.25 33.44 35.25 34.12 C30.96 34.45 26.67 34.78 22.25 35.12 C22.25 36.12 22.25 37.1 22.25 38.12 C16.54 40.57 12.46 41.55 6.25 41.12 C5.59 40.8 4.93 40.47 4.25 40.12 C4.25 39.47 4.25 38.81 4.25 38.12 C6.56 38.12 8.87 38.12 11.25 38.12 C11.25 37.13 11.25 36.15 11.25 35.12 C12.9 34.8 14.55 34.47 16.25 34.12 C11.05 33.8 7.08 34.94 2.25 36.62 C-2.58 38.31 -6.55 39.45 -11.75 39.12 C-2.61 29.5 10.85 23.26 23.25 19.12 C22.41 18.96 21.56 18.8 20.69 18.64 C11.78 16.85 3.44 14.32 -5.12 11.25 C-6.41 10.8 -7.7 10.35 -8.99 9.9 C-13.41 8.35 -17.84 6.8 -22.26 5.24 C-31.8 1.91 -41.23 -0.01 -51.21 -1.53 C-52.16 -1.68 -53.11 -1.83 -54.09 -1.98 C-54.94 -2.11 -55.79 -2.23 -56.67 -2.36 C-58.75 -2.88 -58.75 -2.88 -60.75 -4.88 C-52.56 -5.44 -45.4 -4.35 -37.54 -2.21 C-31.08 -0.5 -31.08 -0.5 -27.75 -1.88 C-27.91 -2.21 -27.91 -2.21 -28.75 -3.88 C-19.44 -9.46 -9.37 -3.51 0 0 Z " fill="#B97E36" transform="translate(262.75,174.875)"/>
<path d="M0 0 C-0.66 1.65 -1.32 3.3 -2 5 C-4.64 4.67 -7.28 4.34 -10 4 C-10 4.99 -10 5.98 -10 7 C-6.7 6.67 -3.4 6.34 0 6 C-0.65 8.35 -0.65 8.35 -2 11 C-4.54 12.37 -4.54 12.37 -7.62 13.44 C-14.33 15.99 -19.96 18.94 -24 25 C-23.67 25.66 -23.34 26.32 -23 27 C-23.38 30.32 -23.85 33.47 -24.75 36.69 C-25 39 -25 39 -23.56 41.31 C-23.05 41.87 -22.53 42.43 -22 43 C-24.31 43 -26.62 43 -29 43 C-28.67 41.68 -28.34 40.36 -28 39 C-29.48 39.11 -30.96 39.24 -32.44 39.38 C-32.85 39.41 -32.85 39.41 -34.93 39.59 C-35.27 39.65 -35.27 39.65 -37 40 C-37.33 40.66 -37.66 41.32 -38 42 C-35.69 42.33 -33.38 42.66 -31 43 C-31.33 43.16 -31.33 43.16 -33 44 C-33 44.66 -33 45.32 -33 46 C-31.42 45.86 -29.83 45.71 -28.25 45.56 C-27.37 45.48 -26.49 45.4 -25.58 45.32 C-23.31 45.04 -21.2 44.61 -19 44 C-19 44.66 -19 45.32 -19 46 C-18.67 46.16 -18.67 46.16 -17 47 C-18.13 47.29 -19.27 47.58 -20.44 47.88 C-21.61 48.25 -22.79 48.62 -24 49 C-24.33 49.66 -24.66 50.32 -25 51 C-23.89 50.94 -22.77 50.88 -21.62 50.81 C-21.03 50.84 -21.03 50.84 -18 51 C-17.34 51.99 -16.68 52.98 -16 54 C-12.88 55.19 -12.88 55.19 -10 56 C-10.33 57.32 -10.66 58.64 -11 60 C-16.68 59.49 -20.9 57.93 -25.94 55.31 C-26.64 54.95 -27.35 54.59 -28.07 54.22 C-36.67 49.71 -42.87 44.55 -49 37 C-49.66 38.32 -50.32 39.64 -51 41 C-51.65 33.25 -51.83 27.27 -46.88 20.98 C-35.95 9.44 -16.21 -0.68 0 0 Z " fill="#B85517" transform="translate(113,166)"/>
<path d="M0 0 C0 0.99 0 1.98 0 3 C-0.99 3.66 -1.98 4.32 -3 5 C-1.02 5.99 0.96 6.98 3 8 C0.08 9.95 -1.63 10.45 -5 11 C-4.84 11.33 -4.84 11.33 -4 13 C-23.8 16.49 -42.91 18.27 -63 18 C-63.33 17.01 -63.66 16.02 -64 15 C-66 14 -66 14 -67 14 C-68.67 14 -70.33 14 -72 14 C-72 10 -72 10 -70 8 C-71.65 7.67 -73.3 7.34 -75 7 C-75 6.67 -75 6.34 -75 6 C-74.1 5.98 -73.2 5.96 -72.27 5.94 C-50.74 5.44 -29.82 4.67 -8.67 0.23 C-7.83 0.06 -6.99 -0.11 -6.12 -0.29 C-5.37 -0.45 -4.62 -0.61 -3.85 -0.78 C-2 -1 -2 -1 0 0 Z " fill="#E0730F" transform="translate(237,220)"/>
<path d="M0 0 C0.66 0 1.32 0 2 0 C2.13 0.84 2.27 1.69 2.4 2.55 C2.58 3.65 2.76 4.75 2.94 5.88 C3.11 6.97 3.29 8.06 3.46 9.18 C4 12 4 12 5 14 C5.99 14.33 6.98 14.66 8 15 C10.96 28.06 12.7 40.61 13 54 C10 54 10 54 7.81 52.12 C6 50 6 50 6 48 C5.5 47.84 5.5 47.84 3 47 C3 46.01 3 45.02 3 44 C-2.55 44.9 -6.26 45.51 -10 50 C-10.66 50 -11.32 50 -12 50 C-12.33 50.66 -12.66 51.32 -13 52 C-13.92 41.79 -11.42 32.94 -8.63 23.24 C-7.75 20.11 -6.96 16.97 -6.19 13.81 C-5.95 12.87 -5.72 11.93 -5.48 10.96 C-5.32 10.31 -5.16 9.67 -5 9 C-4.34 9 -3.68 9 -3 9 C-2.01 6.03 -1.02 3.06 0 0 Z " fill="#FDFAE5" transform="translate(316,122)"/>
<path d="M0 0 C0.66 0 1.32 0 2 0 C2.33 1.65 2.66 3.3 3 5 C3.66 5 4.32 5 5 5 C5 4.01 5 3.02 5 2 C5.66 2 6.32 2 7 2 C7.66 3.32 8.32 4.64 9 6 C9.99 5.67 10.98 5.34 12 5 C13.11 9.23 14.21 13.46 15.31 17.69 C15.47 18.28 15.47 18.28 16.25 21.26 C25.43 56.55 25.43 56.55 17.61 70.74 C16 73 16 73 13 75 C13.95 72.57 14.91 70.19 16.07 67.85 C19.65 60.3 19.39 53.18 19 45 C15.72 51.41 14.91 57.91 14 65 C13.67 65 13.34 65 13 65 C12.92 64.35 12.85 63.7 12.77 63.03 C11.31 50.58 9.77 38.24 7 26 C6.01 26 5.02 26 4 26 C2.25 20.76 1.81 16.53 2 11 C1.34 11 0.68 11 0 11 C0.08 11.74 0.17 12.48 0.25 13.25 C-0.07 16.78 -1.35 17.77 -4 20 C-4 18.35 -4 16.7 -4 15 C-4.99 15.99 -5.98 16.98 -7 18 C-5.8 11.11 -3.68 5.94 0 0 Z " fill="#FDE37E" transform="translate(316,111)"/>
<path d="M0 0 C1.09 3.27 0.93 4.05 0.04 7.24 C-0.19 8.06 -0.41 8.88 -0.64 9.72 C-0.76 10.15 -0.76 10.15 -1.38 12.31 C-4.65 24.06 -7.46 35.45 -2 47 C-0.46 49.48 1.19 51.7 3 54 C-3.09 54.35 -8.18 53.11 -14 51.38 C-14.93 51.1 -15.86 50.83 -16.82 50.55 C-23.41 48.59 -29.66 46.22 -36 43.57 C-65.81 31.49 -97.27 26.78 -129.25 26.69 C-130.14 26.68 -131.04 26.68 -131.96 26.68 C-144.3 26.68 -156.44 27.19 -168.69 28.75 C-169.94 28.91 -171.19 29.06 -172.47 29.23 C-180.9 30.42 -188.88 32.48 -197 35 C-197.76 35.23 -198.53 35.46 -199.31 35.69 C-212.79 39.78 -229.91 45.49 -237.19 58.67 C-239.88 66.41 -237.99 75.11 -236.69 83 C-236.63 83.36 -236.63 83.36 -236.33 85.18 C-235.32 90.64 -233.52 94.16 -230.02 98.4 C-227.74 101.33 -226.27 104.27 -224.69 107.62 C-220.62 116.02 -215.92 123.77 -210 131 C-210.66 131.33 -211.32 131.66 -212 132 C-218.49 124.04 -223.65 116.36 -228 107 C-228.86 105.32 -229.73 103.66 -230.62 102 C-230.99 101.32 -231.35 100.64 -231.73 99.94 C-233 98 -233 98 -235.04 96.27 C-237.79 93.09 -238.17 89.78 -238.75 85.75 C-238.87 84.96 -238.99 84.17 -239.11 83.35 C-242.02 62.49 -242.02 62.49 -237.94 55.38 C-236.53 53.59 -236.53 53.59 -235 52 C-234.52 51.49 -234.03 50.97 -233.53 50.44 C-206.07 24.53 -156.54 23.26 -121 24 C-120.25 24.01 -119.49 24.03 -118.71 24.04 C-90.86 24.61 -64.08 30.7 -38 40.18 C-35.81 40.97 -33.62 41.77 -31.44 42.56 C-30.36 42.96 -29.28 43.35 -28.17 43.75 C-20.52 46.51 -12.88 48.98 -5 51 C-5.32 50.39 -5.65 49.79 -5.98 49.16 C-7.46 44.57 -7.3 40.17 -7.25 35.38 C-7.24 34.39 -7.24 33.4 -7.23 32.38 C-7.14 25.74 -6.76 19.43 -5 13 C-4.88 12.54 -4.88 12.54 -4.27 10.23 C-3.18 6.36 -2.25 3.38 0 0 Z " fill="#F6E6DC" transform="translate(301,133)"/>
<path d="M0 0 C0.96 0.35 1.92 0.7 2.9 1.06 C7.17 2.63 11.41 4.24 15.62 5.94 C15.3 6.6 14.97 7.26 14.62 7.94 C15.94 8.27 17.26 8.6 18.62 8.94 C18.62 9.6 18.62 10.26 18.62 10.94 C16.31 11.27 14 11.6 11.62 11.94 C11.62 12.6 11.62 13.26 11.62 13.94 C12.12 14.1 12.12 14.1 14.62 14.94 C14.62 15.27 14.62 15.6 14.62 15.94 C6.89 15.45 0.32 13.33 -6.94 10.69 C-9.27 9.86 -11.6 9.04 -13.93 8.22 C-16.08 7.46 -18.23 6.7 -20.38 5.94 C-30.78 2.25 -40.93 -0.06 -51.84 -1.72 C-52.79 -1.87 -53.73 -2.02 -54.71 -2.17 C-55.56 -2.29 -56.41 -2.42 -57.29 -2.55 C-59.38 -3.06 -59.38 -3.06 -61.38 -5.06 C-53.18 -5.63 -46.02 -4.54 -38.16 -2.4 C-31.7 -0.68 -31.7 -0.68 -28.38 -2.06 C-28.54 -2.39 -28.54 -2.39 -29.38 -4.06 C-19.94 -9.72 -9.5 -3.53 0 0 Z " fill="#E37F1F" transform="translate(263.375,175.0625)"/>
<path d="M0 0 C2.56 0.19 2.56 0.19 4.56 2.19 C4.48 6.14 3.81 7.89 1.28 10.96 C0.36 11.82 -0.56 12.68 -1.5 13.56 C-2.42 14.44 -3.34 15.31 -4.29 16.21 C-5 16.86 -5.71 17.52 -6.44 18.19 C-3.8 19.18 -1.16 20.17 1.56 21.19 C1.56 22.18 1.56 23.17 1.56 24.19 C-1.98 25.77 -5 26.5 -8.86 26.79 C-9.37 26.82 -9.37 26.82 -11.97 27.03 C-13.03 27.1 -14.09 27.17 -15.19 27.25 C-17.29 27.41 -19.39 27.56 -21.48 27.72 C-22.49 27.8 -23.49 27.87 -24.53 27.95 C-28.51 28.27 -32.47 28.72 -36.44 29.19 C-36.11 28.53 -35.78 27.87 -35.44 27.19 C-32.69 26.33 -29.91 25.71 -27.1 25.07 C-24.34 24.16 -23.33 23.31 -21.44 21.19 C-19.25 20.5 -19.25 20.5 -17.44 20.19 C-17.44 19.53 -17.44 18.87 -17.44 18.19 C-16.78 18.19 -16.12 18.19 -15.44 18.19 C-15.44 17.53 -15.44 16.87 -15.44 16.19 C-16.1 15.86 -16.76 15.53 -17.44 15.19 C-16.43 14.36 -15.42 13.54 -14.38 12.69 C-10.3 9.21 -6.89 5.27 -3.44 1.19 C-2.44 0.19 -2.44 0.19 0 0 Z " fill="#4C331D" transform="translate(315.4375,176.8125)"/>
<path d="M0 0 C-0.38 5.35 -2.35 8.11 -6 11.81 C-6.49 12.33 -6.99 12.85 -7.49 13.38 C-8.98 14.93 -10.49 16.47 -12 18 C-12.84 18.86 -13.69 19.72 -14.55 20.6 C-16.69 22.75 -18.84 24.88 -21 27 C-21.78 27.81 -22.56 28.62 -23.36 29.45 C-26.19 32.18 -29.15 34.48 -32.31 36.81 C-32.59 37.02 -32.59 37.02 -33.98 38.04 C-35.32 39.03 -36.66 40.02 -38 41 C-38.33 40.34 -38.66 39.68 -39 39 C-38.18 38.41 -37.36 37.82 -36.52 37.21 C-35.43 36.41 -34.34 35.61 -33.25 34.81 C-32.71 34.43 -32.17 34.04 -31.62 33.64 C-28.17 31.09 -25.53 28.46 -23 25 C-23.66 24.01 -24.32 23.02 -25 22 C-25.99 22.66 -26.98 23.32 -28 24 C-28 23.34 -28 22.68 -28 22 C-28.99 22.66 -29.98 23.32 -31 24 C-31.99 24 -32.98 24 -34 24 C-32.76 18.8 -30.45 15 -26 12 C-24.68 12 -23.36 12 -22 12 C-21.67 13.32 -21.34 14.64 -21 16 C-17.88 14.78 -16.29 13.58 -14.78 10.57 C-13.79 8.07 -12.86 5.56 -12 3 C-11.01 3 -10.02 3 -9 3 C-8.67 2.01 -8.34 1.02 -8 0 C-4.71 -0.8 -3.29 -1.1 0 0 Z " fill="#824824" transform="translate(296,242)"/>
<path d="M0 0 C5.88 0.47 11.02 1.5 16.62 3.3 C19.75 4.22 22.77 4.65 26 5 C24.33 6.67 22.67 8.33 21 10 C20.28 10.83 19.56 11.66 18.82 12.51 C15.39 15.54 12.47 16.47 8.12 17.62 C2.88 19.09 -2.02 20.78 -7 23 C-10.3 24.17 -13.58 25.21 -17 26 C-13.36 22 -10 19.7 -5.06 17.31 C-3.88 16.73 -2.69 16.15 -1.47 15.55 C1.65 14.16 4.74 13.01 8 12 C4.37 11.34 0.74 10.68 -3 10 C-2.34 9.34 -1.68 8.68 -1 8 C-1.66 7.67 -2.32 7.34 -3 7 C-3 6.34 -3 5.68 -3 5 C-1.85 4.84 -1.85 4.84 4 4 C4 3.34 4 2.68 4 2 C2.35 2 0.7 2 -1 2 C-0.67 1.34 -0.34 0.68 0 0 Z " fill="#DB6F09" transform="translate(278,182)"/>
<path d="M0 0 C0.66 0 1.32 0 2 0 C2.5 0.7 2.99 1.4 3.5 2.12 C7.55 6.79 13.01 9.87 18.77 12.05 C19.51 12.36 20.24 12.68 21 13 C21.69 15.06 21.69 15.06 22 17 C22.66 17.33 23.32 17.66 24 18 C23.88 19.88 23.88 19.88 23 22 C19.94 23.25 19.94 23.25 17 24 C17 24.99 17 25.98 17 27 C16.01 26.67 15.02 26.34 14 26 C14 24.35 14 22.7 14 21 C13.03 20.71 12.06 20.42 11.06 20.12 C8 19 8 19 7 17 C4.68 16.59 2.34 16.26 0 16 C0.33 15.01 0.66 14.02 1 13 C2.98 12.67 4.96 12.34 7 12 C6.67 11.01 6.34 10.02 6 9 C5.45 9.33 4.9 9.65 4.33 9.99 C1.61 11.17 -0.31 11.2 -3.25 11.12 C-4.14 11.11 -5.03 11.09 -5.95 11.07 C-6.29 11.06 -6.29 11.06 -8 11 C-8 10.01 -8 9.02 -8 8 C-9.65 7.67 -11.3 7.34 -13 7 C-12.67 6.01 -12.34 5.02 -12 4 C-9.03 4 -6.06 4 -3 4 C-3 4.99 -3 5.98 -3 7 C-1.35 7 0.3 7 2 7 C1.48 6.4 0.97 5.8 0.44 5.19 C-0.04 4.47 -0.51 3.74 -1 3 C-0.67 2.01 -0.34 1.02 0 0 Z " fill="#CF7836" transform="translate(88,201)"/>
<path d="M0 0 C4.44 -0.06 8.87 -0.09 13.31 -0.12 C14.58 -0.14 15.84 -0.16 17.14 -0.18 C17.74 -0.18 17.74 -0.18 20.8 -0.2 C21.92 -0.21 23.03 -0.22 24.18 -0.23 C27 0 27 0 30 2 C31.19 4.62 31.19 4.62 32 7 C31 8 31 8 28.44 8.06 C27.63 8.04 26.83 8.02 26 8 C26.33 6.02 26.66 4.04 27 2 C24.03 2 21.06 2 18 2 C18.35 2.78 18.7 3.57 19.06 4.38 C19.22 4.81 19.22 4.81 20 7 C19.67 7.66 19.34 8.32 19 9 C21.73 9.03 24.46 9.05 27.19 9.06 C27.96 9.07 28.73 9.08 29.52 9.09 C33.49 9.1 37.13 8.99 41 8 C40.34 7.34 39.68 6.68 39 6 C39 4.68 39 3.36 39 2 C41.38 2.31 41.38 2.31 44 3 C44.66 3.99 45.32 4.98 46 6 C45.34 6 44.68 6 44 6 C44 6.66 44 7.32 44 8 C47.3 8 50.6 8 54 8 C49.91 12.09 42.61 11.29 37.06 11.56 C36.24 11.6 35.41 11.65 34.56 11.69 C27.03 12.05 19.53 12.1 12 12 C11.67 11.01 11.34 10.02 11 9 C9 8 9 8 8 8 C6.33 8 4.67 8 3 8 C3 4 3 4 5 2 C3.35 1.67 1.7 1.34 0 1 C0 0.67 0 0.34 0 0 Z " fill="#EA913A" transform="translate(162,226)"/>
<path d="M0 0 C0.33 0 0.66 0 1 0 C1.34 2.69 1.67 5.37 2 8.06 C2.1 8.81 2.19 9.57 2.29 10.34 C2.85 14.93 3.1 19.37 3 24 C0 24 0 24 -2.19 22.12 C-4 20 -4 20 -4 18 C-4.99 17.67 -5.98 17.34 -7 17 C-7 16.01 -7 15.02 -7 14 C-12.55 14.9 -16.26 15.51 -20 20 C-20.66 20 -21.32 20 -22 20 C-22.33 20.66 -22.66 21.32 -23 22 C-23.2 15.29 -23.31 9.35 -21 3 C-19.96 6.39 -19.96 9.47 -20 13 C-19.7 12.67 -19.7 12.67 -18.17 11 C-17.37 10.15 -16.57 9.31 -15.75 8.44 C-15.36 8.01 -15.36 8.01 -13.36 5.87 C-11 4 -11 4 -8.94 3.97 C-5.08 6.02 -2.74 9.68 0 13 C0 8.71 0 4.42 0 0 Z " fill="#FDF5C1" transform="translate(326,152)"/>
<path d="M0 0 C-0.66 1.65 -1.32 3.3 -2 5 C-4.64 4.67 -7.28 4.34 -10 4 C-10 4.99 -10 5.98 -10 7 C-6.7 6.67 -3.4 6.34 0 6 C-0.66 7.32 -1.32 8.64 -2 10 C-4.25 10.55 -4.25 10.55 -7 11 C-10.11 12.51 -13.13 14.16 -16.16 15.82 C-19 17 -19 17 -21.37 16.68 C-21.64 16.57 -21.64 16.57 -23 16 C-22.67 15.34 -22.34 14.68 -22 14 C-24.64 13.34 -27.28 12.68 -30 12 C-29.67 10.68 -29.34 9.36 -29 8 C-26.38 6.62 -26.38 6.62 -23 5.44 C-21.82 5.02 -20.64 4.6 -19.43 4.17 C-18.3 3.79 -17.17 3.4 -16 3 C-15.14 2.68 -14.27 2.35 -13.38 2.02 C-8.72 0.3 -4.97 -0.32 0 0 Z " fill="#B1551E" transform="translate(113,166)"/>
<path d="M0 0 C7.43 -0.14 7.43 -0.14 11 1 C11 1.66 11 2.32 11 3 C11.99 3.33 12.98 3.66 14 4 C-16.76 18.57 -16.76 18.57 -27 15 C-25.02 14.34 -23.04 13.68 -21 13 C-22.32 11.35 -23.64 9.7 -25 8 C-19.81 7.79 -15.87 8.41 -11 10 C-11 9.34 -11 8.68 -11 8 C-12.65 7.67 -14.3 7.34 -16 7 C-16 6.34 -16 5.68 -16 5 C-13.36 5 -10.72 5 -8 5 C-8 4.34 -8 3.68 -8 3 C-4.7 3 -1.4 3 2 3 C1.34 2.67 0.68 2.34 0 2 C0 1.34 0 0.68 0 0 Z " fill="#F1A23E" transform="translate(258,216)"/>
<path d="M0 0 C-0.99 0.33 -1.98 0.66 -3 1 C-3.69 3.06 -3.69 3.06 -4 5 C-3.01 5.33 -2.02 5.66 -1 6 C-3.75 8.75 -5.82 8.58 -9.66 9.07 C-10.32 9.16 -10.99 9.24 -11.67 9.33 C-13.08 9.51 -14.49 9.69 -15.9 9.86 C-18.03 10.12 -20.16 10.4 -22.29 10.68 C-29.23 11.56 -36 12.23 -43 12 C-42.01 11.67 -41.02 11.34 -40 11 C-40 10.34 -40 9.68 -40 9 C-37.36 9 -34.72 9 -32 9 C-32 8.34 -32 7.68 -32 7 C-28.7 6.67 -25.4 6.34 -22 6 C-23.65 5.34 -25.3 4.68 -27 4 C-27 3.34 -27 2.68 -27 2 C-18.08 -0.64 -9.21 -0.18 0 0 Z " fill="#B44F12" transform="translate(159,160)"/>
<path d="M0 0 C0.33 0.66 0.66 1.32 1 2 C1.8 2.12 2.61 2.25 3.44 2.38 C9.29 3.4 14.77 5.41 19.62 8.88 C21.45 11.69 21.3 13.72 21 17 C20.34 16.01 19.68 15.02 19 14 C18.15 14.29 17.31 14.58 16.44 14.88 C6.28 18.2 -0.66 18.68 -11 16 C-11 15.67 -11 15.34 -11 15 C-5.06 14.67 0.88 14.34 7 14 C7.66 12.35 8.32 10.7 9 9 C7.99 8.88 6.98 8.75 5.94 8.62 C2.12 8.02 -1.32 7.13 -5 6 C-3.35 4.02 -1.7 2.04 0 0 Z " fill="#F28E1A" transform="translate(313,190)"/>
<path d="M0 0 C0 0.66 0 1.32 0 2 C0.8 2.12 1.61 2.25 2.44 2.38 C2.86 2.48 2.86 2.48 5 3 C5.16 3.33 5.16 3.33 6 5 C4.74 5.19 3.48 5.37 2.19 5.56 C1.83 5.61 1.83 5.61 0.04 5.88 C-2 6 -2 6 -5 5 C-5 5.66 -5 6.32 -5 7 C-7.64 7 -10.28 7 -13 7 C-13 7.66 -13 8.32 -13 9 C-9.7 9 -6.4 9 -3 9 C-6.19 11.13 -8.32 11.34 -12.07 11.71 C-14.33 12.05 -15.99 12.96 -18 14 C-18.99 13.67 -19.98 13.34 -21 13 C-20.67 12.34 -20.34 11.68 -20 11 C-22.97 11 -25.94 11 -29 11 C-29 10.01 -29 9.02 -29 8 C-23.25 7.88 -23.25 7.88 -21 9 C-20.34 7.35 -19.68 5.7 -19 4 C-19.66 3.67 -20.32 3.34 -21 3 C-13.9 1.18 -7.35 -0.43 0 0 Z " fill="#C46E2C" transform="translate(132,162)"/>
<path d="M0 0 C0.17 0.33 0.17 0.33 1 2 C0.58 2.54 0.16 3.09 -0.28 3.64 C-0.83 4.36 -1.37 5.08 -1.94 5.81 C-2.21 6.17 -2.21 6.17 -3.59 7.96 C-5 10 -5 10 -6 13 C-5.26 13.23 -4.51 13.45 -3.75 13.69 C-0.25 15.36 1.17 16.55 3 20 C2.71 27 -0.58 31.99 -4.81 37.31 C-5.33 38 -5.86 38.69 -6.39 39.4 C-10.15 44.26 -13.9 48.31 -19.69 50.69 C-24.46 52.95 -27.99 56.38 -31.8 59.98 C-34 62 -34 62 -37 64 C-33.61 56.32 -26.32 50.77 -19 47 C-18.6 46.87 -18.6 46.87 -16.58 46.19 C-13.61 44.82 -12.56 43.57 -10.7 40.9 C-10.14 40.1 -9.57 39.3 -8.99 38.47 C-8.41 37.64 -7.84 36.8 -7.25 35.94 C-6.09 34.28 -4.93 32.62 -3.77 30.96 C-3.26 30.23 -2.75 29.49 -2.23 28.73 C-1 27 -1 27 0 26 C0.38 23.19 0.38 23.19 0 20 C-3.67 16.4 -7.48 14.88 -12.31 13.25 C-12.96 13.03 -13.6 12.81 -14.27 12.58 C-15.84 12.05 -17.42 11.52 -19 11 C-19 10.34 -19 9.68 -19 9 C-18.36 8.99 -17.72 8.97 -17.06 8.96 C-10.45 8.59 -6.99 7.37 -2 3 C-1.34 2.01 -0.68 1.02 0 0 Z " fill="#FBF2E7" transform="translate(333,181)"/>
<path d="M0 0 C1.73 0.45 3.46 0.91 5.19 1.38 C6.15 1.63 7.11 1.89 8.11 2.15 C11 3 11 3 13.61 4.1 C16 5 16 5 20 5 C20 4.34 20 3.68 20 3 C29.02 -0.26 29.02 -0.26 33.12 0.81 C33.43 1.01 33.43 1.01 35 2 C34.67 2.66 34.34 3.32 34 4 C35.32 4.33 36.64 4.66 38 5 C38 5.66 38 6.32 38 7 C35.69 7.33 33.38 7.66 31 8 C31 8.66 31 9.32 31 10 C31.5 10.16 31.5 10.16 34 11 C34 11.33 34 11.66 34 12 C26.67 11.5 20.49 9.69 13.62 7.12 C12.64 6.77 11.66 6.42 10.64 6.06 C2.76 3.16 2.76 3.16 0 0 Z " fill="#ED912D" transform="translate(244,179)"/>
<path d="M0 0 C2.97 0 5.94 0 9 0 C8.34 0.66 7.68 1.32 7 2 C7.82 2.16 7.82 2.16 12 3 C11.45 6.37 10.95 8.08 9 11 C6.05 11.22 3.32 11.28 0.38 11.19 C-0.43 11.17 -1.23 11.16 -2.05 11.15 C-4.04 11.11 -6.02 11.06 -8 11 C-7.34 10.34 -6.68 9.68 -6 9 C-6.5 8.55 -6.99 8.09 -7.5 7.62 C-9 6 -9 6 -9 4 C-5.87 2.14 -3.63 1.8 0 2 C0 1.34 0 0.68 0 0 Z " fill="#D77B34" transform="translate(137,223)"/>
<path d="M0 0 C2.71 0.15 4.47 0.48 6.45 2.4 C7.68 3.9 8.84 5.45 10 7 C8.61 10.37 7.02 11.99 4 14 C4.33 15.32 4.66 16.64 5 18 C3.68 18 2.36 18 1 18 C0 17 0 17 -0.06 14.44 C-0.04 13.63 -0.02 12.83 0 12 C-1.65 11.67 -3.3 11.34 -5 11 C-5.68 9.23 -5.68 9.23 -6 7 C-4.79 5.08 -4.79 5.08 -3.06 3.25 C-2.5 2.64 -1.93 2.02 -1.35 1.39 C-0.9 0.93 -0.46 0.47 0 0 Z " fill="#8F631B" transform="translate(175,270)"/>
<path d="M0 0 C0.66 0 1.32 0 2 0 C4.98 8.43 7.22 15.97 7 25 C6.01 25.33 5.02 25.66 4 26 C2.25 20.76 1.81 16.53 2 11 C1.34 11 0.68 11 0 11 C0.08 11.74 0.17 12.48 0.25 13.25 C-0.07 16.78 -1.35 17.77 -4 20 C-4 18.35 -4 16.7 -4 15 C-4.99 15.99 -5.98 16.98 -7 18 C-5.8 11.11 -3.68 5.94 0 0 Z " fill="#FCEEA5" transform="translate(316,111)"/>
<path d="M0 0 C1.09 3.27 0.93 4.05 0.04 7.24 C-0.07 7.65 -0.07 7.65 -0.64 9.72 C-0.88 10.58 -1.13 11.43 -1.38 12.31 C-4.65 24.06 -7.46 35.45 -2 47 C-0.46 49.48 1.19 51.7 3 54 C-4.02 54.65 -10.51 52.58 -17 50 C-17.33 49.34 -17.66 48.68 -18 48 C-13.51 48.66 -9.33 49.7 -5 51 C-5.32 50.39 -5.65 49.79 -5.98 49.16 C-7.46 44.57 -7.3 40.17 -7.25 35.38 C-7.24 34.39 -7.24 33.4 -7.23 32.38 C-7.14 25.74 -6.76 19.43 -5 13 C-4.88 12.54 -4.88 12.54 -4.27 10.23 C-3.18 6.36 -2.25 3.38 0 0 Z " fill="#FDF1DE" transform="translate(301,133)"/>
<path d="M0 0 C-0.33 1.65 -0.66 3.3 -1 5 C-3.31 5.33 -5.62 5.66 -8 6 C-8 6.66 -8 7.32 -8 8 C-6.35 8 -4.7 8 -3 8 C-3 8.33 -3 8.66 -3 9 C-3.72 8.94 -4.43 8.88 -5.17 8.82 C-12.78 8.18 -20.39 7.58 -28 7 C-28 6.34 -28 5.68 -28 5 C-28.66 5 -29.32 5 -30 5 C-30 3.68 -30 2.36 -30 1 C-29.18 1.16 -29.18 1.16 -25 2 C-25 2.99 -25 3.98 -25 5 C-23.68 5 -22.36 5 -21 5 C-20.75 4.36 -20.5 3.71 -20.25 3.05 C-19 1 -19 1 -17.19 0.39 C-16.47 0.34 -15.74 0.3 -15 0.25 C-14.6 0.22 -14.6 0.22 -12.6 0.08 C-8.4 -0.05 -4.2 -0.08 0 0 Z " fill="#D47934" transform="translate(203,160)"/>
<path d="M0 0 C0 0.66 0 1.32 0 2 C-2.14 2.16 -2.14 2.16 -13 3 C-13 3.99 -13 4.98 -13 6 C-18.71 8.45 -22.79 9.43 -29 9 C-29.66 8.67 -30.32 8.34 -31 8 C-31 7.34 -31 6.68 -31 6 C-28.69 6 -26.38 6 -24 6 C-24 5.01 -24 4.02 -24 3 C-22.35 2.67 -20.7 2.34 -19 2 C-19.99 1.34 -20.98 0.68 -22 0 C-15.02 -2.48 -6.66 -3.93 0 0 Z " fill="#F4A236" transform="translate(298,207)"/>
<path d="M0 0 C1.13 0.02 2.27 0.04 3.44 0.06 C3.73 0.83 4.01 1.59 4.31 2.38 C5.44 5.06 5.44 5.06 7.44 8.06 C2.26 9.13 -2.69 9.18 -7.94 9.12 C-8.35 9.12 -8.35 9.12 -10.46 9.11 C-12.49 9.1 -14.53 9.08 -16.56 9.06 C-16.38 8.3 -16.19 7.54 -16 6.75 C-15.56 4.06 -15.56 4.06 -16.56 1.06 C-13.59 1.06 -10.62 1.06 -7.56 1.06 C-7.89 3.04 -8.22 5.02 -8.56 7.06 C-6.91 6.73 -5.26 6.4 -3.56 6.06 C-3.66 5.66 -3.66 5.66 -4.12 3.62 C-4.27 2.78 -4.41 1.93 -4.56 1.06 C-3.56 0.06 -3.56 0.06 0 0 Z " fill="#D5630A" transform="translate(196.5625,226.9375)"/>
<path d="M0 0 C1.88 2.83 2.6 4.68 3.47 7.89 C3.73 8.85 3.99 9.81 4.26 10.79 C4.52 11.79 4.79 12.79 5.06 13.81 C5.33 14.8 5.6 15.78 5.88 16.8 C8.11 25.09 9.2 32.67 9.25 41.25 C9.27 42.14 9.29 43.03 9.31 43.95 C9.37 53.37 7.67 61.15 1 68 C0.01 67.67 -0.98 67.34 -2 67 C-1.7 66.77 -1.7 66.77 -0.19 65.62 C2.56 62.33 3.31 59.25 4.39 55.14 C5 53 5 53 6 52 C7.08 36.8 5.2 20.57 0.55 6.06 C0 4 0 4 0 0 Z " fill="#FEFCF4" transform="translate(331,120)"/>
<path d="M0 0 C4.09 -0.05 8.19 -0.09 12.28 -0.11 C13.67 -0.12 15.07 -0.13 16.46 -0.15 C18.46 -0.18 20.46 -0.19 22.46 -0.2 C23.06 -0.2 23.06 -0.2 26.11 -0.23 C29 0 29 0 31 2 C29.51 2.16 29.51 2.16 22 3 C21.67 4.32 21.34 5.64 21 7 C19.02 7 17.04 7 15 7 C15 5.68 15 4.36 15 3 C13.68 2.67 12.36 2.34 11 2 C11 3.32 11 4.64 11 6 C11.66 6 12.32 6 13 6 C13 6.66 13 7.32 13 8 C9.04 8 5.08 8 1 8 C1.66 7.34 2.32 6.68 3 6 C3.99 6 4.98 6 6 6 C6 4.68 6 3.36 6 2 C3.69 2.66 1.38 3.32 -1 4 C-0.67 2.68 -0.34 1.36 0 0 Z " fill="#B6480B" transform="translate(162,159)"/>
<path d="M0 0 C6.44 0.62 12.68 1.64 19 3 C18.67 3.16 18.67 3.16 17 4 C17.33 4.99 17.66 5.98 18 7 C17.55 6.99 17.55 6.99 15.25 6.94 C12.57 6.99 10.53 7.22 8 8 C9.32 9.65 10.64 11.3 12 13 C6.58 13.41 2.93 12.04 -2 10 C-1.17 9.38 -0.35 8.76 0.5 8.12 C0.91 7.77 0.91 7.77 3 6 C3 5.34 3 4.68 3 4 C2.01 3.34 1.02 2.68 0 2 C0 1.34 0 0.68 0 0 Z " fill="#BF4D07" transform="translate(120,219)"/>
<path d="M0 0 C-0.52 1.84 -0.52 1.84 -2 4 C-4.6 5.04 -7 5.84 -9.69 6.56 C-15 8.05 -19.96 9.75 -25 12 C-28.3 13.17 -31.58 14.21 -35 15 C-26.66 5.91 -12.45 -0.38 0 0 Z " fill="#EFCA84" transform="translate(296,193)"/>
<path d="M0 0 C5.94 0 11.88 0 18 0 C18 0.33 18 0.66 18 1 C17.37 1.04 17.37 1.04 14.19 1.25 C11.13 1.62 10.28 1.73 8 3.94 C7 6 7 6 7 8 C10.72 8.2 11.77 8.15 15 6 C15 7.32 15 8.64 15 10 C15.33 10.99 15.66 11.98 16 13 C9.73 13 3.46 13 -3 13 C-1.68 12.34 -0.36 11.68 1 11 C1 7 1 7 0 0 Z " fill="#C5560A" transform="translate(158,225)"/>
<path d="M0 0 C-0.66 1.65 -1.32 3.3 -2 5 C-4.64 4.67 -7.28 4.34 -10 4 C-10 4.99 -10 5.98 -10 7 C-6.7 6.67 -3.4 6.34 0 6 C-0.66 7.32 -1.32 8.64 -2 10 C-4.31 10.62 -4.31 10.62 -7 11 C-7.87 11.37 -8.73 11.74 -9.62 12.12 C-12 13 -12 13 -15 12 C-14.01 11.01 -13.02 10.02 -12 9 C-14.31 8.67 -16.62 8.34 -19 8 C-17.86 5.18 -16.8 3.41 -14.04 2 C-9.23 0.29 -5.08 -0.32 0 0 Z " fill="#A4400A" transform="translate(113,166)"/>
<path d="M0 0 C1.94 0.38 1.94 0.38 4 1 C4.33 1.66 4.66 2.32 5 3 C3.68 3 2.36 3 1 3 C1.5 4.07 1.99 5.14 2.5 6.25 C3.89 9.25 4 10.46 4 14 C3.01 14 2.02 14 1 14 C4.75 18.88 4.75 18.88 7 20 C7 20.66 7 21.32 7 22 C7.66 22 8.32 22 9 22 C9 22.66 9 23.32 9 24 C9.66 24 10.32 24 11 24 C10.67 24.99 10.34 25.98 10 27 C8.22 25.3 6.45 23.59 4.69 21.88 C4.19 21.4 3.69 20.93 3.17 20.44 C-0.1 17.23 -2.08 14.22 -4 10 C-5.69 8.12 -5.69 8.12 -7 7 C-6.67 6.01 -6.34 5.02 -6 4 C-2.94 2.81 -2.94 2.81 0 2 C0 1.34 0 0.68 0 0 Z " fill="#855A3A" transform="translate(92,251)"/>
<path d="M0 0 C0.44 -0 0.44 -0 2.7 -0.01 C4.88 0.12 4.88 0.12 5.88 1.12 C5.92 3.12 5.92 5.13 5.88 7.12 C5.27 6.99 5.27 6.99 2.19 6.31 C-0.03 6.01 -0.03 6.01 -2.12 6.12 C-4.88 8.62 -4.88 8.62 -7.12 11.12 C-9.44 10.94 -9.44 10.94 -11.12 10.12 C-11.49 4.63 -11.49 4.63 -9.81 2.31 C-6.63 0.07 -3.76 -0.01 0 0 Z " fill="#F6BA48" transform="translate(315.125,171.875)"/>
<path d="M0 0 C0.33 0 0.66 0 1 0 C1.5 11.12 1.68 21.05 -6 30 C-6.66 30 -7.32 30 -8 30 C-7.8 29.25 -7.59 28.5 -7.38 27.73 C-6.06 22.72 -4.89 17.93 -4.56 12.75 C-4.19 7.74 -2.49 4.33 0 0 Z " fill="#FDC755" transform="translate(335,155)"/>
<path d="M0 0 C0.87 -0 1.73 -0.01 2.62 -0.01 C5 0.12 5 0.12 8 1.12 C11 4.57 11 4.57 11 7.12 C9.89 6.92 8.77 6.71 7.62 6.5 C6.43 6.38 5.23 6.25 4 6.12 C3.34 6.78 2.68 7.44 2 8.12 C-2.05 8.47 -3.55 8.43 -7 6.12 C-7.69 3.5 -7.69 3.5 -8 1.12 C-5.05 0.14 -3.07 -0.01 0 0 Z " fill="#EF9C43" transform="translate(219,222.875)"/>
<path d="M0 0 C0.33 1.32 0.66 2.64 1 4 C0.01 4.33 -0.98 4.66 -2 5 C-4.03 8 -4.36 10.43 -4 14 C-3 16.31 -3 16.31 -2 18 C-3.32 17.67 -4.64 17.34 -6 17 C-6 16.01 -6 15.02 -6 14 C-6.66 14 -7.32 14 -8 14 C-10.62 11.69 -10.62 11.69 -13 9 C-13 8.01 -13 7.02 -13 6 C-10.92 4.39 -10.92 4.39 -8.19 2.81 C-7.29 2.28 -6.4 1.75 -5.48 1.21 C-3 0 -3 0 0 0 Z " fill="#8A5221" transform="translate(169,267)"/>
<path d="M0 0 C-0.37 5.45 -2.49 8.29 -6.19 12.06 C-6.42 12.31 -6.42 12.31 -7.61 13.59 C-10.86 17.01 -14.33 20.03 -18 23 C-16.84 20.15 -15.74 18.76 -13.44 16.62 C-10.57 13.53 -10.4 12.12 -10 8 C-9.39 5.32 -8.69 2.66 -8 0 C-4.71 -0.8 -3.29 -1.1 0 0 Z " fill="#B07652" transform="translate(296,242)"/>
<path d="M0 0 C4.95 0 9.9 0 15 0 C16.11 3.33 15.69 4.66 15 8 C15.33 8.66 15.66 9.32 16 10 C15.34 10.33 15.34 10.33 12 12 C11.67 11.01 11.34 10.02 11 9 C9 8 9 8 8 8 C6.33 8 4.67 8 3 8 C3 4 3 4 5 2 C3.35 1.67 1.7 1.34 0 1 C0 0.67 0 0.34 0 0 Z " fill="#E28332" transform="translate(162,226)"/>
<path d="M0 0 C0 2.31 0 4.62 0 7 C0.99 7.33 1.98 7.66 3 8 C2.67 8.99 2.34 9.98 2 11 C0.51 11.17 0.51 11.17 -7 12 C-7 11.34 -7 10.68 -7 10 C-6.01 9.67 -5.02 9.34 -4 9 C-3.67 8.01 -3.34 7.02 -3 6 C-6.57 7.88 -8.55 9.17 -10 13 C-10.99 13 -11.98 13 -13 13 C-13 11.35 -13 9.7 -13 8 C-12.01 7.67 -11.02 7.34 -10 7 C-9.92 6.38 -9.84 5.76 -9.75 5.12 C-9 3 -9 3 -5.56 1.25 C-2 0 -2 0 0 0 Z " fill="#72471C" transform="translate(222,271)"/>
<path d="M0 0 C5.28 0.99 10.56 1.98 16 3 C11.17 7.83 10.34 8.63 4.19 9.81 C3.03 10.05 1.86 10.28 0.67 10.52 C-0.21 10.68 -1.09 10.84 -2 11 C-1.67 10.01 -1.34 9.02 -1 8 C0.65 7.67 2.3 7.34 4 7 C1.69 6.34 -0.62 5.68 -3 5 C-3 4.34 -3 3.68 -3 3 C-2.01 3 -1.02 3 0 3 C0 2.01 0 1.02 0 0 Z " fill="#E88520" transform="translate(288,184)"/>
<path d="M0 0 C2.54 -0.05 5.08 -0.09 7.62 -0.12 C8.34 -0.14 9.05 -0.16 9.79 -0.18 C14.26 -0.22 17.78 0.31 22 2 C18.6 4.09 15.95 4.18 12 4 C12 4.66 12 5.32 12 6 C12.99 6.66 13.98 7.32 15 8 C13.27 8.03 11.54 8.05 9.81 8.06 C9.33 8.07 9.33 8.07 6.89 8.1 C4.14 8 1.68 7.62 -1 7 C-1 6.34 -1 5.68 -1 5 C0.16 4.84 0.16 4.84 6 4 C6 3.01 6 2.02 6 1 C4.02 1 2.04 1 0 1 C0 0.67 0 0.34 0 0 Z " fill="#BF4D0B" transform="translate(196,161)"/>
<path d="M0 0 C2.65 2.43 4.84 5.13 7 8 C7.66 7.34 8.32 6.68 9 6 C9 8.31 9 10.62 9 13 C6 13 6 13 3.81 11.12 C2 9 2 9 2 7 C1.01 6.67 0.02 6.34 -1 6 C-1 5.01 -1 4.02 -1 3 C-6.68 3.94 -10.72 4.86 -15 9 C-12.49 2.6 -6.76 -1.15 0 0 Z " fill="#FCECA1" transform="translate(320,163)"/>
<path d="M0 0 C3.3 0.99 6.6 1.98 10 3 C10 3.99 10 4.98 10 6 C5.14 8.59 0.35 8.19 -5 8 C-4.24 4.21 -2.87 2.6 0 0 Z " fill="#702701" transform="translate(307,195)"/>
<path d="M0 0 C-1.07 2.92 -1.78 4.78 -4 7 C-11.16 6.66 -11.16 6.66 -14 4.44 C-14.33 3.96 -14.66 3.49 -15 3 C-14.67 2.01 -14.34 1.02 -14 0 C-12.42 -0.2 -10.83 -0.38 -9.25 -0.56 C-8.37 -0.67 -7.49 -0.77 -6.58 -0.88 C-4.12 -0.99 -2.33 -0.74 0 0 Z " fill="#D97E31" transform="translate(222,164)"/>
<path d="M0 0 C1.94 -0.05 3.87 -0.09 5.81 -0.12 C6.89 -0.15 7.97 -0.17 9.08 -0.2 C12 0 12 0 15 2 C16.19 4.62 16.19 4.62 17 7 C16 8 16 8 13.44 8.06 C12.63 8.04 11.83 8.02 11 8 C11.33 6.02 11.66 4.04 12 2 C9.03 2 6.06 2 3 2 C3.66 3.65 4.32 5.3 5 7 C4 8 4 8 1.44 8.06 C0.63 8.04 -0.17 8.02 -1 8 C-0.67 5.36 -0.34 2.72 0 0 Z " fill="#EDAB60" transform="translate(177,226)"/>
<path d="M0 0 C4.19 1.36 6.43 3.13 9.31 6.44 C10.01 7.22 10.71 8 11.43 8.81 C13 11 13 11 13 14 C9.12 12.12 9.12 12.12 8 11 C7.67 11.66 7.34 12.32 7 13 C5.68 12.67 4.36 12.34 3 12 C1.83 8.02 0.74 4.08 0 0 Z " fill="#703C1E" transform="translate(123,266)"/>
<path d="M0 0 C3.96 0 7.92 0 12 0 C12 0.99 12 1.98 12 3 C12.33 2.67 12.66 2.34 13 2 C14.67 1.96 16.33 1.96 18 2 C18 3.32 18 4.64 18 6 C14.51 7.59 11.84 8.4 8 8 C7.01 7.34 6.02 6.68 5 6 C5.33 4.68 5.66 3.36 6 2 C5.01 1.84 5.01 1.84 0 1 C0 0.67 0 0.34 0 0 Z " fill="#CE7E3D" transform="translate(150,159)"/>
<path d="M0 0 C6.56 1.67 12.88 3.63 19.21 6.02 C23.04 7.36 26.94 8.34 30.88 9.29 C33 10 33 10 34 12 C26.67 11.5 20.49 9.69 13.62 7.12 C12.64 6.77 11.66 6.42 10.64 6.06 C2.76 3.16 2.76 3.16 0 0 Z " fill="#EB8D13" transform="translate(244,179)"/>
<path d="M0 0 C1.09 3.27 0.93 4.05 0.04 7.24 C-0.19 8.06 -0.41 8.88 -0.64 9.72 C-0.88 10.58 -1.13 11.43 -1.38 12.31 C-3.5 19.95 -5.14 26.89 -5.06 34.88 C-5.05 36.03 -5.04 37.18 -5.04 38.37 C-5.02 39.24 -5.01 40.1 -5 41 C-7 39 -7 39 -7.27 35.91 C-7.22 24.07 -6.79 10.18 0 0 Z " fill="#FDE9A2" transform="translate(301,133)"/>
<path d="M0 0 C0.33 0.99 0.66 1.98 1 3 C-2.36 9.37 -7.4 13.34 -13.86 16.32 C-17.14 18.08 -19.49 20.02 -22.19 22.56 C-24.75 24.96 -27.08 27.05 -30 29 C-26.61 21.32 -19.32 15.77 -12 12 C-11.18 11.73 -10.35 11.46 -9.5 11.19 C-6.28 9.66 -5.12 7.84 -3.19 4.88 C-2.58 3.96 -1.98 3.05 -1.36 2.12 C-1.13 1.77 -1.13 1.77 0 0 Z " fill="#ECE0DC" transform="translate(326,216)"/>
<path d="M0 0 C2.19 3.29 3.28 6.52 4.44 10.25 C4.66 10.95 4.87 11.66 5.1 12.38 C7.67 20.91 10.32 30.05 10 39 C7.49 36.49 7.32 34.81 6.56 31.36 C6.31 30.23 6.05 29.09 5.79 27.92 C5.53 26.73 5.27 25.54 5 24.31 C4.48 21.97 3.96 19.64 3.44 17.3 C3.19 16.2 2.95 15.1 2.7 13.97 C2.14 11.59 1.52 9.26 0.81 6.92 C0 4 0 4 0 0 Z " fill="#FDEEC0" transform="translate(327,112)"/>
<path d="M0 0 C0.33 0.66 0.66 1.32 1 2 C3 2.35 5 2.68 7 3 C7.99 3.66 8.98 4.32 10 5 C7.36 4.67 4.72 4.34 2 4 C3 6 3 6 5.29 6.85 C6.2 7.11 7.12 7.36 8.06 7.62 C8.98 7.89 9.9 8.15 10.85 8.41 C11.56 8.61 12.27 8.8 13 9 C12.67 9.99 12.34 10.98 12 12 C10.68 11.67 9.36 11.34 8 11 C8.33 10.34 8.66 9.68 9 9 C7.99 8.88 6.98 8.75 5.94 8.62 C2.12 8.02 -1.32 7.13 -5 6 C-3.35 4.02 -1.7 2.04 0 0 Z " fill="#E99D41" transform="translate(313,190)"/>
</svg>
