<?xml version="1.0" encoding="UTF-8"?>
<!-- Generator: visioncortex VTracer 0.6.12 -->
<svg version="1.1" xmlns="http://www.w3.org/2000/svg" width="418" height="418" viewBox="0 0 418 418">
<path d="M0 0 C3.66 0.55 5.01 1.75 7.19 4.69 C11.21 10.38 11.02 15.19 11 22 C13.5 22.65 16 23.3 18.5 23.94 C19.2 24.12 19.89 24.3 20.61 24.49 C21.31 24.67 22 24.84 22.72 25.03 C23.35 25.19 23.98 25.35 24.62 25.52 C31.04 26.82 37.19 27.11 43.71 26.96 C45.36 26.93 47.02 26.91 48.67 26.89 C51.24 26.86 53.81 26.81 56.37 26.75 C69.59 26.46 79.81 27.26 90.64 35.63 C92 37 92 37 92 39 C92.68 39.14 93.36 39.27 94.05 39.41 C100.63 40.93 105.35 43.19 110.71 47.28 C118.76 53.32 125.27 54.35 135 53 C135.45 52.93 135.45 52.93 137.73 52.6 C146.47 51.5 152.84 53.16 160.44 57.5 C166.06 60.49 171.9 61.16 178.14 61.92 C183.27 62.58 187.34 63.74 192 66 C191.48 67.87 191.48 67.87 190 70 C187.36 70.91 184.96 71.57 182.25 72.12 C180.84 72.44 179.43 72.75 178.02 73.07 C177.67 73.14 177.67 73.14 175.93 73.52 C174 74 174 74 171.02 75.14 C167.67 76.09 165.16 75.97 161.73 75.72 C152.18 75.07 147.05 76.78 139.7 82.84 C134.74 86.81 130.14 87.38 124 88 C124.48 92.29 126.8 94.29 130 97 C134.65 99.67 138.61 100.23 143.94 100.81 C151.53 101.79 155.59 104.29 160.7 109.84 C165.57 114.82 170.36 116.11 177.1 117.03 C181.94 117.68 185.68 118.8 190 121 C190.94 123.19 190.94 123.19 191 125 C187.87 126.77 185.04 127.48 181.5 128.06 C176.27 128.93 176.27 128.93 173.88 129.54 C168.09 130.96 163.65 130.01 158.19 128 C149.04 124.82 142.77 125.01 133.94 129 C128.1 131.62 122.97 132.6 116.56 132.62 C115.83 132.64 115.1 132.65 114.34 132.66 C109.49 132.53 106.05 131.36 101.84 128.95 C96.22 126.05 90.11 126.39 84.2 128.09 C83.54 128.32 82.89 128.55 82.22 128.78 C73.66 131.73 65.59 132.47 56.56 132.44 C55.49 132.43 54.41 132.43 53.3 132.43 C47.19 132.32 41.42 131.7 35.44 130.44 C29.82 129.43 24.55 129.79 19 131 C19.13 131.54 19.27 132.07 19.4 132.62 C20.81 138.88 21.36 144.99 21.66 151.38 C22.01 158.68 22.01 158.68 23 162 C25.37 163.06 25.37 163.06 28 164 C30.12 166.35 30.99 167.97 32 171 C33.48 169.87 33.48 169.87 35 168 C35.37 164.95 35.38 161.98 35.4 158.91 C36 156 36 156 38.05 153.74 C41.56 151.67 44.91 150.77 48.88 150.06 C49.22 149.99 49.22 149.99 50.94 149.61 C56.25 148.61 59.26 149.43 64 152 C67.01 155.01 66.6 157.82 67 162 C68.32 162 69.64 162 71 162 C70.95 161.41 70.91 160.82 70.86 160.21 C70.67 155.98 70.58 153.68 72.88 150 C77.63 145.53 83.61 146.7 89.81 146.62 C91 146.59 92.19 146.55 93.42 146.51 C102.14 146.42 102.14 146.42 106.27 149.19 C108.09 152.14 108.68 153.88 108.81 157.31 C108.86 158.2 108.91 159.08 108.96 159.99 C108.97 160.65 108.99 161.32 109 162 C110.98 162.33 112.96 162.66 115 163 C114.97 162.63 114.97 162.63 114.79 160.73 C114.76 160.24 114.76 160.24 114.62 157.75 C114.56 156.78 114.49 155.8 114.41 154.8 C115 152 115 152 117.53 149.61 C121.63 147.71 124.55 147.78 128.88 148.5 C129.58 148.6 130.29 148.71 131.01 148.81 C136.38 149.69 140.48 151.01 145 154 C146.95 156.92 147.45 158.63 148 162 C148.99 161.67 149.98 161.34 151 161 C156.78 160.46 159.39 161.57 164 165 C164.66 165 165.32 165 166 165 C166 164.12 166.01 163.24 166.01 162.33 C166.03 161.75 166.03 161.75 166.12 158.81 C166.15 157.66 166.17 156.52 166.2 155.33 C167.07 151.72 168.18 150.24 171.17 148.06 C174.43 146.17 177.82 145.08 181.44 144.06 C182.16 143.83 182.89 143.6 183.63 143.36 C188.69 141.88 191.97 141.99 197 144 C198.94 145.69 198.94 145.69 200 148 C200.19 151.75 200.19 151.75 200 155 C201.65 154.67 203.3 154.34 205 154 C205.01 153.17 205.03 152.34 205.04 151.48 C205.09 150.39 205.14 149.31 205.19 148.19 C205.2 147.65 205.2 147.65 205.29 144.92 C206 142 206 142 207.98 140.16 C212.07 138.59 215.83 138.39 220.19 138.25 C221.03 138.22 221.88 138.18 222.75 138.15 C237.96 137.64 237.96 137.64 241.74 140.16 C243.58 142.85 243.29 144.97 243.19 148.19 C243.16 149.27 243.13 150.36 243.11 151.48 C243.09 151.9 243.09 151.9 243 154 C244.65 153.67 246.3 153.34 248 153 C248.33 150.03 248.66 147.06 249 144 C249.66 144 250.32 144 251 144 C251 143.34 251 142.68 251 142 C254.71 140.76 257.98 141.02 261.81 141.25 C262.51 141.28 263.21 141.3 263.93 141.33 C268.58 141.6 271.98 142.47 276 145 C277.38 147.69 277.38 147.69 278 150 C278.66 149.67 279.32 149.34 280 149 C283.86 147.71 286.94 147.86 291 148 C291.13 147.65 291.13 147.65 291.79 145.89 C293.12 142.71 294.74 139.82 296.44 136.81 C300.98 128.55 304.55 119.9 308.14 111.19 C310.56 105.33 313.08 99.62 316 94 C317.32 94.33 318.64 94.66 320 95 C319.59 118.79 315.48 140.43 308 163 C308.61 162.97 309.22 162.93 309.85 162.9 C310.65 162.88 311.45 162.85 312.28 162.82 C313.08 162.79 313.87 162.76 314.69 162.73 C318.12 163.13 319.68 164.89 321.91 167.39 C323.83 170.22 324.15 172.87 324.28 176.19 C324.32 177.04 324.35 177.89 324.39 178.77 C324.43 179.69 324.46 180.61 324.5 181.55 C324.52 182.03 324.52 182.03 324.62 184.47 C324.75 187.6 324.88 190.74 325 193.88 C325.09 196.04 325.18 198.2 325.27 200.36 C325.69 210.64 326.08 220.92 326.39 231.2 C326.73 242.14 327.18 253.07 327.81 264 C327.87 265.23 327.93 266.46 327.99 267.73 C328.06 268.87 328.13 270.01 328.21 271.19 C328.26 272.19 328.32 273.2 328.38 274.23 C329.15 277.66 330.69 279.4 333 282 C334.24 284.47 334.1 286.12 334.06 288.88 C334.05 289.74 334.04 290.6 334.04 291.49 C334.03 291.91 334.03 291.91 334 294 C334 295.32 334 296.64 334 298 C334.4 298.37 334.4 298.37 336.44 300.25 C339.62 303.67 340.06 306.49 340 311 C339.84 312.38 339.65 313.75 339.44 315.12 C339 319 339 319 340.06 322.06 C341.34 326.07 340.63 328.17 339 332 C335.67 335.84 332.73 336.36 327.8 336.83 C322.68 337.14 317.57 337.09 312.44 337.04 C310.36 337.03 308.28 337.02 306.19 337.01 C300.28 336.98 294.37 336.95 288.45 336.9 C284.82 336.88 281.18 336.86 277.55 336.85 C276.17 336.84 274.8 336.83 273.42 336.82 C263.11 336.72 255.46 337.7 246 342 C227.13 350.29 208.77 349.06 189.85 341.79 C188 341 188 341 185.18 339.37 C174.69 334.86 160.59 336.87 149.36 336.9 C147.27 336.9 145.18 336.91 143.09 336.91 C137.62 336.91 132.14 336.92 126.67 336.93 C121.07 336.94 115.47 336.95 109.88 336.95 C98.92 336.96 87.96 336.98 77 337 C76.98 337.31 76.98 337.31 76.85 338.88 C76.78 339.69 76.7 340.5 76.62 341.34 C76.56 342.15 76.49 342.95 76.41 343.78 C76 346 76 346 74 348.56 C69.92 350.52 66.45 350.83 62 350 C59.45 348.21 58.37 347.05 57.35 344.12 C56.75 340.5 58.01 337.5 59 334 C48.28 335.06 37.63 336.21 27 338 C26.94 338.39 26.94 338.39 26.66 340.36 C26 343 26 343 23.5 345.31 C19.12 347.42 15.77 347.86 11 347 C7.2 344.99 5.38 343.57 3 340 C0.79 339.61 0.79 339.61 -2 339.6 C-3.04 339.59 -4.08 339.57 -5.15 339.56 C-6.28 339.56 -7.41 339.56 -8.58 339.56 C-9.74 339.55 -10.9 339.53 -12.09 339.52 C-15.81 339.48 -19.53 339.46 -23.25 339.44 C-26.96 339.41 -30.66 339.39 -34.37 339.35 C-36.67 339.32 -38.98 339.31 -41.29 339.3 C-51.54 339.2 -51.54 339.2 -56 337 C-59.27 332.5 -61 328.67 -61 323 C-60.37 321.5 -59.67 320.02 -58.94 318.56 C-57.28 315.24 -56.73 313.52 -57.81 309.94 C-57.92 309.61 -57.92 309.61 -58.47 307.98 C-59.58 303.82 -58.56 299.73 -57.25 295.69 C-55.52 293.36 -53.57 292.29 -51 291 C-50.34 291 -49.68 291 -49 291 C-49.03 290.3 -49.07 289.6 -49.11 288.88 C-49.29 282.46 -48.93 277.76 -46 272 C-41.9 268 -41.9 268 -39 268 C-38.63 260.31 -38.25 252.63 -37.88 244.94 C-37.67 240.67 -37.46 236.41 -37.26 232.14 C-37.19 230.75 -37.12 229.37 -37.05 227.99 C-36.89 224.56 -36.72 221.14 -36.55 217.71 C-36.23 211.48 -35.96 205.26 -35.85 199.02 C-35.83 197.96 -35.81 196.89 -35.78 195.8 C-35.74 193.86 -35.72 191.91 -35.72 189.97 C-35.6 185.45 -35.47 183.6 -32.58 179.95 C-29.16 177.36 -27.59 176.88 -23.38 176.94 C-22.97 176.94 -22.97 176.94 -20.9 176.96 C-20.59 176.97 -20.59 176.97 -19 177 C-18.84 176.26 -18.67 175.51 -18.5 174.75 C-16.63 171.33 -14.97 170.31 -11.49 168.7 C-8.48 167.85 -5.93 167.93 -2.81 168.06 C1.25 168.18 2.64 168.21 6.25 166.12 C10.75 158.1 7.49 146.2 6.62 137.31 C6.37 134.58 6.11 131.85 5.85 129.11 C5.78 128.4 5.72 127.69 5.65 126.95 C4.38 113.46 3.24 99.95 2.12 86.44 C1.71 81.49 1.29 76.54 0.88 71.58 C0.67 69.06 0.46 66.55 0.25 64.03 C-0.87 50.32 -2.12 36.72 -4.34 23.14 C-4.56 21.76 -4.78 20.38 -5 19 C-5.12 18.27 -5.23 17.55 -5.35 16.8 C-6.08 11.79 -5.72 9.35 -3.06 5 C-2.5 4.05 -1.93 3.1 -1.35 2.12 C-1.13 1.77 -1.13 1.77 0 0 Z " fill="#4A3F2C" transform="translate(69,5)"/>
<path d="M0 0 C0.66 0.17 0.66 0.17 4 1 C3.59 24.79 -0.52 46.43 -8 69 C-7.39 68.97 -6.78 68.93 -6.15 68.9 C-5.75 68.89 -5.75 68.89 -3.72 68.82 C-2.92 68.79 -2.13 68.76 -1.31 68.73 C2.12 69.13 3.68 70.89 5.91 73.39 C7.83 76.22 8.15 78.87 8.28 82.19 C8.32 83.04 8.35 83.89 8.39 84.77 C8.43 85.69 8.46 86.61 8.5 87.55 C8.52 88.03 8.52 88.03 8.62 90.47 C8.75 93.6 8.88 96.74 9 99.88 C9.09 102.04 9.18 104.2 9.27 106.36 C9.69 116.64 10.08 126.92 10.39 137.2 C10.73 148.14 11.18 159.07 11.81 170 C11.87 171.23 11.93 172.46 11.99 173.73 C12.06 174.87 12.13 176.01 12.21 177.19 C12.26 178.19 12.32 179.2 12.38 180.23 C13.15 183.66 14.69 185.4 17 188 C18.24 190.47 18.1 192.12 18.06 194.88 C18.05 195.74 18.04 196.6 18.04 197.49 C18.03 197.91 18.03 197.91 18 200 C18 201.32 18 202.64 18 204 C18.4 204.37 18.4 204.37 20.44 206.25 C23.62 209.67 24.06 212.49 24 217 C23.84 218.38 23.65 219.75 23.44 221.12 C23 225 23 225 24.06 228.06 C25.34 232.07 24.63 234.17 23 238 C19.67 241.84 16.73 242.36 11.8 242.83 C6.68 243.14 1.57 243.09 -3.56 243.04 C-5.64 243.03 -7.72 243.02 -9.81 243.01 C-15.72 242.98 -21.63 242.95 -27.55 242.9 C-31.18 242.88 -34.82 242.86 -38.45 242.85 C-39.83 242.84 -41.2 242.83 -42.58 242.82 C-52.89 242.72 -60.54 243.7 -70 248 C-88.87 256.29 -107.23 255.06 -126.15 247.79 C-128 247 -128 247 -130.82 245.37 C-141.31 240.86 -155.41 242.87 -166.64 242.9 C-168.73 242.9 -170.82 242.91 -172.91 242.91 C-178.38 242.91 -183.86 242.92 -189.33 242.93 C-194.93 242.94 -200.53 242.95 -206.12 242.95 C-217.08 242.96 -228.04 242.98 -239 243 C-239.02 243.31 -239.02 243.31 -239.15 244.88 C-239.22 245.69 -239.3 246.5 -239.38 247.34 C-239.44 248.15 -239.51 248.95 -239.59 249.78 C-240 252 -240 252 -242 254.56 C-246.08 256.52 -249.55 256.83 -254 256 C-256.55 254.21 -257.63 253.05 -258.65 250.12 C-259.25 246.5 -257.99 243.5 -257 240 C-267.72 241.06 -278.37 242.21 -289 244 C-289.11 244.78 -289.23 245.55 -289.34 246.36 C-290 249 -290 249 -292.5 251.31 C-296.88 253.42 -300.23 253.86 -305 253 C-308.8 250.99 -310.62 249.57 -313 246 C-315.23 245.61 -315.23 245.61 -318.04 245.6 C-319.1 245.59 -320.15 245.57 -321.23 245.56 C-321.8 245.56 -321.8 245.56 -324.68 245.56 C-325.27 245.55 -325.27 245.55 -328.22 245.52 C-331.96 245.48 -335.7 245.46 -339.44 245.44 C-343.17 245.41 -346.91 245.39 -350.65 245.35 C-352.97 245.32 -355.3 245.31 -357.63 245.3 C-358.69 245.29 -359.74 245.28 -360.83 245.27 C-361.75 245.27 -362.68 245.26 -363.64 245.26 C-366 245 -366 245 -369 243 C-350.52 243 -332.04 243 -313 243 C-313 238.71 -313 234.42 -313 230 C-310.42 226.04 -309.16 224.64 -304.74 223.32 C-302.34 222.93 -300.41 222.68 -298 223 C-297.38 223.51 -296.77 224.02 -296.13 224.54 C-293.06 226.65 -291.18 225.99 -287.56 225.38 C-286.32 225.17 -285.09 224.96 -283.81 224.75 C-279.13 223.83 -274.5 222.73 -269.87 221.6 C-266.45 220.88 -263.47 220.76 -260 221 C-260 218.03 -260 215.06 -260 212 C-260.99 211.67 -261.98 211.34 -263 211 C-264.33 204.6 -264.33 204.6 -262.94 202.06 C-260.13 200.52 -258.14 200.61 -255 201 C-252.55 202.74 -252.05 203.72 -251.49 206.7 C-251.43 207.69 -251.37 208.67 -251.31 209.69 C-251.25 210.68 -251.18 211.68 -251.11 212.7 C-251.08 213.46 -251.04 214.22 -251 215 C-245.82 215.19 -241.28 214.54 -236.31 213.19 C-235.02 212.85 -233.72 212.51 -232.43 212.17 C-231.73 211.98 -231.04 211.79 -230.32 211.6 C-228.66 211.17 -226.99 210.76 -225.31 210.37 C-212.43 207.33 -200.16 202.47 -187.84 197.7 C-186.1 197.04 -184.35 196.39 -182.6 195.75 C-169.33 190.83 -169.33 190.83 -165 187 C-162.73 181.92 -162.93 177.48 -163 172 C-159.04 154.41 -148.31 140.51 -134 130 C-133.23 129.43 -132.46 128.87 -131.67 128.28 C-118.05 119.2 -101.88 117.21 -86 119.88 C-81.94 120.73 -77.96 121.77 -74 123 C-67.11 116.37 -60.87 109.55 -55 102 C-54.54 101.41 -54.09 100.83 -53.62 100.23 C-42.98 86.51 -33.53 72.11 -25 57 C-26.46 56.95 -27.92 56.91 -29.38 56.88 C-30.19 56.85 -31 56.83 -31.84 56.8 C-34 57 -34 57 -36 59 C-36.41 60.95 -36.41 60.95 -36.62 63.12 C-36.75 64.4 -36.87 65.68 -37 67 C-37.99 67 -38.98 67 -40 67 C-40.04 66.01 -40.07 65.03 -40.11 64.01 C-40.18 62.73 -40.24 61.45 -40.31 60.12 C-40.37 58.85 -40.43 57.57 -40.49 56.26 C-40.66 55.18 -40.83 54.11 -41 53 C-45.9 49.74 -50.98 49.85 -56.75 49.81 C-57.88 49.8 -59.01 49.78 -60.17 49.77 C-63 50 -63 50 -65 52 C-65.41 54.38 -65.41 54.38 -65.62 57.12 C-65.7 58.04 -65.77 58.95 -65.85 59.88 C-65.9 60.58 -65.95 61.28 -66 62 C-68.97 62 -71.94 62 -75 62 C-75.06 61 -75.12 60 -75.18 58.97 C-75.23 58.33 -75.23 58.33 -75.44 55.06 C-75.52 53.77 -75.6 52.49 -75.68 51.16 C-76 48 -76 48 -77 47 C-81.43 46.72 -85.87 46.77 -90.31 46.75 C-91.56 46.73 -92.81 46.71 -94.1 46.69 C-95.3 46.68 -96.5 46.68 -97.74 46.67 C-98.84 46.66 -99.95 46.65 -101.08 46.64 C-104.34 47.04 -105.71 47.67 -108 50 C-108.61 53.14 -108.61 53.14 -108.75 56.69 C-108.81 57.87 -108.86 59.05 -108.92 60.26 C-108.95 61.17 -108.97 62.07 -109 63 C-111.97 63.33 -114.94 63.66 -118 64 C-118.01 63.66 -118.01 63.66 -118.08 61.92 C-118.13 61.02 -118.19 60.12 -118.25 59.19 C-118.3 58.29 -118.34 57.4 -118.39 56.48 C-119 54 -119 54 -120.83 52.17 C-126.66 49.02 -135.28 53.12 -141.14 54.87 C-143.98 55.99 -145.13 56.67 -147 59 C-147.43 60.9 -147.43 60.9 -147.51 63.01 C-147.55 63.77 -147.58 64.53 -147.62 65.31 C-147.64 66.09 -147.66 66.88 -147.69 67.69 C-147.72 68.48 -147.76 69.28 -147.79 70.1 C-147.87 72.07 -147.94 74.03 -148 76 C-148.99 75.34 -148.99 75.34 -154 72 C-152.68 71.67 -151.36 71.34 -150 71 C-150 70.12 -149.99 69.24 -149.99 68.33 C-149.97 67.75 -149.97 67.75 -149.88 64.81 C-149.85 63.66 -149.83 62.52 -149.8 61.33 C-148.93 57.72 -147.82 56.24 -144.83 54.06 C-141.57 52.17 -138.18 51.08 -134.56 50.06 C-133.84 49.83 -133.11 49.6 -132.37 49.36 C-127.31 47.88 -124.03 47.99 -119 50 C-117.06 51.69 -117.06 51.69 -116 54 C-115.81 57.75 -115.81 57.75 -116 61 C-115.18 60.84 -115.18 60.84 -111 60 C-110.99 59.17 -110.97 58.34 -110.96 57.48 C-110.91 56.39 -110.86 55.31 -110.81 54.19 C-110.8 53.65 -110.8 53.65 -110.71 50.92 C-110 48 -110 48 -108.02 46.16 C-103.93 44.59 -100.17 44.39 -95.81 44.25 C-94.97 44.22 -94.12 44.18 -93.25 44.15 C-78.04 43.64 -78.04 43.64 -74.26 46.16 C-72.42 48.85 -72.71 50.97 -72.81 54.19 C-72.84 55.27 -72.87 56.36 -72.89 57.48 C-72.91 57.9 -72.91 57.9 -73 60 C-71.35 59.67 -69.7 59.34 -68 59 C-67.67 56.03 -67.34 53.06 -67 50 C-66.34 50 -65.68 50 -65 50 C-65 49.34 -65 48.68 -65 48 C-61.29 46.76 -58.02 47.02 -54.19 47.25 C-53.49 47.28 -52.79 47.3 -52.07 47.33 C-47.42 47.6 -44.02 48.47 -40 51 C-38.62 53.69 -38.62 53.69 -38 56 C-37.34 55.67 -36.68 55.34 -36 55 C-32.14 53.71 -29.06 53.86 -25 54 C-24.87 53.65 -24.87 53.65 -24.21 51.89 C-22.88 48.71 -21.26 45.82 -19.56 42.81 C-15.02 34.55 -11.45 25.9 -7.86 17.19 C-5.44 11.33 -2.92 5.62 0 0 Z " fill="#C17E11" transform="translate(385,99)"/>
<path d="M0 0 C3.66 0.55 5.01 1.75 7.19 4.69 C11.21 10.38 11.02 15.19 11 22 C13.5 22.65 16 23.3 18.5 23.94 C19.2 24.12 19.89 24.3 20.61 24.49 C21.31 24.67 22 24.84 22.72 25.03 C23.35 25.19 23.98 25.35 24.62 25.52 C31.04 26.82 37.19 27.11 43.71 26.96 C45.36 26.93 47.02 26.91 48.67 26.89 C51.24 26.86 53.81 26.81 56.37 26.75 C69.59 26.46 79.81 27.26 90.64 35.63 C92 37 92 37 92 39 C92.68 39.14 93.36 39.27 94.05 39.41 C100.63 40.93 105.35 43.19 110.71 47.28 C118.76 53.32 125.27 54.35 135 53 C135.45 52.93 135.45 52.93 137.73 52.6 C146.47 51.5 152.84 53.16 160.44 57.5 C166.06 60.49 171.9 61.16 178.14 61.92 C183.27 62.58 187.34 63.74 192 66 C191.48 67.87 191.48 67.87 190 70 C187.36 70.91 184.96 71.57 182.25 72.12 C180.84 72.44 179.43 72.75 178.02 73.07 C177.67 73.14 177.67 73.14 175.93 73.52 C174 74 174 74 171.02 75.14 C167.67 76.09 165.16 75.97 161.73 75.72 C152.18 75.07 147.05 76.78 139.7 82.84 C134.74 86.81 130.14 87.38 124 88 C124.48 92.29 126.8 94.29 130 97 C134.65 99.67 138.61 100.23 143.94 100.81 C151.53 101.79 155.59 104.29 160.7 109.84 C165.57 114.82 170.36 116.11 177.1 117.03 C181.94 117.68 185.68 118.8 190 121 C190.94 123.19 190.94 123.19 191 125 C187.87 126.77 185.04 127.48 181.5 128.06 C176.27 128.93 176.27 128.93 173.88 129.54 C168.09 130.96 163.65 130.01 158.19 128 C149.04 124.82 142.77 125.01 133.94 129 C128.1 131.62 122.97 132.6 116.56 132.62 C115.83 132.64 115.1 132.65 114.34 132.66 C109.49 132.53 106.05 131.36 101.84 128.95 C96.22 126.05 90.11 126.39 84.2 128.09 C83.54 128.32 82.89 128.55 82.22 128.78 C73.66 131.73 65.59 132.47 56.56 132.44 C55.49 132.43 54.41 132.43 53.3 132.43 C47.19 132.32 41.42 131.7 35.44 130.44 C29.82 129.43 24.55 129.79 19 131 C19.13 131.54 19.27 132.07 19.4 132.62 C20.81 138.88 21.36 144.99 21.66 151.38 C22.01 158.7 22.01 158.7 23 162 C24.65 162.72 26.31 163.38 28 164 C29.16 166.06 29.16 166.06 30 168 C26.31 167.46 23.77 166.54 21 164 C19.62 159.15 19.39 154.37 19.14 149.36 C18.96 146.4 18.6 143.48 18.21 140.55 C17.28 133.25 16.82 125.98 16.56 118.62 C16.19 107.97 15.38 97.37 14.5 86.75 C14.43 85.94 14.37 85.13 14.3 84.3 C14.11 81.98 13.92 79.67 13.72 77.36 C13.66 76.66 13.6 75.96 13.55 75.24 C13.29 72.31 12.94 69.81 12 67 C11.87 65.54 11.78 64.08 11.72 62.62 C11.68 61.78 11.64 60.94 11.61 60.08 C11.54 58.31 11.46 56.55 11.39 54.78 C11.36 53.95 11.32 53.11 11.28 52.25 C11.27 51.86 11.27 51.86 11.19 49.92 C11 48 11 48 10 46 C9.78 43.91 9.61 41.81 9.46 39.71 C9.38 38.44 9.29 37.17 9.2 35.86 C9.16 35.19 9.11 34.53 9.07 33.84 C8.94 31.84 8.8 29.83 8.66 27.83 C7.99 17.84 7.99 17.84 8.04 13.2 C8 9.84 7.66 8.65 5.62 6.06 C5.18 5.48 4.74 4.89 4.29 4.29 C3 3 3 3 1 3 C-3.76 11.56 -3.76 11.56 -3 16 C-2.34 16.99 -1.68 17.98 -1 19 C-1.88 21.69 -1.88 21.69 -3 24 C-2.34 24 -1.68 24 -1 24 C0.01 33.03 1 42.05 1.5 51.12 C1.78 56.12 2.22 61.02 2.88 65.99 C3.91 74.34 4.58 82.71 5.22 91.1 C5.27 91.78 5.32 92.46 5.38 93.16 C5.81 98.85 6.24 104.54 6.66 110.22 C7.03 115.16 7.4 120.1 7.78 125.04 C7.81 125.37 7.81 125.37 7.94 127.08 C8.61 135.78 9.4 144.44 10.64 153.09 C11.14 157.09 11.14 160.97 11 165 C10.01 165.33 10.01 165.33 5 167 C5.33 166.01 5.66 165.02 6 164 C6.66 163.67 7.32 163.34 8 163 C8.25 154.38 7.45 145.88 6.62 137.31 C6.37 134.58 6.11 131.85 5.85 129.11 C5.78 128.4 5.72 127.69 5.65 126.95 C4.38 113.46 3.24 99.95 2.12 86.44 C1.71 81.49 1.29 76.54 0.88 71.58 C0.67 69.06 0.46 66.55 0.25 64.03 C-0.87 50.32 -2.12 36.72 -4.34 23.14 C-4.56 21.76 -4.78 20.38 -5 19 C-5.12 18.27 -5.23 17.55 -5.35 16.8 C-6.08 11.79 -5.72 9.35 -3.06 5 C-2.5 4.05 -1.93 3.1 -1.35 2.12 C-0.9 1.42 -0.46 0.72 0 0 Z " fill="#D35610" transform="translate(69,5)"/>
<path d="M0 0 C11.1 9.63 19.99 22.77 21.99 37.68 C23.09 55.79 20.2 72.35 8.13 86.57 C-1.58 97.33 -15.4 105.96 -30.16 106.8 C-48.76 107.43 -62.81 104.86 -77.32 92.3 C-90.18 80.12 -97.68 65.18 -98.2 47.43 C-97.94 32.58 -93.02 20.34 -84.01 8.68 C-83.58 8.06 -83.16 7.45 -82.72 6.82 C-75.37 -3.01 -60.57 -10.72 -48.63 -13 C-30.86 -15.17 -14.22 -10.99 0 0 Z " fill="#523E24" transform="translate(325.0078125,237.32421875)"/>
<path d="M0 0 C0.23 24.7 0.05 49.3 -1.29 73.96 C-1.38 75.68 -1.47 77.39 -1.56 79.1 C-1.61 79.92 -1.65 80.74 -1.7 81.58 C-2.03 88.45 -2.07 95.31 -1.96 102.19 C-1.94 104.13 -1.97 106.06 -2 108 C-2.33 108.33 -2.66 108.66 -3 109 C-3.4 111.01 -3.74 113.04 -4.06 115.06 C-4.24 116.17 -4.42 117.27 -4.6 118.41 C-4.73 119.26 -4.86 120.12 -5 121 C-4.34 121.33 -3.68 121.66 -3 122 C-4.41 122.53 -5.83 123.05 -7.25 123.56 C-8.04 123.85 -8.83 124.14 -9.64 124.44 C-12.26 125.06 -13.51 124.94 -16 124 C-16.5 123.67 -16.5 123.67 -19 122 C-23.5 121.67 -27.12 122.49 -31 124.75 C-33 128 -33 128 -34 141 C-53.47 141 -72.94 141 -93 141 C-98 132.25 -98 132.25 -98 127 C-97.37 125.5 -96.67 124.02 -95.94 122.56 C-94.28 119.24 -93.73 117.52 -94.81 113.94 C-95.03 113.29 -95.25 112.65 -95.47 111.98 C-96.59 107.79 -95.6 103.64 -94.12 99.62 C-93 98 -93 98 -90 96 C-86.81 95.88 -86.81 95.88 -84 96 C-84.02 95.49 -84.02 95.49 -84.14 92.93 C-84.18 91.58 -84.21 90.23 -84.25 88.88 C-84.28 88.21 -84.32 87.54 -84.35 86.86 C-84.45 81.72 -83.24 78.93 -80 75 C-77 73 -77 73 -74 73 C-74.01 72.1 -74.02 71.2 -74.04 70.27 C-74.12 58.49 -73.6 46.77 -73 35 C-72.9 33.05 -72.81 31.1 -72.71 29.15 C-72.48 24.43 -72.24 19.72 -72 15 C-69.49 13.72 -66.99 12.45 -64.48 11.18 C-63.78 10.82 -63.08 10.46 -62.36 10.09 C-55.45 6.61 -48.45 4.12 -41 2 C-39.88 1.68 -38.77 1.36 -37.62 1.03 C-25.21 -2.08 -12.59 -1.65 0 0 Z " fill="#433B29" transform="translate(106,201)"/>
<path d="M0 0 C0.33 0 0.66 0 1 0 C1.17 1.49 1.17 1.49 2 9 C2.66 6.69 3.32 4.38 4 2 C6.56 1.12 6.56 1.12 10 1 C13.29 3.05 16.25 5.51 18 9 C18.18 11.5 18.29 13.97 18.37 16.47 C18.4 17.24 18.43 18.01 18.46 18.81 C18.55 21.37 18.63 23.93 18.72 26.49 C18.78 28.28 18.85 30.06 18.91 31.85 C19.08 36.56 19.24 41.27 19.4 45.99 C19.66 53.5 19.92 61 20.19 68.51 C20.28 71.12 20.37 73.73 20.45 76.34 C20.72 84.12 21.06 91.87 21.8 99.62 C22.09 103.01 22.1 106.35 22.06 109.75 C22.05 110.94 22.04 112.13 22.04 113.36 C22.02 114.23 22.01 115.1 22 116 C22.64 116.29 23.28 116.58 23.94 116.88 C26 118 26 118 27 120 C27.12 121.96 27.18 123.92 27.19 125.88 C27.2 126.92 27.22 127.97 27.23 129.05 C27.01 131.94 26.49 133.56 25 136 C25.58 136.06 26.15 136.12 26.75 136.19 C30.1 137.4 31.19 138.96 33 142 C33.65 145.93 33.39 149.09 31.81 152.75 C31.54 153.49 31.28 154.24 31 155 C31.96 156.36 32.97 157.69 34 159 C34.62 163.05 34.16 164.71 32.12 168.31 C30 171 30 171 28 172 C25.59 172.09 23.21 172.13 20.8 172.11 C20.05 172.11 19.31 172.11 18.55 172.11 C16.09 172.11 13.64 172.11 11.18 172.1 C9.48 172.1 7.78 172.09 6.08 172.09 C1.59 172.09 -2.89 172.08 -7.37 172.07 C-11.94 172.06 -16.51 172.05 -21.08 172.05 C-30.05 172.04 -39.03 172.02 -48 172 C-47.61 171.61 -47.61 171.61 -45.64 169.65 C-29.22 153.2 -21.68 136.97 -21.61 113.73 C-21.84 96.95 -28.37 82.17 -40 70 C-40.66 69.67 -41.32 69.34 -42 69 C-40.4 65.29 -38.07 62.6 -35.44 59.56 C-30.16 53.35 -25.45 46.83 -21 40 C-20.29 38.92 -19.59 37.84 -18.86 36.72 C-11.48 25.06 -5.82 12.49 0 0 Z " fill="#3C3425" transform="translate(374,168)"/>
<path d="M0 0 C3.88 2.59 6.7 5.65 8.81 9.88 C8.85 11.87 8.86 13.88 8.81 15.88 C9.29 15.38 9.76 14.88 10.25 14.38 C14.06 12.14 17.5 12.09 21.81 12.88 C24.81 14.75 24.81 14.75 26.81 17.88 C27.49 21.21 27.74 24.48 27.81 27.88 C29.07 27.98 30.33 28.08 31.62 28.19 C34.18 28.52 35.61 28.75 37.81 30.12 C39.15 32.46 39.03 34.23 38.81 36.88 C39.43 36.83 40.04 36.78 40.68 36.73 C41.08 36.72 41.08 36.72 43.12 36.62 C43.93 36.58 44.73 36.53 45.55 36.48 C47.81 36.88 47.81 36.88 49.59 38.53 C51.1 41.43 51.12 43.38 51 46.62 C50.99 47.12 50.99 47.12 50.92 49.61 C50.88 50.36 50.85 51.1 50.81 51.88 C47.85 51.26 46.43 50.62 43.81 48.88 C39.32 48.55 35.69 49.36 31.81 51.62 C29.81 54.88 29.81 54.88 28.81 67.88 C9.34 67.88 -10.13 67.88 -30.19 67.88 C-35.19 59.12 -35.19 59.12 -35.19 53.88 C-34.55 52.37 -33.86 50.89 -33.12 49.44 C-31.47 46.11 -30.92 44.39 -32 40.81 C-32.11 40.49 -32.11 40.49 -32.66 38.86 C-33.77 34.67 -32.79 30.51 -31.31 26.5 C-30.19 24.88 -30.19 24.88 -27.19 22.88 C-24 22.75 -24 22.75 -21.19 22.88 C-21.23 21.86 -21.28 20.85 -21.33 19.8 C-21.37 18.45 -21.4 17.1 -21.44 15.75 C-21.45 15.42 -21.45 15.42 -21.54 13.73 C-21.64 8.59 -20.42 5.81 -17.19 1.88 C-11.58 -1.95 -6.27 -2.21 0 0 Z " fill="#3B5F20" transform="translate(43.1875,274.125)"/>
<path d="M0 0 C0.33 0 0.66 0 1 0 C1 4.62 1 9.24 1 14 C2.32 14.66 3.64 15.32 5 16 C6.35 18.7 6.17 20.87 6.19 23.88 C6.2 24.92 6.22 25.97 6.23 27.05 C6.01 29.94 5.49 31.56 4 34 C4.29 34.03 4.29 34.03 5.75 34.19 C9.1 35.4 10.19 36.96 12 40 C12.65 43.93 12.39 47.09 10.81 50.75 C10.54 51.49 10.28 52.24 10 53 C10.96 54.36 11.97 55.69 13 57 C13.62 61.05 13.16 62.71 11.12 66.31 C9 69 9 69 7 70 C4.59 70.09 2.21 70.13 -0.2 70.11 C-0.95 70.11 -1.69 70.11 -2.45 70.11 C-4.91 70.11 -7.36 70.11 -9.82 70.1 C-11.52 70.1 -13.22 70.09 -14.92 70.09 C-19.41 70.09 -23.89 70.08 -28.37 70.07 C-32.94 70.06 -37.51 70.05 -42.08 70.05 C-51.05 70.04 -60.03 70.02 -69 70 C-68.22 69.22 -67.44 68.45 -66.64 67.65 C-52.12 53.09 -43.38 37.98 -42.44 17.19 C-42.39 16.3 -42.35 15.42 -42.31 14.51 C-42.2 12.34 -42.1 10.17 -42 8 C-41.67 8 -41.34 8 -41 8 C-40.67 9.98 -40.34 11.96 -40 14 C-38.93 13.96 -37.86 13.92 -36.75 13.88 C-33.34 13.99 -31.79 14.21 -29 16 C-28.67 14.99 -28.34 13.98 -28 12.94 C-25.83 8.04 -22.72 4.56 -18 2 C-12.33 0.91 -7.71 0.95 -2.75 4 C-2.17 4.66 -1.6 5.32 -1 6 C-0.67 4.02 -0.34 2.04 0 0 Z " fill="#31551B" transform="translate(395,270)"/>
<path d="M0 0 C3.02 1.57 5.23 3.43 7.74 5.73 C8.59 6.51 9.43 7.28 10.31 8.07 C16.94 14.65 17.64 21.81 17.84 30.92 C17.84 32.85 17.83 34.78 17.81 36.71 C17.81 37.74 17.8 38.77 17.8 39.83 C17.79 43.07 17.76 46.31 17.74 49.55 C17.73 51.76 17.72 53.98 17.71 56.19 C17.69 61.58 17.66 66.97 17.61 72.36 C16.21 73.01 14.8 73.65 13.39 74.29 C12.6 74.65 11.82 75.01 11.01 75.38 C8.04 76.59 5.13 77.25 1.99 77.86 C-1.51 78.6 -4.91 79.69 -8.32 80.77 C-11.19 81.32 -13.66 81.42 -16.58 81.4 C-17.48 81.39 -18.38 81.39 -19.31 81.38 C-19.99 81.37 -20.68 81.37 -21.39 81.36 C-21.48 73.41 -21.55 65.47 -21.59 57.52 C-21.61 53.83 -21.64 50.14 -21.69 46.45 C-21.73 42.89 -21.76 39.32 -21.77 35.75 C-21.78 33.74 -21.81 31.73 -21.84 29.72 C-21.84 21.13 -20.91 15.81 -15.49 8.97 C-4.89 -1.31 -4.89 -1.31 0 0 Z " fill="#322B1F" transform="translate(157.38671875,232.640625)"/>
<path d="M0 0 C2.16 0.01 4.31 0.01 6.47 0.01 C11.71 0.02 16.95 0.04 22.19 0.06 C22.32 10 22.45 19.93 22.58 29.87 C22.64 34.48 22.7 39.1 22.76 43.71 C22.82 48.17 22.88 52.62 22.94 57.08 C22.96 58.77 22.98 60.47 23 62.17 C23.03 64.55 23.06 66.93 23.1 69.31 C23.1 69.66 23.1 69.66 23.12 71.43 C23.17 75.31 23.2 79.18 23.19 83.06 C19.56 84.05 15.93 85.04 12.19 86.06 C11.19 85.06 11.19 85.06 11.09 83.15 C11.1 82.31 11.11 81.47 11.12 80.61 C11.13 79.66 11.14 78.71 11.15 77.73 C11.17 76.7 11.18 75.66 11.2 74.6 C11.21 72.41 11.23 70.23 11.25 68.04 C11.28 64.6 11.31 61.15 11.36 57.7 C11.4 54.37 11.42 51.05 11.45 47.72 C11.46 46.71 11.48 45.69 11.5 44.64 C11.53 37.14 10.8 29.75 6.36 23.48 C4.32 21.64 2.3 19.81 0.19 18.06 C-0.36 17.58 -0.9 17.1 -1.46 16.61 C-2.94 15.44 -2.94 15.44 -5.81 14.06 C-10.47 15.13 -13.41 17.02 -16.94 20.19 C-17.77 20.91 -18.59 21.64 -19.45 22.38 C-26.34 30.19 -26.41 37.36 -26.42 47.41 C-26.44 48.78 -26.45 50.16 -26.47 51.54 C-26.52 55.15 -26.54 58.75 -26.55 62.35 C-26.57 66.04 -26.61 69.73 -26.65 73.41 C-26.73 80.63 -26.78 87.85 -26.81 95.06 C-25.16 95.06 -23.51 95.06 -21.81 95.06 C-21.81 95.39 -21.81 95.72 -21.81 96.06 C-24.15 96.1 -26.48 96.1 -28.81 96.06 C-30.93 93.95 -30.26 89.49 -30.43 86.63 C-30.81 84.06 -30.81 84.06 -32.81 82.06 C-35.44 81.44 -35.44 81.44 -37.81 81.06 C-37.84 70.78 -37.85 60.5 -37.86 50.21 C-37.87 45.44 -37.88 40.66 -37.89 35.89 C-37.9 31.29 -37.9 26.68 -37.91 22.08 C-37.91 20.32 -37.91 18.56 -37.92 16.8 C-37.93 14.34 -37.93 11.88 -37.93 9.43 C-37.93 8.69 -37.93 7.96 -37.94 7.2 C-37.93 2.18 -37.93 2.18 -36.81 1.06 C-24.72 -0.74 -12.18 -0.05 0 0 Z " fill="#5E4F36" transform="translate(162.8125,218.9375)"/>
<path d="M0 0 C0.19 1 0.39 2 0.59 3.04 C0.85 4.38 1.11 5.72 1.38 7.06 C1.5 7.72 1.63 8.38 1.76 9.05 C2.62 13.45 3.72 17.71 5 22 C-7.11 27.28 -19.3 32 -31.82 36.24 C-33.85 36.95 -35.84 37.72 -37.84 38.51 C-43.04 40.48 -48.42 41.74 -53.81 43.06 C-54.83 43.32 -55.85 43.57 -56.89 43.84 C-74.4 48.18 -74.4 48.18 -82 48 C-84.44 41.42 -85.87 34.91 -87 28 C-86.39 27.89 -85.78 27.78 -85.15 27.66 C-82.37 27.16 -79.59 26.64 -76.81 26.12 C-75.85 25.95 -74.89 25.78 -73.9 25.6 C-73.44 25.51 -73.44 25.51 -71.08 25.07 C-70.23 24.91 -69.37 24.76 -68.5 24.59 C-65.86 23.97 -63.51 23.02 -61 22 C-59.71 21.73 -58.42 21.47 -57.09 21.19 C-50.39 19.77 -44.04 17.31 -37.62 14.94 C-36.97 14.7 -36.31 14.46 -35.63 14.21 C-26.36 10.81 -17.32 7.1 -8.5 2.64 C-3.26 0 -3.26 0 0 0 Z " fill="#A2A19F" transform="translate(221,287)"/>
<path d="M0 0 C0.66 0.17 0.66 0.17 4 1 C3.59 24.79 -0.52 46.43 -8 69 C-7.39 68.97 -6.78 68.93 -6.16 68.89 C0.45 68.67 0.45 68.67 3.19 70.31 C4.46 71.88 5.73 73.44 7 75 C6.67 75.99 6.34 76.98 6 78 C5.4 77.22 4.8 76.43 4.19 75.62 C2 73 2 73 -1 71 C-4.19 71.38 -4.19 71.38 -7 72 C-7.33 74.31 -7.66 76.62 -8 79 C-8.66 78.67 -9.32 78.34 -10 78 C-10.93 69.41 -9.15 62.53 -6.43 54.51 C-4.47 48.67 -2.93 42.85 -1.69 36.81 C-1.61 36.43 -1.61 36.43 -1.21 34.49 C0.33 26.79 1.16 19.36 1.06 11.5 C1.06 11.14 1.06 11.14 1.05 9.3 C1.04 7.53 1.02 5.77 1 4 C0.96 4.29 0.96 4.29 0.74 5.74 C-6.48 49.35 -28.09 88.74 -56.06 122.44 C-56.52 122.99 -56.97 123.54 -57.44 124.11 C-59.6 126.65 -60.77 127.92 -64 129 C-66.48 128.22 -66.48 128.22 -69.19 127.06 C-70.09 126.68 -70.99 126.3 -71.92 125.91 C-72.61 125.61 -73.29 125.31 -74 125 C-72.6 121.81 -70.97 119.81 -68.44 117.44 C-63.52 112.63 -59.23 107.42 -55 102 C-54.54 101.41 -54.08 100.82 -53.61 100.22 C-42.97 86.51 -33.53 72.11 -25 57 C-26.46 56.95 -27.92 56.91 -29.38 56.88 C-30.19 56.85 -31 56.83 -31.84 56.8 C-34 57 -34 57 -36 59 C-36.41 60.95 -36.41 60.95 -36.62 63.12 C-36.69 63.76 -36.69 63.76 -37 67 C-37.99 67 -38.98 67 -40 67 C-40.02 66.51 -40.02 66.51 -40.11 64.01 C-40.18 62.73 -40.24 61.45 -40.31 60.12 C-40.37 58.85 -40.43 57.57 -40.49 56.26 C-40.57 55.72 -40.57 55.72 -41 53 C-45.9 49.74 -50.98 49.85 -56.75 49.81 C-57.88 49.8 -59.01 49.78 -60.17 49.77 C-63 50 -63 50 -65 52 C-65.41 54.38 -65.41 54.38 -65.62 57.12 C-65.7 58.04 -65.77 58.95 -65.85 59.88 C-65.88 60.23 -65.88 60.23 -66 62 C-68.97 62 -71.94 62 -75 62 C-75.06 61 -75.12 60 -75.18 58.97 C-75.27 57.68 -75.35 56.39 -75.44 55.06 C-75.52 53.77 -75.6 52.49 -75.68 51.16 C-76 48 -76 48 -77 47 C-81.43 46.72 -85.87 46.77 -90.31 46.75 C-91.56 46.73 -92.81 46.71 -94.1 46.69 C-95.3 46.68 -96.5 46.68 -97.74 46.67 C-98.84 46.66 -99.95 46.65 -101.08 46.64 C-104.34 47.04 -105.71 47.67 -108 50 C-108.61 53.14 -108.61 53.14 -108.75 56.69 C-108.78 57.28 -108.78 57.28 -108.92 60.26 C-108.93 60.71 -108.93 60.71 -109 63 C-110.49 63.16 -110.49 63.16 -118 64 C-118.03 63.31 -118.05 62.63 -118.08 61.92 C-118.13 61.02 -118.19 60.12 -118.25 59.19 C-118.3 58.29 -118.34 57.4 -118.39 56.48 C-119 54 -119 54 -120.83 52.17 C-126.66 49.02 -135.28 53.12 -141.14 54.87 C-143.98 55.99 -145.13 56.67 -147 59 C-147.43 60.9 -147.43 60.9 -147.51 63.01 C-147.55 63.77 -147.58 64.53 -147.62 65.31 C-147.64 66.09 -147.66 66.88 -147.69 67.69 C-147.72 68.48 -147.76 69.28 -147.79 70.1 C-147.87 72.07 -147.94 74.03 -148 76 C-149.98 74.68 -151.96 73.36 -154 72 C-153.34 71.84 -153.34 71.84 -150 71 C-150 70.12 -149.99 69.24 -149.99 68.33 C-149.97 67.75 -149.97 67.75 -149.88 64.81 C-149.85 63.66 -149.83 62.52 -149.8 61.33 C-148.93 57.72 -147.82 56.24 -144.83 54.06 C-141.57 52.17 -138.18 51.08 -134.56 50.06 C-133.84 49.83 -133.11 49.6 -132.37 49.36 C-127.31 47.88 -124.03 47.99 -119 50 C-117.06 51.69 -117.06 51.69 -116 54 C-115.81 57.75 -115.81 57.75 -116 61 C-115.18 60.84 -115.18 60.84 -111 60 C-110.99 59.17 -110.97 58.34 -110.96 57.48 C-110.91 56.39 -110.86 55.31 -110.81 54.19 C-110.78 53.11 -110.74 52.03 -110.71 50.92 C-110 48 -110 48 -108.02 46.16 C-103.93 44.59 -100.17 44.39 -95.81 44.25 C-94.97 44.22 -94.12 44.18 -93.25 44.15 C-78.04 43.64 -78.04 43.64 -74.26 46.16 C-72.42 48.85 -72.71 50.97 -72.81 54.19 C-72.83 54.73 -72.83 54.73 -72.89 57.48 C-72.93 58.31 -72.96 59.14 -73 60 C-71.35 59.67 -69.7 59.34 -68 59 C-67.67 56.03 -67.34 53.06 -67 50 C-66.34 50 -65.68 50 -65 50 C-65 49.34 -65 48.68 -65 48 C-61.29 46.76 -58.02 47.02 -54.19 47.25 C-53.84 47.26 -53.84 47.26 -52.07 47.33 C-47.42 47.6 -44.02 48.47 -40 51 C-38.62 53.69 -38.62 53.69 -38 56 C-37.34 55.67 -36.68 55.34 -36 55 C-32.14 53.71 -29.06 53.86 -25 54 C-24.87 53.65 -24.87 53.65 -24.21 51.89 C-22.88 48.71 -21.26 45.82 -19.56 42.81 C-15.02 34.55 -11.45 25.9 -7.86 17.19 C-5.44 11.33 -2.92 5.62 0 0 Z " fill="#C8C8C6" transform="translate(385,99)"/>
<path d="M0 0 C0.25 0.46 0.25 0.46 1.5 2.78 C5.08 9.27 8.54 15.2 13.75 20.55 C15 22 15 22 15 24 C15.56 24.23 16.11 24.45 16.69 24.69 C19.63 26.36 21.65 28.59 24 31 C9.97 31.02 -4.06 31.04 -18.09 31.05 C-24.6 31.06 -31.12 31.06 -37.63 31.08 C-43.91 31.09 -50.2 31.09 -56.48 31.09 C-58.88 31.1 -61.28 31.1 -63.68 31.11 C-67.04 31.11 -70.39 31.11 -73.75 31.11 C-74.74 31.12 -75.74 31.12 -76.77 31.12 C-77.69 31.12 -78.6 31.12 -79.54 31.12 C-79.94 31.12 -79.94 31.12 -81.94 31.12 C-84 31 -84 31 -87 30 C-87 28.68 -87 27.36 -87 26 C-86.22 25.84 -85.43 25.69 -84.62 25.53 C-58.19 20.25 -58.19 20.25 -47.81 17.38 C-47.15 17.19 -46.49 17.01 -45.81 16.83 C-41.29 15.52 -36.97 13.84 -32.62 12.06 C-27.32 9.91 -21.95 7.93 -16.59 5.91 C-12.68 4.43 -8.8 2.94 -4.98 1.25 C-2 0 -2 0 0 0 Z " fill="#544833" transform="translate(226,309)"/>
<path d="M0 0 C2.63 1.78 2.98 2.9 3.59 6.05 C3.7 7.27 3.82 8.49 3.94 9.75 C4.67 16.65 6.22 23.02 8.2 29.66 C8.98 32.91 9.15 35.67 9 39 C9.5 39.17 9.5 39.17 12 40 C13.45 42.13 13.98 43.92 14.5 46.44 C13.87 49.67 12.39 51.16 9.79 53.12 C6.68 54.65 4.21 53.93 1 53 C-1 51 -1 51 -1.19 47.19 C-1.16 44.02 -0.68 41.09 0 38 C-19.59 38.77 -19.59 38.77 -27.77 40.6 C-30.22 41.04 -32.52 41.07 -35 41 C-35.03 41.37 -35.03 41.37 -35.19 43.25 C-36.32 47.08 -37.5 48.07 -41 50 C-45.48 51.02 -49.21 51.09 -53.2 48.66 C-57.35 44.67 -58.52 41.08 -58.81 35.38 C-58.57 31.32 -58.25 28.38 -55.56 25.25 C-52.36 22.73 -49.13 22.11 -45.15 21.71 C-43 22 -43 22 -41.13 23.54 C-38.06 25.65 -36.18 24.99 -32.56 24.38 C-31.33 24.17 -30.09 23.96 -28.81 23.75 C-24.13 22.83 -19.5 21.73 -14.87 20.6 C-11.45 19.88 -8.47 19.76 -5 20 C-5 17.03 -5 14.06 -5 11 C-5.99 10.67 -6.98 10.34 -8 10 C-9.33 3.6 -9.33 3.6 -7.94 1.06 C-5.13 -0.48 -3.14 -0.39 0 0 Z " fill="#B97511" transform="translate(130,300)"/>
<path d="M0 0 C3.12 1.04 3.77 1.51 5.69 4 C5.91 4.27 5.91 4.27 7.01 5.62 C8.23 8.56 8.11 11.12 8.02 14.26 C7.98 19.83 8.52 25.39 8.94 30.94 C9.02 32.17 9.11 33.4 9.2 34.67 C9.29 35.84 9.38 37.01 9.46 38.21 C9.5 38.75 9.5 38.75 9.7 41.44 C10 44 10 44 11 46 C11.14 47.41 11.23 48.83 11.28 50.25 C11.32 51.08 11.36 51.92 11.39 52.78 C11.41 53.22 11.41 53.22 11.5 55.44 C11.57 57.17 11.64 58.89 11.72 60.62 C11.75 61.39 11.78 62.16 11.81 62.95 C12 65 12 65 13 68 C13.28 70.46 13.52 72.9 13.72 75.36 C13.78 76.09 13.84 76.82 13.91 77.58 C14.11 79.97 14.31 82.36 14.5 84.75 C14.57 85.56 14.64 86.38 14.7 87.22 C15.59 97.93 16.3 108.62 16.65 119.37 C16.89 125.82 17.53 132.14 18.34 138.54 C19.27 146.36 19.18 154.14 19 162 C16.03 162 13.06 162 10 162 C7.2 142.04 5.61 122.03 4.07 101.93 C3.55 95.14 3.02 88.34 2.49 81.55 C2.31 79.2 2.13 76.85 1.95 74.5 C1.84 73.06 1.73 71.62 1.62 70.19 C1.52 68.94 1.43 67.69 1.33 66.41 C1.02 63.23 0.55 60.14 0 57 C-0.2 54.85 -0.38 52.69 -0.54 50.54 C-0.62 49.32 -0.71 48.11 -0.8 46.86 C-0.89 45.61 -0.97 44.35 -1.06 43.06 C-1.15 41.81 -1.24 40.56 -1.34 39.28 C-1.75 33.5 -2.05 27.79 -2 22 C-2.66 22 -3.32 22 -4 22 C-3.79 21.05 -3.59 20.1 -3.38 19.12 C-3.25 18.09 -3.13 17.06 -3 16 C-3.66 15.34 -4.32 14.68 -5 14 C-4.78 8.28 -2.98 4.72 0 0 Z " fill="#8A4F18" transform="translate(70,7)"/>
<path d="M0 0 C0.33 0 0.66 0 1 0 C1.39 12.36 0.56 23.89 -2 36 C-2.14 36.67 -2.28 37.33 -2.42 38.02 C-10.07 73.63 -28.14 107.39 -53 134 C-56.15 133.39 -58.19 132.36 -60.75 130.44 C-61.36 129.98 -61.98 129.53 -62.61 129.06 C-62.84 128.88 -62.84 128.88 -64 128 C-61.01 123.85 -57.95 119.91 -54.44 116.19 C-47.77 108.8 -42.46 100.29 -37 92 C-36.8 91.7 -36.8 91.7 -35.81 90.2 C-17.88 62.82 -6.04 32.1 0 0 Z " fill="#9E9F9E" transform="translate(386,101)"/>
<path d="M0 0 C3.87 2.32 5.99 4.98 8 9 C8 9.66 8 10.32 8 11 C6.04 12.39 4.04 13.73 2 15 C1.01 13.02 0.02 11.04 -1 9 C-4.31 8.75 -4.31 8.75 -8 9 C-9.69 11 -9.69 11 -11 13 C-12.32 13 -13.64 13 -15 13 C-15.33 14.98 -15.66 16.96 -16 19 C-15.43 18.84 -14.86 18.68 -14.27 18.52 C-8.92 17.3 -4.46 17.23 0.44 19.81 C3.26 22.22 4.81 23.85 5.41 27.56 C5.45 28.03 5.45 28.03 5.62 30.44 C5.7 31.38 5.77 32.33 5.85 33.31 C6.2 39.68 6.2 39.68 4.91 41.7 C3.6 43.14 2.3 44.57 1 46 C-1.45 45.02 -2.8 44.28 -4.38 42.12 C-5.21 39.29 -4.3 38.61 -3 36 C-2.7 33.24 -2.82 30.8 -3 28 C-5 26 -5 26 -7.16 25.8 C-7.57 25.82 -7.57 25.82 -9.62 25.88 C-10.03 25.88 -10.03 25.88 -12.1 25.93 C-12.73 25.95 -13.35 25.98 -14 26 C-13.67 26.99 -13.34 27.98 -13 29 C-12.1 39.34 -12.1 39.34 -14.69 44.12 C-19.35 47.91 -23.59 48.51 -29.5 48.38 C-33.57 47.76 -36.21 45.98 -39 43 C-41.05 39.69 -42 37.89 -42 34 C-40.02 33.34 -38.04 32.68 -36 32 C-35.36 32.97 -34.72 33.94 -34.06 34.94 C-32 38 -32 38 -31 39 C-25.26 39.27 -25.26 39.27 -23 39 C-21 37 -21 37 -20.75 33.5 C-21 30 -21 30 -23 28 C-24.16 27.84 -25.31 27.67 -26.5 27.5 C-30 27 -30 27 -32 25 C-32.12 22.38 -32.12 22.38 -32 20 C-31.43 19.85 -31.43 19.85 -28.56 19.06 C-25 18 -25 18 -24 17 C-23.81 14.06 -23.81 14.06 -24 11 C-26 9 -26 9 -29 8.75 C-32 9 -32 9 -34 11 C-34.62 13.12 -34.62 13.12 -35 15 C-37.49 13.8 -39.68 12.55 -42 11 C-40.59 6.51 -38.86 3.76 -35 1 C-29.92 0.1 -24.88 -0.02 -20.44 2.88 C-18.92 4.2 -17.43 5.57 -16 7 C-15.52 6.49 -15.03 5.99 -14.53 5.47 C-9.61 0.7 -6.89 -1.24 0 0 Z " fill="#F7D2B5" transform="translate(148,68)"/>
<path d="M0 0 C0.5 0.92 0.99 1.84 1.5 2.78 C5.08 9.27 8.54 15.2 13.75 20.55 C15 22 15 22 15 24 C15.6 24.25 16.2 24.5 16.81 24.75 C19 26 19 26 22 30 C8.47 30 -5.06 30 -19 30 C-19.33 25.05 -19.66 20.1 -20 15 C-24.29 14.67 -28.58 14.34 -33 14 C-33 13.34 -33 12.68 -33 12 C-32.31 11.74 -31.62 11.49 -30.91 11.22 C-27.75 10.05 -24.59 8.87 -21.44 7.69 C-20.35 7.28 -19.27 6.88 -18.15 6.46 C-9.08 3.07 -9.08 3.07 -4.85 1.21 C-2 0 -2 0 0 0 Z " fill="#3B3524" transform="translate(226,309)"/>
<path d="M0 0 C3.12 1.04 3.77 1.51 5.69 4 C5.91 4.27 5.91 4.27 7.01 5.62 C8.23 8.56 8.11 11.12 8.02 14.26 C7.98 19.83 8.52 25.39 8.94 30.94 C9.02 32.17 9.11 33.4 9.2 34.67 C9.29 35.84 9.38 37.01 9.46 38.21 C9.5 38.75 9.5 38.75 9.7 41.44 C10 44 10 44 11 46 C11.14 47.41 11.23 48.83 11.28 50.25 C11.32 51.08 11.36 51.92 11.39 52.78 C11.41 53.22 11.41 53.22 11.5 55.44 C11.57 57.17 11.64 58.89 11.72 60.62 C11.75 61.39 11.78 62.16 11.81 62.95 C12 65 12 65 13 68 C13.28 70.46 13.52 72.9 13.72 75.36 C13.78 76.09 13.84 76.82 13.91 77.58 C14.11 79.97 14.31 82.36 14.5 84.75 C14.57 85.56 14.64 86.38 14.7 87.22 C15.59 97.93 16.3 108.62 16.65 119.37 C16.89 125.82 17.53 132.14 18.34 138.54 C19.27 146.36 19.18 154.14 19 162 C17.68 162 16.36 162 15 162 C14.94 160.71 14.88 159.41 14.82 158.08 C14.35 148.37 13.83 138.69 13 129 C11.35 129.33 9.7 129.66 8 130 C8 128.35 8 126.7 8 125 C8.33 125.66 8.66 126.32 9 127 C9.66 126.67 9.66 126.67 13 125 C12.9 124.08 12.8 123.16 12.7 122.21 C10.36 100.66 8.23 79.1 6.31 57.51 C6.23 56.61 6.15 55.71 6.06 54.78 C5.92 53.11 5.77 51.43 5.62 49.76 C5.21 45.15 4.74 40.56 4.2 35.97 C3.93 33.28 3.9 30.63 3.94 27.94 C3.95 27 3.96 26.06 3.96 25.09 C3.98 24.4 3.99 23.71 4 23 C3.05 23.02 2.1 23.04 1.12 23.06 C-2 23 -2 23 -4 22 C-3.79 21.05 -3.59 20.1 -3.38 19.12 C-3.25 18.09 -3.13 17.06 -3 16 C-3.66 15.34 -4.32 14.68 -5 14 C-4.78 8.28 -2.98 4.72 0 0 Z " fill="#6C3B0B" transform="translate(70,7)"/>
<path d="M0 0 C0.77 0.54 1.54 1.09 2.34 1.65 C3.1 2.17 3.86 2.7 4.65 3.23 C4.93 3.47 4.93 3.47 6.34 4.65 C6.34 5.31 6.34 5.97 6.34 6.65 C6.93 6.9 7.53 7.15 8.14 7.41 C10.62 8.81 11.87 10.19 13.59 12.46 C14.11 13.13 14.63 13.79 15.17 14.48 C16.6 17.13 16.78 18.67 16.34 21.65 C14.84 23.46 14.84 23.46 13.34 24.65 C12.82 23.89 12.3 23.12 11.76 22.34 C1.59 8.08 -11.15 -1.04 -28.5 -4.88 C-46.71 -7.58 -61.6 -2.7 -76.41 7.84 C-83.25 13.4 -88.26 21.1 -92.66 28.65 C-92.99 27.99 -93.32 27.33 -93.66 26.65 C-93.33 25.99 -93 25.33 -92.66 24.65 C-93.98 24.65 -95.3 24.65 -96.66 24.65 C-92.57 13.37 -84.08 5.64 -74.66 -1.35 C-73.87 -1.94 -73.08 -2.53 -72.27 -3.13 C-49.98 -18.01 -21.47 -14.27 0 0 Z " fill="#D89718" transform="translate(325.66015625,230.3515625)"/>
<path d="M0 0 C0.05 1.58 0.04 3.17 0 4.75 C0 5.63 0 6.51 0 7.42 C-1 10 -1 10 -4.2 12 C-5.79 12.69 -7.39 13.36 -9 14 C-10 14.41 -11 14.81 -12.03 15.23 C-15.61 16.64 -19.2 17.99 -22.81 19.31 C-23.46 19.55 -24.11 19.79 -24.78 20.04 C-34.39 23.55 -44.03 26.61 -53.94 29.19 C-55.05 29.48 -56.16 29.77 -57.31 30.07 C-62.63 31.39 -67.51 32.55 -73 32 C-75.44 30.12 -75.44 30.12 -77 28 C-77 27.34 -77 26.68 -77 26 C-78.32 25.67 -79.64 25.34 -81 25 C-78.9 24.44 -76.79 23.87 -74.69 23.31 C-74.01 23.13 -73.33 22.95 -72.64 22.76 C-69.04 21.79 -65.45 20.86 -61.83 20.01 C-51.51 17.53 -41.58 14.21 -31.62 10.56 C-31.31 10.45 -31.31 10.45 -29.72 9.87 C-21.81 6.98 -14.23 3.81 -6.72 0.02 C-3.87 -1.05 -2.78 -1.12 0 0 Z " fill="#C9C9C8" transform="translate(216,291)"/>
<path d="M0 0 C-0.33 3.3 -0.66 6.6 -1 10 C-1.99 10 -2.98 10 -4 10 C-4 9.01 -4 8.02 -4 7 C-4.99 7 -5.98 7 -7 7 C-6.84 7.66 -6.84 7.66 -6 11 C-7.98 11 -9.96 11 -12 11 C-12 9.68 -12 8.36 -12 7 C-12.66 7.33 -13.32 7.66 -14 8 C-14.62 10.06 -14.62 10.06 -15 12 C-16.65 12.33 -18.3 12.66 -20 13 C-20.33 12.01 -20.66 11.02 -21 10 C-21.66 10 -22.32 10 -23 10 C-23.27 10.8 -23.54 11.61 -23.81 12.44 C-24.2 13.28 -24.6 14.13 -25 15 C-25.99 15.33 -26.98 15.66 -28 16 C-28 16.99 -28 17.98 -28 19 C-26.68 19.66 -25.36 20.32 -24 21 C-25.65 21 -27.3 21 -29 21 C-29.03 21.37 -29.03 21.37 -29.19 23.25 C-30.32 27.08 -31.5 28.07 -35 30 C-39.48 31.02 -43.21 31.09 -47.2 28.66 C-51.35 24.67 -52.52 21.08 -52.81 15.38 C-52.57 11.32 -52.25 8.38 -49.56 5.25 C-46.36 2.73 -43.13 2.11 -39.15 1.71 C-37 2 -37 2 -35.13 3.54 C-32.06 5.65 -30.18 4.99 -26.56 4.38 C-25.94 4.27 -25.94 4.27 -22.82 3.75 C-18.15 2.83 -13.54 1.77 -8.94 0.59 C-5.88 -0.02 -3.11 -0.1 0 0 Z " fill="#AE6B0A" transform="translate(124,320)"/>
<path d="M0 0 C3.17 2.51 6.13 5.15 9 8 C8.67 8.66 8.34 9.32 8 10 C4.83 9.41 3.07 8.44 0.62 6.38 C-13.61 -4.66 -28.76 -7.71 -46.28 -5.61 C-57.58 -3.25 -68.62 3.11 -76 12 C-76.29 12.32 -76.29 12.32 -77.76 13.91 C-88.29 26.1 -90.85 41.32 -90 57 C-88.09 70.36 -81.51 82.49 -72 92 C-71.67 92.99 -71.34 93.98 -71 95 C-69.38 96.39 -67.71 97.73 -66 99 C-73.79 97.64 -80.55 89.15 -85 83 C-94.33 66.97 -97.37 51.15 -93 33 C-90.31 24.71 -86.31 17.87 -81 11 C-80.57 10.39 -80.15 9.77 -79.71 9.14 C-72.36 -0.68 -57.56 -8.4 -45.62 -10.68 C-29.05 -12.7 -13.96 -9.18 0 0 Z " fill="#413018" transform="translate(322,235)"/>
<path d="M0 0 C0.66 0.17 0.66 0.17 4 1 C3.59 24.79 -0.52 46.43 -8 69 C-7.39 68.97 -6.78 68.93 -6.16 68.89 C0.45 68.67 0.45 68.67 3.19 70.31 C4.46 71.88 5.73 73.44 7 75 C6.67 75.99 6.34 76.98 6 78 C5.4 77.22 4.8 76.43 4.19 75.62 C2 73 2 73 -1 71 C-4.19 71.38 -4.19 71.38 -7 72 C-7.33 74.31 -7.66 76.62 -8 79 C-8.66 78.67 -9.32 78.34 -10 78 C-10.93 69.41 -9.15 62.53 -6.43 54.51 C-4.47 48.67 -2.93 42.85 -1.69 36.81 C-1.61 36.43 -1.61 36.43 -1.21 34.49 C0.33 26.79 1.16 19.36 1.06 11.5 C1.06 11.14 1.06 11.14 1.05 9.3 C1.04 7.53 1.02 5.77 1 4 C-1.92 10.24 -4.8 16.5 -7.52 22.83 C-10.25 29.16 -13.1 35.4 -16.19 41.56 C-16.51 42.2 -16.83 42.85 -17.16 43.51 C-17.78 44.74 -18.41 45.96 -19.05 47.18 C-19.71 48.44 -20.34 49.71 -20.95 50.99 C-23.37 55.79 -23.37 55.79 -26.51 56.83 C-27.37 56.83 -28.24 56.82 -29.12 56.81 C-33.85 56.85 -33.85 56.85 -36 59 C-36.41 60.95 -36.41 60.95 -36.62 63.12 C-36.69 63.76 -36.69 63.76 -37 67 C-37.99 67 -38.98 67 -40 67 C-40.02 66.51 -40.02 66.51 -40.11 64.01 C-40.18 62.73 -40.24 61.45 -40.31 60.12 C-40.37 58.85 -40.43 57.57 -40.49 56.26 C-40.57 55.72 -40.57 55.72 -41 53 C-45.9 49.74 -50.98 49.85 -56.75 49.81 C-57.88 49.8 -59.01 49.78 -60.17 49.77 C-63 50 -63 50 -65 52 C-65.41 54.38 -65.41 54.38 -65.62 57.12 C-65.7 58.04 -65.77 58.95 -65.85 59.88 C-65.88 60.23 -65.88 60.23 -66 62 C-68.97 62 -71.94 62 -75 62 C-75.06 61 -75.12 60 -75.18 58.97 C-75.27 57.68 -75.35 56.39 -75.44 55.06 C-75.52 53.77 -75.6 52.49 -75.68 51.16 C-76 48 -76 48 -77 47 C-81.43 46.72 -85.87 46.77 -90.31 46.75 C-91.56 46.73 -92.81 46.71 -94.1 46.69 C-95.3 46.68 -96.5 46.68 -97.74 46.67 C-98.84 46.66 -99.95 46.65 -101.08 46.64 C-104.34 47.04 -105.71 47.67 -108 50 C-108.61 53.14 -108.61 53.14 -108.75 56.69 C-108.78 57.28 -108.78 57.28 -108.92 60.26 C-108.93 60.71 -108.93 60.71 -109 63 C-110.49 63.16 -110.49 63.16 -118 64 C-118.03 63.31 -118.05 62.63 -118.08 61.92 C-118.13 61.02 -118.19 60.12 -118.25 59.19 C-118.3 58.29 -118.34 57.4 -118.39 56.48 C-119 54 -119 54 -120.83 52.17 C-126.66 49.02 -135.28 53.12 -141.14 54.87 C-143.98 55.99 -145.13 56.67 -147 59 C-147.43 60.9 -147.43 60.9 -147.51 63.01 C-147.55 63.77 -147.58 64.53 -147.62 65.31 C-147.64 66.09 -147.66 66.88 -147.69 67.69 C-147.72 68.48 -147.76 69.28 -147.79 70.1 C-147.87 72.07 -147.94 74.03 -148 76 C-149.98 74.68 -151.96 73.36 -154 72 C-153.34 71.84 -153.34 71.84 -150 71 C-150 70.12 -149.99 69.24 -149.99 68.33 C-149.97 67.75 -149.97 67.75 -149.88 64.81 C-149.85 63.66 -149.83 62.52 -149.8 61.33 C-148.93 57.72 -147.82 56.24 -144.83 54.06 C-141.57 52.17 -138.18 51.08 -134.56 50.06 C-133.84 49.83 -133.11 49.6 -132.37 49.36 C-127.31 47.88 -124.03 47.99 -119 50 C-117.06 51.69 -117.06 51.69 -116 54 C-115.81 57.75 -115.81 57.75 -116 61 C-115.18 60.84 -115.18 60.84 -111 60 C-110.99 59.17 -110.97 58.34 -110.96 57.48 C-110.91 56.39 -110.86 55.31 -110.81 54.19 C-110.78 53.11 -110.74 52.03 -110.71 50.92 C-110 48 -110 48 -108.02 46.16 C-103.93 44.59 -100.17 44.39 -95.81 44.25 C-94.97 44.22 -94.12 44.18 -93.25 44.15 C-78.04 43.64 -78.04 43.64 -74.26 46.16 C-72.42 48.85 -72.71 50.97 -72.81 54.19 C-72.83 54.73 -72.83 54.73 -72.89 57.48 C-72.93 58.31 -72.96 59.14 -73 60 C-71.35 59.67 -69.7 59.34 -68 59 C-67.67 56.03 -67.34 53.06 -67 50 C-66.34 50 -65.68 50 -65 50 C-65 49.34 -65 48.68 -65 48 C-61.29 46.76 -58.02 47.02 -54.19 47.25 C-53.84 47.26 -53.84 47.26 -52.07 47.33 C-47.42 47.6 -44.02 48.47 -40 51 C-38.62 53.69 -38.62 53.69 -38 56 C-37.34 55.67 -36.68 55.34 -36 55 C-32.14 53.71 -29.06 53.86 -25 54 C-24.87 53.65 -24.87 53.65 -24.21 51.89 C-22.88 48.71 -21.26 45.82 -19.56 42.81 C-15.02 34.55 -11.45 25.9 -7.86 17.19 C-5.44 11.33 -2.92 5.62 0 0 Z " fill="#F7F7F7" transform="translate(385,99)"/>
<path d="M0 0 C3.66 0.55 5.01 1.75 7.19 4.69 C11.21 10.38 11.02 15.19 11 22 C13.5 22.65 16 23.3 18.5 23.94 C19.2 24.12 19.89 24.3 20.61 24.49 C21.31 24.67 22 24.84 22.72 25.03 C23.35 25.19 23.98 25.35 24.62 25.52 C31.04 26.82 37.19 27.11 43.71 26.96 C45.36 26.93 47.02 26.91 48.67 26.89 C51.24 26.86 53.81 26.81 56.37 26.75 C69.59 26.46 79.81 27.26 90.64 35.63 C92 37 92 37 92 39 C92.68 39.14 93.36 39.27 94.05 39.41 C102.37 41.33 110.13 44.69 115 52 C111.96 50.55 109.16 48.86 106.31 47.06 C103.01 45.04 100.05 43.59 96.31 42.56 C92.82 41.54 91.14 40.36 88.75 37.62 C83.11 31.56 75.39 29.05 67.26 28.63 C61.94 28.52 56.63 28.66 51.31 28.81 C47.7 28.9 44.1 28.96 40.49 29.02 C39.64 29.03 38.78 29.05 37.9 29.06 C32.04 29.1 26.66 28.62 21 27 C19.81 26.72 18.62 26.44 17.4 26.15 C16.9 26.02 16.9 26.02 14.38 25.38 C13.35 25.11 12.33 24.85 11.27 24.59 C10.52 24.39 9.77 24.2 9 24 C8.41 20.38 7.99 17.17 8.25 13.5 C7.93 9 6.18 6.17 3 3 C2.34 3 1.68 3 1 3 C-3.76 11.56 -3.76 11.56 -3 16 C-2.34 16.99 -1.68 17.98 -1 19 C-1.88 21.69 -1.88 21.69 -3 24 C-2.34 24 -1.68 24 -1 24 C0.01 33.03 1 42.05 1.5 51.12 C1.78 56.12 2.22 61.02 2.88 65.99 C3.91 74.34 4.58 82.71 5.22 91.1 C5.27 91.78 5.32 92.46 5.38 93.16 C5.81 98.85 6.24 104.54 6.66 110.22 C7.03 115.16 7.4 120.1 7.78 125.04 C7.81 125.37 7.81 125.37 7.94 127.08 C8.61 135.78 9.4 144.44 10.64 153.09 C11.14 157.09 11.14 160.97 11 165 C10.01 165.33 10.01 165.33 5 167 C5.33 166.01 5.66 165.02 6 164 C6.66 163.67 7.32 163.34 8 163 C8.25 154.38 7.45 145.88 6.62 137.31 C6.37 134.58 6.11 131.85 5.85 129.11 C5.78 128.4 5.72 127.69 5.65 126.95 C4.38 113.46 3.24 99.95 2.12 86.44 C1.71 81.49 1.29 76.54 0.88 71.58 C0.67 69.06 0.46 66.55 0.25 64.03 C-0.87 50.32 -2.12 36.72 -4.34 23.14 C-4.56 21.76 -4.78 20.38 -5 19 C-5.12 18.27 -5.23 17.55 -5.35 16.8 C-6.08 11.79 -5.72 9.35 -3.06 5 C-2.5 4.05 -1.93 3.1 -1.35 2.12 C-0.9 1.42 -0.46 0.72 0 0 Z " fill="#F3ECE6" transform="translate(69,5)"/>
<path d="M0 0 C-0.03 0.92 -0.07 1.83 -0.11 2.77 C-0.12 3.37 -0.12 3.37 -0.19 6.38 C-0.22 7.56 -0.26 8.74 -0.29 9.96 C-0.2 10.96 -0.1 11.97 0 13 C3 15 3 15 6.5 14.81 C10 14 10 14 12 12.88 C13.63 9.82 12.71 7.27 12 4 C11.84 3.67 11.84 3.67 11 2 C25.33 1.88 39.67 1.8 54 1.74 C60.66 1.71 67.32 1.68 73.97 1.62 C80.4 1.57 86.82 1.54 93.25 1.53 C95.7 1.52 98.15 1.5 100.6 1.47 C104.03 1.43 107.47 1.43 110.9 1.43 C111.91 1.41 112.92 1.4 113.96 1.38 C121.63 1.43 126.57 3.57 132 9 C129.05 8.57 126.99 7.99 124.38 6.5 C113.86 1.83 99.67 3.87 88.36 3.9 C86.27 3.9 84.18 3.91 82.09 3.91 C76.62 3.91 71.14 3.92 65.67 3.93 C60.07 3.94 54.47 3.95 48.88 3.95 C37.92 3.96 26.96 3.98 16 4 C15.98 4.31 15.98 4.31 15.85 5.88 C15.78 6.69 15.7 7.5 15.62 8.34 C15.56 9.15 15.49 9.95 15.41 10.78 C15 13 15 13 13 15.56 C8.92 17.52 5.45 17.83 1 17 C-1.55 15.21 -2.63 14.05 -3.65 11.12 C-4.25 7.5 -2.99 4.5 -2 1 C-12.72 2.06 -23.37 3.21 -34 5 C-34.06 5.39 -34.06 5.39 -34.34 7.36 C-35 10 -35 10 -37.5 12.31 C-41.88 14.42 -45.23 14.86 -50 14 C-53.8 11.99 -55.62 10.57 -58 7 C-60.23 6.61 -60.23 6.61 -63.04 6.6 C-64.1 6.59 -65.15 6.57 -66.23 6.56 C-66.8 6.56 -66.8 6.56 -69.68 6.56 C-70.27 6.55 -70.27 6.55 -73.22 6.52 C-76.96 6.48 -80.7 6.46 -84.44 6.44 C-88.17 6.41 -91.91 6.39 -95.65 6.35 C-97.97 6.32 -100.3 6.31 -102.63 6.3 C-103.69 6.29 -104.74 6.28 -105.83 6.27 C-106.75 6.27 -107.68 6.26 -108.64 6.26 C-111 6 -111 6 -114 4 C-106.67 3.84 -99.34 3.71 -92.02 3.64 C-88.61 3.6 -85.21 3.55 -81.81 3.47 C-77.89 3.38 -73.97 3.35 -70.05 3.32 C-68.84 3.28 -67.62 3.24 -66.37 3.21 C-58.04 3.2 -58.04 3.2 -54.95 5.58 C-53.35 7.49 -53.35 7.49 -52.11 9.41 C-51 11 -51 11 -48.4 11.82 C-44.25 11.59 -41.61 11.35 -37.94 9.25 C-35.98 6.98 -35.58 5.85 -35 3 C-23.2 0.27 -12.09 -0.35 0 0 Z " fill="#F1EEEA" transform="translate(130,338)"/>
<path d="M0 0 C3.59 1.64 4.79 2.69 7 6 C7.55 9.39 7.55 12.61 7 16 C4.45 19.28 2.21 21.66 -1.99 22.31 C-6.49 22.56 -8.39 22.47 -12.06 19.62 C-14.91 15.46 -14.9 10.84 -14 6 C-10.37 0.07 -6.72 -0.74 0 0 Z " fill="#DF9814" transform="translate(258,273)"/>
<path d="M0 0 C5.5 3 5.5 3 7 6 C7.65 11.21 7.92 14.82 4.62 19.06 C0.49 22.11 -2.91 22.73 -8 22 C-10.81 20.21 -12.51 18.98 -14 16 C-14.59 11.85 -14.95 7.79 -12.94 4.01 C-9.24 -0.18 -5.43 -1.29 0 0 Z " fill="#DB9411" transform="translate(291,306)"/>
<path d="M0 0 C5.5 3 5.5 3 7 6 C7.42 9.39 7.49 12.62 7 16 C4.56 19.06 4.56 19.06 2 21 C1.67 21.33 1.34 21.66 1 22 C-3.58 22.58 -7 22.61 -11 20.19 C-14.27 16.61 -14.47 12.96 -14.4 8.3 C-13.81 4.92 -12.42 3.22 -9.84 1.04 C-6.55 -0.82 -3.63 -0.87 0 0 Z " fill="#B77403" transform="translate(324,273)"/>
<path d="M0 0 C3.54 0.03 4.63 0.24 7.75 2.19 C11.04 5.68 11.14 8.33 11.11 12.98 C10.5 16.9 8.58 18.62 5.75 21.31 C2.69 22.84 0.13 22.54 -3.25 22.31 C-6.79 20.66 -8.06 19.6 -10.25 16.31 C-10.8 12.92 -10.8 9.7 -10.25 6.31 C-7.81 3.25 -7.81 3.25 -5.25 1.31 C-3.69 -0.25 -2.16 0.07 0 0 Z " fill="#E39E17" transform="translate(287.25,240.6875)"/>
<path d="M0 0 C0.33 0 0.66 0 1 0 C1.31 7.23 1.63 14.46 1.94 21.69 C1.98 22.76 2.03 23.84 2.08 24.95 C2.57 36.37 3.05 47.79 3.4 59.21 C3.73 70.15 4.18 81.08 4.81 92 C4.87 93.23 4.93 94.46 4.99 95.73 C5.06 96.87 5.13 98.01 5.21 99.19 C5.26 100.19 5.32 101.2 5.38 102.23 C6.15 105.66 7.69 107.4 10 110 C11.24 112.47 11.1 114.12 11.06 116.88 C11.05 117.74 11.04 118.6 11.04 119.49 C11.02 120.32 11.01 121.15 11 122 C11 123.32 11 124.64 11 126 C11.8 126.74 12.61 127.49 13.44 128.25 C16.62 131.67 17.06 134.49 17 139 C16.84 140.38 16.65 141.75 16.44 143.12 C16 147 16 147 17.06 150.06 C18.34 154.07 17.63 156.17 16 160 C12.67 163.84 9.73 164.36 4.8 164.83 C-0.32 165.14 -5.43 165.09 -10.56 165.04 C-12.64 165.03 -14.72 165.02 -16.81 165.01 C-22.72 164.98 -28.63 164.95 -34.55 164.9 C-38.18 164.88 -41.82 164.86 -45.45 164.85 C-46.83 164.84 -48.2 164.83 -49.58 164.82 C-60.99 164.7 -69.04 166.39 -79.46 171.07 C-79.88 171.23 -79.88 171.23 -82 172 C-82.66 171.67 -83.32 171.34 -84 171 C-83.5 170.75 -83.5 170.75 -80.97 169.5 C-79.67 168.86 -78.37 168.21 -77.06 167.56 C-76.4 167.24 -75.74 166.91 -75.06 166.58 C-70.11 164.11 -70.11 164.11 -69 163 C-66.56 162.9 -64.14 162.86 -61.7 162.86 C-60.93 162.85 -60.17 162.85 -59.38 162.85 C-57.72 162.84 -56.05 162.83 -54.39 162.83 C-51.75 162.82 -49.12 162.81 -46.48 162.79 C-38.99 162.74 -31.49 162.69 -24 162.67 C-19.42 162.66 -14.84 162.63 -10.26 162.59 C-8.52 162.58 -6.77 162.58 -5.02 162.58 C-2.58 162.58 -0.13 162.56 2.31 162.53 C3.03 162.54 3.76 162.54 4.5 162.55 C7.93 162.49 9.69 162.24 12.42 160.09 C15.08 156.57 15.35 154.41 15 150 C14.46 149.13 13.93 148.27 13.38 147.38 C12.92 146.59 12.47 145.81 12 145 C12.81 143.19 12.81 143.19 14 141 C14.66 134.07 14.66 134.07 12.19 130.06 C10 128 10 128 7 127 C7.16 126.46 7.32 125.93 7.48 125.38 C8.1 122.55 8.24 119.89 8.31 117 C8.35 115.97 8.39 114.94 8.43 113.88 C8 111 8 111 6.02 109.14 C3.59 106.57 3.43 105.37 3.21 101.89 C3.18 101.38 3.18 101.38 2.99 98.8 C2.94 97.7 2.88 96.6 2.82 95.47 C2.78 94.89 2.78 94.89 2.6 91.98 C2.37 88.32 2.18 84.66 2 81 C1.94 79.85 1.89 78.71 1.83 77.53 C1.5 70.68 1.23 63.82 0.99 56.97 C0.88 53.5 0.74 50.03 0.61 46.57 C0.05 31.04 -0.11 15.54 0 0 Z " fill="#E8E9E5" transform="translate(392,177)"/>
<path d="M0 0 C0.33 0 0.66 0 1 0 C1.5 2.97 1.5 2.97 4 18 C2.95 18.06 2.95 18.06 -2.38 18.38 C-7.62 18.74 -12.55 19.44 -17.67 20.59 C-21.47 21.26 -25.15 21.12 -29 21 C-29.33 19.68 -29.66 18.36 -30 17 C-29.38 16.77 -28.76 16.55 -28.12 16.31 C-25.39 14.62 -24.95 13.01 -24 10 C-23.01 10.33 -22.02 10.66 -21 11 C-21 11.99 -21 12.98 -21 14 C-19.35 13.67 -17.7 13.34 -16 13 C-15.67 11.35 -15.34 9.7 -15 8 C-14.34 8 -13.68 8 -13 8 C-13 9.32 -13 10.64 -13 12 C-11.02 12 -9.04 12 -7 12 C-7.33 10.68 -7.66 9.36 -8 8 C-7.01 8 -6.02 8 -5 8 C-5 8.99 -5 9.98 -5 11 C-4.01 11 -3.02 11 -2 11 C-2.02 10.37 -2.05 9.75 -2.07 9.1 C-2.09 8.28 -2.11 7.47 -2.12 6.62 C-2.15 5.81 -2.17 5 -2.2 4.16 C-2 2 -2 2 0 0 Z " fill="#A15F06" transform="translate(125,319)"/>
<path d="M0 0 C0.99 0.66 1.98 1.32 3 2 C2.84 3.01 2.67 4.02 2.5 5.06 C2 9 2 9 2.19 12.69 C2 16 2 16 0.44 18.5 C-2.98 20.6 -5.19 19.88 -9 19 C-9.33 17.68 -9.66 16.36 -10 15 C-11.65 15.66 -13.3 16.32 -15 17 C-15.91 8.46 -15.91 8.46 -13.77 5.04 C-9.55 0.78 -6.06 -0.38 0 0 Z " fill="#E39B13" transform="translate(87,322)"/>
<path d="M0 0 C0.33 0 0.66 0 1 0 C1 4.29 1 8.58 1 13 C0.34 13 -0.32 13 -1 13 C-1.16 10.98 -1.33 8.96 -1.49 6.95 C-2 5 -2 5 -5 3 C-10.81 2.17 -14.89 4.52 -20 7 C-20.33 11.29 -20.66 15.58 -21 20 C-21.33 20 -21.66 20 -22 20 C-22.66 17.69 -23.32 15.38 -24 13 C-28.3 11.88 -30.25 11.57 -34.18 13.82 C-36.92 16.29 -37.48 18.18 -37.83 21.82 C-37.9 23.78 -37.94 25.74 -37.95 27.7 C-37.98 28.76 -38.01 29.82 -38.04 30.91 C-38.11 33.18 -38.16 35.45 -38.19 37.72 C-38.25 41.26 -38.34 44.8 -38.45 48.33 C-38.59 53.03 -38.72 57.73 -38.83 62.43 C-39.03 70.44 -39.26 78.46 -39.66 86.47 C-39.75 88.52 -39.81 90.58 -39.86 92.64 C-39.92 93.85 -39.98 95.07 -40.05 96.32 C-40.07 96.83 -40.07 96.83 -40.17 99.46 C-41 102 -41 102 -43.95 103.72 C-44.95 104.14 -45.96 104.56 -47 105 C-50.27 108.92 -50.52 112.88 -50.69 117.81 C-50.72 118.51 -50.76 119.2 -50.79 119.91 C-50.87 121.61 -50.94 123.3 -51 125 C-52.32 124.67 -53.64 124.34 -55 124 C-54.34 124 -53.68 124 -53 124 C-53.03 123.3 -53.07 122.6 -53.11 121.88 C-53.29 115.46 -52.93 110.76 -50 105 C-45.9 101 -45.9 101 -43 101 C-42.63 93.31 -42.25 85.63 -41.88 77.94 C-41.67 73.67 -41.46 69.41 -41.26 65.14 C-41.19 63.75 -41.12 62.37 -41.05 60.99 C-40.89 57.56 -40.72 54.14 -40.55 50.71 C-40.23 44.48 -39.96 38.26 -39.85 32.02 C-39.83 30.96 -39.81 29.89 -39.78 28.8 C-39.74 26.86 -39.72 24.91 -39.72 22.97 C-39.6 18.45 -39.47 16.6 -36.58 12.95 C-33.16 10.36 -31.59 9.88 -27.38 9.94 C-26.97 9.94 -26.97 9.94 -24.9 9.96 C-24.59 9.97 -24.59 9.97 -23 10 C-22.84 9.26 -22.67 8.51 -22.5 7.75 C-20.64 4.34 -18.98 3.31 -15.5 1.71 C-11.48 0.57 -7.59 0.77 -3.44 0.96 C-3.04 0.96 -3.04 0.96 -1 1 C-0.67 0.67 -0.34 0.34 0 0 Z " fill="#DFE0DB" transform="translate(73,172)"/>
<path d="M0 0 C1.65 2.7 1.41 4.9 1.31 8.03 C1.3 8.57 1.3 8.57 1.23 11.32 C1.19 12.15 1.16 12.98 1.12 13.84 C1.95 13.67 1.95 13.67 6.12 12.84 C6.45 9.87 6.78 6.9 7.12 3.84 C7.78 3.84 8.44 3.84 9.12 3.84 C9.12 3.18 9.12 2.52 9.12 1.84 C12.92 0.57 16.32 0.9 20.25 1.15 C20.99 1.19 21.73 1.22 22.49 1.26 C24.37 1.38 26.25 1.6 28.12 1.84 C28.29 2.17 28.29 2.17 29.12 3.84 C27.84 3.82 26.57 3.79 25.25 3.77 C23.58 3.75 21.92 3.73 20.25 3.71 C19.4 3.7 18.56 3.68 17.7 3.66 C16.89 3.66 16.08 3.65 15.25 3.64 C14.88 3.64 14.88 3.64 13 3.61 C11.12 3.84 11.12 3.84 9.12 5.84 C8.71 8.22 8.71 8.22 8.5 10.96 C8.42 11.87 8.35 12.78 8.27 13.72 C8.22 14.42 8.17 15.12 8.12 15.84 C5.15 15.84 2.18 15.84 -0.88 15.84 C-0.94 14.84 -1 13.84 -1.06 12.81 C-1.15 11.52 -1.23 10.23 -1.32 8.9 C-1.4 7.61 -1.48 6.33 -1.56 5 C-1.88 1.84 -1.88 1.84 -2.88 0.84 C-7.31 0.56 -11.75 0.61 -16.19 0.59 C-16.82 0.58 -16.82 0.58 -19.98 0.53 C-21.18 0.52 -22.38 0.52 -23.62 0.51 C-24.72 0.5 -25.82 0.49 -26.96 0.48 C-30.22 0.88 -31.59 1.51 -33.88 3.84 C-34.49 6.98 -34.49 6.98 -34.63 10.53 C-34.66 11.12 -34.66 11.12 -34.8 14.1 C-34.81 14.55 -34.81 14.55 -34.88 16.84 C-37.85 17.17 -40.82 17.5 -43.88 17.84 C-43.9 17.15 -43.93 16.47 -43.96 15.76 C-44.01 14.86 -44.07 13.96 -44.13 13.03 C-44.18 12.13 -44.22 11.24 -44.27 10.32 C-44.88 7.84 -44.88 7.84 -46.71 6.01 C-52.54 2.86 -61.16 6.96 -67.02 8.71 C-69.86 9.83 -71.01 10.51 -72.88 12.84 C-73.31 14.74 -73.31 14.74 -73.39 16.85 C-73.43 17.61 -73.46 18.37 -73.5 19.15 C-73.52 19.93 -73.54 20.72 -73.57 21.53 C-73.6 22.32 -73.63 23.12 -73.67 23.94 C-73.75 25.91 -73.82 27.87 -73.88 29.84 C-75.86 28.52 -77.84 27.2 -79.88 25.84 C-78.56 25.51 -77.24 25.18 -75.88 24.84 C-75.88 23.96 -75.87 23.08 -75.87 22.17 C-75.85 21.59 -75.85 21.59 -75.75 18.65 C-75.73 17.5 -75.71 16.36 -75.68 15.17 C-74.81 11.56 -73.7 10.08 -70.71 7.9 C-67.44 6.01 -64.06 4.92 -60.44 3.9 C-59.72 3.67 -58.99 3.44 -58.24 3.2 C-53.19 1.72 -49.91 1.83 -44.88 3.84 C-42.94 5.53 -42.94 5.53 -41.88 7.84 C-41.69 11.59 -41.69 11.59 -41.88 14.84 C-40.23 14.51 -38.58 14.18 -36.88 13.84 C-36.86 13.01 -36.85 12.18 -36.84 11.32 C-36.79 10.23 -36.74 9.15 -36.69 8.03 C-36.66 6.95 -36.62 5.87 -36.59 4.76 C-35.88 1.84 -35.88 1.84 -33.76 0 C-25.86 -3.18 -7.47 -4.61 0 0 Z " fill="#E2E0DD" transform="translate(310.87890625,145.16015625)"/>
<path d="M0 0 C2.78 1.02 3.82 1.68 5.27 4.32 C7.34 10.23 8.21 14.77 8 21 C8.94 23.62 8.94 23.62 10 26 C10.16 27.07 10.33 28.14 10.5 29.25 C10.58 29.7 10.58 29.7 11 32 C11.66 32.33 12.32 32.66 13 33 C12.67 34.65 12.34 36.3 12 38 C9.62 38.62 9.62 38.62 7 39 C3.84 35.84 4.37 32.37 4 28 C-0.95 28 -5.9 28 -11 28 C-11 27.67 -11 27.34 -11 27 C-6.38 27 -1.76 27 3 27 C2.53 25.68 2.05 24.36 1.56 23 C0.09 18.14 -0.44 13.48 -0.75 8.44 C-0.77 8.08 -0.77 8.08 -0.88 6.27 C-0.97 4.52 -0.99 2.76 -1 1 C-0.67 0.67 -0.34 0.34 0 0 Z " fill="#CC8813" transform="translate(126,310)"/>
<path d="M0 0 C0.42 0.4 0.85 0.8 1.29 1.21 C7.62 6.93 12.51 8.89 20.94 9.81 C28.53 10.79 32.59 13.29 37.7 18.84 C42.57 23.82 47.36 25.11 54.1 26.03 C58.94 26.68 62.68 27.8 67 30 C67.94 32.19 67.94 32.19 68 34 C64.87 35.77 62.04 36.48 58.5 37.06 C53.27 37.93 53.27 37.93 50.88 38.54 C45.09 39.96 40.65 39.01 35.19 37 C25.14 33.51 18.58 34.51 9.07 38.85 C1.27 42.14 -6.7 41.51 -15 41 C-15.33 40.34 -15.66 39.68 -16 39 C-15.51 39.02 -15.51 39.02 -13.04 39.11 C-5.43 39.26 0.94 39.04 8 36 C17.24 32.23 23.8 30.19 33.31 34 C41.06 37.07 48.33 37.16 56 34 C58.37 33.66 60.72 33.5 63.11 33.34 C63.73 33.23 64.36 33.12 65 33 C65.16 32.67 65.16 32.67 66 31 C65.03 30.86 64.06 30.71 63.06 30.56 C60 30 60 30 59 29 C57.15 28.89 55.29 28.82 53.44 28.75 C44.89 28.07 40.61 24.51 34.44 18.88 C28.69 13.69 24.22 11.99 16.5 11.62 C10.33 11.28 7.5 10.21 3 6 C0 2.61 0 2.61 0 0 Z " fill="#FAEFEB" transform="translate(192,96)"/>
<path d="M0 0 C6.68 3.43 13.02 4.79 20.45 5.65 C25.52 6.25 29.46 7.4 34.06 9.62 C33.55 11.49 33.55 11.49 32.06 13.62 C29.42 14.53 27.02 15.19 24.31 15.75 C22.9 16.06 21.49 16.38 20.08 16.7 C19.39 16.84 18.7 16.99 17.99 17.15 C16.06 17.62 16.06 17.62 13.08 18.77 C9.73 19.72 7.23 19.59 3.79 19.34 C-5.76 18.69 -10.88 20.4 -18.24 26.46 C-22.03 29.5 -25.31 30.76 -30.12 31.06 C-31.38 31.25 -32.64 31.43 -33.94 31.62 C-34.6 32.62 -35.26 33.6 -35.94 34.62 C-38.25 33.31 -40.56 31.98 -42.94 30.62 C-42.94 30.3 -42.94 29.97 -42.94 29.62 C-41.86 29.52 -40.79 29.41 -39.68 29.29 C-38.25 29.13 -36.81 28.97 -35.38 28.81 C-34.67 28.74 -33.97 28.67 -33.24 28.6 C-26.07 27.77 -20.46 25.27 -14.62 21 C-10.05 17.68 -8.08 16.54 -2.33 16.74 C5.24 16.98 11.19 16.37 18.32 13.58 C22.5 12.12 26.67 11.82 31.06 11.62 C31.06 10.97 31.06 10.31 31.06 9.62 C30.51 9.55 30.51 9.55 27.69 9.19 C24.06 8.62 24.06 8.62 22.06 7.62 C20 7.47 17.94 7.35 15.88 7.25 C9.71 6.8 5.28 5.56 -0.05 2.35 C-7.64 -1.95 -14.35 -2.25 -22.94 -2.38 C-22.94 -2.7 -22.94 -3.03 -22.94 -3.38 C-14.33 -5.41 -7.75 -3.99 0 0 Z " fill="#FAE8E0" transform="translate(226.9375,61.375)"/>
<path d="M0 0 C-0.66 0 -1.32 0 -2 0 C-2 3.3 -2 6.6 -2 10 C-13.55 10 -25.1 10 -37 10 C-37 8.68 -37 7.36 -37 6 C-36.14 5.82 -35.28 5.65 -34.4 5.47 C-31.21 4.81 -28.02 4.15 -24.83 3.49 C-23.45 3.21 -22.07 2.92 -20.69 2.64 C-18.71 2.23 -16.72 1.82 -14.73 1.41 C-13.54 1.16 -12.35 0.92 -11.12 0.66 C-9.31 0.28 -7.5 -0.13 -5.72 -0.62 C-3.55 -1.1 -2.09 -0.67 0 0 Z " fill="#3F3424" transform="translate(176,329)"/>
<path d="M0 0 C-0.33 3.3 -0.66 6.6 -1 10 C-1.99 10 -2.98 10 -4 10 C-4 9.01 -4 8.02 -4 7 C-4.99 7 -5.98 7 -7 7 C-6.67 8.32 -6.34 9.64 -6 11 C-7.98 11 -9.96 11 -12 11 C-12 9.68 -12 8.36 -12 7 C-12.33 7.17 -12.33 7.17 -14 8 C-14.62 10.06 -14.62 10.06 -15 12 C-16.65 12.33 -18.3 12.66 -20 13 C-20.33 12.01 -20.66 11.02 -21 10 C-21.66 10 -22.32 10 -23 10 C-23.66 11.65 -24.32 13.3 -25 15 C-26.32 15 -27.64 15 -29 15 C-29.99 12.03 -30.98 9.06 -32 6 C-28.91 5.29 -25.82 4.58 -22.73 3.87 C-20.3 3.3 -17.88 2.73 -15.45 2.13 C-14.33 1.86 -13.22 1.59 -12.06 1.31 C-11.04 1.06 -10.02 0.81 -8.97 0.55 C-5.91 -0.02 -3.1 -0.1 0 0 Z " fill="#DC990D" transform="translate(124,320)"/>
<path d="M0 0 C1.94 0.81 1.94 0.81 4 2 C5.1 5.29 4.8 6.71 4 10 C5.98 8.68 7.96 7.36 10 6 C11.32 6.66 12.64 7.32 14 8 C12.88 10.97 11.78 13.33 10 16 C7.09 16.7 4.11 16.56 1.12 16.56 C0.31 16.6 -0.51 16.64 -1.35 16.67 C-3.72 16.69 -5.71 16.63 -8 16 C-10.57 12.96 -10.57 12.96 -12 10 C-11.34 8.68 -10.68 7.36 -10 6 C-7.33 7.33 -4.67 8.67 -2 10 C-2.11 9.45 -2.11 9.45 -2.69 6.69 C-3 3 -3 3 -1.56 1.06 C-1.05 0.71 -0.53 0.36 0 0 Z " fill="#F8D6BB" transform="translate(130,50)"/>
<path d="M0 0 C1.89 1.11 1.89 1.11 4.39 3.11 C2.83 3.79 2.83 3.79 0.39 4.11 C-1.24 3.38 -2.88 2.66 -4.44 1.8 C-10 0.03 -15.01 1.02 -20.39 2.88 C-28.95 5.83 -37.02 6.57 -46.05 6.54 C-47.12 6.54 -48.2 6.54 -49.31 6.54 C-55.42 6.42 -61.19 5.81 -67.17 4.55 C-72.79 3.53 -78.06 3.9 -83.61 5.11 C-83.48 5.64 -83.34 6.18 -83.21 6.73 C-81.8 12.98 -81.25 19.1 -80.95 25.48 C-80.6 32.81 -80.6 32.81 -79.61 36.11 C-77.96 36.82 -76.3 37.49 -74.61 38.11 C-73.45 40.16 -73.45 40.16 -72.61 42.11 C-76.3 41.57 -78.83 40.64 -81.61 38.11 C-83.26 32.52 -83.38 26.9 -83.61 21.11 C-83.71 19.4 -83.82 17.69 -83.93 15.98 C-84.2 11.69 -84.42 7.4 -84.61 3.11 C-77.51 -0.13 -69.94 0.17 -62.61 2.61 C-49.16 6.67 -34.65 4.52 -21.61 0.11 C-15.42 -1.96 -6.19 -2.12 0 0 Z " fill="#FBF3EF" transform="translate(171.609375,130.89453125)"/>
<path d="M0 0 C0 0.66 0 1.32 0 2 C-6.27 2.99 -12.54 3.98 -19 5 C-19.33 6.65 -19.66 8.3 -20 10 C-23.32 13.07 -26.06 14.28 -30.5 14.5 C-34.94 14.3 -37.59 12.91 -41 10 C-41.66 9.01 -42.32 8.02 -43 7 C-45.23 6.61 -45.23 6.61 -48.04 6.6 C-49.1 6.59 -50.15 6.57 -51.23 6.56 C-51.8 6.56 -51.8 6.56 -54.68 6.56 C-55.27 6.55 -55.27 6.55 -58.22 6.52 C-61.96 6.48 -65.7 6.46 -69.44 6.44 C-73.17 6.41 -76.91 6.39 -80.65 6.35 C-82.97 6.32 -85.3 6.31 -87.63 6.3 C-88.69 6.29 -89.74 6.28 -90.83 6.27 C-91.75 6.27 -92.68 6.26 -93.64 6.26 C-96 6 -96 6 -99 4 C-91.67 3.84 -84.34 3.71 -77.02 3.64 C-73.61 3.6 -70.21 3.55 -66.81 3.47 C-62.89 3.38 -58.97 3.35 -55.05 3.32 C-53.84 3.28 -52.62 3.24 -51.37 3.21 C-43.04 3.2 -43.04 3.2 -39.95 5.58 C-38.35 7.49 -38.35 7.49 -37.11 9.41 C-36 11 -36 11 -33.4 11.82 C-29.25 11.59 -26.61 11.35 -22.94 9.25 C-20.98 6.98 -20.58 5.85 -20 3 C-17.42 2.5 -14.83 2 -12.25 1.5 C-11.52 1.36 -10.79 1.21 -10.04 1.07 C-6.61 0.41 -3.51 0 0 0 Z " fill="#E2E2D8" transform="translate(115,338)"/>
<path d="M0 0 C0.66 0.33 1.32 0.66 2 1 C2 1.66 2 2.32 2 3 C0.68 3 -0.64 3 -2 3 C-1.34 3.56 -0.68 4.11 0 4.69 C2 7 2 7 2.5 9.5 C1.83 12.84 0.73 14.01 -2 16 C-4.5 16.56 -4.5 16.56 -7 16 C-9.31 13.5 -9.31 13.5 -11 11 C-11.33 12.65 -11.66 14.3 -12 16 C-12.66 15.67 -13.32 15.34 -14 15 C-14.46 11.14 -14.85 7.57 -12.95 4.07 C-8.97 -0.41 -5.8 -0.68 0 0 Z " fill="#E09A13" transform="translate(324,273)"/>
<path d="M0 0 C4.25 1.42 5.99 4.07 8 8 C8.39 11.86 8.22 14.33 7 18 C3.4 19.52 0.95 20 -3 20 C-3.33 20.66 -3.66 21.32 -4 22 C-3.79 21.05 -3.59 20.1 -3.38 19.12 C-3.25 18.09 -3.13 17.06 -3 16 C-3.66 15.34 -4.32 14.68 -5 14 C-4.78 8.28 -2.98 4.72 0 0 Z " fill="#6F3C12" transform="translate(70,7)"/>
<path d="M0 0 C0.58 0.31 1.15 0.62 1.75 0.94 C3.85 1.93 5.75 2.48 8 3 C8.76 10.61 8.76 10.61 6.96 13.9 C3.99 17.46 2.22 18.89 -2.38 19.31 C-6 19 -6 19 -8.38 17.38 C-10.3 14.56 -10.69 12.37 -11 9 C-10.46 9.5 -9.93 9.99 -9.38 10.5 C-6.32 12.43 -4.56 12.53 -1 12 C0.94 10.38 0.94 10.38 2 8 C1.76 4.98 1.35 2.71 0 0 Z " fill="#B87304" transform="translate(290,244)"/>
<path d="M0 0 C0.66 0.33 1.32 0.66 2 1 C1.76 1.18 1.76 1.18 0.54 2.08 C-1.68 4.85 -1.51 7.18 -1.69 10.69 C-1.75 11.87 -1.82 13.05 -1.89 14.26 C-1.92 15.17 -1.96 16.07 -2 17 C-4.97 17 -7.94 17 -11 17 C-11.03 16.31 -11.05 15.63 -11.08 14.92 C-11.13 14.02 -11.19 13.12 -11.25 12.19 C-11.3 11.29 -11.34 10.4 -11.39 9.48 C-12 7 -12 7 -13.86 5.2 C-19.6 1.99 -26.47 4.67 -32.43 6.15 C-35 7 -35 7 -37 9 C-37.39 12.38 -37.51 15.73 -37.66 19.13 C-37.77 20.08 -37.88 21.02 -38 22 C-38.66 22.33 -39.32 22.66 -40 23 C-40.41 25.32 -40.74 27.66 -41 30 C-42.32 30 -43.64 30 -45 30 C-45 26.7 -45 23.4 -45 20 C-44.34 20.99 -43.68 21.98 -43 23 C-41.52 21.87 -41.52 21.87 -40 20 C-39.63 16.95 -39.62 13.98 -39.6 10.91 C-39 8 -39 8 -36.95 5.74 C-33.44 3.67 -30.09 2.77 -26.12 2.06 C-25.44 1.91 -24.76 1.76 -24.06 1.61 C-18.75 0.61 -15.74 1.43 -11 4 C-7.99 7.01 -8.4 9.82 -8 14 C-6.68 14 -5.36 14 -4 14 C-4.05 13.41 -4.09 12.82 -4.14 12.21 C-4.34 7.88 -4.44 5.67 -2 1.94 C-1.34 1.3 -0.68 0.66 0 0 Z " fill="#EAE9E7" transform="translate(144,153)"/>
<path d="M0 0 C3.1 1.07 3.97 1.94 5.69 4.81 C8 10.43 8 10.43 8 13 C3.11 18.81 3.11 18.81 -0.88 19.17 C-1.58 19.17 -2.28 19.18 -3 19.19 C-3.35 19.19 -3.35 19.19 -5.12 19.23 C-7 19 -7 19 -9 17 C-11.18 12.53 -11.18 12.53 -10 9 C-9.44 9.5 -8.89 9.99 -8.31 10.5 C-5.56 12.29 -4.22 12.5 -1 12 C0.81 10.88 0.81 10.88 2 9 C2.42 4.92 2.31 3.47 0 0 Z " fill="#AF6B02" transform="translate(290,309)"/>
<path d="M0 0 C1.94 0.69 1.94 0.69 4 2 C4.75 4.62 4.75 4.62 5 7 C5.66 7 6.32 7 7 7 C7.81 9.69 7.81 9.69 8 13 C5.85 15.62 4.04 17.48 1 19 C-0.54 19.07 -2.08 19.08 -3.62 19.06 C-4.03 19.06 -4.03 19.06 -6.1 19.04 C-6.73 19.02 -7.35 19.01 -8 19 C-7.67 18.34 -7.34 17.68 -7 17 C-7.66 16.61 -8.32 16.22 -9 15.81 C-11 14 -11 14 -11.25 11.31 C-11.17 10.55 -11.09 9.79 -11 9 C-10.34 9 -9.68 9 -9 9 C-8.57 9.5 -8.13 9.99 -7.69 10.5 C-6 12 -6 12 -3.5 12.38 C-1 12 -1 12 0.81 10.88 C2.54 8.16 2.33 6.15 2 3 C1.34 2.01 0.68 1.02 0 0 Z " fill="#B97204" transform="translate(257,276)"/>
<path d="M0 0 C1.94 1.69 1.94 1.69 3 4 C3.19 7.75 3.19 7.75 3 11 C4.65 10.67 6.3 10.34 8 10 C8.33 6.04 8.66 2.08 9 -2 C9.66 -2 10.32 -2 11 -2 C10.67 2.95 10.34 7.9 10 13 C8.51 13.16 8.51 13.16 1 14 C0.97 13.31 0.95 12.63 0.92 11.92 C0.87 11.02 0.81 10.12 0.75 9.19 C0.7 8.29 0.66 7.4 0.61 6.48 C0 4 0 4 -1.83 2.17 C-7.66 -0.98 -16.28 3.12 -22.14 4.87 C-24.98 5.99 -26.13 6.67 -28 9 C-28.43 10.9 -28.43 10.9 -28.51 13.01 C-28.55 13.77 -28.58 14.53 -28.62 15.31 C-28.64 16.09 -28.66 16.88 -28.69 17.69 C-28.72 18.48 -28.76 19.28 -28.79 20.1 C-28.87 22.07 -28.94 24.03 -29 26 C-30.98 24.68 -32.96 23.36 -35 22 C-33.68 21.67 -32.36 21.34 -31 21 C-31 20.12 -30.99 19.24 -30.99 18.33 C-30.97 17.75 -30.97 17.75 -30.88 14.81 C-30.85 13.66 -30.83 12.52 -30.8 11.33 C-29.93 7.72 -28.82 6.24 -25.83 4.06 C-22.57 2.17 -19.18 1.08 -15.56 0.06 C-14.84 -0.17 -14.11 -0.4 -13.37 -0.64 C-8.31 -2.12 -5.03 -2.01 0 0 Z " fill="#EBEAE8" transform="translate(266,149)"/>
<path d="M0 0 C0.42 0.4 0.85 0.8 1.29 1.21 C7.62 6.93 12.51 8.89 20.94 9.81 C28.53 10.79 32.59 13.29 37.7 18.84 C42.57 23.82 47.36 25.11 54.1 26.03 C58.94 26.68 62.68 27.8 67 30 C67.94 32.19 67.94 32.19 68 34 C67.5 33.84 67.5 33.84 65 33 C65.16 32.67 65.16 32.67 66 31 C65.03 30.86 64.06 30.71 63.06 30.56 C60 30 60 30 59 29 C57.15 28.89 55.29 28.82 53.44 28.75 C44.89 28.07 40.61 24.51 34.44 18.88 C28.69 13.69 24.22 11.99 16.5 11.62 C10.33 11.28 7.5 10.21 3 6 C0 2.61 0 2.61 0 0 Z " fill="#FAE5DC" transform="translate(192,96)"/>
<path d="M0 0 C2.98 1.03 3.98 1.97 5.75 4.62 C7.21 8.55 7.98 11.91 7 16 C4.82 19.71 2.18 22.29 -1.5 24.5 C-4.83 25.17 -6.73 25.05 -10 24 C-12.51 22.17 -14.77 20.16 -17 18 C-16.67 17.34 -16.34 16.68 -16 16 C-15.53 16.66 -15.05 17.32 -14.56 18 C-11.28 20.56 -9.26 20.41 -5.22 20.34 C-2.74 19.96 -1.12 19.34 1 18 C3.83 13.76 3.55 9.98 3 5 C1.5 1.88 1.5 1.88 0 0 Z " fill="#433116" transform="translate(261,274)"/>
<path d="M0 0 C2.46 0.97 3.74 1.53 5.05 3.88 C6.69 9.13 7.3 13.5 7 19 C6.67 18.34 6.34 17.68 6 17 C5.34 17 4.68 17 4 17 C4 17.66 4 18.32 4 19 C3.34 19 2.68 19 2 19 C-0.13 12.82 -1.48 7.56 -1 1 C-0.67 0.67 -0.34 0.34 0 0 Z " fill="#ECA719" transform="translate(126,310)"/>
<path d="M0 0 C2.87 2.87 2.83 5.5 3.16 9.45 C2.89 13.73 1.16 15.19 -2 18 C-5.47 20.54 -8.8 20.37 -13 20 C-17.13 18.17 -19.36 15.62 -22 12 C-21.67 11.34 -21.34 10.68 -21 10 C-20.77 10.62 -20.55 11.24 -20.31 11.88 C-18.55 14.74 -17.23 15.14 -14 16 C-9.75 16.46 -7.74 16.49 -4.12 14.12 C-1.06 11.06 -0.82 9.09 -0.44 4.88 C-0.35 3.96 -0.27 3.05 -0.18 2.12 C-0.15 1.77 -0.15 1.77 0 0 Z " fill="#423017" transform="translate(298,246)"/>
<path d="M0 0 C0.66 0.33 1.32 0.66 2 1 C0.38 2.71 -1.29 4.37 -3 6 C-3.66 6 -4.32 6 -5 6 C-5.03 6.31 -5.03 6.31 -5.19 7.88 C-5.46 8.58 -5.72 9.28 -6 10 C-7.66 10.67 -9.33 11.34 -11 12 C-13.38 14.44 -13.38 14.44 -15 17 C-14 20 -14 20 -13 22 C-14 23.95 -14 23.95 -15.44 26.12 C-15.91 26.85 -16.38 27.57 -16.87 28.32 C-17.24 28.87 -17.62 29.43 -18 30 C-18.33 29.34 -18.66 28.68 -19 28 C-18.67 27.34 -18.34 26.68 -18 26 C-19.32 26 -20.64 26 -22 26 C-17.87 14.61 -9.32 7.16 0 0 Z " fill="#E6B641" transform="translate(251,229)"/>
<path d="M0 0 C4.23 -0.15 8.46 -0.23 12.69 -0.31 C13.29 -0.33 13.29 -0.33 16.32 -0.44 C25.16 -0.56 25.16 -0.56 29.28 2.19 C31.09 5.14 31.68 6.88 31.81 10.31 C31.86 11.2 31.91 12.08 31.96 12.99 C31.97 13.65 31.99 14.32 32 15 C33.98 15.33 35.96 15.66 38 16 C38 12.37 38 8.74 38 5 C39.32 4.34 40.64 3.68 42 3 C41.34 3.99 40.68 4.98 40 6 C39.59 8.92 39.59 8.92 39.38 12.19 C39.3 13.27 39.23 14.36 39.15 15.48 C39.1 16.31 39.05 17.14 39 18 C35.7 18 32.4 18 29 18 C28.96 17.1 28.93 16.19 28.89 15.26 C28.82 14.08 28.76 12.9 28.69 11.69 C28.63 10.52 28.57 9.34 28.51 8.14 C27.95 4.72 27.72 3.99 25 2 C22.36 1.57 22.36 1.57 19.24 1.49 C18.68 1.47 18.68 1.47 15.85 1.38 C14.68 1.36 13.52 1.34 12.31 1.31 C11.72 1.3 11.72 1.3 8.74 1.21 C5.83 1.13 2.91 1.06 0 1 C0 0.67 0 0.34 0 0 Z " fill="#E4E1DF" transform="translate(146,152)"/>
<path d="M0 0 C0.33 0 0.66 0 1 0 C2.05 9.69 2.1 19.27 2 29 C0.68 29 -0.64 29 -2 29 C-2.33 21.08 -2.66 13.16 -3 5 C-2.34 4.67 -1.68 4.34 -1 4 C-0.38 1.94 -0.38 1.94 0 0 Z " fill="#643D1D" transform="translate(87,140)"/>
<path d="M0 0 C2.62 0.08 5.04 0.28 7.62 0.62 C8.35 0.72 9.07 0.81 9.82 0.91 C15.22 1.71 19.39 2.96 24 6 C25.95 8.92 26.45 10.63 27 14 C27.99 13.67 28.98 13.34 30 13 C36.3 12.43 36.3 12.43 39.44 15 C39.7 15.33 39.7 15.33 41 17 C40.57 16.82 40.57 16.82 38.38 15.94 C34.13 14.76 30.95 15.03 27 17 C26.38 20.06 26.38 20.06 26 23 C25.34 22.67 24.68 22.34 24 22 C23.59 18.84 23.59 18.84 23.38 14.94 C23.3 13.65 23.23 12.36 23.15 11.03 C23.1 10.03 23.05 9.03 23 8 C14.88 3.65 7.03 2.84 -2 2 C-1.34 1.34 -0.68 0.68 0 0 Z " fill="#E1DFDC" transform="translate(190,153)"/>
<path d="M0 0 C4.02 4.31 6.44 9.35 8 15 C7.67 15.99 7.34 16.98 7 18 C6.34 16.68 5.68 15.36 5 14 C4.34 14.33 4.34 14.33 1 16 C-1.14 12.16 -2.57 9.42 -2 5 C-1 2.19 -1 2.19 0 0 Z " fill="#B57106" transform="translate(342,248)"/>
<path d="M0 0 C1.07 0.02 2.14 0.04 3.24 0.05 C4.05 0.08 4.85 0.1 5.69 0.12 C5.69 0.46 5.69 0.78 5.69 1.12 C2.06 1.12 -1.57 1.12 -5.31 1.12 C-5.31 1.78 -5.31 2.44 -5.31 3.12 C-6.96 3.46 -8.61 3.78 -10.31 4.12 C-10.18 4.66 -10.05 5.2 -9.91 5.75 C-8.5 12 -7.95 18.12 -7.65 24.5 C-7.3 31.83 -7.3 31.83 -6.31 35.12 C-4.67 35.84 -3 36.51 -1.31 37.12 C-0.15 39.18 -0.15 39.18 0.69 41.12 C-3 40.59 -5.54 39.66 -8.31 37.12 C-9.96 31.54 -10.08 25.92 -10.31 20.12 C-10.41 18.42 -10.52 16.71 -10.63 15 C-10.9 10.71 -11.12 6.42 -11.31 2.12 C-7.38 0.27 -4.32 -0.1 0 0 Z " fill="#EADCD5" transform="translate(98.3125,131.875)"/>
<path d="M0 0 C0.33 3.63 0.66 7.26 1 11 C-0.16 11.5 -0.16 11.5 -6 14 C-5.99 13.3 -5.98 12.6 -5.96 11.88 C-5.96 10.97 -5.95 10.06 -5.94 9.12 C-5.93 8.22 -5.91 7.32 -5.9 6.38 C-6 4 -6 4 -7 2 C-4.35 0.54 -3.11 0 0 0 Z " fill="#AEADAC" transform="translate(221,287)"/>
<path d="M0 0 C2.61 0.37 3.81 0.81 5.7 2.68 C10.17 9.02 10.58 13.3 10 21 C15.28 22.32 20.56 23.64 26 25 C26 25.66 26 26.32 26 27 C21.81 26.35 17.74 25.49 13.62 24.44 C12.57 24.17 11.51 23.9 10.41 23.62 C9.62 23.42 8.82 23.21 8 23 C7.41 19.38 6.99 16.17 7.25 12.5 C6.86 7.03 3.77 3.77 0 0 Z " fill="#EDE0DC" transform="translate(70,6)"/>
<path d="M0 0 C0.66 0.33 1.32 0.66 2 1 C-3.79 7.13 -9.66 11.64 -18.19 12.44 C-19.45 12.62 -20.7 12.81 -22 13 C-22.33 13.5 -22.33 13.5 -24 16 C-26.31 14.68 -28.62 13.36 -31 12 C-31 11.67 -31 11.34 -31 11 C-30.46 10.95 -30.46 10.95 -27.75 10.67 C-26.31 10.51 -24.87 10.35 -23.44 10.19 C-22.73 10.12 -22.03 10.05 -21.3 9.97 C-14.54 9.2 -8.96 7.07 -3.56 2.81 C-2.88 2.28 -2.2 1.75 -1.5 1.21 C-1.26 1.01 -1.26 1.01 0 0 Z " fill="#FAEDE8" transform="translate(215,80)"/>
<path d="M0 0 C0.99 0.33 1.98 0.66 3 1 C3.22 2.46 3.43 3.92 3.62 5.38 C3.74 6.19 3.86 7 3.98 7.84 C3.98 8.55 3.99 9.26 4 10 C2 12 2 12 -0.62 12.12 C-1.41 12.08 -2.19 12.04 -3 12 C-3.33 12.99 -3.66 13.98 -4 15 C-4.33 14.67 -4.66 14.34 -5 14 C-4.66 8.25 -3 4.75 0 0 Z " fill="#8E521D" transform="translate(70,7)"/>
<path d="M0 0 C0.33 0 0.66 0 1 0 C1 4.29 1 8.58 1 13 C0.34 13 -0.32 13 -1 13 C-1.16 10.98 -1.33 8.96 -1.49 6.95 C-2 5 -2 5 -5 3 C-10.81 2.17 -14.89 4.52 -20 7 C-20.33 11.29 -20.66 15.58 -21 20 C-21.33 20 -21.66 20 -22 20 C-23.14 14.92 -23.22 11.03 -22 6 C-17.08 1.83 -13.18 0.88 -6.88 1 C-4.92 1.04 -2.96 1.05 -1 1 C-0.67 0.67 -0.34 0.34 0 0 Z " fill="#DDDBD8" transform="translate(73,172)"/>
<path d="M0 0 C0.66 0 1.32 0 2 0 C1.69 1.42 1.38 2.83 1.06 4.25 C0.89 5.04 0.71 5.83 0.54 6.64 C0.05 8.77 -0.46 10.89 -1 13 C-0.42 12.93 0.16 12.86 0.76 12.79 C7.06 12.35 7.06 12.35 9.93 14.34 C11.56 16 11.56 16 14 19 C13.67 19.99 13.34 20.98 13 22 C12.4 21.22 11.8 20.43 11.19 19.62 C9 17 9 17 6 15 C2.81 15.38 2.81 15.38 0 16 C-0.33 18.31 -0.66 20.62 -1 23 C-1.66 22.67 -2.32 22.34 -3 22 C-3.37 14.07 -2.77 7.47 0 0 Z " fill="#E6E6E4" transform="translate(378,155)"/>
</svg>
