<?xml version="1.0" encoding="UTF-8"?>
<!-- Generator: visioncortex VTracer 0.6.12 -->
<svg version="1.1" xmlns="http://www.w3.org/2000/svg" width="418" height="418" viewBox="0 0 418 418">
<path d="M0 0 C-1.01 3.67 -2.31 6.57 -4.44 9.69 C-9.65 17.77 -11.32 27.26 -9.48 36.63 C-7.38 44.21 -3.48 50.24 0.85 56.7 C9.01 68.89 12.98 79.38 14 94 C16.49 94.92 17.63 95.14 20.15 94.17 C29.84 87.98 33.14 79.15 35.55 68.24 C35.7 67.5 35.85 66.76 36 66 C37.32 65.67 38.64 65.34 40 65 C46.34 73.37 50.05 82.51 51 93 C51.62 92.44 52.24 91.89 52.88 91.31 C55.5 89.37 57.71 88.12 60.62 86.75 C65.6 84.34 69.87 81.35 74.28 78.04 C76.82 76.14 79.39 74.31 82 72.5 C88.43 68.02 94.75 63.38 101.07 58.75 C101.56 58.39 101.56 58.39 104.06 56.56 C104.96 55.9 105.86 55.25 106.79 54.57 C109 53 109 53 111 52 C111.14 51.61 111.14 51.61 111.88 49.62 C113.74 45.26 116.78 43.99 121 42.25 C124.07 41.03 125.88 40.78 129 42 C133.74 46.74 133.74 46.74 134.51 50.45 C134 53 134 53 131.45 55.06 C130.35 55.7 129.25 56.34 128.12 57 C123.49 59.72 121.88 61.07 120 66 C118.11 68.21 115.98 70.12 113.81 72.06 C113.26 72.58 112.71 73.1 112.14 73.63 C108.34 77.09 104.5 79.54 100 82 C99.09 82.74 98.19 83.49 97.25 84.25 C95 86 95 86 92 86 C92 86.66 92 87.32 92 88 C89.64 89.87 87.27 91.64 84.81 93.38 C72.32 102.32 72.32 102.32 71.05 105.04 C69.47 107.99 67.16 108.87 64.25 110.44 C53.11 116.69 53.11 116.69 51.12 120.81 C51.08 121.53 51.04 122.26 51 123 C50.92 124.24 50.84 125.47 50.75 126.75 C50.82 131.39 51.95 134.84 54 139 C55.95 139.79 55.95 139.79 58 140 C62.22 138.15 63.9 136.02 66 132 C66.64 129.92 67.2 127.81 67.69 125.69 C67.94 124.62 68.19 123.55 68.45 122.45 C68.63 121.64 68.81 120.83 69 120 C70.32 119.67 71.64 119.34 73 119 C85.56 136.41 94.82 152.81 91.54 175.11 C91.09 177.42 90.59 179.71 90 182 C96.72 179.5 99.06 175.12 101.98 168.92 C102.68 167.3 103.35 165.65 104 164 C105.32 164 106.64 164 108 164 C111.86 172.85 113.48 180.66 113.44 190.31 C113.44 190.77 113.44 190.77 113.43 193.06 C113.3 199.21 112.4 205.01 111 211 C114.29 211.8 115.71 212.1 119 211 C119.66 211.33 120.32 211.66 121 212 C120.86 211.2 120.71 210.39 120.56 209.56 C120.38 208.39 120.19 207.21 120 206 C119.93 205.65 119.93 205.65 119.61 203.88 C118.71 198.23 119.14 194.02 122 189 C124.5 186 124.5 186 127 184 C127.99 184 128.98 184 130 184 C130.08 184.62 130.17 185.24 130.25 185.88 C130.5 186.58 130.75 187.28 131 188 C131.64 188.29 132.28 188.58 132.94 188.88 C135 190 135 190 136.31 192.69 C137.1 196.49 136.57 199.17 136 203 C135.56 214.01 136.3 225.01 137 236 C137.99 236 138.98 236 140 236 C140.09 235.73 140.09 235.73 140.52 234.35 C141.81 230.32 143.2 226.49 145.06 222.69 C147.19 218.11 147.88 213.58 148.51 208.6 C149 206 149 206 151 203 C150.67 202.67 150.34 202.34 150 202 C149.75 199.62 149.75 199.62 150 197 C150.49 196.62 150.99 196.25 151.5 195.86 C153.93 192.85 153.39 189.37 153.33 185.67 C153.33 184.84 153.32 184.01 153.32 183.16 C153.32 181.4 153.3 179.64 153.28 177.88 C153.25 175.24 153.24 172.59 153.23 169.95 C153.18 157.45 153.07 144.96 150.44 132.69 C147.45 117.88 147.45 117.88 151 111 C152.32 111 153.64 111 155 111 C165.4 129.28 164.29 152.14 164.12 172.5 C164.11 174.69 164.11 176.88 164.1 179.07 C164.08 184.38 164.04 189.69 164 195 C165.32 195.33 166.64 195.66 168 196 C168.2 199.72 168.15 200.77 166 204 C166.33 204.66 166.66 205.32 167 206 C167.62 211.92 166.86 215.73 164 221 C163.31 224.87 163.31 224.87 163 228 C160.69 228.33 158.38 228.66 156 229 C155.88 230.18 155.75 231.35 155.62 232.56 C155.29 235.32 154.81 237.63 154 240.31 C152.89 244.39 152.54 248.25 152.25 252.45 C152.03 254.74 151.62 256.8 151 259 C152.18 258.94 153.35 258.88 154.56 258.81 C159.11 258.82 162.03 259.78 166 262 C168.3 265.36 168.38 268.69 168.62 272.69 C168.66 273.27 168.66 273.27 168.85 276.2 C169 279 169 279 169 280 C170.96 278.38 171.91 277.47 172.4 274.94 C172.33 268.08 171.33 261.48 169 255 C168.34 254.67 167.68 254.34 167 254 C167 253.34 167 252.68 167 252 C166.01 251.67 165.02 251.34 164 251 C164 247.04 164 243.08 164 239 C167.33 237.34 170.64 237.65 174.19 238.56 C178.36 241.87 179.13 247.55 180.27 252.48 C181.29 255.99 182.64 259.36 184 262.75 C184.26 263.4 184.52 264.05 184.79 264.72 C185.84 267.29 186.91 269.82 188.2 272.29 C189.52 275.11 188.79 277.02 188 280 C186.77 283.05 185.39 286.02 184 289 C183.5 290.2 183.01 291.39 182.5 292.62 C181 296 181 296 178.93 299.13 C176.43 303.47 176.47 307.4 176.62 312.31 C176.64 313.15 176.65 313.99 176.66 314.85 C176.79 320.03 177.23 324.97 178.56 329.99 C179.08 332.39 179.13 334.56 179 337 C178 338 178 338 175.59 338.12 C175.05 338.12 175.05 338.12 172.32 338.12 C171.08 338.13 169.83 338.13 168.55 338.13 C167.16 338.13 165.76 338.12 164.36 338.12 C162.9 338.12 161.43 338.12 159.96 338.12 C155.9 338.13 151.84 338.12 147.79 338.12 C143.42 338.11 139.05 338.11 134.68 338.11 C127.11 338.11 119.54 338.11 111.96 338.11 C101.01 338.1 90.06 338.1 79.12 338.09 C61.35 338.09 43.59 338.08 25.82 338.08 C8.56 338.07 -8.7 338.06 -25.96 338.05 C-27.02 338.05 -28.08 338.05 -29.18 338.05 C-34.51 338.05 -39.84 338.05 -45.18 338.05 C-89.45 338.04 -133.73 338.02 -178 338 C-179.75 334.77 -180.2 333.44 -179.15 329.88 C-176.89 320.98 -175.52 308.03 -180.25 299.81 C-181.16 298.54 -182.08 297.27 -183 296 C-183.75 294.43 -184.45 292.85 -185.12 291.25 C-186.2 288.73 -187.19 286.72 -188.75 284.44 C-190.55 280.94 -190.63 277.8 -190 274 C-188.89 270.89 -187.45 267.97 -186 265 C-183.61 259.69 -182.63 255.04 -182.41 249.2 C-181.91 246.52 -181.11 245.67 -179 244 C-176.13 242.49 -174.5 241.95 -171.25 242.25 C-169 243 -169 243 -168 245 C-167.77 247.86 -167.58 250.2 -168 253 C-169.31 254.36 -170.65 255.69 -172 257 C-175.53 264.85 -176.25 273.4 -174 281.69 C-173.67 282.45 -173.34 283.21 -173 284 C-172.34 284 -171.68 284 -171 284 C-171 284.66 -171 285.32 -171 286 C-169.68 286 -168.36 286 -167 286 C-167.52 285.11 -168.03 284.23 -168.56 283.31 C-170.91 277.86 -170.36 271.67 -169 266 C-165.84 262.07 -163 260.76 -158 260 C-153.86 261.12 -151.59 262.41 -148.56 265.44 C-146.34 270.51 -146.12 275.54 -147 281 C-148.53 282.86 -148.53 282.86 -150 284 C-148.83 287.5 -148.13 287.82 -145.06 289.62 C-144.35 290.05 -143.64 290.48 -142.91 290.91 C-141.63 291.64 -140.32 292.34 -139 293 C-137.52 271.26 -137.52 271.26 -142.81 264.88 C-144.18 263.55 -145.57 262.26 -147 261 C-149.19 258.4 -150.38 256.26 -151.31 253 C-152.79 248.72 -155.09 247.26 -159 245 C-159 244.34 -159 243.68 -159 243 C-159.66 243 -160.32 243 -161 243 C-161.08 241.7 -161.16 240.4 -161.25 239.06 C-161.73 234.53 -163.12 230.99 -165.16 226.95 C-166 225 -166 225 -166 222 C-167.28 222.04 -168.56 222.08 -169.88 222.12 C-172.05 222.2 -172.05 222.2 -174 222 C-176 220 -176 220 -176.06 216.81 C-176.05 216.18 -176.05 216.18 -176 213 C-176.21 211.87 -176.41 210.73 -176.62 209.56 C-177.21 204.05 -176.12 199.67 -173 195 C-173.5 194.67 -173.5 194.67 -176 193 C-175.67 191.35 -175.34 189.7 -175 188 C-174.06 187.79 -173.12 187.59 -172.15 187.37 C-169 186 -169 186 -167.59 183.38 C-167.28 182.28 -166.97 181.19 -166.66 180.06 C-166.3 178.84 -165.94 177.63 -165.58 176.38 C-165.4 175.73 -165.23 175.09 -165.04 174.43 C-164.5 172.42 -163.92 170.43 -163.33 168.44 C-162.56 165.81 -161.8 163.18 -161.04 160.55 C-156.66 145.58 -151.19 129.76 -142 117 C-141.01 116.67 -140.02 116.34 -139 116 C-137.59 123.68 -138.31 129.17 -141.94 136.06 C-145.83 143.86 -148.53 152.05 -151.25 160.31 C-151.46 160.96 -151.68 161.61 -151.9 162.28 C-153.29 166.51 -154.65 170.75 -156 175 C-156.16 175.5 -156.16 175.5 -156.96 178.01 C-157.09 178.46 -157.09 178.46 -157.79 180.69 C-158.02 181.44 -158.25 182.2 -158.49 182.97 C-159.17 185.68 -159.22 188.22 -159 191 C-157.68 191.66 -156.36 192.32 -155 193 C-155.88 197.88 -155.88 197.88 -157 199 C-157.9 206.16 -157.03 211.17 -153.09 217.22 C-152 219 -152 219 -152 221 C-151.28 221.21 -150.56 221.41 -149.81 221.62 C-146.13 223.42 -144.38 225.7 -142 229 C-141.91 229.64 -141.82 230.27 -141.73 230.93 C-140.55 234.27 -137.98 235.38 -135.06 237.25 C-133.98 237.96 -132.9 238.66 -131.79 239.39 C-129 241 -129 241 -127 241 C-127 238.36 -127 235.72 -127 233 C-127.66 233 -128.32 233 -129 233 C-128.97 232.43 -128.94 231.85 -128.9 231.26 C-129.01 223.13 -132.07 216.92 -135.67 209.82 C-138 205.23 -139.78 200.99 -141 196 C-141.1 195.68 -141.1 195.68 -141.61 194.06 C-143.44 184.39 -142.87 172.05 -139 163 C-138.01 162.34 -137.02 161.68 -136 161 C-135.59 161.7 -135.18 162.4 -134.75 163.12 C-127.35 175.28 -127.35 175.28 -121 178 C-120.01 177.34 -119.02 176.68 -118 176 C-117.5 170.91 -118.46 166.89 -120 162.06 C-124.21 147.55 -122.79 133.07 -115.94 119.56 C-112.5 113.47 -108.41 108.02 -104.04 102.58 C-102 100 -102 100 -101 98 C-100.34 98 -99.68 98 -99 98 C-98.87 97.57 -98.87 97.57 -98.19 95.38 C-97 92 -97 92 -95.5 89.12 C-91.72 81.25 -91.83 74.05 -92.17 65.54 C-92.18 64.72 -92.2 63.91 -92.22 63.07 C-92.24 62.7 -92.24 62.7 -92.31 60.84 C-92.26 60.54 -92.26 60.54 -92 59 C-91.01 58.34 -90.02 57.68 -89 57 C-78.36 64.29 -72.76 72.73 -69 85 C-63.28 83.02 -60.36 79.95 -57 75 C-54.16 67.63 -53.39 59.87 -52.62 52.06 C-51.12 38.78 -48.09 29.14 -39 19 C-38.44 18.37 -37.89 17.75 -37.31 17.1 C-29.21 8.51 -12.43 -3.77 0 0 Z M144 281 C144 281.66 144 282.32 144 283 C144.99 282.67 145.98 282.34 147 282 C146.01 281.67 145.02 281.34 144 281 Z " fill="#643D16" transform="translate(203,49)"/>
<path d="M0 0 C-1.01 3.67 -2.31 6.57 -4.44 9.69 C-9.65 17.77 -11.32 27.26 -9.48 36.63 C-7.38 44.21 -3.48 50.24 0.85 56.7 C9.01 68.89 12.98 79.38 14 94 C16.49 94.92 17.63 95.14 20.15 94.17 C29.84 87.98 33.14 79.15 35.55 68.24 C35.7 67.5 35.85 66.76 36 66 C37.32 65.67 38.64 65.34 40 65 C46.34 73.37 50.05 82.51 51 93 C51.62 92.44 52.24 91.89 52.88 91.31 C55.5 89.37 57.71 88.12 60.62 86.75 C65.6 84.34 69.87 81.35 74.28 78.04 C76.82 76.14 79.39 74.31 82 72.5 C88.43 68.02 94.75 63.38 101.07 58.75 C101.56 58.39 101.56 58.39 104.06 56.56 C104.96 55.9 105.86 55.25 106.79 54.57 C109 53 109 53 111 52 C111.14 51.61 111.14 51.61 111.88 49.62 C113.74 45.26 116.78 43.99 121 42.25 C124.07 41.03 125.88 40.78 129 42 C133.74 46.74 133.74 46.74 134.51 50.45 C134 53 134 53 131.45 55.06 C130.35 55.7 129.25 56.34 128.12 57 C123.49 59.72 121.88 61.07 120 66 C118.11 68.21 115.98 70.12 113.81 72.06 C113.26 72.58 112.71 73.1 112.14 73.63 C108.34 77.09 104.5 79.54 100 82 C99.09 82.76 98.19 83.53 97.25 84.31 C96.51 84.87 95.76 85.43 95 86 C94.01 85.67 93.02 85.34 92 85 C93.72 83.53 95.45 82.08 97.19 80.62 C98.15 79.81 99.11 79 100.11 78.16 C103 76 103 76 105.8 74.9 C106.53 74.6 107.25 74.31 108 74 C108.33 73.01 108.66 72.02 109 71 C111.97 68.81 114.49 67.17 118 66 C117.88 65.27 117.76 64.55 117.63 63.8 C118 61 118 61 120.55 58.54 C121.65 57.74 122.76 56.96 123.88 56.19 C124.43 55.78 124.99 55.37 125.56 54.96 C129.68 52 129.68 52 132 52 C128.55 45.23 128.55 45.23 125.75 44.06 C125.17 44.04 124.6 44.02 124 44 C123.67 44.99 123.34 45.98 123 47 C122.26 46.77 121.51 46.55 120.75 46.31 C118 46 118 46 115.69 47.19 C114 49 114 49 114 53 C111.99 54.82 111.99 54.82 109.31 56.56 C108.44 57.14 107.57 57.72 106.68 58.32 C104.98 59.38 103.27 60.43 101.53 61.43 C98.57 63.26 95.92 65.34 93.19 67.5 C87.49 71.96 81.61 76.1 75.61 80.15 C72.12 82.52 68.74 84.93 65.44 87.56 C63.03 89.44 61.1 90.41 58.12 91.12 C57.09 91.41 56.06 91.7 55 92 C54.31 93.32 53.64 94.66 53 96 C51.53 97.33 51.53 97.33 49.79 98.52 C49.13 98.98 48.47 99.44 47.8 99.91 C47.08 100.39 46.36 100.88 45.62 101.38 C44.08 102.45 42.53 103.52 40.98 104.59 C40.16 105.14 39.35 105.7 38.51 106.28 C34.32 109.16 30.16 112.08 26 115 C24.31 116.18 22.62 117.36 20.93 118.55 C17.03 121.27 13.14 124.01 9.26 126.75 C7.85 127.74 6.45 128.73 5.04 129.71 C1.65 132.09 -1.69 134.51 -4.99 137 C-5.63 137.48 -6.26 137.95 -6.91 138.44 C-8.1 139.33 -9.28 140.23 -10.45 141.14 C-13.14 143.14 -14.48 144.04 -17.89 143.76 C-18.24 143.64 -18.24 143.64 -20 143 C-20.27 143.58 -20.54 144.16 -20.81 144.75 C-22.03 147.06 -23.3 149.02 -25 151 C-25.66 151 -26.32 151 -27 151 C-27.33 150.34 -27.66 149.68 -28 149 C-30.88 148.81 -30.88 148.81 -34 149 C-34.66 149.99 -35.32 150.98 -36 152 C-37.18 152.33 -38.35 152.66 -39.56 153 C-40.7 153.33 -41.83 153.66 -43 154 C-43.33 154.99 -43.66 155.98 -44 157 C-44.4 157.14 -44.4 157.14 -46.44 157.88 C-49.79 159.35 -49.71 160.7 -51 164 C-53.62 165.81 -53.62 165.81 -56 167 C-55.83 167.91 -55.67 168.81 -55.5 169.75 C-55 173 -55 173 -55 177 C-56.97 178.85 -56.97 178.85 -59.5 180.62 C-61.03 181.71 -62.54 182.82 -64 184 C-64 184.66 -64 185.32 -64 186 C-62.68 186.33 -61.36 186.66 -60 187 C-68.4 197 -77.71 205.94 -87.64 214.39 C-89.06 215.69 -89.06 215.69 -91 218 C-90.77 220.43 -90.33 221.65 -88.65 223.43 C-88.09 223.86 -87.52 224.29 -86.95 224.73 C-86.33 225.2 -85.72 225.68 -85.08 226.16 C-84.44 226.65 -83.79 227.13 -83.12 227.62 C-82.49 228.11 -81.85 228.6 -81.19 229.11 C-73.48 235 -73.48 235 -69 235 C-68.55 234.01 -68.1 233.02 -67.64 232 C-65.98 228.34 -64.31 224.67 -62.65 221.01 C-61.93 219.42 -61.2 217.84 -60.48 216.25 C-59.45 213.97 -58.41 211.69 -57.38 209.41 C-57.06 208.7 -56.73 207.99 -56.4 207.26 C-53.13 200.05 -53.13 200.05 -50.5 198.94 C-49.68 198.63 -48.85 198.32 -48 198 C-46.03 196.03 -46.34 192.65 -46 190 C-43 191 -43 191 -41 194 C-40.68 196.39 -40.48 198.79 -40.33 201.2 C-40.29 201.9 -40.24 202.61 -40.2 203.34 C-40.11 204.84 -40.02 206.33 -39.94 207.83 C-39.81 210.1 -39.67 212.36 -39.53 214.62 C-39.09 221.89 -39.06 228.77 -40 236 C-38.81 239.39 -38.02 241.33 -35 243.31 C-32.7 245.26 -32.53 246.12 -31.73 248.95 C-29.66 255.46 -26.23 261.19 -22.85 267.1 C-19.5 273.22 -18.17 278.05 -18 285 C-17.95 286.12 -17.9 287.25 -17.84 288.41 C-17.68 292.15 -17.55 295.89 -17.44 299.62 C-17.39 300.92 -17.35 302.21 -17.31 303.54 C-17.2 306.69 -17.1 309.84 -17 313 C-19.85 309.45 -20.74 306.68 -21.62 302.19 C-21.86 301.01 -22.1 299.82 -22.35 298.61 C-22.78 296.23 -23.15 293.83 -23.45 291.43 C-24.51 284.78 -26.72 277.14 -32.31 272.94 C-36 270.76 -39.97 269.41 -44 268 C-44.99 267.34 -45.98 266.68 -47 266 C-47.38 263.06 -47.38 263.06 -47 260 C-46.49 259.6 -45.99 259.19 -45.47 258.77 C-43.15 255.97 -43.82 252.99 -44.12 249.56 C-44.16 248.89 -44.2 248.23 -44.23 247.54 C-44.54 243.5 -45.13 240.91 -48 238 C-51.65 236.38 -56.07 236.54 -60 237 C-62.36 238.16 -64.15 239.15 -66 241 C-66.29 243.63 -66.52 246.23 -66.69 248.88 C-66.75 249.61 -66.81 250.34 -66.87 251.1 C-67.13 255.02 -67.24 256.64 -65 260 C-64.84 260.51 -64.84 260.51 -64 263.06 C-63 266 -63 266 -61 268 C-63.11 271.16 -63.56 271.48 -66.94 272.62 C-67.63 272.86 -68.32 273.1 -69.03 273.35 C-69.68 273.57 -70.33 273.78 -71 274 C-71.99 274.33 -72.98 274.66 -74 275 C-74.36 273.9 -74.73 272.81 -75.1 271.68 C-75.61 270.22 -76.12 268.77 -76.62 267.31 C-76.86 266.59 -77.1 265.87 -77.34 265.13 C-80.05 257.52 -84.66 254.46 -91.81 250.81 C-96.89 248.21 -96.89 248.21 -98 246 C-98.99 245.67 -99.98 245.34 -101 245 C-101 242.36 -101 239.72 -101 237 C-100.01 237 -99.02 237 -98 237 C-94.91 230.41 -93.5 220.5 -95.84 213.47 C-98.53 209.41 -101.49 208.24 -106 207 C-108.36 206.6 -110.74 206.29 -113.12 206.06 C-114.32 205.93 -115.52 205.8 -116.76 205.66 C-120 206 -120 206 -122.39 208.01 C-124.34 211.62 -124.63 214.74 -124.69 218.75 C-124.91 225.91 -124.91 225.91 -126 227 C-126.19 229.44 -126.19 229.44 -126 232 C-125.67 232.33 -125.67 232.33 -124 234 C-123.73 236.06 -123.73 236.06 -123.62 238.44 C-123.26 242.74 -123.26 242.74 -120.94 245.06 C-120.3 245.37 -119.66 245.68 -119 246 C-123.44 247.48 -125.85 245.62 -129.94 243.65 C-137.96 239.32 -143.84 235.65 -147 227 C-147.91 226.44 -148.81 225.89 -149.75 225.31 C-155.46 221.25 -159.27 214.81 -160.59 207.91 C-160.73 206.07 -160.82 204.22 -160.83 202.38 C-161.02 199.79 -161.7 198.22 -163 196 C-161.02 196.33 -159.04 196.66 -157 197 C-157 196.01 -157 195.02 -157 194 C-157.39 193.88 -157.39 193.88 -159.38 193.25 C-162.32 191.85 -162.9 190.99 -164 188 C-164.66 188.99 -165.32 189.98 -166 191 C-169.12 191.69 -169.12 191.69 -172 192 C-172 191.34 -172 190.68 -172 190 C-172.66 190 -173.32 190 -174 190 C-172 193 -172 193 -169 194 C-169 194.99 -169 195.98 -169 197 C-169.99 197.33 -170.98 197.66 -172 198 C-173.05 200.76 -173.12 203.4 -173.1 206.33 C-173.09 207.13 -173.09 207.93 -173.09 208.75 C-173.08 209.57 -173.07 210.4 -173.06 211.25 C-173.06 212.09 -173.05 212.93 -173.05 213.8 C-173.04 215.86 -173.02 217.93 -173 220 C-171.68 220.33 -170.36 220.66 -169 221 C-168.67 219.35 -168.34 217.7 -168 216 C-163.14 220.17 -160.55 227.4 -159.6 233.61 C-159.49 235.11 -159.4 236.6 -159.3 238.09 C-158.81 241.19 -157.23 242.9 -155 245 C-154.01 245.33 -153.02 245.66 -152 246 C-149.77 248.9 -148.19 251.34 -147.19 254.88 C-145.73 258.71 -143.55 261.02 -140.75 263.97 C-136.55 268.83 -135.57 272.57 -135.71 278.93 C-135.71 279.67 -135.72 280.42 -135.72 281.19 C-135.74 283.57 -135.77 285.94 -135.81 288.31 C-135.83 289.93 -135.84 291.54 -135.85 293.16 C-135.89 297.11 -135.94 301.05 -136 305 C-136.66 304.67 -137.32 304.34 -138 304 C-138.47 302.58 -138.88 301.14 -139.25 299.69 C-140.39 296.03 -140.86 295.12 -143.94 292.56 C-144.95 292.05 -145.96 291.53 -147 291 C-147.78 290.59 -148.57 290.18 -149.38 289.75 C-149.91 289.5 -150.45 289.25 -151 289 C-151 288.34 -151 287.68 -151 287 C-151.66 287 -152.32 287 -153 287 C-152.45 283.63 -151.95 281.92 -150 279 C-149.7 276.44 -149.7 276.44 -149.69 273.56 C-149.67 272.62 -149.65 271.67 -149.64 270.69 C-150.06 267.53 -150.72 266.22 -153 264 C-155.26 263.17 -155.26 263.17 -157.69 262.75 C-158.5 262.6 -159.3 262.45 -160.14 262.3 C-160.44 262.25 -160.44 262.25 -162 262 C-160.22 260.94 -160.22 260.94 -158 260 C-153.76 261.21 -151.68 262.32 -148.56 265.44 C-146.34 270.51 -146.12 275.54 -147 281 C-148.53 282.86 -148.53 282.86 -150 284 C-148.83 287.5 -148.13 287.82 -145.06 289.62 C-144.35 290.05 -143.64 290.48 -142.91 290.91 C-141.63 291.64 -140.32 292.34 -139 293 C-137.52 271.26 -137.52 271.26 -142.81 264.88 C-144.18 263.55 -145.57 262.26 -147 261 C-149.19 258.4 -150.38 256.26 -151.31 253 C-152.79 248.72 -155.09 247.26 -159 245 C-159 244.34 -159 243.68 -159 243 C-159.66 243 -160.32 243 -161 243 C-161.08 241.7 -161.16 240.4 -161.25 239.06 C-161.73 234.53 -163.12 230.99 -165.16 226.95 C-166 225 -166 225 -166 222 C-167.28 222.04 -168.56 222.08 -169.88 222.12 C-172.05 222.2 -172.05 222.2 -174 222 C-176 220 -176 220 -176.06 216.81 C-176.04 215.55 -176.02 214.3 -176 213 C-176.1 212.43 -176.1 212.43 -176.62 209.56 C-177.21 204.05 -176.12 199.67 -173 195 C-173.99 194.34 -174.98 193.68 -176 193 C-175.67 191.35 -175.34 189.7 -175 188 C-174.06 187.79 -173.12 187.59 -172.15 187.37 C-169 186 -169 186 -167.59 183.38 C-167.28 182.28 -166.97 181.19 -166.66 180.06 C-166.48 179.45 -166.48 179.45 -165.58 176.38 C-165.4 175.73 -165.23 175.09 -165.04 174.43 C-164.5 172.42 -163.92 170.43 -163.33 168.44 C-162.56 165.81 -161.8 163.18 -161.04 160.55 C-156.66 145.58 -151.19 129.76 -142 117 C-141.01 116.67 -140.02 116.34 -139 116 C-137.59 123.68 -138.31 129.17 -141.94 136.06 C-145.83 143.86 -148.53 152.05 -151.25 160.31 C-151.46 160.96 -151.68 161.61 -151.9 162.28 C-153.29 166.51 -154.65 170.75 -156 175 C-156.32 175.99 -156.63 176.99 -156.96 178.01 C-157.23 178.9 -157.5 179.78 -157.79 180.69 C-158.02 181.44 -158.25 182.2 -158.49 182.97 C-159.17 185.68 -159.22 188.22 -159 191 C-157.68 191.66 -156.36 192.32 -155 193 C-155.88 197.88 -155.88 197.88 -157 199 C-157.9 206.16 -157.03 211.17 -153.09 217.22 C-152 219 -152 219 -152 221 C-151.28 221.21 -150.56 221.41 -149.81 221.62 C-146.13 223.42 -144.38 225.7 -142 229 C-141.91 229.64 -141.82 230.27 -141.73 230.93 C-140.55 234.27 -137.98 235.38 -135.06 237.25 C-133.98 237.96 -132.9 238.66 -131.79 239.39 C-129 241 -129 241 -127 241 C-127 238.36 -127 235.72 -127 233 C-127.66 233 -128.32 233 -129 233 C-128.97 232.43 -128.94 231.85 -128.9 231.26 C-129.01 223.13 -132.07 216.92 -135.67 209.82 C-138 205.23 -139.78 200.99 -141 196 C-141.1 195.68 -141.1 195.68 -141.61 194.06 C-143.44 184.39 -142.87 172.05 -139 163 C-138.01 162.34 -137.02 161.68 -136 161 C-135.59 161.7 -135.18 162.4 -134.75 163.12 C-127.35 175.28 -127.35 175.28 -121 178 C-120.01 177.34 -119.02 176.68 -118 176 C-117.5 170.91 -118.46 166.89 -120 162.06 C-124.21 147.55 -122.79 133.07 -115.94 119.56 C-112.5 113.47 -108.41 108.02 -104.04 102.58 C-102 100 -102 100 -101 98 C-100.34 98 -99.68 98 -99 98 C-98.87 97.57 -98.87 97.57 -98.19 95.38 C-97 92 -97 92 -95.5 89.12 C-91.72 81.25 -91.83 74.05 -92.17 65.54 C-92.18 64.72 -92.2 63.91 -92.22 63.07 C-92.24 62.7 -92.24 62.7 -92.31 60.84 C-92.26 60.54 -92.26 60.54 -92 59 C-91.01 58.34 -90.02 57.68 -89 57 C-78.36 64.29 -72.76 72.73 -69 85 C-63.28 83.02 -60.36 79.95 -57 75 C-54.16 67.63 -53.39 59.87 -52.62 52.06 C-51.12 38.78 -48.09 29.14 -39 19 C-38.44 18.37 -37.89 17.75 -37.31 17.1 C-29.21 8.51 -12.43 -3.77 0 0 Z " fill="#D4531C" transform="translate(203,49)"/>
<path d="M0 0 C0.99 0 1.98 0 3 0 C3.04 0.47 3.04 0.47 3.25 2.88 C4 6 4 6 6.06 7.38 C6.7 7.58 7.34 7.79 8 8 C8 8.99 8 9.98 8 11 C7.01 10.84 7.01 10.84 2 10 C2.49 10.56 2.98 11.11 3.48 11.69 C5.27 14.41 5.27 15.78 5.25 19 C5.7 25.99 8.71 31.53 13 37 C15.62 38.72 15.62 38.72 18 40 C20.82 43.01 21 43.67 21 48 C21.59 48.27 22.17 48.54 22.77 48.82 C24.98 49.99 26.7 51.29 28.62 52.88 C33.13 56.33 39.15 60 45 60 C44.36 59.69 43.72 59.38 43.06 59.06 C40.24 56.24 40.44 53.94 40.27 50.06 C40 48 40 48 38 46 C37.81 43.44 37.81 43.44 38 41 C38.33 40.67 38.66 40.34 39 40 C39.08 38.29 39.15 36.59 39.19 34.88 C39.5 24.56 39.5 24.56 41.69 21 C47.76 17.34 54.62 19.02 61.29 20.51 C65.09 21.83 68.01 24.18 70.19 27.5 C72.28 33.92 71.41 42.93 68.62 48.99 C68.09 49.65 67.55 50.32 67 51 C66.01 51 65.02 51 64 51 C64 53.64 64 56.28 64 59 C64.3 59.05 64.3 59.05 65.81 59.31 C68 60 68 60 69.3 61.37 C71.45 63.43 73.71 64.49 76.38 65.81 C84.41 70.15 87.34 75.06 90.3 83.51 C91 86 91 86 91 89 C92.07 88.34 93.14 87.68 94.25 87 C97.31 85.12 98.13 85 102 85 C102 83.68 102 82.36 102 81 C101.34 80.34 100.68 79.68 100 79 C96.9 71.16 96.29 63.24 98 55 C100.23 51.87 101.37 51.21 105 50 C113.76 49.58 113.76 49.58 118 52 C121.38 55.42 121.6 58.97 121.81 63.56 C121.86 64.23 121.91 64.91 121.97 65.6 C122.19 69.36 122.15 70.77 120 74 C119.34 74 118.68 74 118 74 C118 75.98 118 77.96 118 80 C120.75 81.46 123.39 82.46 126.38 83.31 C132.38 85.36 135.62 87.47 138.66 93.05 C141.6 99.41 143.49 105.07 143.71 112.12 C144.06 115.63 145.14 118.65 146.25 122 C148.94 131.32 147.05 139.68 145 149 C141.69 150.1 139.24 150.12 135.75 150.12 C134.45 150.12 133.14 150.12 131.79 150.12 C130.34 150.12 128.88 150.12 127.43 150.11 C125.9 150.11 124.38 150.11 122.85 150.11 C118.7 150.11 114.55 150.11 110.4 150.1 C106.06 150.1 101.72 150.09 97.39 150.09 C89.18 150.09 80.96 150.08 72.75 150.07 C63.4 150.06 54.05 150.06 44.7 150.05 C25.47 150.04 6.23 150.02 -13 150 C-12.97 149.69 -12.97 149.69 -12.79 148.14 C-12.7 147.33 -12.61 146.52 -12.51 145.69 C-12.42 144.89 -12.33 144.09 -12.24 143.27 C-11.74 138.52 -11.65 133.77 -11.56 129 C-11.52 127.97 -11.47 126.94 -11.42 125.88 C-11.32 119.11 -12.46 115.32 -16.57 109.93 C-18.31 107.58 -19.08 105.39 -19.75 102.56 C-20.82 98.18 -20.82 98.18 -23 96 C-23.52 90.64 -22.52 87.67 -20 83 C-17.4 76.89 -16.61 71.23 -16.41 64.6 C-16 62 -16 62 -14.7 60.19 C-12.02 58.31 -9.19 58.3 -6 58 C-5.5 64.36 -5.86 67.01 -10 72 C-12.83 79.96 -12.2 88.69 -12 97 C-10.02 97.33 -8.04 97.66 -6 98 C-6 98.66 -6 99.32 -6 100 C-4.68 100 -3.36 100 -2 100 C-2.26 99.56 -2.26 99.56 -3.56 97.31 C-5.91 91.86 -5.36 85.67 -4 80 C-2.08 77.45 -0.95 76.22 2.18 75.5 C6.91 75.63 10.2 75.89 14 79 C16.21 82.32 16.3 83.55 16.31 87.44 C16.33 88.38 16.35 89.33 16.36 90.31 C15.95 93.4 14.99 94.66 13 97 C12.31 99.25 12.31 99.25 12 101 C12.66 101 13.32 101 14 101 C14.33 101.66 14.66 102.32 15 103 C16.74 103.93 16.74 103.93 18.88 104.88 C22.19 106.49 24.27 107.63 26 111 C26.69 113.33 27.35 115.66 28 118 C28.2 113.5 28.34 109.01 28.44 104.51 C28.48 102.98 28.53 101.45 28.6 99.93 C29.04 90.18 28.62 83.89 22.03 76.09 C20.82 74.84 19.58 73.61 18.31 72.43 C16.14 70.06 15.8 67.05 15 64 C14.12 61.62 14.12 61.62 13 60 C12.38 59.86 11.76 59.71 11.12 59.56 C7.73 58.66 6.79 56.96 5 54 C4.8 51.92 4.61 49.84 4.48 47.76 C3.46 41.88 0.51 36.39 -2 31 C-2.66 32.32 -3.32 33.64 -4 35 C-5.65 34.67 -7.3 34.34 -9 34 C-9.05 31.1 -9.09 28.21 -9.12 25.31 C-9.14 24.5 -9.16 23.68 -9.18 22.84 C-9.21 18.43 -9.08 15.01 -7 11 C-6.01 11 -5.02 11 -4 11 C-4 10.01 -4 9.02 -4 8 C-4.32 7.95 -4.32 7.95 -5.94 7.69 C-6.62 7.46 -7.3 7.23 -8 7 C-8.33 6.01 -8.66 5.02 -9 4 C-8.34 4 -7.68 4 -7 4 C-7 4.66 -7 5.32 -7 6 C-4.06 5.25 -4.06 5.25 -1 4 C-0.12 1.88 -0.12 1.88 0 0 Z " fill="#422E17" transform="translate(38,235)"/>
<path d="M0 0 C3 1 3 1 4.06 2.84 C10.74 20.92 10.39 39.69 10.19 58.69 C10.17 61.15 10.16 63.62 10.15 66.09 C10.11 72.06 10.06 78.03 10 84 C11.32 84 12.64 84 14 84 C13.84 84.66 13.84 84.66 13 88 C12.01 88 11.02 88 10 88 C10 88.66 10 89.32 10 90 C10.66 90 11.32 90 12 90 C13.38 92.76 13.1 95.05 13.06 98.12 C13.05 99.22 13.04 100.32 13.04 101.45 C13.02 102.29 13.01 103.13 13 104 C12.34 104.33 12.34 104.33 9 106 C9.16 107.15 9.16 107.15 10 113 C8.35 113.33 6.7 113.66 5 114 C5 113.34 5 112.68 5 112 C4.34 112 3.68 112 3 112 C2.9 113.26 2.79 114.52 2.69 115.81 C2.18 120.45 1.05 124.74 -0.24 129.21 C-1.2 132.75 -1.86 136.3 -2.47 139.91 C-3 142 -3 142 -5 145 C-5.66 145 -6.32 145 -7 145 C-7.13 145.71 -7.27 146.42 -7.4 147.15 C-7.58 148.07 -7.76 148.99 -7.94 149.94 C-8.02 150.4 -8.02 150.4 -8.46 152.71 C-9 155 -9 155 -10 156 C-10 157.98 -10 159.97 -9.97 161.95 C-10.01 164.39 -10.51 166.61 -11 169 C-11.04 171.33 -11.05 173.67 -11 176 C-9.51 175.34 -9.51 175.34 -2 172 C-2 170.35 -2 168.7 -2 167 C-2.66 167 -3.32 167 -4 167 C-5.14 160.91 -5.88 155 -2.44 149.5 C1.05 147.35 4.09 147.19 8 148 C12.44 150.14 12.44 150.14 14 153 C15.06 159.78 14.95 166.24 11 172 C13.31 172.25 13.31 172.25 16 172 C17.63 170 17.63 170 19 168 C19.99 168 20.98 168 22 168 C22.69 147.95 22.69 147.95 19 140 C17.02 138.87 17.02 138.87 15 138 C13 135 13 135 13.31 131.38 C14 128 14 128 15 127 C21.6 127.6 21.6 127.6 24 130 C24.48 131.71 24.88 133.45 25.25 135.19 C26.47 140.36 28.09 145.2 30.06 150.12 C30.32 150.78 30.58 151.43 30.84 152.1 C31.97 154.87 32.86 156.86 35 159 C35.49 164.2 34.8 166.71 32 171 C31.03 173.38 30.13 175.79 29.26 178.21 C28.14 180.68 26.95 182.49 25.39 184.69 C22.34 189.47 22.35 193.64 22.56 199.19 C22.57 200.04 22.57 200.9 22.58 201.78 C22.72 209.09 23.87 215.64 25 223 C-5.36 223 -35.72 223 -67 223 C-67.66 221.35 -68.32 219.7 -69 218 C-72.03 218.43 -73.95 218.97 -76.56 220.62 C-79 222 -79 222 -81.31 221.69 C-81.59 221.57 -81.59 221.57 -83 221 C-77.09 215.99 -74.79 214.87 -67 215 C-67.59 212.85 -68.2 210.71 -68.81 208.56 C-69.15 207.37 -69.49 206.17 -69.83 204.94 C-70.22 203.97 -70.6 203 -71 202 C-71.99 201.67 -72.98 201.34 -74 201 C-74.95 199.23 -74.95 199.23 -75.76 196.91 C-76.07 196.05 -76.38 195.19 -76.7 194.31 C-77.03 193.38 -77.35 192.45 -77.69 191.5 C-80.53 183.69 -83.63 176.14 -87.3 168.68 C-89.49 164.2 -91.43 159.74 -93 155 C-92.12 152.75 -92.12 152.75 -91 151 C-91.38 148.75 -91.38 148.75 -92 147 C-92.66 147 -93.32 147 -94 147 C-95.47 144.06 -94.85 141.63 -94.56 138.38 C-94.46 137.19 -94.36 136 -94.25 134.77 C-94.17 133.86 -94.09 132.94 -94 132 C-97.3 132 -100.6 132 -104 132 C-104.73 117.91 -105.26 104.06 -104 90 C-104.66 90 -105.32 90 -106 90 C-106 89.34 -106 88.68 -106 88 C-105.34 88 -104.68 88 -104 88 C-104.1 86.95 -104.21 85.9 -104.31 84.81 C-104 81 -104 81 -101.62 78.12 C-99 76 -99 76 -97 75 C-96.38 72.94 -96.38 72.94 -96 71 C-95.34 71 -94.68 71 -94 71 C-94 72.32 -94 73.64 -94 75 C-93.62 75.12 -93.62 75.12 -91.69 75.75 C-88.62 77.18 -87.54 78 -86 81 C-85.81 84.75 -85.81 84.75 -86 88 C-85.34 88 -84.68 88 -84 88 C-84 88.66 -84 89.32 -84 90 C-84.66 90 -85.32 90 -86 90 C-86 95.94 -86 101.88 -86 108 C-83.36 107.67 -80.72 107.34 -78 107 C-75.32 106.87 -72.69 106.91 -70 106.94 C-69.32 106.94 -68.64 106.95 -67.94 106.95 C-66.29 106.96 -64.65 106.98 -63 107 C-63 105.02 -63 103.04 -63 101 C-62.34 100.67 -62.34 100.67 -59 99 C-59 99.66 -59 100.32 -59 101 C-57.85 100.67 -57.85 100.67 -52 99 C-52 99.66 -52 100.32 -52 101 C-50.35 101 -48.7 101 -47 101 C-46.67 102.98 -46.34 104.96 -46 107 C-45.01 107 -44.02 107 -43 107 C-43 105.68 -43 104.36 -43 103 C-43.33 102.84 -43.33 102.84 -45 102 C-44.34 102 -43.68 102 -43 102 C-43 101.34 -43 100.68 -43 100 C-42.34 100.16 -42.34 100.16 -39 101 C-39 102.98 -39 104.96 -39 107 C-38.34 107 -37.68 107 -37 107 C-37.04 106.07 -37.08 105.14 -37.12 104.19 C-37 101 -37 101 -35 98 C-34.34 98.16 -34.34 98.16 -31 99 C-31.07 98.6 -31.07 98.6 -31.44 96.56 C-31.62 95.39 -31.81 94.21 -32 93 C-32.13 92.3 -32.26 91.6 -32.39 90.88 C-33.29 85.23 -32.86 81.02 -30 76 C-27.5 73 -27.5 73 -25 71 C-24.01 71 -23.02 71 -22 71 C-21.92 71.62 -21.83 72.24 -21.75 72.88 C-21.5 73.58 -21.25 74.28 -21 75 C-20.36 75.29 -19.72 75.58 -19.06 75.88 C-17 77 -17 77 -15.69 79.69 C-14.9 83.49 -15.43 86.17 -16 90 C-16.44 101.01 -15.7 112.01 -15 123 C-14.01 123 -13.02 123 -12 123 C-11.34 121.02 -10.68 119.04 -10 117 C-9.34 117 -8.68 117 -8 117 C-7.87 116.57 -7.87 116.57 -7.19 114.38 C-6 111 -6 111 -4.44 108.25 C-2.78 104.5 -2.56 101.42 -2.41 97.37 C-1.92 94.51 -0.97 93.1 1 91 C1.66 91 2.32 91 3 91 C3 90.01 3 89.02 3 88 C1.68 88 0.36 88 -1 88 C-0.84 87.34 -0.84 87.34 0 84 C1.32 84 2.64 84 4 84 C3.65 35.31 3.65 35.31 -0.16 16.7 C-1.29 11.07 -1.83 5.5 0 0 Z " fill="#432E17" transform="translate(355,162)"/>
<path d="M0 0 C0 0.66 0 1.32 0 2 C-2.36 3.87 -4.73 5.64 -7.19 7.38 C-19.68 16.32 -19.68 16.32 -20.95 19.04 C-22.53 21.99 -24.84 22.87 -27.75 24.44 C-38.89 30.69 -38.89 30.69 -40.88 34.81 C-40.92 35.53 -40.96 36.26 -41 37 C-41.08 38.24 -41.17 39.47 -41.25 40.75 C-41.18 45.39 -40.05 48.84 -38 53 C-36.05 53.79 -36.05 53.79 -34 54 C-29.78 52.15 -28.1 50.02 -26 46 C-25.36 43.92 -24.8 41.81 -24.31 39.69 C-24.06 38.62 -23.81 37.55 -23.55 36.45 C-23.37 35.64 -23.19 34.83 -23 34 C-21.68 33.67 -20.36 33.34 -19 33 C-6.44 50.41 2.82 66.81 -0.46 89.11 C-0.91 91.42 -1.41 93.71 -2 96 C4.72 93.5 7.06 89.12 9.98 82.92 C10.68 81.3 11.35 79.65 12 78 C13.32 78 14.64 78 16 78 C19.86 86.85 21.48 94.66 21.44 104.31 C21.43 105.22 21.43 106.12 21.43 107.06 C21.3 113.21 20.4 119.01 19 125 C20.65 125.66 22.3 126.32 24 127 C23.67 129.31 23.34 131.62 23 134 C22.34 134 21.68 134 21 134 C20.67 132.02 20.34 130.04 20 128 C19.01 127.67 18.02 127.34 17 127 C17 129.31 17 131.62 17 134 C16.01 134 15.02 134 14 134 C13.67 132.02 13.34 130.04 13 128 C11.35 128 9.7 128 8 128 C8 127.34 8 126.68 8 126 C7.01 126.66 6.02 127.32 5 128 C3.68 128 2.36 128 1 128 C1 127.34 1 126.68 1 126 C-2 128 -2 128 -2.69 131.12 C-2.79 132.07 -2.89 133.02 -3 134 C-10.7 134.75 -18.26 135.1 -26 135 C-26 129.06 -26 123.12 -26 117 C-25.34 117 -24.68 117 -24 117 C-24 116.34 -24 115.68 -24 115 C-24.66 115 -25.32 115 -26 115 C-26.06 113.95 -26.12 112.9 -26.19 111.81 C-27.14 107.34 -28.53 105.88 -32 103 C-32.66 102.67 -33.32 102.34 -34 102 C-34 100.68 -34 99.36 -34 98 C-34.66 98 -35.32 98 -36 98 C-36.03 98.38 -36.03 98.38 -36.19 100.31 C-36.46 101.2 -36.72 102.09 -37 103 C-37.8 103.41 -38.61 103.82 -39.44 104.25 C-42.5 106.34 -42.56 107.17 -43.31 110.69 C-43.56 112.12 -43.8 113.56 -44 115 C-44.66 115 -45.32 115 -46 115 C-46 115.66 -46 116.32 -46 117 C-45.34 117 -44.68 117 -44 117 C-44 130.86 -44 144.72 -44 159 C-44.99 159 -45.98 159 -47 159 C-47 162.63 -47 166.26 -47 170 C-51.81 169.23 -54.37 168.13 -57.56 164.38 C-59.2 161.99 -59.99 160.63 -60.03 157.73 C-59.56 155.56 -59.56 155.56 -58 152 C-57.01 151.67 -56.02 151.34 -55 151 C-52.68 147.22 -51.61 144.44 -52 140 C-52.66 139.67 -53.32 139.34 -54 139 C-53.97 138.53 -53.97 138.53 -53.82 136.15 C-53.41 124.71 -53.41 124.71 -56.19 121.31 C-56.65 120.93 -56.65 120.93 -59 119 C-59.7 118.38 -60.4 117.76 -61.12 117.12 C-66.39 115.07 -71.97 115.12 -77.39 116.69 C-80.82 118.21 -82.71 119.62 -85 122.62 C-86.34 127.14 -86.25 131.32 -86 136 C-86.66 136.33 -87.32 136.66 -88 137 C-88.08 138.44 -88.14 139.87 -88.19 141.31 C-88.22 142.11 -88.26 142.91 -88.29 143.74 C-88 146 -88 146 -86.53 147.47 C-84.4 149.6 -84.5 151.23 -84.31 154.19 C-84.25 155.09 -84.18 155.99 -84.11 156.92 C-84.08 157.61 -84.04 158.29 -84 159 C-84.82 159.33 -84.82 159.33 -89 161 C-89.7 160.4 -90.4 159.8 -91.12 159.19 C-94 157 -94 157 -96.94 155.88 C-101.59 153.03 -103.42 148.69 -106 144 C-106.33 143.67 -106.66 143.34 -107 143 C-107.49 140.49 -107.9 137.97 -108.3 135.45 C-109 133 -109 133 -110.48 131.61 C-112.33 129.65 -112.55 128.46 -112.95 125.83 C-113.07 125.02 -113.2 124.21 -113.33 123.37 C-113.45 122.53 -113.57 121.68 -113.69 120.81 C-113.82 119.99 -113.95 119.16 -114.08 118.31 C-116.07 104.95 -116.07 104.95 -113.29 99.88 C-112.92 99.43 -112.92 99.43 -111.06 97.12 C-110.33 96.2 -109.6 95.27 -108.85 94.32 C-108.24 93.55 -107.63 92.79 -107 92 C-106 90 -106 90 -106.36 87.75 C-106.82 84.51 -106.8 82.19 -106 79 C-102.86 75.51 -99.07 73.08 -95.19 70.5 C-90.95 67.59 -86.94 64.39 -82.88 61.25 C-75.14 55.34 -67.34 49.52 -59.48 43.78 C-54.24 39.95 -49.11 36 -44 32 C-41.95 30.41 -39.88 28.83 -37.81 27.25 C-36.85 26.51 -35.89 25.78 -34.89 25.02 C-32 23 -32 23 -28.76 21.48 C-25.61 19.79 -25.5 19.06 -24 16 C-21.82 14.27 -19.67 12.68 -17.38 11.12 C-16.11 10.25 -14.84 9.37 -13.57 8.48 C-12.96 8.06 -12.34 7.64 -11.71 7.2 C-8.88 5.22 -6.17 3.1 -3.45 0.96 C-2 0 -2 0 0 0 Z " fill="#D6571D" transform="translate(295,135)"/>
<path d="M0 0 C9.96 11.52 15.03 25.87 14 41 C12.87 50.24 8.9 59.17 4 67 C12.87 62.73 19.37 58.4 26 51 C27 50 28 49 29 48 C30.53 63.9 30.53 63.9 26.88 68.91 C24.33 70.89 21.85 72.49 19 74 C18.01 74.66 17.02 75.32 16 76 C13.31 75.62 13.31 75.62 11 75 C10.73 75.58 10.46 76.16 10.19 76.75 C8.97 79.06 7.7 81.02 6 83 C5.34 83 4.68 83 4 83 C3.67 82.34 3.34 81.68 3 81 C0.12 80.81 0.12 80.81 -3 81 C-3.66 81.99 -4.32 82.98 -5 84 C-5.59 84.16 -5.59 84.16 -8.56 85 C-9.13 85.16 -9.13 85.16 -12 86 C-12.16 86.5 -12.16 86.5 -13 89 C-13.8 89.29 -14.61 89.58 -15.44 89.88 C-18.79 91.35 -18.71 92.7 -20 96 C-22.62 97.81 -22.62 97.81 -25 99 C-24.92 99.45 -24.92 99.45 -24.5 101.75 C-24 105 -24 105 -24 109 C-25.97 110.85 -25.97 110.85 -28.5 112.62 C-30.03 113.71 -31.54 114.82 -33 116 C-33 116.66 -33 117.32 -33 118 C-31.68 118.33 -30.36 118.66 -29 119 C-37.4 129 -46.71 137.94 -56.64 146.39 C-58.06 147.69 -58.06 147.69 -60 150 C-59.77 152.43 -59.33 153.65 -57.65 155.43 C-57.09 155.86 -56.52 156.29 -55.95 156.73 C-55.33 157.2 -54.72 157.68 -54.08 158.16 C-53.44 158.65 -52.79 159.13 -52.12 159.62 C-51.81 159.87 -51.81 159.87 -50.19 161.11 C-42.48 167 -42.48 167 -38 167 C-37.55 166.01 -37.1 165.02 -36.64 164 C-34.98 160.34 -33.31 156.67 -31.65 153.01 C-30.93 151.42 -30.2 149.84 -29.48 148.25 C-28.45 145.97 -27.41 143.69 -26.38 141.41 C-26.06 140.7 -25.73 139.99 -25.4 139.26 C-22.13 132.05 -22.13 132.05 -19.5 130.94 C-18.68 130.63 -17.85 130.32 -17 130 C-15.03 128.03 -15.34 124.65 -15 122 C-12 123 -12 123 -10 126 C-9.68 128.39 -9.48 130.79 -9.33 133.2 C-9.29 133.9 -9.24 134.61 -9.2 135.34 C-9.11 136.84 -9.02 138.33 -8.94 139.83 C-8.81 142.1 -8.67 144.36 -8.53 146.62 C-8.09 153.89 -8.06 160.77 -9 168 C-7.81 171.39 -7.02 173.33 -4 175.31 C-1.7 177.26 -1.53 178.12 -0.73 180.95 C1.34 187.46 4.77 193.19 8.15 199.1 C11.5 205.22 12.83 210.05 13 217 C13.03 217.56 13.03 217.56 13.16 220.41 C13.32 224.15 13.45 227.89 13.56 231.62 C13.61 232.92 13.65 234.21 13.69 235.54 C13.8 238.69 13.9 241.84 14 245 C11.15 241.45 10.26 238.68 9.38 234.19 C9.14 233.01 8.9 231.82 8.65 230.61 C8.22 228.23 7.85 225.83 7.55 223.43 C6.49 216.78 4.28 209.14 -1.31 204.94 C-5 202.76 -8.97 201.41 -13 200 C-13.99 199.34 -14.98 198.68 -16 198 C-16.38 195.06 -16.38 195.06 -16 192 C-15.49 191.6 -14.99 191.19 -14.47 190.77 C-12.15 187.97 -12.82 184.99 -13.12 181.56 C-13.16 180.89 -13.2 180.23 -13.23 179.54 C-13.54 175.5 -14.13 172.91 -17 170 C-20.65 168.38 -25.07 168.54 -29 169 C-31.36 170.16 -33.15 171.15 -35 173 C-35.29 175.63 -35.52 178.23 -35.69 180.88 C-35.75 181.61 -35.81 182.34 -35.87 183.1 C-36.13 187.02 -36.24 188.64 -34 192 C-33.84 192.51 -33.84 192.51 -33 195.06 C-32 198 -32 198 -30 200 C-32.11 203.16 -32.56 203.48 -35.94 204.62 C-36.63 204.86 -37.32 205.1 -38.03 205.35 C-38.35 205.46 -38.35 205.46 -40 206 C-40.99 206.33 -41.98 206.66 -43 207 C-43.18 206.45 -43.18 206.45 -44.1 203.68 C-44.61 202.22 -45.12 200.77 -45.62 199.31 C-45.86 198.59 -46.1 197.87 -46.34 197.13 C-49.05 189.52 -53.66 186.46 -60.81 182.81 C-65.89 180.21 -65.89 180.21 -67 178 C-67.99 177.67 -68.98 177.34 -70 177 C-70 174.36 -70 171.72 -70 169 C-69.01 169 -68.02 169 -67 169 C-64.1 163 -63.97 156.5 -63.75 149.94 C-63.72 149.18 -63.7 148.43 -63.67 147.65 C-64 145 -64 145 -65.51 141.52 C-67.79 135.77 -67.24 129.89 -67.06 123.81 C-67 121.51 -66.95 119.2 -66.91 116.89 C-66.9 116.39 -66.9 116.39 -66.82 113.83 C-67.01 110.83 -67.74 108.71 -69 106 C-65.08 107.59 -62.42 110.29 -59.5 113.25 C-59.03 113.72 -58.55 114.18 -58.07 114.66 C-54.86 117.88 -52.4 121.17 -50 125 C-49.35 116.9 -50.38 111.17 -53.75 103.8 C-58.87 92.31 -58.36 78.65 -54 67 C-52.42 63.71 -50.7 60.5 -48.87 57.34 C-46.52 53.25 -45.12 49.54 -44 45 C-43.34 45 -42.68 45 -42 45 C-40.6 50.41 -39.87 55.41 -39.62 61 C-39.31 66.45 -38.38 70.51 -35.84 75.33 C-35 77 -35 77 -35 79 C-34.34 79 -33.68 79 -33 79 C-33.1 77.93 -33.21 76.86 -33.31 75.75 C-33.23 64.57 -26.46 56.54 -19 49 C-6.6 35.97 0.59 23.36 0.2 5.03 C0.15 3.35 0.08 1.68 0 0 Z " fill="#EB8B1B" transform="translate(172,117)"/>
<path d="M0 0 C3.14 0.34 4.03 1.03 6.25 3.38 C8 6 8 6 8 9 C5.31 11 2.57 12.76 -0.29 14.51 C-4.85 17.45 -4.85 17.45 -5.7 20.61 C-5.8 21.4 -5.9 22.19 -6 23 C-7.56 24.58 -7.56 24.58 -9.44 25.81 C-10.05 26.23 -10.67 26.65 -11.31 27.08 C-13 28 -13 28 -15 28 C-15.04 28.6 -15.08 29.2 -15.12 29.81 C-16.43 33.08 -18.89 33.46 -22 35 C-23.93 36.39 -25.82 37.83 -27.69 39.31 C-28.81 40.19 -29.94 41.07 -31.06 41.95 C-31.68 42.43 -32.29 42.91 -32.93 43.4 C-36.98 46.53 -41.08 49.58 -45.19 52.62 C-46.03 53.25 -46.86 53.88 -47.73 54.53 C-48.12 54.82 -48.12 54.82 -50.11 56.29 C-50.81 56.81 -51.51 57.33 -52.24 57.87 C-54 59 -54 59 -56 59 C-56.06 59.31 -56.06 59.31 -56.38 60.88 C-57 63 -57 63 -59 65 C-59.38 65.15 -59.38 65.15 -61.3 65.89 C-64.38 67.16 -66.61 68.78 -69.25 70.81 C-69.76 71.2 -70.27 71.6 -70.8 72 C-71.93 72.87 -73.06 73.73 -74.19 74.6 C-76.06 76.05 -77.94 77.49 -79.82 78.92 C-82.65 81.08 -85.47 83.23 -88.29 85.39 C-99.04 93.63 -109.8 101.86 -120.62 110 C-121.52 110.68 -122.41 111.37 -123.34 112.07 C-126 114 -126 114 -129.16 115.93 C-132.12 117.79 -134.62 119.44 -137 122 C-137.52 124.92 -137.33 127.31 -137 130.25 C-137 135.73 -141.03 139.97 -144.7 143.75 C-147.96 149.39 -145.63 157.61 -144.62 163.75 C-144.5 164.59 -144.37 165.42 -144.24 166.29 C-144.11 167.09 -143.98 167.9 -143.85 168.73 C-143.74 169.46 -143.62 170.18 -143.5 170.93 C-142.96 173.17 -142.1 174.98 -141 177 C-141.66 177 -142.32 177 -143 177 C-143.04 177.85 -143.08 178.69 -143.12 179.56 C-144.3 184.2 -146.33 186.96 -150 190 C-152.92 191.55 -155.7 192.68 -159 193 C-160.68 192.37 -162.35 191.71 -164 191 C-164.03 190.18 -164.05 189.36 -164.08 188.51 C-164.17 185.41 -164.27 182.31 -164.37 179.21 C-164.44 177.23 -164.5 175.25 -164.56 173.28 C-165.26 151.97 -165.26 151.97 -168.06 148.31 C-168.7 147.88 -169.34 147.45 -170 147 C-169.94 148.09 -169.88 149.19 -169.81 150.31 C-170 154 -170 154 -171.25 155.94 C-173 157 -173 157 -177 157 C-177.37 158.21 -177.75 159.41 -178.13 160.66 C-180.29 167.12 -183.07 173.29 -185.88 179.5 C-186.13 180.1 -186.13 180.1 -187.44 183.11 C-187.95 184.24 -188.46 185.37 -188.99 186.53 C-189.22 187.04 -189.22 187.04 -190.38 189.64 C-192 192 -192 192 -194.51 192.95 C-198.28 193.03 -199.97 191.26 -202.88 188.94 C-203.14 188.73 -203.14 188.73 -204.46 187.69 C-208.4 184.57 -212.24 181.33 -216 178 C-215.52 173.67 -212.96 171.63 -209.94 168.69 C-209.44 168.2 -208.94 167.71 -208.43 167.21 C-205.07 163.96 -201.61 160.87 -198.06 157.83 C-193.86 154.1 -189.74 150.2 -186 146 C-186 145.34 -186 144.68 -186 144 C-186.99 143.67 -187.98 143.34 -189 143 C-187.57 139.55 -185.9 137.9 -182.88 135.75 C-182.15 135.23 -181.43 134.71 -180.68 134.17 C-180.13 133.79 -179.57 133.4 -179 133 C-179.18 132.39 -179.36 131.77 -179.54 131.14 C-179.65 130.73 -179.65 130.73 -180.19 128.69 C-180.41 127.89 -180.63 127.09 -180.86 126.26 C-181 124 -181 124 -179.74 122.21 C-178 121 -178 121 -175 121 C-174.94 120.61 -174.94 120.61 -174.62 118.62 C-174 116 -174 116 -172 114 C-170.68 114 -169.36 114 -168 114 C-167.86 113.36 -167.71 112.72 -167.56 112.06 C-167 110 -167 110 -166 109 C-164 108.96 -162 108.96 -160 109 C-159.34 107.68 -158.68 106.36 -158 105 C-156.02 105 -154.04 105 -152 105 C-151.67 105.99 -151.34 106.98 -151 108 C-148.33 105.51 -146.44 103.37 -145 100 C-144.01 100 -143.02 100 -142 100 C-138.08 99.44 -135.5 97.45 -132.31 95.19 C-131.75 94.79 -131.19 94.39 -130.61 93.98 C-129.38 93.12 -128.15 92.25 -126.93 91.37 C-124.98 89.99 -123.03 88.61 -121.07 87.23 C-118.98 85.75 -116.88 84.27 -114.79 82.79 C-110.07 79.45 -105.33 76.13 -100.59 72.83 C-93.03 67.55 -85.49 62.25 -78 56.88 C-77.25 56.34 -76.5 55.81 -75.73 55.26 C-72.89 53.21 -70.27 51.27 -67.81 48.76 C-65.66 46.67 -63.78 46.1 -61 45 C-58.36 43.34 -55.84 41.51 -53.31 39.69 C-52.58 39.16 -51.85 38.64 -51.1 38.1 C-49.54 36.99 -47.98 35.87 -46.43 34.75 C-43.95 32.97 -41.47 31.19 -38.99 29.42 C-37.37 28.26 -35.75 27.1 -34.12 25.94 C-33.36 25.39 -32.59 24.84 -31.8 24.28 C-31.09 23.76 -30.37 23.25 -29.63 22.71 C-29.32 22.49 -29.32 22.49 -27.72 21.34 C-26 20 -26 20 -24.45 18.42 C-22.31 16.32 -19.67 15.34 -17 14 C-15.33 12.67 -13.66 11.34 -12 10 C-11.34 10 -10.68 10 -10 10 C-10.33 8.68 -10.66 7.36 -11 6 C-10.18 5.34 -10.18 5.34 -6 2 C-4.35 2.66 -2.7 3.32 -1 4 C-0.67 2.68 -0.34 1.36 0 0 Z " fill="#633C14" transform="translate(327,92)"/>
<path d="M0 0 C0.66 0.33 1.32 0.66 2 1 C1.99 1.66 1.98 2.33 1.96 3.01 C1.96 3.89 1.95 4.78 1.94 5.69 C1.93 6.56 1.91 7.43 1.9 8.32 C2 11 2.47 13.38 3 16 C3.65 24.27 3.19 30.75 -1 38 C8.34 31.53 13.14 25.71 17 15.07 C18.81 10.09 18.81 10.09 21 9 C23.64 23.44 25.82 39.45 19 53 C30.21 47.34 38.42 38.33 46.4 28.82 C48.49 26.44 50.76 24.24 53 22 C52.34 28.93 51.68 35.86 51 43 C50.34 42.84 50.34 42.84 47 42 C47 40.68 47 39.36 47 38 C46.34 38 45.68 38 45 38 C44.97 38.38 44.97 38.38 44.81 40.31 C44.54 41.2 44.28 42.09 44 43 C43.2 43.41 42.39 43.82 41.56 44.25 C38.5 46.34 38.44 47.17 37.69 50.69 C37.44 52.12 37.2 53.56 37 55 C36.34 55 35.68 55 35 55 C35 55.66 35 56.32 35 57 C35.66 57 36.32 57 37 57 C37 70.86 37 84.72 37 99 C36.01 99 35.02 99 34 99 C34 102.63 34 106.26 34 110 C29.19 109.23 26.63 108.13 23.44 104.38 C21.8 101.99 21.01 100.63 20.97 97.73 C21.44 95.56 21.44 95.56 23 92 C23.99 91.67 24.98 91.34 26 91 C28.32 87.22 29.39 84.44 29 80 C28.67 79.84 28.67 79.84 27 79 C27.03 78.53 27.03 78.53 27.18 76.15 C27.59 64.71 27.59 64.71 24.81 61.31 C23.88 60.55 22.96 59.79 22 59 C21.3 58.38 20.6 57.76 19.88 57.12 C14.61 55.07 9.03 55.12 3.61 56.69 C0.18 58.21 -1.71 59.62 -4 62.62 C-5.34 67.14 -5.25 71.32 -5 76 C-5.33 76.16 -5.33 76.16 -7 77 C-7.08 78.44 -7.14 79.87 -7.19 81.31 C-7.22 82.11 -7.26 82.91 -7.29 83.74 C-7 86 -7 86 -5.53 87.47 C-3.4 89.6 -3.5 91.23 -3.31 94.19 C-3.25 95.09 -3.18 95.99 -3.11 96.92 C-3.08 97.61 -3.04 98.29 -3 99 C-3.82 99.33 -3.82 99.33 -8 101 C-8.7 100.4 -9.4 99.8 -10.12 99.19 C-13 97 -13 97 -15.94 95.88 C-20.59 93.03 -22.42 88.69 -25 84 C-25.33 83.67 -25.66 83.34 -26 83 C-26.49 80.49 -26.9 77.97 -27.3 75.45 C-28 73 -28 73 -29.48 71.61 C-31.33 69.65 -31.55 68.46 -31.95 65.83 C-32.07 65.02 -32.2 64.21 -32.33 63.37 C-32.45 62.53 -32.57 61.68 -32.69 60.81 C-32.82 59.99 -32.95 59.16 -33.08 58.31 C-35.07 44.95 -35.07 44.95 -32.29 39.88 C-31.92 39.43 -31.92 39.43 -30.06 37.12 C-29.33 36.2 -28.6 35.27 -27.85 34.32 C-27.24 33.55 -26.63 32.79 -26 32 C-25 30 -25 30 -25.36 27.75 C-25.82 24.48 -25.83 22.21 -25 19 C-21.67 15.45 -17.91 12.89 -13.84 10.23 C-10.86 8.24 -8.04 6.05 -5.19 3.88 C-3.46 2.58 -1.73 1.29 0 0 Z " fill="#EC8C1B" transform="translate(214,195)"/>
<path d="M0 0 C3.14 0.34 4.03 1.03 6.25 3.38 C8 6 8 6 8 9 C5.31 11 2.57 12.76 -0.29 14.51 C-4.85 17.45 -4.85 17.45 -5.7 20.61 C-5.8 21.4 -5.9 22.19 -6 23 C-7.56 24.58 -7.56 24.58 -9.44 25.81 C-10.05 26.23 -10.67 26.65 -11.31 27.08 C-13 28 -13 28 -15 28 C-15.04 28.6 -15.08 29.2 -15.12 29.81 C-16.43 33.08 -18.89 33.46 -22 35 C-23.93 36.39 -25.82 37.83 -27.69 39.31 C-28.81 40.19 -29.94 41.07 -31.06 41.95 C-31.68 42.43 -32.29 42.91 -32.93 43.4 C-36.98 46.53 -41.08 49.58 -45.19 52.62 C-46.03 53.25 -46.86 53.88 -47.73 54.53 C-48.51 55.11 -49.3 55.69 -50.11 56.29 C-50.81 56.81 -51.51 57.33 -52.24 57.87 C-54 59 -54 59 -56 59 C-56.06 59.31 -56.06 59.31 -56.38 60.88 C-57 63 -57 63 -59 65 C-59.38 65.15 -59.38 65.15 -61.3 65.89 C-64.38 67.16 -66.61 68.78 -69.25 70.81 C-69.76 71.2 -70.27 71.6 -70.8 72 C-71.93 72.87 -73.06 73.73 -74.19 74.6 C-76.06 76.05 -77.94 77.49 -79.82 78.92 C-82.65 81.08 -85.47 83.23 -88.29 85.39 C-114.36 105.35 -114.36 105.35 -126 114 C-127.02 114.76 -128.04 115.53 -129.09 116.32 C-130.09 117.06 -131.09 117.8 -132.12 118.56 C-133.01 119.22 -133.9 119.89 -134.82 120.57 C-137 122 -137 122 -139 122 C-139.35 121.34 -139.7 120.68 -140.06 120 C-142 118 -142 118 -144.2 117.73 C-146.47 117.75 -148.73 117.83 -151 118 C-150.67 117.84 -150.67 117.84 -149 117 C-149.11 116.4 -149.21 115.79 -149.32 115.17 C-150.32 108.56 -150.32 108.56 -148.69 105.69 C-148.13 105.13 -147.57 104.57 -147 104 C-146.3 102.68 -145.63 101.35 -145 100 C-144.01 100 -143.02 100 -142 100 C-138.08 99.44 -135.5 97.45 -132.31 95.19 C-131.75 94.79 -131.19 94.39 -130.61 93.98 C-129.38 93.12 -128.15 92.25 -126.93 91.37 C-124.98 89.99 -123.03 88.61 -121.07 87.23 C-118.98 85.75 -116.88 84.27 -114.79 82.79 C-110.07 79.45 -105.33 76.13 -100.59 72.83 C-93.03 67.55 -85.49 62.25 -78 56.88 C-77.63 56.61 -77.63 56.61 -75.73 55.26 C-72.89 53.21 -70.27 51.27 -67.81 48.76 C-65.66 46.67 -63.78 46.1 -61 45 C-58.36 43.34 -55.84 41.51 -53.31 39.69 C-52.58 39.16 -51.85 38.64 -51.1 38.1 C-49.54 36.99 -47.98 35.87 -46.43 34.75 C-43.95 32.97 -41.47 31.19 -38.99 29.42 C-37.37 28.26 -35.75 27.1 -34.12 25.94 C-33.36 25.39 -32.59 24.84 -31.8 24.28 C-31.09 23.76 -30.37 23.25 -29.63 22.71 C-29.32 22.49 -29.32 22.49 -27.72 21.34 C-26 20 -26 20 -24.45 18.42 C-22.31 16.32 -19.67 15.34 -17 14 C-15.33 12.67 -13.66 11.34 -12 10 C-11.34 10 -10.68 10 -10 10 C-10.33 8.68 -10.66 7.36 -11 6 C-10.18 5.34 -10.18 5.34 -6 2 C-4.35 2.66 -2.7 3.32 -1 4 C-0.67 2.68 -0.34 1.36 0 0 Z " fill="#492A0D" transform="translate(327,92)"/>
<path d="M0 0 C-1.01 3.67 -2.31 6.57 -4.44 9.69 C-9.65 17.77 -11.32 27.26 -9.48 36.63 C-7.38 44.21 -3.48 50.24 0.85 56.7 C9.01 68.89 12.98 79.38 14 94 C16.49 94.92 17.63 95.14 20.15 94.17 C29.84 87.98 33.14 79.15 35.55 68.24 C35.7 67.5 35.85 66.76 36 66 C37.32 65.67 38.64 65.34 40 65 C46.34 73.37 50.05 82.51 51 93 C51.62 92.44 52.24 91.89 52.88 91.31 C55.5 89.37 57.71 88.12 60.62 86.75 C65.6 84.34 69.87 81.35 74.28 78.04 C76.82 76.14 79.39 74.31 82 72.5 C88.43 68.02 94.75 63.38 101.07 58.75 C101.56 58.39 101.56 58.39 104.06 56.56 C104.96 55.9 105.86 55.25 106.79 54.57 C109 53 109 53 111 52 C111.14 51.61 111.14 51.61 111.88 49.62 C113.74 45.26 116.78 43.99 121 42.25 C124.07 41.03 125.88 40.78 129 42 C133.74 46.74 133.74 46.74 134.51 50.45 C134 53 134 53 131.45 55.06 C130.35 55.7 129.25 56.34 128.12 57 C123.49 59.72 121.88 61.07 120 66 C118.11 68.21 115.98 70.12 113.81 72.06 C113.26 72.58 112.71 73.1 112.14 73.63 C108.34 77.09 104.5 79.54 100 82 C99.09 82.76 98.19 83.53 97.25 84.31 C96.51 84.87 95.76 85.43 95 86 C94.01 85.67 93.02 85.34 92 85 C93.72 83.53 95.45 82.08 97.19 80.62 C98.15 79.81 99.11 79 100.11 78.16 C103 76 103 76 105.8 74.9 C106.53 74.6 107.25 74.31 108 74 C108.33 73.01 108.66 72.02 109 71 C111.97 68.81 114.49 67.17 118 66 C117.88 65.27 117.76 64.55 117.63 63.8 C118 61 118 61 120.55 58.54 C121.65 57.74 122.76 56.96 123.88 56.19 C124.43 55.78 124.99 55.37 125.56 54.96 C129.68 52 129.68 52 132 52 C128.55 45.23 128.55 45.23 125.75 44.06 C125.17 44.04 124.6 44.02 124 44 C123.67 44.99 123.34 45.98 123 47 C122.26 46.77 121.51 46.55 120.75 46.31 C118 46 118 46 115.69 47.19 C114 49 114 49 114 53 C111.99 54.82 111.99 54.82 109.31 56.56 C108.44 57.14 107.57 57.72 106.68 58.32 C104.98 59.38 103.27 60.43 101.53 61.43 C98.57 63.26 95.92 65.34 93.19 67.5 C87.49 71.96 81.61 76.1 75.61 80.15 C72.12 82.52 68.74 84.93 65.44 87.56 C63.03 89.44 61.1 90.41 58.12 91.12 C55 92 55 92 53.81 94.06 C53.54 94.7 53.28 95.34 53 96 C50.95 96.62 50.95 96.62 49 97 C48.85 95.98 48.71 94.97 48.55 93.92 C45.48 74.48 45.48 74.48 39 68 C38.85 68.59 38.71 69.19 38.55 69.8 C35.45 81.27 30.51 91.11 19.92 97.2 C17.25 98.31 15.7 97.92 13 97 C10.63 93.44 10.55 91.23 10.12 87 C8.53 73.89 3.18 64.68 -3.85 53.8 C-6.08 50.3 -8.16 46.72 -10 43 C-10.36 42.29 -10.73 41.57 -11.1 40.84 C-13.57 33.05 -13.58 21.34 -10.31 13.81 C-9.59 12.52 -8.81 11.24 -8 10 C-7.54 9.24 -7.09 8.48 -6.62 7.7 C-5.45 5.77 -4.25 3.88 -3 2 C-17.71 4.67 -31.74 12.37 -40.82 24.41 C-42.38 26.89 -43.72 29.37 -45 32 C-45.39 32.75 -45.78 33.5 -46.18 34.27 C-49.46 41.69 -49.76 49.49 -50.14 57.5 C-50.85 69.46 -55.22 78.84 -64.12 86.9 C-66.53 88.31 -68.26 88.2 -71 88 C-71.1 87.63 -71.1 87.63 -71.59 85.76 C-74.71 75.18 -79.46 66.87 -89 61 C-88.97 61.56 -88.97 61.56 -88.79 64.41 C-88.07 81.12 -92.69 91.82 -103 105 C-112.11 117.54 -119.4 128.77 -119.38 144.69 C-119.38 145.57 -119.38 146.45 -119.38 147.36 C-119.28 153.58 -118.21 158.65 -115.9 164.45 C-114.54 168.31 -114.26 171.97 -115 176 C-116.5 178.56 -116.5 178.56 -118 180 C-123.5 179.78 -126.38 178.51 -130.42 174.77 C-132.84 172.06 -134.38 169.24 -136 166 C-136.66 166.33 -137.32 166.66 -138 167 C-143.38 184.67 -136.79 202.01 -128.6 217.41 C-125.91 222.67 -125.4 226.21 -126 232 C-125.67 232.33 -125.67 232.33 -124 234 C-123.73 236.06 -123.73 236.06 -123.62 238.44 C-123.26 242.74 -123.26 242.74 -120.94 245.06 C-120.3 245.37 -119.66 245.68 -119 246 C-123.44 247.48 -125.85 245.62 -129.94 243.65 C-137.96 239.32 -143.84 235.65 -147 227 C-147.91 226.44 -148.81 225.89 -149.75 225.31 C-155.46 221.25 -159.27 214.81 -160.59 207.91 C-160.73 206.07 -160.82 204.22 -160.83 202.38 C-161.02 199.79 -161.7 198.22 -163 196 C-161.02 196.33 -159.04 196.66 -157 197 C-157 196.01 -157 195.02 -157 194 C-157.39 193.88 -157.39 193.88 -159.38 193.25 C-162.32 191.85 -162.9 190.99 -164 188 C-164.66 188.99 -165.32 189.98 -166 191 C-169.12 191.69 -169.12 191.69 -172 192 C-172 191.34 -172 190.68 -172 190 C-172.66 190 -173.32 190 -174 190 C-172 193 -172 193 -169 194 C-169 194.99 -169 195.98 -169 197 C-169.99 197.33 -170.98 197.66 -172 198 C-173.05 200.76 -173.12 203.4 -173.1 206.33 C-173.09 207.13 -173.09 207.93 -173.09 208.75 C-173.08 209.57 -173.07 210.4 -173.06 211.25 C-173.06 212.09 -173.05 212.93 -173.05 213.8 C-173.04 215.86 -173.02 217.93 -173 220 C-171.68 220.33 -170.36 220.66 -169 221 C-168.67 219.35 -168.34 217.7 -168 216 C-163.14 220.17 -160.55 227.4 -159.6 233.61 C-159.49 235.11 -159.4 236.6 -159.3 238.09 C-158.81 241.19 -157.23 242.9 -155 245 C-154.01 245.33 -153.02 245.66 -152 246 C-149.77 248.9 -148.19 251.34 -147.19 254.88 C-145.73 258.71 -143.55 261.02 -140.75 263.97 C-136.55 268.83 -135.57 272.57 -135.71 278.93 C-135.71 279.67 -135.72 280.42 -135.72 281.19 C-135.74 283.57 -135.77 285.94 -135.81 288.31 C-135.83 289.93 -135.84 291.54 -135.85 293.16 C-135.89 297.11 -135.94 301.05 -136 305 C-136.66 304.67 -137.32 304.34 -138 304 C-138.47 302.58 -138.88 301.14 -139.25 299.69 C-140.39 296.03 -140.86 295.12 -143.94 292.56 C-144.95 292.05 -145.96 291.53 -147 291 C-147.78 290.59 -148.57 290.18 -149.38 289.75 C-149.91 289.5 -150.45 289.25 -151 289 C-151 288.34 -151 287.68 -151 287 C-151.66 287 -152.32 287 -153 287 C-152.45 283.63 -151.95 281.92 -150 279 C-149.7 276.44 -149.7 276.44 -149.69 273.56 C-149.67 272.62 -149.65 271.67 -149.64 270.69 C-150.06 267.53 -150.72 266.22 -153 264 C-155.26 263.17 -155.26 263.17 -157.69 262.75 C-158.5 262.6 -159.3 262.45 -160.14 262.3 C-160.44 262.25 -160.44 262.25 -162 262 C-160.22 260.94 -160.22 260.94 -158 260 C-153.76 261.21 -151.68 262.32 -148.56 265.44 C-146.34 270.51 -146.12 275.54 -147 281 C-148.53 282.86 -148.53 282.86 -150 284 C-148.83 287.5 -148.13 287.82 -145.06 289.62 C-144.35 290.05 -143.64 290.48 -142.91 290.91 C-141.63 291.64 -140.32 292.34 -139 293 C-137.52 271.26 -137.52 271.26 -142.81 264.88 C-144.18 263.55 -145.57 262.26 -147 261 C-149.19 258.4 -150.38 256.26 -151.31 253 C-152.79 248.72 -155.09 247.26 -159 245 C-159 244.34 -159 243.68 -159 243 C-159.66 243 -160.32 243 -161 243 C-161.08 241.7 -161.16 240.4 -161.25 239.06 C-161.73 234.53 -163.12 230.99 -165.16 226.95 C-166 225 -166 225 -166 222 C-167.28 222.04 -168.56 222.08 -169.88 222.12 C-172.05 222.2 -172.05 222.2 -174 222 C-176 220 -176 220 -176.06 216.81 C-176.04 215.55 -176.02 214.3 -176 213 C-176.1 212.43 -176.1 212.43 -176.62 209.56 C-177.21 204.05 -176.12 199.67 -173 195 C-173.99 194.34 -174.98 193.68 -176 193 C-175.67 191.35 -175.34 189.7 -175 188 C-174.06 187.79 -173.12 187.59 -172.15 187.37 C-169 186 -169 186 -167.59 183.38 C-167.28 182.28 -166.97 181.19 -166.66 180.06 C-166.48 179.45 -166.48 179.45 -165.58 176.38 C-165.4 175.73 -165.23 175.09 -165.04 174.43 C-164.5 172.42 -163.92 170.43 -163.33 168.44 C-162.56 165.81 -161.8 163.18 -161.04 160.55 C-156.66 145.58 -151.19 129.76 -142 117 C-141.01 116.67 -140.02 116.34 -139 116 C-137.59 123.68 -138.31 129.17 -141.94 136.06 C-145.83 143.86 -148.53 152.05 -151.25 160.31 C-151.46 160.96 -151.68 161.61 -151.9 162.28 C-153.29 166.51 -154.65 170.75 -156 175 C-156.32 175.99 -156.63 176.99 -156.96 178.01 C-157.23 178.9 -157.5 179.78 -157.79 180.69 C-158.02 181.44 -158.25 182.2 -158.49 182.97 C-159.17 185.68 -159.22 188.22 -159 191 C-157.68 191.66 -156.36 192.32 -155 193 C-155.88 197.88 -155.88 197.88 -157 199 C-157.9 206.16 -157.03 211.17 -153.09 217.22 C-152 219 -152 219 -152 221 C-151.28 221.21 -150.56 221.41 -149.81 221.62 C-146.13 223.42 -144.38 225.7 -142 229 C-141.91 229.64 -141.82 230.27 -141.73 230.93 C-140.55 234.27 -137.98 235.38 -135.06 237.25 C-133.98 237.96 -132.9 238.66 -131.79 239.39 C-129 241 -129 241 -127 241 C-127 238.36 -127 235.72 -127 233 C-127.66 233 -128.32 233 -129 233 C-128.97 232.43 -128.94 231.85 -128.9 231.26 C-129.01 223.13 -132.07 216.92 -135.67 209.82 C-138 205.23 -139.78 200.99 -141 196 C-141.1 195.68 -141.1 195.68 -141.61 194.06 C-143.44 184.39 -142.87 172.05 -139 163 C-138.01 162.34 -137.02 161.68 -136 161 C-135.59 161.7 -135.18 162.4 -134.75 163.12 C-127.35 175.28 -127.35 175.28 -121 178 C-120.01 177.34 -119.02 176.68 -118 176 C-117.5 170.91 -118.46 166.89 -120 162.06 C-124.21 147.55 -122.79 133.07 -115.94 119.56 C-112.5 113.47 -108.41 108.02 -104.04 102.58 C-102 100 -102 100 -101 98 C-100.34 98 -99.68 98 -99 98 C-98.87 97.57 -98.87 97.57 -98.19 95.38 C-97 92 -97 92 -95.5 89.12 C-91.72 81.25 -91.83 74.05 -92.17 65.54 C-92.18 64.72 -92.2 63.91 -92.22 63.07 C-92.24 62.7 -92.24 62.7 -92.31 60.84 C-92.26 60.54 -92.26 60.54 -92 59 C-91.01 58.34 -90.02 57.68 -89 57 C-78.36 64.29 -72.76 72.73 -69 85 C-63.28 83.02 -60.36 79.95 -57 75 C-54.16 67.63 -53.39 59.87 -52.62 52.06 C-51.12 38.78 -48.09 29.14 -39 19 C-38.44 18.37 -37.89 17.75 -37.31 17.1 C-29.21 8.51 -12.43 -3.77 0 0 Z " fill="#FAEDE7" transform="translate(203,49)"/>
<path d="M0 0 C1.32 0 2.64 0 4 0 C14.4 18.28 13.29 41.14 13.12 61.5 C13.11 63.69 13.11 65.88 13.1 68.07 C13.08 73.38 13.04 78.69 13 84 C14.32 84.33 15.64 84.66 17 85 C17.2 88.72 17.15 89.77 15 93 C15.33 93.66 15.66 94.32 16 95 C16.62 100.92 15.86 104.73 13 110 C12.31 113.88 12.31 113.88 12 117 C10.85 117.16 10.85 117.16 5 118 C4.88 119.18 4.75 120.35 4.62 121.56 C4.29 124.32 3.81 126.63 3 129.31 C1.89 133.39 1.54 137.25 1.25 141.45 C1.03 143.74 0.62 145.8 0 148 C1.18 147.94 2.35 147.88 3.56 147.81 C8.11 147.82 11.03 148.78 15 151 C17.3 154.36 17.38 157.69 17.62 161.69 C17.66 162.27 17.66 162.27 17.85 165.2 C18 168 18 168 18 169 C19.96 167.38 20.91 166.47 21.4 163.94 C21.33 157.08 20.33 150.48 18 144 C17.34 143.67 16.68 143.34 16 143 C16 142.34 16 141.68 16 141 C15.01 140.67 14.02 140.34 13 140 C13 136.04 13 132.08 13 128 C16.33 126.34 19.64 126.65 23.19 127.56 C27.36 130.87 28.13 136.55 29.27 141.48 C30.29 144.99 31.64 148.36 33 151.75 C33.26 152.4 33.52 153.05 33.79 153.72 C34.84 156.29 35.91 158.82 37.2 161.29 C38.52 164.11 37.79 166.02 37 169 C35.77 172.05 34.39 175.02 33 178 C32.5 179.2 32.01 180.39 31.5 181.62 C30 185 30 185 27.93 188.13 C25.43 192.47 25.47 196.4 25.62 201.31 C25.63 201.73 25.63 201.73 25.66 203.85 C25.79 209.03 26.23 213.97 27.56 218.99 C28.08 221.39 28.13 223.56 28 226 C27 227 27 227 24.59 227.12 C24.05 227.12 24.05 227.12 21.32 227.12 C20.08 227.13 18.83 227.13 17.55 227.13 C16.16 227.13 14.76 227.12 13.36 227.12 C11.9 227.12 10.43 227.12 8.96 227.12 C4.9 227.13 0.84 227.12 -3.21 227.12 C-7.58 227.11 -11.95 227.11 -16.32 227.11 C-23.89 227.11 -31.46 227.11 -39.04 227.11 C-49.99 227.1 -60.94 227.1 -71.88 227.09 C-89.65 227.09 -107.41 227.08 -125.18 227.08 C-142.44 227.07 -159.7 227.06 -176.96 227.05 C-178.02 227.05 -179.08 227.05 -180.18 227.05 C-185.51 227.05 -190.84 227.05 -196.18 227.05 C-240.45 227.04 -284.73 227.02 -329 227 C-330.75 223.77 -331.2 222.44 -330.15 218.88 C-327.89 209.98 -326.52 197.03 -331.25 188.81 C-332.16 187.54 -333.08 186.27 -334 185 C-334.75 183.43 -335.45 181.85 -336.12 180.25 C-337.2 177.73 -338.19 175.72 -339.75 173.44 C-341.55 169.94 -341.63 166.8 -341 163 C-339.89 159.89 -338.45 156.97 -337 154 C-334.61 148.69 -333.63 144.04 -333.41 138.2 C-332.91 135.52 -332.11 134.67 -330 133 C-327.13 131.49 -325.5 130.95 -322.25 131.25 C-320 132 -320 132 -319 134 C-318.77 136.86 -318.58 139.2 -319 142 C-320.31 143.36 -321.65 144.69 -323 146 C-326.53 153.85 -327.25 162.4 -325 170.69 C-324.67 171.45 -324.34 172.21 -324 173 C-325.32 172.67 -326.64 172.34 -328 172 C-329.5 163.49 -329.78 153.95 -326 146 C-325.48 145.42 -324.97 144.85 -324.44 144.25 C-322.22 140.78 -322.25 137.05 -322 133 C-323.31 133.48 -324.63 133.96 -325.94 134.44 C-326.67 134.7 -327.4 134.97 -328.15 135.25 C-330 136 -330 136 -331 137 C-331.13 138.79 -331.23 140.58 -331.31 142.38 C-331.84 149.48 -333.78 155.8 -337.11 162.1 C-338.53 165.14 -338.29 167.7 -338 171 C-336.69 173.44 -336.69 173.44 -335 176 C-334.52 177.26 -334.06 178.53 -333.62 179.81 C-332.59 182.81 -331.32 184.99 -329.43 187.52 C-326.07 192.79 -326.37 197.85 -326.56 203.94 C-326.57 204.97 -326.57 206 -326.58 207.07 C-326.68 213.53 -327.55 218.47 -329 225 C-211.85 225 -94.7 225 26 225 C25.01 220.71 24.02 216.42 23 212 C22.67 208.33 22.43 204.91 22.44 201.25 C22.44 200.34 22.44 199.43 22.44 198.49 C22.59 192.45 23.41 188.5 27.48 183.84 C29.69 181.16 30.39 178.29 31.34 174.99 C32 173 32 173 33.69 170.38 C35.52 167.07 35.4 164.72 35 161 C34.03 159.32 33.02 157.65 32 156 C28.55 148.81 25.51 141.87 24.52 133.89 C24 132 24 132 21 130 C18.31 129.88 18.31 129.88 16 130 C15.12 133.06 15.12 133.06 15 137 C16.16 138.67 16.16 138.67 17.75 140.31 C24.19 147.07 24.33 155.27 24.2 164.21 C24 167 24 167 23 170 C22.01 170 21.02 170 20 170 C19.88 170.32 19.88 170.32 19.25 171.94 C18 174 18 174 16 174.81 C14 175 14 175 12 174 C12.32 173.15 12.64 172.29 12.97 171.41 C14.02 167.92 14.37 165.01 14.44 161.38 C14.48 160.27 14.52 159.16 14.56 158.02 C14 155 14 155 11.73 152.63 C7.69 150.22 5.64 150.48 1 151 C-0.7 152.05 -0.7 152.05 -2 154 C-2.38 156.63 -2.6 159.05 -2.69 161.69 C-2.72 162.39 -2.76 163.09 -2.79 163.81 C-2.87 165.54 -2.94 167.27 -3 169 C-2.34 169 -1.68 169 -1 169 C-0.38 171.38 -0.38 171.38 0 174 C-2.95 176.95 -5.96 177.09 -10 178 C-10.2 176.25 -10.38 174.5 -10.56 172.75 C-10.67 171.78 -10.77 170.8 -10.88 169.8 C-10.99 167.21 -10.71 165.45 -10 163 C-10.02 162.63 -10.02 162.63 -10.12 160.75 C-9.95 156.83 -8.46 153.61 -7 150 C-6.67 149.01 -6.34 148.02 -6 147 C-5.76 146.78 -5.76 146.78 -4.53 145.66 C-2.43 143.38 -2.18 141.4 -1.56 138.38 C-1.32 137.23 -1.08 136.09 -0.83 134.92 C-0.7 134.3 -0.57 133.67 -0.44 133.03 C0.38 129.24 1.29 125.46 2.19 121.69 C2.54 120.21 2.88 118.74 3.23 117.26 C3.48 116.19 3.74 115.11 4 114 C4.66 114 5.32 114 6 114 C6 114.66 6 115.32 6 116 C7.32 115.67 8.64 115.34 10 115 C9.97 114.44 9.97 114.44 9.81 111.62 C9.87 110.43 9.94 109.23 10 108 C10.5 107.67 10.5 107.67 13 106 C13.29 102.74 13.29 102.74 13.19 98.88 C13.16 97.59 13.13 96.31 13.11 94.99 C13.07 94 13.04 93.02 13 92 C12.34 92 11.68 92 11 92 C11 91.34 11 90.68 11 90 C11.5 89.84 11.5 89.84 14 89 C14.33 88.01 14.66 87.02 15 86 C13.68 86 12.36 86 11 86 C11 85.69 11 85.69 10.98 84.12 C10.92 77.54 10.83 70.97 10.74 64.4 C10.7 61.96 10.68 59.52 10.65 57.08 C10.27 16.82 10.27 16.82 3 3 C2.34 2.67 1.68 2.34 1 2 C0.79 8.74 1.02 14.96 2.42 21.56 C6.84 42.64 5.35 64.59 5 86 C4.36 86.1 3.72 86.21 3.06 86.31 C2.72 86.43 2.72 86.43 1 87 C0.67 87.99 0.34 88.98 0 90 C1.32 90 2.64 90 4 90 C4 90.99 4 91.98 4 93 C3.36 93.52 2.72 94.03 2.06 94.56 C-0.28 97.34 -0.24 98.02 -0.38 101.5 C-0.74 108.13 -3.8 113.3 -7 119 C-8 116 -8 116 -7.29 114.16 C-6.93 113.47 -6.56 112.78 -6.19 112.06 C-3.92 107.32 -3.15 102.79 -2.49 97.6 C-2 95 -2 95 0 92 C-0.33 91.67 -0.66 91.34 -1 91 C-1.25 88.62 -1.25 88.62 -1 86 C-0.51 85.62 -0.01 85.25 0.5 84.86 C2.93 81.85 2.39 78.37 2.33 74.67 C2.33 73.84 2.32 73.01 2.32 72.16 C2.32 70.4 2.3 68.64 2.28 66.88 C2.25 64.24 2.24 61.59 2.23 58.95 C2.18 46.45 2.07 33.96 -0.56 21.69 C-3.55 6.88 -3.55 6.88 0 0 Z M-7 170 C-7 170.66 -7 171.32 -7 172 C-6.01 171.67 -5.02 171.34 -4 171 C-4.99 170.67 -5.98 170.34 -7 170 Z " fill="#EAE7E4" transform="translate(354,160)"/>
<path d="M0 0 C3.43 2.5 6.44 5.12 8.62 8.79 C8.95 11.74 8.95 11.74 8.87 14.92 C8.86 15.97 8.84 17.03 8.82 18.11 C8.62 20.79 8.62 20.79 7.62 22.79 C8.61 23.12 9.6 23.45 10.62 23.79 C10.16 28.5 9.59 32.03 6.62 35.79 C5.63 35.79 4.64 35.79 3.62 35.79 C3.52 36.43 3.52 36.43 3 39.67 C2.94 40.03 2.94 40.03 2.64 41.85 C2.64 42.49 2.63 43.13 2.62 43.79 C3.28 44.45 3.94 45.11 4.62 45.79 C4.29 46.78 3.96 47.77 3.62 48.79 C3.29 48.13 2.96 47.47 2.62 46.79 C2.37 47.68 2.13 48.56 1.87 49.48 C0.56 52.96 -0.96 55.05 -3.38 57.86 C-6.14 61.07 -8 63.77 -9.38 67.79 C-9.71 67.79 -10.04 67.79 -10.38 67.79 C-10.54 66.53 -10.71 65.28 -10.88 63.98 C-12.07 58.46 -15.08 54.9 -18.47 50.5 C-22.31 45.05 -23.89 39.46 -23.38 32.79 C-24.37 32.46 -25.36 32.13 -26.38 31.79 C-27.58 29.39 -27.48 27.84 -27.44 25.17 C-27.43 24.35 -27.42 23.53 -27.41 22.69 C-27.4 22.06 -27.39 21.44 -27.38 20.79 C-26.39 20.46 -25.4 20.13 -24.38 19.79 C-24.71 19.13 -25.04 18.47 -25.38 17.79 C-25.99 11.93 -25.34 8.34 -21.91 3.49 C-16.74 -2.24 -6.78 -3.44 0 0 Z " fill="#462E13" transform="translate(233.37890625,251.20703125)"/>
<path d="M0 0 C0.99 0.33 1.98 0.66 3 1 C2.67 2.65 2.34 4.3 2 6 C3.32 6.66 4.64 7.32 6 8 C5.42 12.37 3.79 15.38 1.5 19.12 C-1.91 24.73 -1.91 24.73 -3 28 C-2.34 28.33 -1.68 28.66 -1 29 C-0.67 27.35 -0.34 25.7 0 24 C1.65 23.67 3.3 23.34 5 23 C5.33 20.69 5.66 18.38 6 16 C6.33 16 6.66 16 7 16 C7.2 22.05 7.2 22.05 7 24 C6.34 24.66 5.68 25.32 5 26 C3.68 26 2.36 26 1 26 C0.63 27.21 0.25 28.41 -0.13 29.66 C-2.29 36.12 -5.07 42.29 -7.88 48.5 C-8.39 49.69 -8.91 50.88 -9.44 52.11 C-9.7 52.67 -9.7 52.67 -10.99 55.53 C-11.45 56.56 -11.91 57.58 -12.38 58.64 C-14 61 -14 61 -16.51 61.95 C-20.28 62.03 -21.97 60.26 -24.88 57.94 C-25.14 57.73 -25.14 57.73 -26.46 56.69 C-30.4 53.57 -34.24 50.33 -38 47 C-37.52 42.67 -34.96 40.63 -31.94 37.69 C-31.69 37.44 -31.69 37.44 -30.43 36.21 C-27.07 32.96 -23.61 29.87 -20.06 26.83 C-15.86 23.1 -11.74 19.2 -8 15 C-8 14.34 -8 13.68 -8 13 C-8.99 12.67 -9.98 12.34 -11 12 C-9.58 8.57 -7.97 6.98 -4.94 4.88 C-1.1 2.19 -1.1 2.19 0 0 Z " fill="#54300C" transform="translate(149,223)"/>
<path d="M0 0 C2 2 2 2 2.22 4.29 C1.85 11.1 0.25 16.11 -2.85 22.15 C-6.37 29.28 -8.78 36.78 -11.25 44.31 C-11.36 44.64 -11.36 44.64 -11.9 46.28 C-14.38 53.82 -16.77 61.38 -19 69 C-19.66 69 -20.32 69 -21 69 C-21.16 69.33 -21.16 69.33 -22 71 C-24.36 73.88 -25.56 74.9 -29.25 75.75 C-30.16 75.83 -31.07 75.92 -32 76 C-32 75.34 -32 74.68 -32 74 C-32.66 74 -33.32 74 -34 74 C-32 77 -32 77 -29 78 C-29 78.99 -29 79.98 -29 81 C-29.49 81.16 -29.49 81.16 -32 82 C-33.05 84.76 -33.12 87.4 -33.1 90.33 C-33.09 91.13 -33.09 91.93 -33.09 92.75 C-33.08 93.57 -33.07 94.4 -33.06 95.25 C-33.06 96.09 -33.05 96.93 -33.05 97.8 C-33.04 99.86 -33.02 101.93 -33 104 C-31.68 104.33 -30.36 104.66 -29 105 C-28.67 103.35 -28.34 101.7 -28 100 C-23.14 104.17 -20.55 111.4 -19.6 117.61 C-19.49 119.11 -19.4 120.6 -19.3 122.09 C-18.81 125.19 -17.23 126.9 -15 129 C-14.01 129.33 -13.02 129.66 -12 130 C-9.77 132.9 -8.19 135.34 -7.19 138.88 C-5.73 142.71 -3.55 145.02 -0.75 147.97 C3.45 152.83 4.43 156.57 4.29 162.93 C4.29 163.67 4.28 164.42 4.28 165.19 C4.26 167.57 4.23 169.94 4.19 172.31 C4.17 173.93 4.16 175.54 4.15 177.16 C4.11 181.11 4.06 185.05 4 189 C3.34 188.67 2.68 188.34 2 188 C1.53 186.58 1.12 185.14 0.75 183.69 C-0.39 180.03 -0.86 179.12 -3.94 176.56 C-4.95 176.05 -5.96 175.53 -7 175 C-7.78 174.59 -8.57 174.18 -9.38 173.75 C-9.91 173.5 -10.45 173.25 -11 173 C-11 172.34 -11 171.68 -11 171 C-11.66 171 -12.32 171 -13 171 C-12.45 167.63 -11.95 165.92 -10 163 C-9.7 160.44 -9.7 160.44 -9.69 157.56 C-9.67 156.62 -9.65 155.67 -9.64 154.69 C-10.06 151.53 -10.72 150.22 -13 148 C-15.26 147.17 -15.26 147.17 -17.69 146.75 C-18.5 146.6 -19.3 146.45 -20.14 146.3 C-20.44 146.25 -20.44 146.25 -22 146 C-20.22 144.94 -20.22 144.94 -18 144 C-13.76 145.21 -11.68 146.32 -8.56 149.44 C-6.34 154.51 -6.12 159.54 -7 165 C-8.53 166.86 -8.53 166.86 -10 168 C-8.83 171.5 -8.13 171.82 -5.06 173.62 C-4.71 173.84 -4.71 173.84 -2.91 174.91 C-1.63 175.64 -0.32 176.34 1 177 C2.48 155.26 2.48 155.26 -2.81 148.88 C-4.18 147.55 -5.57 146.26 -7 145 C-9.19 142.4 -10.38 140.26 -11.31 137 C-12.79 132.72 -15.09 131.26 -19 129 C-19 128.34 -19 127.68 -19 127 C-19.66 127 -20.32 127 -21 127 C-21.08 125.7 -21.16 124.4 -21.25 123.06 C-21.73 118.53 -23.12 114.99 -25.16 110.95 C-26 109 -26 109 -26 106 C-27.28 106.04 -28.56 106.08 -29.88 106.12 C-32.05 106.2 -32.05 106.2 -34 106 C-36 104 -36 104 -36.06 100.81 C-36.04 99.55 -36.02 98.3 -36 97 C-36.21 95.87 -36.41 94.73 -36.62 93.56 C-37.21 88.05 -36.12 83.67 -33 79 C-33.99 78.34 -34.98 77.68 -36 77 C-35.67 75.35 -35.34 73.7 -35 72 C-34.06 71.79 -33.12 71.59 -32.15 71.37 C-29 70 -29 70 -27.59 67.38 C-27.28 66.28 -26.97 65.19 -26.66 64.06 C-26.48 63.45 -26.48 63.45 -25.58 60.38 C-25.4 59.73 -25.23 59.09 -25.04 58.43 C-24.5 56.42 -23.92 54.43 -23.33 52.44 C-22.56 49.81 -21.8 47.18 -21.04 44.55 C-16.62 29.47 -11.07 13.96 -2 1 C-1.34 0.67 -0.68 0.34 0 0 Z " fill="#4A3421" transform="translate(63,165)"/>
<path d="M0 0 C0.99 2.98 1.02 4.21 0.66 7.23 C0.57 8.03 0.47 8.84 0.38 9.66 C0.27 10.5 0.17 11.33 0.06 12.19 C-0.04 13.03 -0.14 13.88 -0.24 14.75 C-0.49 16.83 -0.74 18.92 -1 21 C-2.32 20.67 -3.64 20.34 -5 20 C-5 18.68 -5 17.36 -5 16 C-5.66 16 -6.32 16 -7 16 C-7.03 16.38 -7.03 16.38 -7.19 18.31 C-7.46 19.2 -7.72 20.09 -8 21 C-8.8 21.41 -9.61 21.82 -10.44 22.25 C-13.5 24.34 -13.56 25.17 -14.31 28.69 C-14.56 30.12 -14.8 31.56 -15 33 C-15.66 33 -16.32 33 -17 33 C-17 33.66 -17 34.32 -17 35 C-16.34 35 -15.68 35 -15 35 C-15 48.86 -15 62.72 -15 77 C-15.99 77 -16.98 77 -18 77 C-18 80.63 -18 84.26 -18 88 C-22.81 87.23 -25.37 86.13 -28.56 82.38 C-30.2 79.99 -30.99 78.63 -31.03 75.73 C-30.56 73.56 -30.56 73.56 -29 70 C-28.5 69.84 -28.5 69.84 -26 69 C-23.68 65.22 -22.61 62.44 -23 58 C-23.66 57.67 -24.32 57.34 -25 57 C-24.94 56.06 -24.88 55.12 -24.82 54.15 C-24.41 42.71 -24.41 42.71 -27.19 39.31 C-29.71 37.24 -32.1 35.49 -35 34 C-34.67 32.68 -34.34 31.36 -34 30 C-33.34 29.96 -32.68 29.92 -32 29.88 C-18.95 26.07 -8.07 10.32 0 0 Z " fill="#E47E18" transform="translate(266,217)"/>
<path d="M0 0 C6.27 0 12.54 0 19 0 C19 9 19 9 18 13 C18.27 15.01 18.59 17.01 19 19 C19.99 19.33 20.98 19.66 22 20 C22.33 21.98 22.66 23.96 23 26 C18.89 29.52 15.53 32 10 32 C9.72 31.71 9.72 31.71 8.31 30.25 C5.26 27.28 1.85 25.75 -2 24 C-2 23.34 -2 22.68 -2 22 C-2.66 22 -3.32 22 -4 22 C-3.62 19.06 -3.62 19.06 -3 16 C-2.34 15.67 -1.68 15.34 -1 15 C0.05 9.85 0 5.34 0 0 Z " fill="#855320" transform="translate(282,294)"/>
<path d="M0 0 C0 0.66 0 1.32 0 2 C-2.36 3.87 -4.73 5.64 -7.19 7.38 C-19.68 16.32 -19.68 16.32 -20.95 19.04 C-22.53 21.99 -24.84 22.87 -27.75 24.44 C-38.89 30.69 -38.89 30.69 -40.88 34.81 C-40.92 35.53 -40.96 36.26 -41 37 C-41.04 37.62 -41.04 37.62 -41.25 40.75 C-41.18 45.39 -40.05 48.84 -38 53 C-36.05 53.79 -36.05 53.79 -34 54 C-29.78 52.15 -28.1 50.02 -26 46 C-25.36 43.92 -24.8 41.81 -24.31 39.69 C-24.06 38.62 -23.81 37.55 -23.55 36.45 C-23.37 35.64 -23.19 34.83 -23 34 C-22.34 33.84 -22.34 33.84 -19 33 C-6.44 50.41 2.82 66.81 -0.46 89.11 C-0.91 91.42 -1.41 93.71 -2 96 C4.72 93.5 7.06 89.12 9.98 82.92 C10.68 81.3 11.35 79.65 12 78 C13.32 78 14.64 78 16 78 C19.86 86.85 21.48 94.66 21.44 104.31 C21.43 105.22 21.43 106.12 21.43 107.06 C21.3 113.21 20.4 119.01 19 125 C20.65 125.66 22.3 126.32 24 127 C23.67 129.31 23.34 131.62 23 134 C22.34 134 21.68 134 21 134 C20.67 132.02 20.34 130.04 20 128 C18.35 128 16.7 128 15 128 C15.43 124.52 15.9 121.3 17.02 117.97 C18.5 112.91 18.33 107.79 18.31 102.56 C18.33 101.56 18.34 100.57 18.36 99.54 C18.37 93.26 17.46 88.76 15 83 C15 82.01 15 81.02 15 80 C14.34 80 13.68 80 13 80 C12.86 80.56 12.73 81.11 12.59 81.69 C10.46 89.23 6.55 94.63 0 99 C-2.69 98.62 -2.69 98.62 -5 98 C-4.84 96.93 -4.68 95.85 -4.52 94.75 C-3.83 89.19 -3.78 83.65 -3.75 78.06 C-3.73 77.03 -3.71 76 -3.69 74.93 C-3.65 68.37 -4.45 63.05 -7 57 C-7.36 56.12 -7.73 55.23 -8.11 54.32 C-16.2 37.9 -16.2 37.9 -22 35 C-21.97 35.5 -21.97 35.5 -21.81 38 C-21.83 44.65 -24.48 50.19 -29 55 C-32.09 56.55 -34.59 56.29 -38 56 C-41.03 53.95 -41.89 52.27 -43.25 48.88 C-44.32 43.33 -45.29 37.69 -42.79 32.46 C-40.81 29.74 -38.76 27.89 -36.12 25.81 C-35.7 25.48 -35.7 25.48 -33.57 23.77 C-31 22 -31 22 -28.3 21.01 C-26 20 -26 20 -25.1 18.18 C-23.41 14.83 -20.41 13.18 -17.38 11.12 C-16.11 10.25 -14.84 9.37 -13.57 8.48 C-12.96 8.06 -12.34 7.64 -11.71 7.2 C-8.88 5.22 -6.17 3.1 -3.45 0.96 C-2 0 -2 0 0 0 Z " fill="#F8E4DB" transform="translate(295,135)"/>
<path d="M0 0 C0.66 0 1.32 0 2 0 C3.46 4.29 4.91 8.56 6.06 12.94 C7 16 7 16 9 18 C9.98 20.58 10.86 23.12 11.69 25.75 C11.93 26.45 12.16 27.16 12.41 27.88 C12.63 28.58 12.85 29.27 13.07 29.98 C13.28 30.61 13.48 31.24 13.69 31.88 C14 34 14 34 13 40 C27.52 40 42.04 40 57 40 C55 28 55 28 54 26 C53.96 24 53.96 22 54 20 C53.34 20 52.68 20 52 20 C52 14.72 52 9.44 52 4 C56.98 8.98 57.12 13.65 57.12 20.44 C57.09 22.29 57.05 24.15 57 26 C57.99 26 58.98 26 60 26 C62.28 31.57 62 34.36 62 41 C43.52 41 25.04 41 6 41 C4.35 33.08 2.7 25.16 1 17 C0.67 16.34 0.34 15.68 0 15 C-0.07 12.45 -0.09 9.93 -0.06 7.38 C-0.06 6.67 -0.05 5.96 -0.05 5.23 C-0.04 3.49 -0.02 1.74 0 0 Z " fill="#613E1B" transform="translate(116,344)"/>
<path d="M0 0 C0.99 0 1.98 0 3 0 C3.04 0.31 3.04 0.31 3.25 1.88 C3.5 2.58 3.75 3.28 4 4 C4.64 4.29 5.28 4.58 5.94 4.88 C8 6 8 6 9.31 8.69 C10.1 12.49 9.57 15.17 9 19 C8.56 30.01 9.3 41.01 10 52 C10.99 52 11.98 52 13 52 C13.66 50.02 14.32 48.04 15 46 C16 49 16 49 15.31 50.94 C14 53 14 53 12 54.56 C9.25 57.92 9.19 61.09 8.56 65.31 C7.82 68.85 6.17 71.15 4 74 C3.67 74.87 3.34 75.73 3 76.62 C1.82 79.43 0.17 80.9 -2 83 C-2.33 83.99 -2.66 84.98 -3 86 C-3.99 86.16 -3.99 86.16 -9 87 C-10.21 83.38 -9.54 82.36 -8 79 C-7.34 79 -6.68 79 -6 79 C-6.33 73.06 -6.66 67.12 -7 61 C-2.71 61 1.58 61 6 61 C6 46.15 6 31.3 6 16 C6.66 16 7.32 16 8 16 C7.57 14.56 7.13 13.12 6.69 11.69 C6.44 10.89 6.2 10.09 5.95 9.26 C5 7 5 7 3.39 5.39 C2.93 4.93 2.47 4.47 2 4 C2 3.01 2 2.02 2 1 C1.34 0.67 0.68 0.34 0 0 Z " fill="#805426" transform="translate(330,233)"/>
<path d="M0 0 C1.2 3.48 0.78 5.7 -0.21 9.2 C-0.49 10.18 -0.76 11.16 -1.04 12.17 C-1.34 13.19 -1.63 14.2 -1.94 15.25 C-2.23 16.28 -2.52 17.31 -2.82 18.38 C-3.54 20.92 -4.26 23.46 -5 26 C-6.98 26 -8.96 26 -11 26 C-10.67 26.99 -10.34 27.98 -10 29 C-9.01 29.33 -8.02 29.66 -7 30 C-7 30.99 -7 31.98 -7 33 C-7.49 33.16 -7.49 33.16 -10 34 C-11.05 36.76 -11.12 39.4 -11.1 42.33 C-11.09 43.13 -11.09 43.93 -11.09 44.75 C-11.08 45.57 -11.07 46.4 -11.06 47.25 C-11.06 48.09 -11.05 48.93 -11.05 49.8 C-11.04 51.86 -11.02 53.93 -11 56 C-9.68 56.33 -8.36 56.66 -7 57 C-6.67 55.35 -6.34 53.7 -6 52 C-1.14 56.17 1.45 63.4 2.4 69.61 C2.51 71.11 2.6 72.6 2.7 74.09 C3.19 77.19 4.77 78.9 7 81 C7.49 81.16 7.49 81.16 10 82 C12.23 84.9 13.81 87.34 14.81 90.88 C16.27 94.71 18.45 97.02 21.25 99.97 C25.45 104.83 26.43 108.57 26.29 114.93 C26.29 115.67 26.28 116.42 26.28 117.19 C26.26 119.57 26.23 121.94 26.19 124.31 C26.17 125.93 26.16 127.54 26.15 129.16 C26.11 133.11 26.06 137.05 26 141 C25.34 140.67 24.68 140.34 24 140 C23.53 138.58 23.12 137.14 22.75 135.69 C21.61 132.03 21.14 131.12 18.06 128.56 C17.05 128.05 16.04 127.53 15 127 C14.22 126.59 13.43 126.18 12.62 125.75 C12.09 125.5 11.55 125.25 11 125 C11 124.34 11 123.68 11 123 C10.34 123 9.68 123 9 123 C9.55 119.63 10.05 117.92 12 115 C12.3 112.44 12.3 112.44 12.31 109.56 C12.33 108.62 12.35 107.67 12.36 106.69 C11.94 103.53 11.28 102.22 9 100 C6.74 99.17 6.74 99.17 4.31 98.75 C3.5 98.6 2.7 98.45 1.86 98.3 C1.25 98.2 0.63 98.1 0 98 C1.78 96.94 1.78 96.94 4 96 C8.24 97.21 10.32 98.32 13.44 101.44 C15.66 106.51 15.88 111.54 15 117 C13.47 118.86 13.47 118.86 12 120 C13.17 123.5 13.87 123.82 16.94 125.62 C17.65 126.05 18.36 126.48 19.09 126.91 C20.37 127.64 21.68 128.34 23 129 C24.48 107.26 24.48 107.26 19.19 100.88 C17.82 99.55 16.43 98.26 15 97 C12.81 94.4 11.62 92.26 10.69 89 C9.21 84.72 6.91 83.26 3 81 C3 80.34 3 79.68 3 79 C2.34 79 1.68 79 1 79 C0.92 77.7 0.84 76.4 0.75 75.06 C0.27 70.53 -1.12 66.99 -3.16 62.95 C-4 61 -4 61 -4 58 C-5.28 58.04 -6.56 58.08 -7.88 58.12 C-10.05 58.2 -10.05 58.2 -12 58 C-14 56 -14 56 -14.06 52.81 C-14.04 51.55 -14.02 50.3 -14 49 C-14.21 47.87 -14.41 46.73 -14.62 45.56 C-15.21 40.05 -14.12 35.67 -11 31 C-11.99 30.34 -12.98 29.68 -14 29 C-13.67 27.35 -13.34 25.7 -13 24 C-12.09 23.9 -11.18 23.8 -10.24 23.7 C-6.42 21.7 -6.25 20.93 -4.88 16.99 C-4.27 14.96 -3.69 12.92 -3.12 10.88 C-2.82 9.83 -2.51 8.79 -2.2 7.72 C-1.44 5.15 -0.71 2.58 0 0 Z " fill="#E8E6E5" transform="translate(41,213)"/>
<path d="M0 0 C-4.56 5.04 -9.97 8.62 -15.56 12.44 C-17.64 13.87 -19.72 15.3 -21.79 16.73 C-22.84 17.45 -23.88 18.16 -24.95 18.9 C-29.44 21.99 -33.91 25.12 -38.38 28.25 C-39.19 28.82 -40 29.39 -40.84 29.98 C-44.76 32.72 -48.66 35.47 -52.57 38.22 C-53.3 38.74 -54.03 39.25 -54.78 39.79 C-56.2 40.79 -57.61 41.79 -59.02 42.8 C-62.29 45.12 -65.58 47.39 -68.95 49.57 C-69.56 49.97 -70.17 50.37 -70.8 50.79 C-72.44 51.86 -74.1 52.91 -75.75 53.96 C-78 56 -78 56 -78.34 58.75 C-78.23 59.5 -78.12 60.24 -78 61 C-78.33 61.16 -78.33 61.16 -80 62 C-81.45 53.8 -81.45 53.8 -79.69 50.69 C-79.13 50.13 -78.57 49.57 -78 49 C-77.3 47.68 -76.63 46.35 -76 45 C-75.01 45 -74.02 45 -73 45 C-69.08 44.44 -66.5 42.45 -63.31 40.19 C-62.75 39.79 -62.19 39.39 -61.61 38.98 C-60.38 38.12 -59.15 37.25 -57.93 36.37 C-55.98 34.99 -54.03 33.61 -52.07 32.23 C-49.25 30.24 -46.43 28.24 -43.61 26.25 C-37.81 22.16 -32.01 18.08 -26.19 14.03 C-22.45 11.43 -18.73 8.81 -15.05 6.11 C-14.47 5.69 -13.88 5.26 -13.27 4.82 C-11.75 3.72 -10.24 2.6 -8.73 1.48 C-5.57 -0.23 -3.54 -0.3 0 0 Z " fill="#36240D" transform="translate(258,147)"/>
<path d="M0 0 C1.6 3.19 1.52 6.54 1 10 C-0.31 11.36 -1.65 12.69 -3 14 C-6.53 21.85 -7.25 30.4 -5 38.69 C-4.67 39.45 -4.34 40.21 -4 41 C-5.32 40.67 -6.64 40.34 -8 40 C-9.5 31.49 -9.78 21.95 -6 14 C-5.48 13.42 -4.97 12.85 -4.44 12.25 C-2.22 8.78 -2.25 5.05 -2 1 C-3.31 1.48 -4.63 1.96 -5.94 2.44 C-6.67 2.7 -7.4 2.97 -8.15 3.25 C-10 4 -10 4 -11 5 C-11.13 6.79 -11.23 8.58 -11.31 10.38 C-11.84 17.48 -13.78 23.8 -17.11 30.1 C-18.53 33.14 -18.29 35.7 -18 39 C-16.69 41.44 -16.69 41.44 -15 44 C-14.52 45.26 -14.06 46.53 -13.62 47.81 C-12.59 50.81 -11.32 52.99 -9.43 55.52 C-6.07 60.79 -6.37 65.85 -6.56 71.94 C-6.57 72.97 -6.57 74 -6.58 75.07 C-6.68 81.53 -7.55 86.47 -9 93 C2.88 93 14.76 93 27 93 C27 93.33 27 93.66 27 94 C18.91 94.9 10.94 95.12 2.81 95.06 C2.24 95.06 2.24 95.06 -0.65 95.05 C-3.43 95.04 -6.22 95.02 -9 95 C-10.31 92.83 -11.06 91.56 -10.77 88.99 C-10.67 88.64 -10.67 88.64 -10.15 86.88 C-7.89 77.98 -6.52 65.03 -11.25 56.81 C-12.16 55.54 -13.08 54.27 -14 53 C-14.75 51.43 -15.45 49.85 -16.12 48.25 C-17.2 45.73 -18.19 43.72 -19.75 41.44 C-21.55 37.94 -21.63 34.8 -21 31 C-19.89 27.89 -18.45 24.97 -17 22 C-14.61 16.69 -13.63 12.04 -13.41 6.2 C-12.91 3.52 -12.11 2.67 -10 1 C-6.32 -0.94 -3.98 -1.33 0 0 Z " fill="#EDEBE9" transform="translate(34,292)"/>
<path d="M0 0 C0.99 0 1.98 0 3 0 C3.66 1.65 4.32 3.3 5 5 C4.7 5.22 4.7 5.22 3.16 6.33 C-3.99 11.5 -11.06 16.77 -18.11 22.07 C-18.74 22.55 -19.37 23.02 -20.02 23.51 C-21.42 24.56 -22.81 25.63 -24.2 26.7 C-24.91 27.25 -25.63 27.8 -26.36 28.37 C-27.01 28.87 -27.66 29.37 -28.33 29.89 C-30 31 -30 31 -32 31 C-33.69 29.19 -33.69 29.19 -35 27 C-33.6 22.79 -30.56 21.4 -27 19.06 C-25.55 18.09 -24.1 17.11 -22.65 16.14 C-21.89 15.63 -21.14 15.12 -20.35 14.6 C-16.39 11.91 -12.47 9.14 -8.56 6.38 C-8.19 6.11 -8.19 6.11 -6.32 4.8 C-5.64 4.31 -4.96 3.83 -4.25 3.34 C-3.65 2.91 -3.04 2.48 -2.42 2.04 C-1 1 -1 1 0 0 Z " fill="#5E3309" transform="translate(301,117)"/>
<path d="M0 0 C4.74 4.74 4.74 4.74 5.51 8.45 C5 11 5 11 2.45 13.06 C1.35 13.7 0.25 14.34 -0.88 15 C-5.51 17.72 -7.12 19.07 -9 24 C-10.89 26.21 -13.02 28.12 -15.19 30.06 C-15.74 30.58 -16.29 31.1 -16.86 31.63 C-20.66 35.09 -24.5 37.54 -29 40 C-29.91 40.76 -30.81 41.53 -31.75 42.31 C-32.49 42.87 -33.24 43.43 -34 44 C-34.99 43.67 -35.98 43.34 -37 43 C-35.28 41.53 -33.55 40.08 -31.81 38.62 C-31.33 38.22 -31.33 38.22 -28.89 36.16 C-26 34 -26 34 -23.2 32.9 C-22.47 32.6 -21.75 32.31 -21 32 C-20.67 31.01 -20.34 30.02 -20 29 C-17.03 26.81 -14.51 25.17 -11 24 C-11.12 23.27 -11.24 22.55 -11.37 21.8 C-11 19 -11 19 -8.45 16.54 C-7.35 15.74 -6.24 14.96 -5.12 14.19 C-4.85 13.98 -4.85 13.98 -3.44 12.96 C0.68 10 0.68 10 3 10 C-0.45 3.23 -0.45 3.23 -3.25 2.06 C-3.54 2.05 -3.54 2.05 -5 2 C-5.33 2.99 -5.66 3.98 -6 5 C-6.74 4.77 -7.49 4.55 -8.25 4.31 C-11 4 -11 4 -13.31 5.19 C-15 7 -15 7 -15 11 C-17.01 12.82 -17.01 12.82 -19.69 14.56 C-20.56 15.14 -21.43 15.72 -22.32 16.32 C-24.02 17.38 -25.73 18.43 -27.47 19.43 C-30.43 21.26 -33.08 23.34 -35.81 25.5 C-41.51 29.96 -47.39 34.1 -53.39 38.15 C-56.88 40.52 -60.26 42.93 -63.56 45.56 C-66.9 48.15 -69.93 49 -74 50 C-74.33 50.66 -74.66 51.32 -75 52 C-75 50.68 -75 49.36 -75 48 C-74.26 47.66 -73.52 47.32 -72.76 46.97 C-65.18 43.35 -58.68 39.06 -52 34 C-50.34 32.83 -48.67 31.66 -47 30.5 C-40.57 26.02 -34.25 21.38 -27.93 16.75 C-26.94 16.03 -25.95 15.31 -24.94 14.56 C-24.04 13.9 -23.14 13.25 -22.21 12.57 C-20 11 -20 11 -18 10 C-17.71 9.22 -17.42 8.43 -17.12 7.62 C-15.26 3.26 -12.22 1.99 -8 0.25 C-4.93 -0.97 -3.12 -1.22 0 0 Z " fill="#E7E5E3" transform="translate(332,91)"/>
<path d="M0 0 C0.66 0.33 1.32 0.66 2 1 C-6.58 9.58 -15.16 18.16 -24 27 C-20.77 30.23 -17.86 33.05 -14.31 35.81 C-13.93 36.11 -13.93 36.11 -11.99 37.64 C-10 39 -10 39 -8 39 C-7.61 38.22 -7.23 37.44 -6.83 36.63 C-6.31 35.62 -5.79 34.61 -5.25 33.56 C-4.74 32.55 -4.23 31.54 -3.7 30.5 C-2 28 -2 28 0.2 27.15 C0.5 27.13 0.5 27.13 2 27 C2.1 26.24 2.21 25.47 2.31 24.69 C3.04 21.83 3.77 20.84 6 19 C5.05 24.47 2.97 29.19 0.75 34.25 C0.37 35.17 -0.02 36.1 -0.41 37.05 C-0.6 37.49 -0.6 37.49 -1.58 39.7 C-1.92 40.5 -2.27 41.3 -2.62 42.13 C-4 44 -4 44 -6.47 44.87 C-10.29 45.07 -11.94 43.28 -14.88 40.94 C-15.14 40.73 -15.14 40.73 -16.46 39.69 C-20.4 36.57 -24.24 33.33 -28 30 C-27.52 25.67 -24.96 23.63 -21.94 20.69 C-21.44 20.2 -20.94 19.71 -20.43 19.21 C-17.03 15.92 -13.53 12.77 -9.93 9.7 C-6.46 6.63 -3.23 3.31 0 0 Z " fill="#412707" transform="translate(139,240)"/>
<path d="M0 0 C4.17 3.31 4.95 8.99 6.08 13.92 C7.1 17.43 8.45 20.8 9.81 24.19 C10.07 24.84 10.34 25.49 10.6 26.16 C11.66 28.74 12.73 31.28 14.02 33.75 C15.06 35.98 14.62 37.18 13.81 39.44 C13.44 38.55 13.07 37.66 12.69 36.75 C10.64 31.96 8.42 27.25 6.21 22.52 C3.78 17.17 2.37 12.45 1.47 6.64 C0.81 4.44 0.81 4.44 -2.19 2.44 C-4.88 2.31 -4.88 2.31 -7.19 2.44 C-8.06 5.5 -8.06 5.5 -8.19 9.44 C-7.02 11.11 -7.02 11.11 -5.44 12.75 C1 19.5 1.14 27.71 1.02 36.65 C0.81 39.44 0.81 39.44 -0.19 42.44 C-1.18 42.44 -2.17 42.44 -3.19 42.44 C-3.44 43.08 -3.68 43.72 -3.94 44.38 C-5.19 46.44 -5.19 46.44 -7.19 47.25 C-9.19 47.44 -9.19 47.44 -11.19 46.44 C-9.97 42.71 -8.68 39.06 -7.19 35.44 C-6.53 35.44 -5.87 35.44 -5.19 35.44 C-5.19 37.44 -5.19 39.44 -5.19 41.44 C-3.23 39.82 -2.28 38.91 -1.79 36.38 C-1.86 29.52 -2.86 22.92 -5.19 16.44 C-5.85 16.11 -6.51 15.78 -7.19 15.44 C-7.19 14.78 -7.19 14.12 -7.19 13.44 C-8.18 13.11 -9.17 12.78 -10.19 12.44 C-10.19 8.48 -10.19 4.52 -10.19 0.44 C-6.86 -1.23 -3.55 -0.91 0 0 Z " fill="#EDEBEA" transform="translate(377.1875,287.5625)"/>
<path d="M0 0 C0 0.66 0 1.32 0 2 C-2.36 3.87 -4.73 5.64 -7.19 7.38 C-19.68 16.32 -19.68 16.32 -20.95 19.04 C-22.53 21.99 -24.84 22.87 -27.75 24.44 C-38.89 30.69 -38.89 30.69 -40.88 34.81 C-40.92 35.53 -40.96 36.26 -41 37 C-41.04 37.62 -41.04 37.62 -41.25 40.75 C-41.18 45.39 -40.05 48.84 -38 53 C-36.05 53.79 -36.05 53.79 -34 54 C-29.78 52.15 -28.1 50.02 -26 46 C-25.36 43.92 -24.8 41.81 -24.31 39.69 C-24.06 38.62 -23.81 37.55 -23.55 36.45 C-23.37 35.64 -23.19 34.83 -23 34 C-22.34 33.84 -22.34 33.84 -19 33 C-16.94 35.31 -16.94 35.31 -15 38 C-15.33 38.99 -15.66 39.98 -16 41 C-16.62 40.2 -17.24 39.39 -17.88 38.56 C-20 36 -20 36 -22 35 C-21.97 35.5 -21.97 35.5 -21.81 38 C-21.83 44.65 -24.48 50.19 -29 55 C-32.09 56.55 -34.59 56.29 -38 56 C-41.03 53.95 -41.89 52.27 -43.25 48.88 C-44.32 43.33 -45.29 37.69 -42.79 32.46 C-40.81 29.74 -38.76 27.89 -36.12 25.81 C-35.7 25.48 -35.7 25.48 -33.57 23.77 C-31 22 -31 22 -28.3 21.01 C-26 20 -26 20 -25.1 18.18 C-23.41 14.83 -20.41 13.18 -17.38 11.12 C-16.11 10.25 -14.84 9.37 -13.57 8.48 C-12.96 8.06 -12.34 7.64 -11.71 7.2 C-8.88 5.22 -6.17 3.1 -3.45 0.96 C-2 0 -2 0 0 0 Z " fill="#F5ECE9" transform="translate(295,135)"/>
<path d="M0 0 C4.29 0 8.58 0 13 0 C13 4.95 13 9.9 13 15 C13.66 15 14.32 15 15 15 C15.66 16.98 16.32 18.96 17 21 C16.34 21.33 16.34 21.33 13 23 C12.36 22.11 11.72 21.23 11.06 20.31 C7.73 16.26 3.63 14.35 -1 12 C-0.67 8.04 -0.34 4.08 0 0 Z " fill="#7F4E1C" transform="translate(248,294)"/>
<path d="M0 0 C2 2 2 2 2.22 4.29 C1.85 11.1 0.25 16.11 -2.85 22.15 C-6.37 29.28 -8.78 36.78 -11.25 44.31 C-11.46 44.96 -11.68 45.61 -11.9 46.28 C-14.38 53.82 -16.77 61.38 -19 69 C-20.32 64.65 -19.35 61.23 -18.19 56.94 C-17.97 56.13 -17.75 55.31 -17.53 54.48 C-13.4 39.68 -7.64 25.27 -1.77 11.09 C-0.79 8.43 -0.3 5.81 0 3 C-0.66 3 -1.32 3 -2 3 C-2.27 3.7 -2.53 4.39 -2.81 5.11 C-4.1 8.23 -5.57 11.22 -7.06 14.25 C-12.29 25.13 -16.04 36.62 -20 48 C-21.07 44.77 -20.94 42.95 -19.81 39.76 C-19.53 38.95 -19.25 38.14 -18.95 37.3 C-18.64 36.44 -18.32 35.58 -18 34.69 C-17.68 33.8 -17.36 32.91 -17.03 32 C-6.52 3.26 -6.52 3.26 0 0 Z " fill="#E7E5E4" transform="translate(63,165)"/>
<path d="M0 0 C13.86 13 13.86 13 14.11 20.35 C14.11 21.78 14.11 23.2 14.1 24.63 C14.1 25.38 14.09 26.14 14.09 26.91 C14.09 29.32 14.08 31.72 14.06 34.12 C14.06 35.75 14.05 37.38 14.05 39.01 C14.04 43.01 14.02 47 14 51 C13.34 50.67 12.68 50.34 12 50 C11.53 48.58 11.12 47.14 10.75 45.69 C9.61 42.03 9.14 41.12 6.06 38.56 C5.05 38.05 4.04 37.53 3 37 C2.22 36.59 1.43 36.18 0.62 35.75 C0.09 35.5 -0.45 35.25 -1 35 C-1 34.34 -1 33.68 -1 33 C-1.66 33 -2.32 33 -3 33 C-2.45 29.63 -1.95 27.92 0 25 C0.3 22.44 0.3 22.44 0.31 19.56 C0.33 18.62 0.35 17.67 0.36 16.69 C-0.06 13.53 -0.72 12.22 -3 10 C-5.26 9.17 -5.26 9.17 -7.69 8.75 C-8.5 8.6 -9.3 8.45 -10.14 8.3 C-10.75 8.2 -11.37 8.1 -12 8 C-10.22 6.94 -10.22 6.94 -8 6 C-3.76 7.21 -1.68 8.32 1.44 11.44 C3.66 16.51 3.88 21.54 3 27 C1.47 28.86 1.47 28.86 0 30 C1.17 33.5 1.87 33.82 4.94 35.62 C5.65 36.05 6.36 36.48 7.09 36.91 C8.37 37.64 9.68 38.34 11 39 C12.48 17.26 12.48 17.26 7.19 10.88 C5.82 9.55 4.43 8.26 3 7 C0 3.5 0 3.5 0 0 Z " fill="#DFDDDA" transform="translate(53,303)"/>
<path d="M0 0 C0.33 0 0.66 0 1 0 C1.33 13.53 1.66 27.06 2 41 C3.32 41.66 4.64 42.32 6 43 C6.2 46.72 6.15 47.77 4 51 C4.33 51.66 4.66 52.32 5 53 C5.62 58.92 4.86 62.73 2 68 C1.31 71.88 1.31 71.88 1 75 C-0.15 75.16 -0.15 75.16 -6 76 C-6.06 76.59 -6.06 76.59 -6.38 79.56 C-6.86 83.52 -7.9 87.17 -9 91 C-9.42 93.66 -9.72 96.32 -10 99 C-11.92 95.83 -12.17 94.15 -11.31 90.56 C-11.12 89.7 -10.92 88.84 -10.71 87.95 C-10.48 86.98 -10.24 86 -10 85 C-9.46 82.63 -8.92 80.25 -8.38 77.88 C-7.92 75.92 -7.46 73.96 -7 72 C-6.34 72 -5.68 72 -5 72 C-5 72.66 -5 73.32 -5 74 C-4.34 73.84 -4.34 73.84 -1 73 C-1.06 71.89 -1.12 70.77 -1.19 69.62 C-1.16 69.03 -1.16 69.03 -1 66 C-0.5 65.67 -0.5 65.67 2 64 C2.29 60.74 2.29 60.74 2.19 56.88 C2.17 56.23 2.17 56.23 2.11 52.99 C2.07 52 2.04 51.02 2 50 C1.34 50 0.68 50 0 50 C0 49.34 0 48.68 0 48 C0.5 47.84 0.5 47.84 3 47 C3.33 46.01 3.66 45.02 4 44 C2.68 44 1.36 44 0 44 C0 29.48 0 14.96 0 0 Z " fill="#EDECEB" transform="translate(365,202)"/>
<path d="M0 0 C4.98 4.98 5.12 9.65 5.12 16.44 C5.09 18.29 5.05 20.15 5 22 C5.99 22 6.98 22 8 22 C10.1 27.13 10.22 31.56 10 37 C8.68 37 7.36 37 6 37 C5.32 34.63 4.66 32.25 4 29.88 C3.81 29.21 3.62 28.54 3.42 27.86 C2.31 23.8 1.79 20.2 2 16 C1.34 16 0.68 16 0 16 C0 10.72 0 5.44 0 0 Z " fill="#D9861B" transform="translate(168,348)"/>
<path d="M0 0 C0.99 0 1.98 0 3 0 C3.08 0.62 3.17 1.24 3.25 1.88 C3.5 2.58 3.75 3.28 4 4 C4.32 4.14 4.32 4.14 5.94 4.88 C8 6 8 6 9.31 8.69 C10.1 12.49 9.57 15.17 9 19 C8.56 30.01 9.3 41.01 10 52 C10.99 52 11.98 52 13 52 C13.66 50.02 14.32 48.04 15 46 C16 49 16 49 15.31 50.94 C14 53 14 53 11.94 54.88 C9.52 57.53 9.32 59.49 9 63 C7 61 7 61 6.77 59.02 C6.78 58.62 6.78 58.62 6.8 56.57 C6.81 55.65 6.82 54.73 6.82 53.79 C6.84 52.79 6.86 51.8 6.88 50.77 C6.88 50.26 6.88 50.26 6.9 47.67 C6.93 43.28 6.99 38.89 7.04 34.5 C7.08 31.3 7.1 28.1 7.12 24.89 C7.14 23.91 7.16 22.92 7.18 21.91 C7.26 9.44 7.26 9.44 3.38 5.25 C2.92 4.84 2.47 4.43 2 4 C2 3.01 2 2.02 2 1 C1.34 0.67 0.68 0.34 0 0 Z " fill="#EDEBEA" transform="translate(330,233)"/>
<path d="M0 0 C0.33 0 0.66 0 1 0 C1.08 0.95 1.16 1.9 1.25 2.88 C2 6 2 6 4.06 7.38 C4.7 7.58 5.34 7.79 6 8 C5.12 12.88 5.12 12.88 4 14 C3.1 21.16 3.97 26.17 7.91 32.22 C9 34 9 34 9 36 C9.72 36.21 10.44 36.41 11.19 36.62 C15.07 38.52 16.59 40.39 19 44 C18.81 46.88 18.81 46.88 18 49 C17.75 48.44 17.5 47.89 17.25 47.31 C15.47 44.03 13.64 40.7 10.1 39.19 C5.42 36.53 3.12 30.76 1 26 C0.43 23.06 0.19 20.36 0.17 17.38 C-0.02 14.79 -0.7 13.22 -2 11 C-1.01 11.16 -1.01 11.16 4 12 C4 11.01 4 10.02 4 9 C3.17 8.67 3.17 8.67 -1 7 C-0.67 4.69 -0.34 2.38 0 0 Z " fill="#E4E1DF" transform="translate(42,234)"/>
<path d="M0 0 C0.33 0 0.66 0 1 0 C3.45 12.76 5.39 25.29 5.38 38.31 C5.38 39.33 5.38 40.34 5.38 41.38 C5.26 49.06 5.26 49.06 3 53 C2.94 51.91 2.89 50.81 2.83 49.68 C2.63 45.61 2.41 41.54 2.2 37.47 C2.11 35.71 2.02 33.95 1.93 32.19 C1.8 29.65 1.67 27.12 1.54 24.58 C1.5 23.8 1.46 23.01 1.42 22.21 C1.21 18.38 0.82 14.74 0 11 C-0.07 9.06 -0.09 7.12 -0.06 5.19 C-0.05 4.21 -0.04 3.24 -0.04 2.23 C-0.02 1.49 -0.01 0.76 0 0 Z " fill="#E1DEDB" transform="translate(354,174)"/>
<path d="M0 0 C0.33 0 0.66 0 1 0 C1 2.97 1 5.94 1 9 C1.66 9 2.32 9 3 9 C3 9.66 3 10.32 3 11 C6.9 11.36 8.52 11.35 11.75 9 C12.49 8.34 13.24 7.68 14 7 C14.66 7 15.32 7 16 7 C16.29 6.03 16.58 5.06 16.88 4.06 C18 1 18 1 20 0 C19.76 4.99 18.18 7.87 14.88 11.45 C11.64 14.12 8.15 15.44 4 16 C0.94 15.19 0.94 15.19 -1 14 C-1.03 12.42 -1.05 10.83 -1.06 9.25 C-1.07 8.37 -1.09 7.49 -1.1 6.58 C-1.01 4.22 -0.67 2.26 0 0 Z " fill="#502F0F" transform="translate(164,269)"/>
<path d="M0 0 C1.32 0.33 2.64 0.66 4 1 C4 1.66 4 2.32 4 3 C4.66 3 5.32 3 6 3 C6 3.66 6 4.32 6 5 C6.66 5 7.32 5 8 5 C8.62 7.38 8.62 7.38 9 10 C6.05 12.95 3.04 13.09 -1 14 C-1.22 12.23 -1.43 10.46 -1.62 8.69 C-1.74 7.7 -1.86 6.72 -1.98 5.7 C-2 3 -2 3 0 0 Z M2 6 C2 6.66 2 7.32 2 8 C2.99 7.67 3.98 7.34 5 7 C4.01 6.67 3.02 6.34 2 6 Z " fill="#F4F3F1" transform="translate(345,324)"/>
<path d="M0 0 C0.33 1.32 0.66 2.64 1 4 C-0.32 4.33 -1.64 4.66 -3 5 C-4.26 11.74 -5.26 18.13 -5 25 C-7.18 22.82 -7.42 22 -8.07 19.09 C-8.24 18.33 -8.42 17.56 -8.6 16.78 C-8.68 16.38 -8.68 16.38 -9.12 14.38 C-9.31 13.57 -9.49 12.77 -9.68 11.95 C-10.12 9.97 -10.56 7.98 -11 6 C-4.5 2 -4.5 2 0 2 C0 1.34 0 0.68 0 0 Z " fill="#5F3A15" transform="translate(140,318)"/>
<path d="M0 0 C0.66 0 1.32 0 2 0 C2 0.66 2 1.32 2 2 C4.31 1.34 6.62 0.68 9 0 C9 0.66 9 1.32 9 2 C10.65 2 12.3 2 14 2 C14 3.98 14 5.96 14 8 C10.37 8 6.74 8 3 8 C3 6.35 3 4.7 3 3 C0 5 0 5 -0.69 7.12 C-0.79 7.74 -0.89 8.36 -1 9 C-2.65 9 -4.3 9 -6 9 C-4.68 8.67 -3.36 8.34 -2 8 C-2.02 7.53 -2.02 7.53 -2.12 5.12 C-2 2 -2 2 0 0 Z " fill="#6C3B14" transform="translate(294,261)"/>
<path d="M0 0 C3.56 1.31 5.85 2.51 8.6 5.19 C10.74 10.27 10.97 15.31 10.1 20.75 C8.57 22.61 8.57 22.61 7.1 23.75 C8.46 27.85 10.72 28.46 14.38 30.47 C14.95 30.89 15.51 31.31 16.1 31.75 C16.1 32.74 16.1 33.73 16.1 34.75 C15.64 34.44 15.64 34.44 13.35 32.88 C10.95 31.31 8.69 29.95 6.1 28.75 C6.1 28.09 6.1 27.43 6.1 26.75 C5.44 26.75 4.78 26.75 4.1 26.75 C4.64 23.38 5.15 21.67 7.1 18.75 C7.4 16.19 7.4 16.19 7.41 13.31 C7.43 12.37 7.44 11.42 7.46 10.44 C7.03 7.28 6.37 5.97 4.1 3.75 C1.84 2.92 1.84 2.92 -0.59 2.5 C-1.4 2.35 -2.21 2.2 -3.04 2.05 C-3.65 1.95 -4.27 1.85 -4.9 1.75 C-1.9 -0.25 -1.9 -0.25 0 0 Z " fill="#EAE8E7" transform="translate(45.90234375,309.25)"/>
<path d="M0 0 C-0.55 0.24 -1.1 0.48 -1.66 0.72 C-4.57 2.31 -6.9 4.3 -9.44 6.44 C-12.81 9.28 -16.05 12 -20 14 C-20.66 13.67 -21.32 13.34 -22 13 C-20.58 9.67 -18.88 7.76 -16.12 5.44 C-15.45 4.86 -14.77 4.28 -14.07 3.68 C-13.39 3.13 -12.7 2.57 -12 2 C-11.34 1.43 -10.69 0.86 -10.01 0.27 C-6.59 -1.89 -3.85 -0.71 0 0 Z " fill="#432711" transform="translate(268,156)"/>
<path d="M0 0 C0.33 0 0.66 0 1 0 C0.31 10.15 -4.89 19.39 -10 28 C-10.66 28 -11.32 28 -12 28 C-12 34.6 -12 41.2 -12 48 C-12.33 48 -12.66 48 -13 48 C-14.16 26.3 -14.16 26.3 -8.52 19.84 C-6.31 17.17 -5.62 14.29 -4.65 11 C-3.81 8.42 -2.44 6.29 -1 4 C-0.31 1.69 -0.31 1.69 0 0 Z " fill="#D5D1CF" transform="translate(390,324)"/>
<path d="M0 0 C0.33 0.99 0.66 1.98 1 3 C0.36 3.5 -0.28 3.99 -0.94 4.5 C-5.39 9.89 -4.13 18.79 -4.06 25.5 C-4.06 26.42 -4.05 27.34 -4.05 28.28 C-4.04 30.52 -4.02 32.76 -4 35 C-4.66 35 -5.32 35 -6 35 C-6.1 34.05 -6.21 33.1 -6.31 32.12 C-7 29 -7 29 -10 27 C-9.01 26.67 -8.02 26.34 -7 26 C-6.34 26.33 -5.68 26.66 -5 27 C-5.14 26.2 -5.29 25.39 -5.44 24.56 C-5.62 23.39 -5.81 22.21 -6 21 C-6.13 20.3 -6.26 19.6 -6.39 18.88 C-7.29 13.23 -6.82 9.03 -4 4 C-1.81 1.5 -1.81 1.5 0 0 Z " fill="#E4E2E0" transform="translate(329,234)"/>
<path d="M0 0 C0.33 0 0.66 0 1 0 C1.33 13.53 1.66 27.06 2 41 C3.32 41.66 4.64 42.32 6 43 C6.25 45.25 6.25 45.25 6 48 C4 50.31 4 50.31 2 52 C2 51.34 2 50.68 2 50 C1.34 50 0.68 50 0 50 C0 49.34 0 48.68 0 48 C0.5 47.84 0.5 47.84 3 47 C3.33 46.01 3.66 45.02 4 44 C2.68 44 1.36 44 0 44 C0 29.48 0 14.96 0 0 Z " fill="#BDB5AD" transform="translate(365,202)"/>
<path d="M0 0 C1.2 3.48 0.78 5.7 -0.21 9.2 C-0.49 10.18 -0.76 11.16 -1.04 12.17 C-1.34 13.19 -1.63 14.2 -1.94 15.25 C-2.23 16.28 -2.52 17.31 -2.82 18.38 C-3.54 20.92 -4.26 23.46 -5 26 C-6.98 26 -8.96 26 -11 26 C-10.67 26.99 -10.34 27.98 -10 29 C-9.34 29.33 -8.68 29.66 -8 30 C-8.33 30.66 -8.66 31.32 -9 32 C-10.65 31.01 -12.3 30.02 -14 29 C-13.67 27.35 -13.34 25.7 -13 24 C-12.09 23.9 -11.18 23.8 -10.24 23.7 C-6.42 21.7 -6.25 20.93 -4.88 16.99 C-4.27 14.96 -3.69 12.92 -3.12 10.88 C-2.82 9.83 -2.51 8.79 -2.2 7.72 C-1.44 5.15 -0.71 2.58 0 0 Z " fill="#F4F3F1" transform="translate(41,213)"/>
</svg>
